<?xml version="1.0" encoding="utf-8" standalone="no"?>
<!DOCTYPE svg PUBLIC "-//W3C//DTD SVG 1.1//EN"
  "http://www.w3.org/Graphics/SVG/1.1/DTD/svg11.dtd">
<svg height="349.12125pt" version="1.1" viewBox="0 0 543.372273 349.12125" width="543.372273pt" xmlns="http://www.w3.org/2000/svg" xmlns:xlink="http://www.w3.org/1999/xlink">
 <metadata>
  <rdf:RDF xmlns:cc="http://creativecommons.org/ns#" xmlns:dc="http://purl.org/dc/elements/1.1/" xmlns:rdf="http://www.w3.org/1999/02/22-rdf-syntax-ns#">
   <cc:Work>
    <dc:type rdf:resource="http://purl.org/dc/dcmitype/StillImage"/>
    <dc:date>2021-05-05T07:08:21.393709</dc:date>
    <dc:format>image/svg+xml</dc:format>
    <dc:creator>
     <cc:Agent>
      <dc:title>Matplotlib v3.4.1, https://matplotlib.org/</dc:title>
     </cc:Agent>
    </dc:creator>
   </cc:Work>
  </rdf:RDF>
 </metadata>
 <defs>
  <style type="text/css">*{stroke-linecap:butt;stroke-linejoin:round;}</style>
 </defs>
 <g id="figure_1">
  <g id="patch_1">
   <path d="M 0 349.12125 
L 543.372273 349.12125 
L 543.372273 0 
L 0 0 
z
" style="fill:#ffffff;"/>
  </g>
  <g id="axes_1">
   <g id="patch_2">
    <path d="M 48 323.14 
L 531.629606 323.14 
L 531.629606 7.2 
L 48 7.2 
z
" style="fill:#eaeaf2;"/>
   </g>
   <g id="matplotlib.axis_1">
    <g id="xtick_1">
     <g id="line2d_1">
      <path clip-path="url(#p3dfd189373)" d="M 56.510336 323.14 
L 56.510336 7.2 
" style="fill:none;stroke:#ffffff;stroke-linecap:round;"/>
     </g>
     <g id="text_1">
      <!-- 2002 -->
      <g style="fill:#262626;" transform="translate(45.510336 340.900312)scale(0.11 -0.11)">
       <defs>
        <path d="M 2900 325 
L 250 325 
Q 441 1553 1528 2453 
Q 1963 2806 2116 3034 
Q 2316 3319 2316 3706 
Q 2316 4022 2175 4219 
Q 1994 4494 1631 4494 
Q 894 4494 825 3406 
L 322 3406 
Q 359 4056 628 4428 
Q 981 4928 1644 4928 
Q 2106 4928 2425 4659 
Q 2828 4313 2828 3713 
Q 2828 2875 1881 2156 
Q 1072 1541 909 800 
L 2900 800 
L 2900 325 
z
" id="IPAGothic-32" transform="scale(0.015625)"/>
        <path d="M 1600 4934 
Q 2844 4934 2844 2566 
Q 2844 197 1600 197 
Q 359 197 359 2566 
Q 359 4934 1600 4934 
z
M 975 1453 
L 2119 4063 
Q 1938 4494 1594 4494 
Q 884 4494 884 2566 
Q 884 1909 975 1453 
z
M 1081 1075 
Q 1256 638 1600 638 
Q 2319 638 2319 2572 
Q 2319 3213 2228 3675 
L 1081 1075 
z
" id="IPAGothic-30" transform="scale(0.015625)"/>
       </defs>
       <use xlink:href="#IPAGothic-32"/>
       <use x="50" xlink:href="#IPAGothic-30"/>
       <use x="100" xlink:href="#IPAGothic-30"/>
       <use x="150" xlink:href="#IPAGothic-32"/>
      </g>
     </g>
    </g>
    <g id="xtick_2">
     <g id="line2d_2">
      <path clip-path="url(#p3dfd189373)" d="M 103.344452 323.14 
L 103.344452 7.2 
" style="fill:none;stroke:#ffffff;stroke-linecap:round;"/>
     </g>
     <g id="text_2">
      <!-- 2004 -->
      <g style="fill:#262626;" transform="translate(92.344452 340.900312)scale(0.11 -0.11)">
       <defs>
        <path d="M 1966 4806 
L 2509 4806 
L 2509 1869 
L 3041 1869 
L 3041 1434 
L 2509 1434 
L 2509 325 
L 2034 325 
L 2034 1434 
L 159 1434 
L 159 1881 
L 1966 4806 
z
M 2034 4109 
L 641 1869 
L 2034 1869 
L 2034 4109 
z
" id="IPAGothic-34" transform="scale(0.015625)"/>
       </defs>
       <use xlink:href="#IPAGothic-32"/>
       <use x="50" xlink:href="#IPAGothic-30"/>
       <use x="100" xlink:href="#IPAGothic-30"/>
       <use x="150" xlink:href="#IPAGothic-34"/>
      </g>
     </g>
    </g>
    <g id="xtick_3">
     <g id="line2d_3">
      <path clip-path="url(#p3dfd189373)" d="M 150.242723 323.14 
L 150.242723 7.2 
" style="fill:none;stroke:#ffffff;stroke-linecap:round;"/>
     </g>
     <g id="text_3">
      <!-- 2006 -->
      <g style="fill:#262626;" transform="translate(139.242723 340.900312)scale(0.11 -0.11)">
       <defs>
        <path d="M 2322 3809 
Q 2225 4488 1713 4488 
Q 1269 4488 1028 3950 
Q 803 3447 794 2588 
Q 1159 3119 1725 3119 
Q 2194 3119 2519 2772 
Q 2903 2369 2903 1709 
Q 2903 1159 2641 750 
Q 2284 200 1638 200 
Q 1050 200 697 738 
Q 319 1328 319 2375 
Q 319 3488 650 4172 
Q 1028 4934 1706 4934 
Q 2634 4934 2847 3809 
L 2322 3809 
z
M 1644 2703 
Q 1272 2703 1047 2363 
Q 875 2094 875 1691 
Q 875 1328 997 1075 
Q 1209 641 1650 641 
Q 2003 641 2219 959 
Q 2409 1241 2409 1697 
Q 2409 2113 2244 2375 
Q 2041 2703 1644 2703 
z
" id="IPAGothic-36" transform="scale(0.015625)"/>
       </defs>
       <use xlink:href="#IPAGothic-32"/>
       <use x="50" xlink:href="#IPAGothic-30"/>
       <use x="100" xlink:href="#IPAGothic-30"/>
       <use x="150" xlink:href="#IPAGothic-36"/>
      </g>
     </g>
    </g>
    <g id="xtick_4">
     <g id="line2d_4">
      <path clip-path="url(#p3dfd189373)" d="M 197.076839 323.14 
L 197.076839 7.2 
" style="fill:none;stroke:#ffffff;stroke-linecap:round;"/>
     </g>
     <g id="text_4">
      <!-- 2008 -->
      <g style="fill:#262626;" transform="translate(186.076839 340.900312)scale(0.11 -0.11)">
       <defs>
        <path d="M 1050 2741 
Q 403 3056 403 3750 
Q 403 4084 563 4359 
Q 900 4934 1600 4934 
Q 1950 4934 2253 4750 
Q 2797 4416 2797 3750 
Q 2797 3056 2150 2741 
Q 2978 2422 2978 1541 
Q 2978 1038 2697 678 
Q 2322 197 1600 197 
Q 988 197 616 550 
Q 225 922 225 1541 
Q 225 2422 1050 2741 
z
M 1600 4525 
Q 1278 4525 1075 4294 
Q 891 4078 891 3756 
Q 891 3544 969 3372 
Q 1159 2956 1606 2956 
Q 1863 2956 2041 3116 
Q 2309 3347 2309 3756 
Q 2309 4156 2041 4378 
Q 1856 4525 1600 4525 
z
M 1594 2497 
Q 1178 2497 931 2191 
Q 725 1925 725 1541 
Q 725 1172 925 925 
Q 1172 619 1600 619 
Q 2031 619 2281 925 
Q 2478 1172 2478 1541 
Q 2478 2022 2184 2278 
Q 1947 2497 1594 2497 
z
" id="IPAGothic-38" transform="scale(0.015625)"/>
       </defs>
       <use xlink:href="#IPAGothic-32"/>
       <use x="50" xlink:href="#IPAGothic-30"/>
       <use x="100" xlink:href="#IPAGothic-30"/>
       <use x="150" xlink:href="#IPAGothic-38"/>
      </g>
     </g>
    </g>
    <g id="xtick_5">
     <g id="line2d_5">
      <path clip-path="url(#p3dfd189373)" d="M 243.975111 323.14 
L 243.975111 7.2 
" style="fill:none;stroke:#ffffff;stroke-linecap:round;"/>
     </g>
     <g id="text_5">
      <!-- 2010 -->
      <g style="fill:#262626;" transform="translate(232.975111 340.900312)scale(0.11 -0.11)">
       <defs>
        <path d="M 1428 325 
L 1428 4153 
Q 1188 3991 756 3809 
L 756 4325 
Q 1256 4509 1563 4806 
L 1953 4806 
L 1953 325 
L 1428 325 
z
" id="IPAGothic-31" transform="scale(0.015625)"/>
       </defs>
       <use xlink:href="#IPAGothic-32"/>
       <use x="50" xlink:href="#IPAGothic-30"/>
       <use x="100" xlink:href="#IPAGothic-31"/>
       <use x="150" xlink:href="#IPAGothic-30"/>
      </g>
     </g>
    </g>
    <g id="xtick_6">
     <g id="line2d_6">
      <path clip-path="url(#p3dfd189373)" d="M 290.809226 323.14 
L 290.809226 7.2 
" style="fill:none;stroke:#ffffff;stroke-linecap:round;"/>
     </g>
     <g id="text_6">
      <!-- 2012 -->
      <g style="fill:#262626;" transform="translate(279.809226 340.900312)scale(0.11 -0.11)">
       <use xlink:href="#IPAGothic-32"/>
       <use x="50" xlink:href="#IPAGothic-30"/>
       <use x="100" xlink:href="#IPAGothic-31"/>
       <use x="150" xlink:href="#IPAGothic-32"/>
      </g>
     </g>
    </g>
    <g id="xtick_7">
     <g id="line2d_7">
      <path clip-path="url(#p3dfd189373)" d="M 337.707498 323.14 
L 337.707498 7.2 
" style="fill:none;stroke:#ffffff;stroke-linecap:round;"/>
     </g>
     <g id="text_7">
      <!-- 2014 -->
      <g style="fill:#262626;" transform="translate(326.707498 340.900312)scale(0.11 -0.11)">
       <use xlink:href="#IPAGothic-32"/>
       <use x="50" xlink:href="#IPAGothic-30"/>
       <use x="100" xlink:href="#IPAGothic-31"/>
       <use x="150" xlink:href="#IPAGothic-34"/>
      </g>
     </g>
    </g>
    <g id="xtick_8">
     <g id="line2d_8">
      <path clip-path="url(#p3dfd189373)" d="M 384.541613 323.14 
L 384.541613 7.2 
" style="fill:none;stroke:#ffffff;stroke-linecap:round;"/>
     </g>
     <g id="text_8">
      <!-- 2016 -->
      <g style="fill:#262626;" transform="translate(373.541613 340.900312)scale(0.11 -0.11)">
       <use xlink:href="#IPAGothic-32"/>
       <use x="50" xlink:href="#IPAGothic-30"/>
       <use x="100" xlink:href="#IPAGothic-31"/>
       <use x="150" xlink:href="#IPAGothic-36"/>
      </g>
     </g>
    </g>
    <g id="xtick_9">
     <g id="line2d_9">
      <path clip-path="url(#p3dfd189373)" d="M 431.439885 323.14 
L 431.439885 7.2 
" style="fill:none;stroke:#ffffff;stroke-linecap:round;"/>
     </g>
     <g id="text_9">
      <!-- 2018 -->
      <g style="fill:#262626;" transform="translate(420.439885 340.900312)scale(0.11 -0.11)">
       <use xlink:href="#IPAGothic-32"/>
       <use x="50" xlink:href="#IPAGothic-30"/>
       <use x="100" xlink:href="#IPAGothic-31"/>
       <use x="150" xlink:href="#IPAGothic-38"/>
      </g>
     </g>
    </g>
    <g id="xtick_10">
     <g id="line2d_10">
      <path clip-path="url(#p3dfd189373)" d="M 478.274001 323.14 
L 478.274001 7.2 
" style="fill:none;stroke:#ffffff;stroke-linecap:round;"/>
     </g>
     <g id="text_10">
      <!-- 2020 -->
      <g style="fill:#262626;" transform="translate(467.274001 340.900312)scale(0.11 -0.11)">
       <use xlink:href="#IPAGothic-32"/>
       <use x="50" xlink:href="#IPAGothic-30"/>
       <use x="100" xlink:href="#IPAGothic-32"/>
       <use x="150" xlink:href="#IPAGothic-30"/>
      </g>
     </g>
    </g>
    <g id="xtick_11">
     <g id="line2d_11">
      <path clip-path="url(#p3dfd189373)" d="M 525.172273 323.14 
L 525.172273 7.2 
" style="fill:none;stroke:#ffffff;stroke-linecap:round;"/>
     </g>
     <g id="text_11">
      <!-- 2022 -->
      <g style="fill:#262626;" transform="translate(514.172273 340.900312)scale(0.11 -0.11)">
       <use xlink:href="#IPAGothic-32"/>
       <use x="50" xlink:href="#IPAGothic-30"/>
       <use x="100" xlink:href="#IPAGothic-32"/>
       <use x="150" xlink:href="#IPAGothic-32"/>
      </g>
     </g>
    </g>
   </g>
   <g id="matplotlib.axis_2">
    <g id="ytick_1">
     <g id="line2d_12">
      <path clip-path="url(#p3dfd189373)" d="M 48 306.030758 
L 531.629606 306.030758 
" style="fill:none;stroke:#ffffff;stroke-linecap:round;"/>
     </g>
     <g id="text_12">
      <!-- 1.0 -->
      <g style="fill:#262626;" transform="translate(22 310.160915)scale(0.11 -0.11)">
       <defs>
        <path d="M 588 831 
L 1444 831 
L 1444 -25 
L 588 -25 
L 588 831 
z
" id="IPAGothic-2e" transform="scale(0.015625)"/>
       </defs>
       <use xlink:href="#IPAGothic-31"/>
       <use x="50" xlink:href="#IPAGothic-2e"/>
       <use x="100" xlink:href="#IPAGothic-30"/>
      </g>
     </g>
    </g>
    <g id="ytick_2">
     <g id="line2d_13">
      <path clip-path="url(#p3dfd189373)" d="M 48 254.526087 
L 531.629606 254.526087 
" style="fill:none;stroke:#ffffff;stroke-linecap:round;"/>
     </g>
     <g id="text_13">
      <!-- 1.2 -->
      <g style="fill:#262626;" transform="translate(22 258.656243)scale(0.11 -0.11)">
       <use xlink:href="#IPAGothic-31"/>
       <use x="50" xlink:href="#IPAGothic-2e"/>
       <use x="100" xlink:href="#IPAGothic-32"/>
      </g>
     </g>
    </g>
    <g id="ytick_3">
     <g id="line2d_14">
      <path clip-path="url(#p3dfd189373)" d="M 48 203.021415 
L 531.629606 203.021415 
" style="fill:none;stroke:#ffffff;stroke-linecap:round;"/>
     </g>
     <g id="text_14">
      <!-- 1.4 -->
      <g style="fill:#262626;" transform="translate(22 207.151571)scale(0.11 -0.11)">
       <use xlink:href="#IPAGothic-31"/>
       <use x="50" xlink:href="#IPAGothic-2e"/>
       <use x="100" xlink:href="#IPAGothic-34"/>
      </g>
     </g>
    </g>
    <g id="ytick_4">
     <g id="line2d_15">
      <path clip-path="url(#p3dfd189373)" d="M 48 151.516743 
L 531.629606 151.516743 
" style="fill:none;stroke:#ffffff;stroke-linecap:round;"/>
     </g>
     <g id="text_15">
      <!-- 1.6 -->
      <g style="fill:#262626;" transform="translate(22 155.6469)scale(0.11 -0.11)">
       <use xlink:href="#IPAGothic-31"/>
       <use x="50" xlink:href="#IPAGothic-2e"/>
       <use x="100" xlink:href="#IPAGothic-36"/>
      </g>
     </g>
    </g>
    <g id="ytick_5">
     <g id="line2d_16">
      <path clip-path="url(#p3dfd189373)" d="M 48 100.012072 
L 531.629606 100.012072 
" style="fill:none;stroke:#ffffff;stroke-linecap:round;"/>
     </g>
     <g id="text_16">
      <!-- 1.8 -->
      <g style="fill:#262626;" transform="translate(22 104.142228)scale(0.11 -0.11)">
       <use xlink:href="#IPAGothic-31"/>
       <use x="50" xlink:href="#IPAGothic-2e"/>
       <use x="100" xlink:href="#IPAGothic-38"/>
      </g>
     </g>
    </g>
    <g id="ytick_6">
     <g id="line2d_17">
      <path clip-path="url(#p3dfd189373)" d="M 48 48.5074 
L 531.629606 48.5074 
" style="fill:none;stroke:#ffffff;stroke-linecap:round;"/>
     </g>
     <g id="text_17">
      <!-- 2.0 -->
      <g style="fill:#262626;" transform="translate(22 52.637556)scale(0.11 -0.11)">
       <use xlink:href="#IPAGothic-32"/>
       <use x="50" xlink:href="#IPAGothic-2e"/>
       <use x="100" xlink:href="#IPAGothic-30"/>
      </g>
     </g>
    </g>
    <g id="text_18">
     <!-- 倍率 -->
     <g style="fill:#262626;" transform="translate(16.88625 177.17)rotate(-90)scale(0.12 -0.12)">
      <defs>
       <path d="M 1572 3784 
L 1572 -447 
L 1119 -447 
L 1119 2825 
Q 863 2369 550 1947 
L 300 2338 
Q 1184 3566 1572 5263 
L 2013 5134 
Q 1816 4394 1572 3784 
z
M 4128 4409 
L 5766 4409 
L 5766 4025 
L 5178 4025 
L 5166 3988 
Q 4991 3394 4756 2881 
L 6053 2881 
L 6053 2497 
L 1869 2497 
L 1869 2881 
L 3072 2881 
Q 2903 3528 2669 4025 
L 2144 4025 
L 2144 4409 
L 3681 4409 
L 3681 5313 
L 4128 5313 
L 4128 4409 
z
M 3156 4025 
Q 3363 3553 3559 2881 
L 4281 2881 
Q 4506 3381 4684 4025 
L 3156 4025 
z
M 5425 1863 
L 5425 -422 
L 4978 -422 
L 4978 -103 
L 2903 -103 
L 2903 -447 
L 2450 -447 
L 2450 1863 
L 5425 1863 
z
M 2903 1478 
L 2903 281 
L 4978 281 
L 4978 1478 
L 2903 1478 
z
" id="IPAGothic-500d" transform="scale(0.015625)"/>
       <path d="M 3022 2847 
Q 3334 3231 3681 3744 
L 4053 3525 
Q 3503 2766 2919 2181 
L 3266 2200 
Q 3575 2209 3822 2234 
Q 3728 2406 3572 2616 
L 3909 2772 
Q 4241 2350 4538 1766 
L 4153 1547 
Q 4078 1756 3994 1913 
L 3853 1894 
Q 3706 1875 3413 1850 
L 3413 1228 
L 6078 1228 
L 6078 819 
L 3413 819 
L 3413 -447 
L 2938 -447 
L 2938 819 
L 319 819 
L 319 1228 
L 2938 1228 
L 2938 1803 
L 2881 1797 
Q 2303 1759 2028 1747 
L 1900 2163 
Q 2316 2163 2413 2169 
Q 2519 2269 2772 2553 
Q 2344 3028 1913 3347 
L 2181 3653 
L 2444 3425 
Q 2681 3744 2869 4128 
L 544 4128 
L 544 4525 
L 2938 4525 
L 2938 5313 
L 3413 5313 
L 3413 4525 
L 5847 4525 
L 5847 4128 
L 2969 4128 
L 3278 3981 
Q 2988 3509 2694 3188 
Q 2850 3041 3022 2847 
z
M 1497 2822 
Q 1125 3263 691 3566 
L 997 3847 
Q 1406 3588 1828 3156 
L 1497 2822 
z
M 4216 3078 
Q 4791 3478 5144 3897 
L 5534 3616 
Q 5075 3178 4491 2803 
L 4216 3078 
z
M 5553 1631 
Q 4994 2109 4369 2444 
L 4659 2741 
Q 5353 2381 5894 1984 
L 5553 1631 
z
M 538 1925 
Q 1306 2297 1881 2803 
L 2072 2456 
Q 1619 2034 813 1528 
L 538 1925 
z
" id="IPAGothic-7387" transform="scale(0.015625)"/>
      </defs>
      <use xlink:href="#IPAGothic-500d"/>
      <use x="100" xlink:href="#IPAGothic-7387"/>
     </g>
    </g>
   </g>
   <g id="line2d_18">
    <path clip-path="url(#p3dfd189373)" d="M 69.983164 306.030758 
L 70.175633 298.670234 
L 70.368102 297.501388 
L 70.432258 299.775887 
L 70.496415 299.144092 
L 70.560571 299.144092 
L 70.624727 295.416447 
L 70.817196 293.773743 
L 70.945509 289.414303 
L 71.073821 294.847822 
L 71.26629 294.02647 
L 71.330447 291.02541 
L 71.394603 292.478557 
L 71.458759 294.847822 
L 71.522916 292.194232 
L 71.715385 291.941505 
L 71.779541 293.647379 
L 72.228635 285.43393 
L 72.292792 285.497124 
L 72.356948 283.980783 
L 72.421104 287.266168 
L 72.613573 287.676832 
L 72.677729 286.350049 
L 72.741886 287.803195 
L 72.870198 283.096261 
L 73.062667 282.622403 
L 73.255136 280.126774 
L 73.319293 281.453557 
L 73.575918 277.094117 
L 73.704231 281.232426 
L 73.768387 279.115888 
L 73.960856 277.978639 
L 74.025012 282.590806 
L 74.089169 280.979723 
L 74.153325 281.674687 
L 74.217481 280.790165 
L 74.474107 280.221541 
L 74.538263 278.768394 
L 74.666575 284.359874 
L 74.859044 284.770538 
L 75.051513 294.563498 
L 75.11567 293.868509 
L 75.372295 297.24866 
L 75.436451 297.153894 
L 75.564764 293.836936 
L 75.757233 294.216003 
L 75.949702 289.572239 
L 76.013858 291.941505 
L 76.270484 294.184431 
L 76.33464 293.110351 
L 76.462953 284.170317 
L 76.655421 282.654 
L 76.84789 289.477472 
L 76.912047 288.37182 
L 77.168672 286.128918 
L 77.361141 291.751971 
L 77.55361 292.257426 
L 77.617766 288.845678 
L 77.681923 295.037356 
L 77.810235 293.299885 
L 78.002704 294.279197 
L 78.066861 293.900106 
L 78.25933 291.341307 
L 78.515955 289.098405 
L 78.580111 287.266168 
L 78.644267 287.518895 
L 78.708424 290.204058 
L 78.965049 292.257426 
L 79.157518 287.518895 
L 79.349987 287.455701 
L 79.606612 282.306506 
L 79.799081 281.643115 
L 79.99155 290.993813 
L 80.055707 290.361994 
L 80.248176 291.08858 
L 80.376488 288.750911 
L 80.440645 294.02647 
L 80.504801 293.331482 
L 80.69727 292.889221 
L 80.953895 288.877275 
L 81.21052 287.297765 
L 81.274677 285.939385 
L 81.338833 287.297765 
L 81.402989 285.65506 
L 81.659615 286.665946 
L 81.723771 288.182286 
L 81.852084 285.37076 
L 82.044553 285.939385 
L 82.108709 284.707368 
L 82.172865 287.108207 
L 82.301178 284.233511 
L 82.557803 286.255282 
L 82.686116 283.759653 
L 82.750272 286.160515 
L 83.006897 285.813021 
L 83.13521 282.969897 
L 83.199366 284.612578 
L 83.391835 283.285795 
L 83.648461 277.757508 
L 83.84093 278.484094 
L 83.905086 278.294536 
L 83.969242 277.346844 
L 84.033399 278.452497 
L 84.290024 275.988465 
L 84.35418 276.493895 
L 84.418337 275.451437 
L 84.482493 280.758593 
L 84.546649 279.368616 
L 84.803274 285.43393 
L 84.995743 291.720374 
L 85.188212 287.424104 
L 85.252369 287.740025 
L 85.444838 286.350049 
L 85.637307 282.71717 
L 85.893932 288.561354 
L 86.086401 289.193172 
L 86.214714 286.160515 
L 86.343026 287.897962 
L 86.535495 288.656144 
L 86.727964 285.59189 
L 87.048746 286.350049 
L 87.112902 285.781424 
L 87.241215 282.654 
L 87.433684 283.096261 
L 87.49784 283.570119 
L 87.561996 280.979723 
L 87.626153 282.338103 
L 87.690309 284.549408 
L 87.882778 283.064664 
L 88.331872 275.609373 
L 88.396029 274.977579 
L 88.588497 267.490691 
L 88.780966 268.501577 
L 88.973435 261.520144 
L 89.037592 260.761986 
L 89.358373 266.732533 
L 89.42253 264.142137 
L 89.486686 264.710762 
L 89.679155 268.154083 
L 89.807468 264.900295 
L 89.871624 267.237964 
L 89.93578 266.163908 
L 90.128249 264.173734 
L 90.320718 258.613851 
L 90.384875 256.560482 
L 90.6415 261.867638 
L 90.833969 267.395924 
L 91.026438 265.62688 
L 91.090594 262.878524 
L 91.283063 272.70308 
L 91.475532 271.3447 
L 91.668001 277.346844 
L 91.924626 279.179082 
L 91.988783 278.926355 
L 92.181252 276.746623 
L 92.373721 280.032007 
L 92.437877 286.665946 
L 92.502033 285.086436 
L 92.630346 286.508009 
L 92.822815 292.38379 
L 92.886971 291.056983 
L 92.951127 290.140864 
L 93.07944 293.268312 
L 93.271909 296.901166 
L 93.336065 300.534045 
L 93.400222 297.564582 
L 93.528534 302.90331 
L 93.721003 300.660409 
L 93.78516 304.419651 
L 93.913472 298.196376 
L 93.977629 299.270432 
L 94.170098 300.597239 
L 94.234254 301.829255 
L 94.29841 306.883683 
L 94.362567 304.356457 
L 94.426723 304.514418 
L 94.619192 303.313999 
L 94.683348 299.302029 
L 94.747504 300.723603 
L 94.811661 301.355397 
L 94.875817 300.186551 
L 95.068286 302.239919 
L 95.260755 298.670234 
L 95.324911 299.302029 
L 95.581537 304.324884 
L 95.645693 303.914196 
L 95.709849 302.461049 
L 95.774006 297.975246 
L 95.966475 300.723603 
L 96.2231 296.048241 
L 96.415569 296.458905 
L 96.479725 296.869593 
L 96.608038 293.363078 
L 96.672194 293.047181 
L 96.864663 295.195316 
L 97.121288 287.202974 
L 97.313757 289.414303 
L 97.377914 284.865305 
L 97.44207 287.076634 
L 97.506226 288.340223 
L 97.570383 294.121237 
L 97.762852 292.95239 
L 97.955321 298.038416 
L 98.019477 296.458905 
L 98.211946 297.501388 
L 98.404415 301.671294 
L 98.468571 299.649523 
L 98.66104 298.765001 
L 98.917665 294.184431 
L 99.110134 294.721458 
L 99.174291 293.299885 
L 99.302603 296.932763 
L 99.36676 294.437134 
L 99.559229 296.8064 
L 99.623385 295.290083 
L 99.815854 299.775887 
L 100.072479 299.96542 
L 100.457417 291.720374 
L 100.521573 290.046097 
L 100.58573 293.078754 
L 100.714042 290.298825 
L 100.906511 292.541726 
L 100.970668 291.056983 
L 101.355606 297.438218 
L 101.419762 296.300969 
L 101.483918 297.375024 
L 101.548075 296.774827 
L 101.612231 292.510129 
L 101.8047 294.405561 
L 101.868856 296.300969 
L 101.933013 295.858708 
L 102.061325 293.426248 
L 102.253794 293.584209 
L 102.382107 290.867449 
L 102.446263 288.403417 
L 102.510419 288.498184 
L 102.702888 289.256342 
L 102.767045 292.352193 
L 102.959514 288.782484 
L 103.280295 293.615806 
L 103.408608 296.8064 
L 103.601077 297.501388 
L 103.857702 288.877275 
L 104.050171 289.098405 
L 104.24264 284.833708 
L 104.306796 286.79231 
L 104.563422 286.855504 
L 104.627578 286.192088 
L 104.691734 284.170317 
L 104.755891 287.518895 
L 104.94836 289.193172 
L 105.012516 287.487298 
L 105.140829 290.488358 
L 105.204985 288.59295 
L 105.397454 290.298825 
L 105.46161 288.908848 
L 105.525767 289.4459 
L 105.589923 290.519955 
L 105.654079 287.518895 
L 105.846548 286.697543 
L 105.910705 288.245456 
L 105.974861 286.192088 
L 106.039017 287.360934 
L 106.103174 286.192088 
L 106.359799 286.381646 
L 106.488111 285.718254 
L 106.552268 287.645259 
L 106.873049 284.991669 
L 106.937206 285.876191 
L 107.001362 283.475328 
L 107.193831 284.707368 
L 107.322144 286.981843 
L 107.3863 285.749827 
L 107.450456 280.379501 
L 107.642925 278.705224 
L 107.707082 276.809817 
L 107.771238 276.99935 
L 107.835394 276.588686 
L 107.899551 278.35773 
L 108.09202 277.883872 
L 108.156176 275.514607 
L 108.220332 275.988465 
L 108.348645 277.883872 
L 108.60527 275.64097 
L 108.669426 275.798931 
L 108.733583 276.904583 
L 108.797739 279.93724 
L 109.054364 282.022182 
L 109.118521 280.663802 
L 109.182677 282.685573 
L 109.246833 289.635433 
L 109.439302 291.783568 
L 109.503459 290.298825 
L 109.567615 290.930619 
L 109.631771 291.720374 
L 109.888397 292.699687 
L 110.080866 297.438218 
L 110.145022 296.427332 
L 110.337491 296.995957 
L 110.401647 299.428392 
L 110.465803 298.133207 
L 110.52996 296.553696 
L 110.594116 298.070013 
L 110.786585 297.627752 
L 110.850741 296.616866 
L 110.979054 300.407681 
L 111.04321 299.333626 
L 111.235679 300.028614 
L 111.492305 306.662553 
L 111.684774 307.262774 
L 111.74893 306.093928 
L 111.877243 308.779091 
L 111.941399 306.69415 
L 112.133868 304.419651 
L 112.26218 306.283462 
L 112.326337 304.293287 
L 112.390493 305.33577 
L 112.647118 303.75626 
L 112.775431 300.312914 
L 112.839587 301.0395 
L 113.160369 305.114639 
L 113.224525 304.577588 
L 113.288682 306.093928 
L 113.481151 306.030758 
L 113.545307 305.5569 
L 113.609463 306.662553 
L 113.67362 306.157098 
L 113.930245 308.210466 
L 113.994401 302.808544 
L 114.058558 303.819429 
L 114.122714 302.113555 
L 114.18687 302.68218 
L 114.379339 302.492646 
L 114.443495 303.282402 
L 114.507652 302.776947 
L 114.635964 300.944733 
L 114.828433 303.629896 
L 115.085059 297.090724 
L 115.341684 297.532985 
L 115.40584 297.438218 
L 115.726622 296.616866 
L 115.790778 297.406621 
L 115.854935 297.311854 
L 115.919091 297.02753 
L 115.983247 293.489442 
L 116.175716 293.299885 
L 116.304029 296.458905 
L 116.432341 295.195316 
L 116.62481 296.458905 
L 116.688967 300.060187 
L 116.753123 300.028614 
L 116.817279 299.428392 
L 116.881436 296.332566 
L 117.073905 297.02753 
L 117.266374 295.068953 
L 117.33053 290.551552 
L 117.522999 291.499244 
L 117.587155 292.478557 
L 117.779624 289.856564 
L 117.972093 290.804279 
L 118.03625 289.256342 
L 118.100406 290.583125 
L 118.164562 289.919733 
L 118.228718 290.172461 
L 118.421187 291.751971 
L 118.485344 291.594035 
L 118.613656 289.098405 
L 118.677813 289.287939 
L 118.870282 287.992729 
L 118.934438 286.286879 
L 118.998594 287.108207 
L 119.062751 289.824967 
L 119.126907 289.79337 
L 119.383532 290.077694 
L 119.447689 287.771598 
L 119.511845 288.814081 
L 119.832627 286.918673 
L 119.896783 287.550468 
L 119.960939 284.423044 
L 120.025096 285.813021 
L 120.281721 283.159431 
L 120.345877 280.253138 
L 120.410033 281.390387 
L 120.666659 279.810877 
L 120.859128 284.770538 
L 120.923284 287.297765 
L 121.179909 286.887076 
L 121.308222 289.351109 
L 121.372378 285.718254 
L 121.564847 285.43393 
L 121.757316 282.464443 
L 121.821473 283.443755 
L 122.013942 283.317392 
L 122.270567 279.810877 
L 122.463036 279.589746 
L 122.527192 280.442671 
L 122.591348 283.222625 
L 122.655505 282.306506 
L 122.719661 281.011296 
L 122.91213 283.917613 
L 122.976286 283.506925 
L 123.104599 283.096261 
L 123.168755 286.160515 
L 123.489537 288.340223 
L 123.553693 288.940445 
L 123.61785 285.970957 
L 123.874475 285.718254 
L 124.002788 282.49604 
L 124.066944 284.738941 
L 124.387725 282.9383 
L 124.900976 291.562438 
L 124.965132 287.329337 
L 125.221758 286.034151 
L 125.285914 281.706284 
L 125.35007 283.570119 
L 125.414227 282.875131 
L 125.606696 282.274909 
L 125.735008 278.610458 
L 125.863321 283.191028 
L 126.05579 282.685573 
L 126.119946 281.832648 
L 126.504884 285.876191 
L 126.633197 286.381646 
L 126.761509 283.822822 
L 126.953978 283.222625 
L 127.018135 286.160515 
L 127.082291 284.675772 
L 127.146447 284.486238 
L 127.210604 283.854419 
L 127.403073 283.412158 
L 127.595542 278.673627 
L 127.659698 278.705224 
L 127.916323 277.757508 
L 128.108792 276.051634 
L 128.301261 274.819618 
L 128.365417 277.536378 
L 128.429574 276.99935 
L 128.49373 277.536378 
L 128.557886 274.661682 
L 128.750355 273.84033 
L 128.814512 275.388243 
L 128.878668 274.724851 
L 128.942824 274.882812 
L 129.006981 270.870842 
L 129.327762 266.227078 
L 129.456075 270.428581 
L 129.648544 269.512462 
L 129.905169 276.525492 
L 130.161794 277.789105 
L 130.354263 276.083231 
L 130.739201 280.695399 
L 130.803358 277.631145 
L 130.995827 276.493895 
L 131.252452 284.201914 
L 131.444921 282.527636 
L 131.509077 284.29668 
L 131.63739 281.674687 
L 131.701546 283.443755 
L 131.894015 284.233511 
L 131.958172 286.602776 
L 132.022328 285.275993 
L 132.086484 284.707368 
L 132.343109 286.413218 
L 132.535578 281.35879 
L 132.599735 281.453557 
L 132.792204 281.516751 
L 132.85636 282.243312 
L 132.920516 281.264023 
L 132.984673 283.538522 
L 133.048829 282.559233 
L 133.241298 281.042893 
L 133.305454 278.4209 
L 133.369611 279.115888 
L 133.433767 279.558149 
L 133.497923 275.798931 
L 133.690392 276.020062 
L 133.754549 273.240108 
L 133.818705 273.966693 
L 133.882861 276.99935 
L 133.947018 274.598488 
L 134.139486 273.745563 
L 134.203643 274.187824 
L 134.331955 271.028803 
L 134.396112 271.534234 
L 134.588581 272.63991 
L 134.652737 271.850155 
L 134.845206 275.893698 
L 135.037675 275.609373 
L 135.2943 270.396984 
L 135.486769 270.744479 
L 136.00002 265.247789 
L 136.128332 267.427521 
L 136.192489 267.111624 
L 136.449114 263.447148 
L 136.577427 260.161764 
L 136.641583 262.657393 
L 136.834052 261.077883 
L 136.898208 258.67702 
L 136.962365 260.130167 
L 137.026521 260.382895 
L 137.090677 263.794643 
L 137.283146 265.595284 
L 137.347303 267.553885 
L 137.411459 267.016833 
L 137.475615 265.532114 
L 137.539772 265.563687 
L 137.732241 266.069141 
L 137.988866 259.056112 
L 138.181335 258.234759 
L 138.309647 260.793583 
L 138.373804 258.076823 
L 138.43796 262.815354 
L 138.694585 265.658453 
L 138.822898 263.383979 
L 138.887054 264.615995 
L 139.079523 264.615995 
L 139.271992 267.490691 
L 139.336149 266.700936 
L 139.528618 268.912265 
L 139.65693 266.258675 
L 139.721087 270.302218 
L 139.785243 268.027719 
L 139.977712 269.101798 
L 140.041868 268.627941 
L 140.106024 269.101798 
L 140.170181 266.479805 
L 140.234337 269.417696 
L 140.490962 272.545119 
L 140.555119 271.12357 
L 140.619275 271.723791 
L 140.683431 273.998266 
L 140.8759 274.535318 
L 141.132526 268.785901 
L 141.324995 269.544059 
L 141.389151 267.490691 
L 141.453307 269.449293 
L 141.517464 267.269561 
L 141.58162 267.301158 
L 141.774089 267.617055 
L 141.966558 265.026659 
L 142.030714 265.121426 
L 142.223183 264.742359 
L 142.351496 260.319725 
L 142.415652 263.194421 
L 142.479808 262.941694 
L 142.736434 265.058256 
L 142.80059 267.869782 
L 142.864746 267.553885 
L 142.928903 266.606169 
L 143.121372 268.659537 
L 143.185528 267.111624 
L 143.313841 270.681309 
L 143.377997 272.608313 
L 143.570466 271.976495 
L 143.634622 271.218337 
L 143.698779 268.501577 
L 143.762935 268.785901 
L 143.827091 270.997206 
L 144.01956 272.323989 
L 144.083716 271.913325 
L 144.147873 269.954723 
L 144.212029 271.28153 
L 144.468654 275.70414 
L 144.532811 274.756448 
L 144.596967 273.492835 
L 144.661123 274.598488 
L 144.72528 273.429665 
L 144.917749 273.619199 
L 144.981905 274.219421 
L 145.174374 278.515667 
L 145.366843 278.578861 
L 145.559312 277.378441 
L 145.623468 274.724851 
L 145.815937 276.967753 
L 145.94425 281.516751 
L 146.008406 280.505865 
L 146.072562 280.474268 
L 146.265031 279.93724 
L 146.521657 285.181202 
L 146.714126 284.233511 
L 146.778282 281.516751 
L 146.842438 284.423044 
L 146.970751 280.853359 
L 147.16322 282.969897 
L 147.355689 277.473208 
L 147.419845 278.799991 
L 147.676471 277.567975 
L 147.740627 278.673627 
L 148.061408 276.209595 
L 148.253877 280.916529 
L 148.318034 280.821762 
L 148.510503 282.085375 
L 148.574659 279.210655 
L 148.638815 280.284735 
L 148.702972 278.452497 
L 148.767128 280.695399 
L 148.959597 281.232426 
L 149.023753 280.189968 
L 149.08791 277.283651 
L 149.152066 277.978639 
L 149.216222 277.030947 
L 149.408691 276.746623 
L 149.537004 277.599572 
L 149.665317 273.556005 
L 149.921942 271.18674 
L 149.986098 273.208511 
L 150.050254 272.576716 
L 150.114411 273.240108 
L 150.371036 273.619199 
L 150.435192 272.924211 
L 150.499349 273.271705 
L 150.563505 273.808733 
L 150.755974 273.619199 
L 150.884287 276.430726 
L 151.012599 272.829444 
L 151.269225 271.534234 
L 151.333381 271.629001 
L 151.397537 272.48195 
L 151.461694 271.723791 
L 151.654163 271.818558 
L 151.910788 277.631145 
L 152.103257 277.915469 
L 152.167413 277.125714 
L 152.231569 279.115888 
L 152.295726 278.578861 
L 152.359882 276.557089 
L 152.552351 275.988465 
L 152.680664 278.010236 
L 152.74482 276.715026 
L 152.808976 278.294536 
L 153.001445 278.262963 
L 153.065602 279.273849 
L 153.129758 278.578861 
L 153.193914 278.515667 
L 153.258071 276.241192 
L 153.514696 276.715026 
L 153.578852 274.756448 
L 153.643009 275.48301 
L 153.707165 275.925271 
L 153.899634 276.399129 
L 153.96379 274.977579 
L 154.156259 281.35879 
L 154.348728 283.822822 
L 154.412884 283.633289 
L 154.477041 283.728056 
L 154.541197 283.633289 
L 154.605353 284.675772 
L 154.797822 284.896902 
L 154.861979 283.033067 
L 154.926135 284.549408 
L 154.990291 282.022182 
L 155.054448 282.875131 
L 155.246917 282.43287 
L 155.311073 283.886016 
L 155.375229 283.285795 
L 155.439386 284.170317 
L 155.503542 282.116972 
L 155.696011 283.159431 
L 155.952636 289.129978 
L 156.209261 290.361994 
L 156.273418 289.982927 
L 156.40173 294.721458 
L 156.594199 294.216003 
L 156.658356 293.268312 
L 156.786668 296.8064 
L 157.10745 295.353253 
L 157.235763 297.217088 
L 157.299919 295.66915 
L 157.492388 294.595095 
L 157.620701 298.227973 
L 157.749013 297.690921 
L 157.941482 300.723603 
L 158.005638 300.028614 
L 158.133951 301.0395 
L 158.198107 299.459989 
L 158.390576 299.302029 
L 158.454733 299.459989 
L 158.518889 298.986132 
L 158.647202 302.461049 
L 158.839671 301.418567 
L 158.903827 299.459989 
L 158.967983 301.10267 
L 159.096296 296.837996 
L 159.288765 296.269372 
L 159.352921 296.427332 
L 159.417078 296.300969 
L 159.54539 297.532985 
L 159.802016 297.659349 
L 159.866172 299.238859 
L 159.930328 299.112495 
L 159.994484 295.700747 
L 160.186953 296.048241 
L 160.443579 292.762857 
L 160.700204 292.352193 
L 160.892673 297.217088 
L 161.085142 297.596155 
L 161.534236 300.534045 
L 161.598393 299.238859 
L 161.662549 300.628812 
L 161.726705 299.74429 
L 161.790862 297.185491 
L 161.98333 298.480677 
L 162.111643 300.597239 
L 162.239956 297.280257 
L 162.432425 297.02753 
L 162.68905 294.910992 
L 162.881519 294.500328 
L 162.945675 296.8064 
L 163.073988 293.489442 
L 163.138144 293.994873 
L 163.330613 294.152834 
L 163.39477 294.942589 
L 163.587239 292.826051 
L 163.779708 292.478557 
L 163.843864 293.584209 
L 164.036333 290.867449 
L 164.228802 290.709489 
L 164.677896 294.2476 
L 164.806209 290.140864 
L 164.870365 290.235655 
L 164.934521 289.4459 
L 165.383616 287.329337 
L 165.576085 287.076634 
L 165.768554 285.307566 
L 165.83271 286.318452 
L 166.153491 288.435014 
L 166.281804 287.676832 
L 166.474273 287.929559 
L 166.602586 286.413218 
L 166.730898 287.266168 
L 166.923367 287.708429 
L 167.179993 280.253138 
L 167.372462 278.262963 
L 167.629087 281.106063 
L 167.821556 281.453557 
L 167.885712 281.832648 
L 167.949868 279.77928 
L 168.078181 284.707368 
L 168.27065 283.949186 
L 168.398963 286.981843 
L 168.463119 286.823907 
L 168.527275 288.213859 
L 168.848057 286.192088 
L 169.168839 288.08752 
L 169.232995 288.08752 
L 169.425464 282.811937 
L 169.617933 282.022182 
L 169.746246 279.368616 
L 169.810402 280.537462 
L 169.874558 283.886016 
L 170.067027 283.064664 
L 170.323652 279.684513 
L 170.516121 279.747707 
L 170.580278 278.64203 
L 170.70859 281.011296 
L 170.772747 279.400213 
L 170.965216 278.957952 
L 171.221841 277.283651 
L 171.478466 275.64097 
L 171.542623 276.304362 
L 171.606779 274.408954 
L 171.670935 274.756448 
L 171.863404 274.250994 
L 172.120029 278.484094 
L 172.376655 276.651856 
L 172.504967 280.253138 
L 172.569124 280.095177 
L 172.761593 280.00041 
L 172.889905 280.411098 
L 172.954062 278.989525 
L 173.018218 281.169257 
L 173.274843 280.316308 
L 173.467312 284.201914 
L 173.788094 282.211739 
L 173.85225 280.505865 
L 173.916406 281.737881 
L 174.173032 281.232426 
L 174.365501 285.43393 
L 174.622126 284.833708 
L 174.686282 285.686657 
L 174.750439 284.833708 
L 174.814595 285.59189 
L 175.007064 284.928499 
L 175.199533 288.782484 
L 175.456158 289.603836 
L 175.520315 289.287939 
L 175.584471 286.981843 
L 175.648627 288.435014 
L 175.712784 288.08752 
L 175.905252 287.708429 
L 176.097721 285.149629 
L 176.161878 286.72914 
L 176.354347 287.360934 
L 176.418503 287.961156 
L 176.610972 283.538522 
L 176.867597 282.906728 
L 176.931754 283.380561 
L 176.99591 284.896902 
L 177.060066 282.906728 
L 177.252535 281.042893 
L 177.316692 277.473208 
L 177.380848 278.768394 
L 177.445004 280.032007 
L 177.509161 278.610458 
L 177.70163 278.1366 
L 177.765786 278.989525 
L 177.829942 277.883872 
L 177.894098 278.1366 
L 177.958255 281.13766 
L 178.150724 280.032007 
L 178.21488 278.326133 
L 178.343193 279.652916 
L 178.407349 279.71611 
L 178.599818 280.316308 
L 178.663974 280.158371 
L 178.728131 280.032007 
L 178.856443 283.064664 
L 179.048912 282.71717 
L 179.498007 285.244396 
L 179.562163 285.59189 
L 179.626319 285.307566 
L 179.690476 286.350049 
L 179.947101 288.182286 
L 180.011257 287.360934 
L 180.075413 287.550468 
L 180.13957 287.487298 
L 180.203726 288.340223 
L 180.396195 286.823907 
L 180.524508 283.886016 
L 180.588664 284.359874 
L 180.65282 285.086436 
L 180.845289 284.07555 
L 180.909446 283.033067 
L 181.101915 286.097321 
L 181.294384 283.191028 
L 181.486853 284.802135 
L 181.551009 283.664886 
L 181.743478 282.906728 
L 182.000103 284.960072 
L 182.320885 285.970957 
L 182.449197 288.940445 
L 182.641666 288.119093 
L 182.769979 290.330421 
L 182.834135 290.077694 
L 182.898292 290.709489 
L 183.154917 290.741086 
L 183.219073 290.172461 
L 183.28323 290.677916 
L 183.347386 293.173545 
L 183.539855 291.941505 
L 183.79648 298.828171 
L 183.988949 299.586353 
L 184.053105 303.408765 
L 184.245574 299.175665 
L 184.438043 299.712717 
L 184.5022 297.24866 
L 184.630512 300.660409 
L 184.694669 298.954535 
L 185.01545 297.185491 
L 185.079607 297.24866 
L 185.143763 294.500328 
L 185.336232 294.121237 
L 185.592857 299.839056 
L 185.785326 298.891365 
L 185.849482 294.405561 
L 185.913639 297.185491 
L 185.977795 298.10161 
L 186.362733 294.373964 
L 186.426889 294.437134 
L 186.491046 292.004699 
L 186.683515 292.44696 
L 186.94014 287.834792 
L 187.132609 288.624547 
L 187.196765 286.634349 
L 187.260922 288.30865 
L 187.325078 287.613662 
L 187.389234 285.781424 
L 187.64586 288.024326 
L 187.710016 291.37288 
L 187.774172 290.993813 
L 187.838328 291.625607 
L 188.094954 290.109291 
L 188.15911 291.08858 
L 188.223266 288.277053 
L 188.287423 289.382706 
L 188.479892 289.224769 
L 188.736517 286.034151 
L 188.993142 284.107147 
L 189.057299 284.865305 
L 189.185611 282.780364 
L 189.442237 283.79125 
L 189.634706 278.294536 
L 189.827174 276.083231 
L 189.891331 276.304362 
L 190.019643 279.93724 
L 190.0838 279.526552 
L 190.276269 278.168197 
L 190.468738 288.245456 
L 190.532894 285.907788 
L 190.725363 285.118032 
L 190.789519 286.097321 
L 190.853676 285.844594 
L 190.981988 283.285795 
L 191.174457 282.780364 
L 191.238614 281.895818 
L 191.30277 282.71717 
L 191.366926 281.643115 
L 191.431083 284.675772 
L 191.623552 284.896902 
L 191.880177 286.72914 
L 192.136802 286.571179 
L 192.329271 277.789105 
L 192.52174 277.757508 
L 192.585896 278.1366 
L 192.650053 276.020062 
L 192.714209 276.99935 
L 192.778365 277.662742 
L 192.970834 276.557089 
L 193.034991 276.715026 
L 193.099147 279.305422 
L 193.22746 275.956868 
L 193.419929 276.083231 
L 193.484085 277.473208 
L 193.548241 276.967753 
L 193.612398 277.473208 
L 193.676554 275.040749 
L 193.869023 273.998266 
L 193.933179 275.072346 
L 193.997335 274.756448 
L 194.125648 271.629001 
L 194.574742 267.459094 
L 194.767211 261.614911 
L 194.895524 266.511402 
L 194.95968 263.952603 
L 195.023837 265.40575 
L 195.216306 264.236904 
L 195.280462 264.268501 
L 195.472931 273.713966 
L 195.6654 275.451437 
L 195.729556 269.796787 
L 195.793712 272.829444 
L 195.922025 277.315247 
L 196.17865 272.892614 
L 196.242807 269.038605 
L 196.306963 269.670423 
L 196.371119 273.966693 
L 196.563588 275.325073 
L 196.691901 277.852275 
L 197.140995 265.40575 
L 197.205152 265.816414 
L 197.269308 265.753244 
L 197.461777 264.458034 
L 197.525933 264.805528 
L 197.59009 264.236904 
L 197.654246 268.280446 
L 197.718402 265.974375 
L 197.910871 264.868698 
L 198.10334 259.81427 
L 198.167496 261.899235 
L 198.424122 258.67702 
L 198.488278 259.372009 
L 198.552434 265.46892 
L 198.616591 260.446088 
L 198.80906 261.583338 
L 198.937372 265.595284 
L 199.065685 262.720563 
L 199.258154 265.816414 
L 199.32231 263.541915 
L 199.386467 264.458034 
L 199.450623 270.902439 
L 199.514779 267.553885 
L 199.707248 266.321869 
L 199.835561 271.218337 
L 199.899717 275.514607 
L 199.963873 273.303302 
L 200.220499 276.241192 
L 200.348811 271.18674 
L 200.412968 272.861041 
L 200.605437 275.830504 
L 200.669593 275.735737 
L 200.733749 275.48301 
L 200.862062 265.879584 
L 201.054531 267.743419 
L 201.182844 274.12463 
L 201.247 272.576716 
L 201.311156 272.197625 
L 201.503625 267.901379 
L 201.567782 270.428581 
L 201.631938 264.773931 
L 201.696094 267.111624 
L 201.76025 263.447148 
L 201.952719 261.141053 
L 202.016876 262.309899 
L 202.145188 256.560482 
L 202.401814 262.499433 
L 202.46597 261.235844 
L 202.594283 264.615995 
L 202.658439 261.709677 
L 202.850908 260.635622 
L 202.915064 266.8273 
L 202.979221 266.195505 
L 203.043377 265.532114 
L 203.107533 262.815354 
L 203.364159 265.437323 
L 203.556628 261.33061 
L 203.749096 263.099654 
L 203.941565 270.239048 
L 204.005722 270.491775 
L 204.262347 268.312043 
L 204.39066 271.786961 
L 204.454816 273.492835 
L 204.647285 272.608313 
L 204.775598 269.417696 
L 204.839754 270.460178 
L 204.90391 274.156227 
L 205.096379 274.156227 
L 205.160536 276.241192 
L 205.224692 275.009176 
L 205.353005 271.3447 
L 205.545474 271.786961 
L 205.60963 274.977579 
L 205.673786 274.851215 
L 205.737942 272.229222 
L 205.802099 273.429665 
L 205.994568 273.050574 
L 206.12288 271.471064 
L 206.187037 274.914385 
L 206.251193 273.650796 
L 206.507818 275.609373 
L 206.636131 280.221541 
L 206.700287 278.35773 
L 206.892756 278.294536 
L 206.956913 276.241192 
L 207.085225 280.505865 
L 207.149382 276.84139 
L 207.341851 276.84139 
L 207.598476 282.811937 
L 207.790945 282.748767 
L 207.855101 282.180142 
L 207.919257 279.810877 
L 207.983414 281.485154 
L 208.04757 279.842474 
L 208.240039 279.242252 
L 208.496664 271.913325 
L 208.689133 271.850155 
L 208.75329 273.587602 
L 208.817446 272.071286 
L 208.881602 272.70308 
L 209.138228 271.376297 
L 209.26654 268.18568 
L 209.330697 268.217276 
L 209.394853 272.418756 
L 209.587322 269.859957 
L 209.651478 269.954723 
L 209.843947 277.820702 
L 210.036416 276.715026 
L 210.164729 278.705224 
L 210.228885 275.925271 
L 210.293041 278.799991 
L 210.48551 275.925271 
L 210.549667 277.094117 
L 210.613823 276.809817 
L 210.677979 273.966693 
L 210.742136 274.377357 
L 210.934605 275.040749 
L 211.062917 278.35773 
L 211.19123 272.924211 
L 211.383699 275.70414 
L 211.576168 272.166052 
L 211.640324 269.638826 
L 211.832793 268.46998 
L 211.896949 269.607229 
L 211.961106 268.785901 
L 212.089418 269.512462 
L 212.4102 265.816414 
L 212.474356 265.784817 
L 212.538513 267.111624 
L 212.795138 265.437323 
L 212.923451 261.772871 
L 212.987607 261.930808 
L 213.180076 260.667219 
L 213.244232 257.666135 
L 213.308389 259.561542 
L 213.372545 259.719503 
L 213.436701 263.636682 
L 213.757483 252.422173 
L 213.885795 266.700936 
L 214.078264 266.732533 
L 214.142421 267.869782 
L 214.33489 265.026659 
L 214.527359 256.339352 
L 214.591515 263.82624 
L 214.655671 260.983116 
L 214.976453 250.274038 
L 215.040609 251.22173 
L 215.233078 260.446088 
L 215.489703 266.258675 
L 215.55386 263.415551 
L 215.618016 264.963489 
L 215.682172 267.016833 
L 215.938798 263.068057 
L 216.06711 254.696672 
L 216.131267 257.982032 
L 216.323736 257.760902 
L 216.580361 270.302218 
L 216.77283 270.681309 
L 216.901143 261.646508 
L 217.029455 265.784817 
L 217.286081 263.447148 
L 217.350237 261.520144 
L 217.414393 268.754304 
L 217.478549 262.910121 
L 217.671018 261.583338 
L 217.799331 249.86335 
L 217.863487 233.657582 
L 217.927644 238.42771 
L 218.120113 243.513735 
L 218.248425 233.657582 
L 218.376738 229.582443 
L 218.761676 208.79608 
L 218.825832 214.545497 
L 219.018301 215.303679 
L 219.082458 208.417013 
L 219.146614 209.269938 
L 219.274927 208.57495 
L 219.467395 204.531407 
L 219.724021 177.332237 
L 220.044802 181.628507 
L 220.173115 180.364894 
L 220.365584 182.102365 
L 220.42974 178.469486 
L 220.622209 196.002061 
L 220.878835 209.080405 
L 220.942991 207.690428 
L 221.007147 207.974752 
L 221.071304 207.437701 
L 221.327929 203.362585 
L 221.456241 196.823413 
L 221.520398 202.478039 
L 221.777023 202.541233 
L 221.969492 223.359168 
L 222.161961 226.328655 
L 222.226117 218.399506 
L 222.418586 235.805717 
L 222.611055 230.624925 
L 222.739368 239.691323 
L 222.803524 239.406999 
L 222.867681 240.417885 
L 223.06015 239.375402 
L 223.188462 228.034529 
L 223.252619 231.19355 
L 223.316775 240.038793 
L 223.5734 229.961534 
L 223.701713 238.42771 
L 223.765869 235.268689 
L 223.958338 232.236032 
L 224.022494 232.583527 
L 224.214963 241.713095 
L 224.407432 237.290461 
L 224.535745 240.954912 
L 224.599901 231.983305 
L 224.664058 234.19461 
L 224.856527 236.121614 
L 224.920683 242.408059 
L 224.984839 238.933141 
L 225.048996 237.385228 
L 225.369777 245.883001 
L 225.49809 233.436452 
L 225.754715 238.111813 
L 225.818871 235.015962 
L 225.883028 239.438596 
L 226.01134 233.246918 
L 226.203809 231.983305 
L 226.332122 227.529074 
L 226.460435 238.42771 
L 226.652904 239.817663 
L 226.71706 238.996335 
L 226.781216 236.121614 
L 226.845373 240.228351 
L 227.166154 235.55299 
L 227.230311 236.121614 
L 227.358623 242.281719 
L 227.551092 237.416825 
L 227.807717 245.851404 
L 228.000186 244.493024 
L 228.256812 256.781613 
L 228.449281 255.770727 
L 228.577593 256.87638 
L 228.64175 264.363267 
L 228.705906 263.636682 
L 229.090844 253.748956 
L 229.155 253.843723 
L 229.411625 260.256531 
L 229.475782 257.065937 
L 229.604094 268.090913 
L 229.86072 272.545119 
L 229.924876 277.694339 
L 230.053189 266.069141 
L 230.245658 275.798931 
L 230.309814 274.250994 
L 230.37397 271.534234 
L 230.502283 279.747707 
L 230.758908 280.505865 
L 230.823065 284.960072 
L 230.887221 281.864245 
L 230.951377 279.337019 
L 231.143846 276.77822 
L 231.208003 271.786961 
L 231.272159 273.429665 
L 231.336315 277.820702 
L 231.400471 273.903499 
L 231.59294 271.091973 
L 231.657097 267.648652 
L 231.721253 270.618115 
L 231.849566 264.742359 
L 232.042035 264.300073 
L 232.106191 264.805528 
L 232.170347 266.353442 
L 232.234504 265.658453 
L 232.491129 266.227078 
L 232.555285 264.236904 
L 232.619442 258.708617 
L 232.683598 262.341496 
L 232.747754 259.561542 
L 232.940223 261.267416 
L 233.196849 275.325073 
L 233.389317 273.808733 
L 233.453474 268.027719 
L 233.51763 270.681309 
L 233.581786 276.051634 
L 233.645943 274.661682 
L 233.838412 277.978639 
L 234.095037 264.04737 
L 234.544131 277.694339 
L 234.7366 274.12463 
L 234.800757 270.776076 
L 234.864913 273.903499 
L 234.993226 268.659537 
L 235.185695 264.300073 
L 235.249851 266.037544 
L 235.378163 261.10948 
L 235.44232 267.332755 
L 235.763101 258.866578 
L 235.827258 260.066997 
L 235.891414 258.67702 
L 236.083883 258.39272 
L 236.148039 260.098594 
L 236.212196 255.67596 
L 236.276352 257.571368 
L 236.340508 262.783757 
L 236.66129 265.247789 
L 236.789603 258.076823 
L 237.046228 262.657393 
L 237.110384 262.120366 
L 237.174541 258.329526 
L 237.238697 261.046286 
L 237.495322 259.719503 
L 237.623635 257.918862 
L 237.687791 254.033256 
L 237.88026 251.31652 
L 237.944416 251.600821 
L 238.008573 251.885121 
L 238.072729 248.599761 
L 238.136885 250.779469 
L 238.329354 250.747896 
L 238.393511 253.843723 
L 238.457667 250.210844 
L 238.58598 260.604025 
L 238.778449 260.130167 
L 238.842605 258.550657 
L 238.970918 264.458034 
L 239.035074 262.025599 
L 239.291699 258.013629 
L 239.676637 267.490691 
L 239.80495 262.025599 
L 239.869106 265.310959 
L 239.933262 260.983116 
L 240.125731 263.289188 
L 240.3182 269.007032 
L 240.382357 268.722707 
L 240.574826 268.375213 
L 240.638982 268.912265 
L 241.088076 261.772871 
L 241.152233 263.541915 
L 241.216389 263.004887 
L 241.280545 263.068057 
L 241.473014 263.447148 
L 241.729639 259.024515 
L 241.922108 258.297953 
L 242.178734 268.691134 
L 242.371203 268.312043 
L 242.435359 267.869782 
L 242.627828 272.63991 
L 242.820297 272.292416 
L 242.94861 273.935096 
L 243.012766 269.164968 
L 243.076922 270.428581 
L 243.46186 280.158371 
L 243.718485 280.948126 
L 243.846798 278.231366 
L 243.910954 279.589746 
L 244.16758 279.842474 
L 244.231736 278.010236 
L 244.295892 281.832648 
L 244.360049 281.35879 
L 244.424205 281.485154 
L 244.616674 283.033067 
L 244.68083 278.231366 
L 244.744987 281.548348 
L 244.873299 275.830504 
L 245.129925 276.651856 
L 245.258237 272.418756 
L 245.322393 272.924211 
L 245.514862 274.250994 
L 245.579019 274.156227 
L 245.707331 274.472124 
L 245.771488 271.944922 
L 246.092269 278.1366 
L 246.220582 272.98738 
L 246.413051 272.608313 
L 246.60552 279.810877 
L 246.669676 278.64203 
L 246.926302 278.105003 
L 247.054614 282.49604 
L 247.118771 280.979723 
L 247.311239 282.148545 
L 247.503708 275.451437 
L 247.567865 273.966693 
L 247.888646 276.114828 
L 247.952803 274.598488 
L 248.016959 278.389327 
L 248.337741 280.537462 
L 248.466053 277.725911 
L 248.658522 278.105003 
L 248.786835 274.598488 
L 248.850991 275.546204 
L 248.915148 275.261879 
L 249.107617 274.945982 
L 249.171773 276.304362 
L 249.300085 283.348989 
L 249.364242 282.559233 
L 249.556711 283.633289 
L 249.685023 280.821762 
L 250.005805 287.234571 
L 250.069961 286.79231 
L 250.198274 283.127858 
L 250.519056 280.063604 
L 250.583212 282.053779 
L 250.647368 281.737881 
L 250.711525 279.684513 
L 250.903994 280.379501 
L 251.032306 277.030947 
L 251.096463 277.883872 
L 251.160619 278.894758 
L 251.353088 278.578861 
L 251.417244 274.566891 
L 251.4814 277.030947 
L 251.545557 275.830504 
L 251.609713 272.513547 
L 251.802182 273.903499 
L 251.994651 257.792498 
L 252.058807 261.614911 
L 252.379589 270.870842 
L 252.507902 263.82624 
L 252.700371 264.931892 
L 252.956996 252.611706 
L 253.149465 253.685786 
L 253.213621 252.169445 
L 253.277777 253.053967 
L 253.341934 260.098594 
L 253.40609 258.708617 
L 253.662715 257.602965 
L 253.791028 262.720563 
L 253.855184 254.633478 
L 254.047653 252.264212 
L 254.175966 254.15962 
L 254.240122 259.687906 
L 254.304279 255.833897 
L 254.560904 258.67702 
L 254.689217 254.443944 
L 254.753373 254.949375 
L 254.945842 255.833897 
L 255.074155 250.052907 
L 255.138311 251.916718 
L 255.202467 250.653105 
L 255.394936 247.715215 
L 255.523249 242.123759 
L 255.587405 242.597617 
L 255.651561 245.156416 
L 255.908187 242.534423 
L 256.100656 250.116077 
L 256.293125 250.242441 
L 256.357281 252.927604 
L 256.54975 245.124819 
L 256.742219 247.08342 
L 256.806375 246.609562 
L 256.870532 241.239237 
L 256.934688 244.966882 
L 256.998844 248.347033 
L 257.191313 248.884061 
L 257.255469 251.916718 
L 257.319626 250.905832 
L 257.383782 251.000599 
L 257.447938 246.135704 
L 257.640407 251.600821 
L 257.704564 249.80018 
L 257.76872 252.201042 
L 257.832876 250.747896 
L 257.897033 247.336148 
L 258.089502 248.50497 
L 258.153658 247.841578 
L 258.346127 240.417885 
L 258.538596 232.330799 
L 258.602752 234.226207 
L 258.666909 233.341685 
L 258.731065 228.192466 
L 258.795221 228.571557 
L 258.98769 228.508387 
L 259.180159 221.053096 
L 259.244315 230.751289 
L 259.500941 220.610835 
L 259.69341 236.342745 
L 259.950035 229.645636 
L 260.142504 240.323118 
L 260.334973 238.743607 
L 260.399129 235.616184 
L 260.527442 243.671672 
L 260.591598 242.376486 
L 260.784067 240.512651 
L 260.976536 232.141242 
L 261.040693 236.595472 
L 261.297318 228.634751 
L 261.361474 230.024703 
L 261.42563 230.245834 
L 261.489787 233.088957 
L 261.682256 232.236032 
L 261.746412 234.226207 
L 261.810568 230.087897 
L 261.874725 232.867827 
L 261.938881 234.320974 
L 262.13135 234.257804 
L 262.387975 246.79912 
L 262.708757 241.618304 
L 262.772913 245.44074 
L 262.83707 243.292605 
L 263.029539 242.376486 
L 263.157851 250.116077 
L 263.222007 249.263152 
L 263.286164 246.325262 
L 263.478633 248.694527 
L 263.542789 244.556194 
L 263.735258 254.033256 
L 263.927727 252.643303 
L 263.991883 259.498373 
L 264.05604 259.087709 
L 264.120196 259.245645 
L 264.376821 267.206391 
L 264.440978 259.845867 
L 264.505134 261.520144 
L 264.890072 255.612766 
L 264.954228 261.10948 
L 265.082541 256.907977 
L 265.339166 252.674876 
L 265.531635 263.794643 
L 265.724104 259.561542 
L 265.852417 268.943838 
L 265.916573 267.490691 
L 265.980729 269.291332 
L 266.173198 268.18568 
L 266.301511 276.272765 
L 266.365667 274.28259 
L 266.429824 269.007032 
L 266.622293 269.322929 
L 266.686449 267.269561 
L 266.814762 269.98632 
L 267.071387 267.364327 
L 267.135543 274.156227 
L 267.199699 269.259735 
L 267.263856 269.48089 
L 267.328012 266.227078 
L 267.520481 268.46998 
L 267.584637 268.12251 
L 267.648794 274.630085 
L 267.71295 273.366472 
L 267.777106 271.818558 
L 267.969575 270.239048 
L 268.097888 274.156227 
L 268.162044 271.565831 
L 268.226201 273.429665 
L 268.482826 274.788021 
L 268.546982 272.70308 
L 268.611139 276.715026 
L 268.675295 274.440551 
L 268.867764 274.314187 
L 268.93192 271.565831 
L 268.996077 275.988465 
L 269.060233 274.693254 
L 269.124389 273.176938 
L 269.316858 275.388243 
L 269.573483 283.001494 
L 269.765952 281.548348 
L 269.830109 284.138744 
L 269.894265 281.706284 
L 269.958421 284.960072 
L 270.022578 280.948126 
L 270.215047 280.758593 
L 270.279203 279.494979 
L 270.343359 280.411098 
L 270.407516 279.968837 
L 270.471672 280.853359 
L 271.113235 271.660597 
L 271.177391 271.755364 
L 271.305704 279.052719 
L 271.36986 276.683453 
L 271.562329 278.515667 
L 271.626486 280.253138 
L 271.754798 272.70308 
L 271.818955 274.34576 
L 272.011424 274.472124 
L 272.139736 266.8273 
L 272.203893 269.101798 
L 272.268049 268.312043 
L 272.460518 270.04949 
L 272.524674 269.070201 
L 272.588831 269.449293 
L 272.717143 272.387183 
L 272.909612 271.976495 
L 272.973769 274.219421 
L 273.037925 271.913325 
L 273.102081 272.513547 
L 273.358706 272.008092 
L 273.422863 273.176938 
L 273.615332 279.621343 
L 273.807801 279.368616 
L 274.064426 270.807673 
L 274.256895 270.144281 
L 274.321051 268.880668 
L 274.449364 271.028803 
L 274.705989 269.923151 
L 274.770146 267.080027 
L 274.834302 270.112684 
L 274.962615 266.953663 
L 275.155083 267.743419 
L 275.347552 261.899235 
L 275.411709 263.226018 
L 275.604178 263.541915 
L 275.668334 265.69005 
L 275.73249 263.984176 
L 275.796647 265.879584 
L 275.860803 263.194421 
L 276.053272 261.520144 
L 276.117428 258.424317 
L 276.245741 262.594223 
L 276.309897 262.436263 
L 276.566523 259.845867 
L 276.630679 261.267416 
L 276.694835 258.67702 
L 276.758992 258.803384 
L 277.015617 258.108396 
L 277.079773 255.107336 
L 277.143929 260.983116 
L 277.208086 259.245645 
L 277.400555 261.551741 
L 277.65718 256.686846 
L 277.849649 258.234759 
L 277.913805 262.846927 
L 278.042118 255.991858 
L 278.106274 257.445004 
L 278.298743 257.065937 
L 278.3629 258.424317 
L 278.427056 258.234759 
L 278.491212 255.897091 
L 278.555369 257.192277 
L 279.004463 267.775016 
L 279.261088 267.111624 
L 279.774339 255.865494 
L 279.838495 260.256531 
L 279.902651 259.7511 
L 280.09512 262.68899 
L 280.159277 256.434119 
L 280.223433 260.066997 
L 280.287589 262.404666 
L 280.351746 260.130167 
L 280.544215 263.447148 
L 280.993309 252.137849 
L 281.185778 230.719692 
L 281.249934 240.323118 
L 281.570716 219.157689 
L 281.634872 236.532303 
L 281.699028 230.0563 
L 281.891497 233.436452 
L 282.148123 212.271022 
L 282.340592 213.155544 
L 282.468904 227.813399 
L 282.533061 224.18052 
L 282.597217 220.831966 
L 282.789686 225.570497 
L 282.853842 220.136977 
L 282.917999 225.444133 
L 283.046311 208.132689 
L 283.302936 204.436641 
L 283.367093 211.29171 
L 283.431249 208.132689 
L 283.495405 204.341874 
L 283.687874 203.962783 
L 283.880343 211.544437 
L 284.201125 200.708995 
L 284.329438 174.615477 
L 284.393594 181.849638 
L 284.586063 187.978145 
L 284.714376 193.853926 
L 284.778532 191.295127 
L 284.842688 181.944404 
L 285.035157 172.435769 
L 285.291782 190.031514 
L 285.548408 196.539089 
L 285.740877 203.583716 
L 285.933346 197.360441 
L 286.189971 206.174112 
L 286.38244 205.57389 
L 286.446596 196.475919 
L 286.510753 202.888727 
L 286.574909 215.114122 
L 286.639065 211.44967 
L 286.895691 186.209102 
L 286.959847 190.916036 
L 287.024003 196.033658 
L 287.088159 195.591373 
L 287.280628 193.253704 
L 287.344785 197.992235 
L 287.408941 190.410581 
L 287.537254 198.213366 
L 287.922192 186.461805 
L 287.986348 186.556596 
L 288.178817 184.31367 
L 288.30713 176.321351 
L 288.435442 181.944404 
L 288.627911 182.133962 
L 288.82038 193.948693 
L 288.884537 188.767901 
L 289.077005 189.526059 
L 289.141162 193.095768 
L 289.205318 191.768961 
L 289.269474 187.125196 
L 289.333631 194.864812 
L 289.590256 187.283157 
L 289.782725 177.142703 
L 289.975194 172.246212 
L 290.103507 187.314754 
L 290.167663 185.735244 
L 290.231819 189.936747 
L 290.488445 189.368122 
L 290.680914 180.522855 
L 290.937539 186.272271 
L 291.065851 191.421466 
L 291.130008 188.483576 
L 291.322477 189.146992 
L 291.386633 189.778786 
L 291.579102 181.691701 
L 291.835727 179.922633 
L 292.028196 194.011863 
L 292.220665 196.349555 
L 292.284822 195.686164 
L 292.348978 196.570686 
L 292.477291 190.536945 
L 292.66976 186.145908 
L 292.733916 181.786468 
L 292.926385 195.307073 
L 293.118854 191.642597 
L 293.311323 198.718821 
L 293.375479 193.98029 
L 293.567948 193.506432 
L 293.632104 191.54783 
L 293.696261 192.211222 
L 293.824573 195.275476 
L 294.081199 199.350615 
L 294.273668 192.369182 
L 294.466137 189.083798 
L 294.594449 192.590313 
L 294.658606 196.91818 
L 294.722762 193.474835 
L 294.915231 196.412725 
L 294.979387 191.958518 
L 295.043543 194.232993 
L 295.1077 197.929066 
L 295.171856 197.20248 
L 295.364325 197.265674 
L 295.492638 212.776453 
L 295.556794 212.239426 
L 295.62095 211.544437 
L 295.813419 215.74594 
L 295.877576 214.355964 
L 296.070045 205.921384 
L 296.262514 207.753622 
L 296.454983 203.015091 
L 296.519139 209.112002 
L 296.711608 208.069519 
L 296.775764 214.2296 
L 296.904077 206.869076 
L 297.224858 194.390954 
L 297.353171 200.329904 
L 297.417327 194.454148 
L 297.673953 195.212306 
L 297.866422 193.727562 
L 298.058891 191.042399 
L 298.187203 195.5598 
L 298.315516 193.032574 
L 298.507985 192.937807 
L 298.572141 195.749334 
L 298.76461 190.347411 
L 298.957079 190.284217 
L 299.085392 188.041315 
L 299.149548 189.146992 
L 299.406173 180.775582 
L 299.534486 178.121992 
L 299.662799 171.203753 
L 299.855268 172.025081 
L 299.919424 176.384545 
L 299.98358 173.699358 
L 300.047737 175.184102 
L 300.111893 173.730955 
L 300.368518 174.931399 
L 300.560987 151.744174 
L 300.753456 154.997961 
L 300.881769 168.518566 
L 301.010081 168.013136 
L 301.20255 166.212495 
L 301.266707 169.845373 
L 301.459176 164.253893 
L 301.651645 162.105758 
L 301.715801 167.349744 
L 301.779957 165.391143 
L 301.844114 163.274604 
L 301.90827 168.613357 
L 302.100739 162.86394 
L 302.164895 164.443451 
L 302.229052 163.811632 
L 302.293208 162.832343 
L 302.357364 168.044732 
L 302.549833 164.822518 
L 302.61399 167.886772 
L 302.742302 165.865 
L 302.806459 162.168952 
L 303.191396 154.429361 
L 303.255553 155.503416 
L 303.448022 153.607985 
L 303.512178 156.830199 
L 303.576334 156.609045 
L 303.640491 157.651527 
L 303.704647 152.69189 
L 303.897116 150.385818 
L 304.025429 146.057927 
L 304.153741 157.683148 
L 304.410367 153.829139 
L 304.474523 156.735433 
L 304.538679 154.429361 
L 304.602836 161.031703 
L 304.795305 160.873742 
L 304.987773 168.455396 
L 305.05193 166.465222 
L 305.244399 167.128614 
L 305.436868 181.281013 
L 305.501024 179.417202 
L 305.693493 178.627447 
L 305.757649 176.921573 
L 305.885962 168.897657 
L 305.950118 169.276749 
L 306.206744 166.022961 
L 306.2709 167.760408 
L 306.335056 165.70704 
L 306.399213 160.083987 
L 306.655838 161.3476 
L 306.719994 163.243007 
L 306.848307 171.740781 
L 307.040776 170.793065 
L 307.233245 179.638333 
L 307.297401 189.841956 
L 308.003121 172.751667 
L 308.067277 168.550163 
L 308.131433 171.36169 
L 308.388059 170.508765 
L 308.452215 171.045793 
L 308.516371 170.919429 
L 308.644684 180.838752 
L 309.093778 171.930314 
L 309.286247 172.814836 
L 309.478716 184.124136 
L 309.542872 178.974941 
L 309.735341 181.438974 
L 309.799498 175.973857 
L 309.863654 179.796269 
L 309.92781 181.754871 
L 309.991967 176.131818 
L 310.312748 173.857319 
L 310.441061 177.332237 
L 310.63353 175.152529 
L 310.697686 178.816981 
L 310.890155 165.580676 
L 311.082624 164.917285 
L 311.210937 163.211411 
L 311.531718 166.591562 
L 311.660031 170.793065 
L 311.788344 171.172156 
L 312.044969 167.760408 
L 312.173282 168.265863 
L 312.237438 169.339918 
L 312.429907 169.750582 
L 312.622376 166.812716 
L 312.686532 170.477168 
L 312.879001 168.739697 
L 313.007314 176.289778 
L 313.07147 176.005454 
L 313.135626 173.099161 
L 313.392252 182.860523 
L 313.520564 181.53374 
L 313.584721 177.363834 
L 313.77719 178.058822 
L 313.905502 177.521795 
L 314.033815 174.01528 
L 314.418753 190.979206 
L 314.482909 189.526059 
L 314.675378 189.368122 
L 314.739535 186.904066 
L 314.803691 187.25156 
L 314.867847 188.294043 
L 314.932003 184.945488 
L 315.124472 185.987971 
L 315.252785 183.460745 
L 315.316941 187.25156 
L 315.381098 184.345267 
L 315.637723 183.618706 
L 315.766036 185.514113 
L 315.830192 190.694905 
L 316.022661 192.053285 
L 316.150974 194.738448 
L 316.21513 192.937807 
L 316.279286 198.56086 
L 316.471755 193.885523 
L 316.535912 197.170883 
L 316.600068 194.169823 
L 316.664224 194.991175 
L 316.728381 193.569602 
L 316.920849 193.853926 
L 316.985006 194.770045 
L 317.049162 197.771105 
L 317.113318 194.454148 
L 317.177475 195.528203 
L 317.4341 197.360441 
L 317.626569 193.853926 
L 317.819038 186.588169 
L 317.947351 189.873553 
L 318.075663 187.946549 
L 318.332289 191.010802 
L 318.524758 201.056489 
L 318.717227 200.708995 
L 318.781383 198.087002 
L 318.845539 198.466093 
L 318.909695 199.571746 
L 319.230477 192.590313 
L 319.294633 196.728622 
L 319.422946 192.90621 
L 319.615415 193.253704 
L 319.679571 192.811443 
L 319.743728 189.652423 
L 319.807884 191.54783 
L 320.064509 189.557656 
L 320.128666 191.073972 
L 320.321135 175.563193 
L 320.57776 179.480372 
L 320.641916 184.755931 
L 320.706073 184.02937 
L 320.770229 178.37472 
L 320.962698 175.026165 
L 321.026854 178.216759 
L 321.155167 174.710268 
L 321.219323 175.531596 
L 321.411792 175.247296 
L 321.604261 177.300664 
L 321.668417 173.762552 
L 321.860886 175.184102 
L 321.925043 174.962971 
L 321.989199 171.803951 
L 322.053355 172.309406 
L 322.117512 181.53374 
L 322.309981 182.481456 
L 322.374137 183.966176 
L 322.438293 183.365978 
L 322.50245 184.345267 
L 322.566606 188.420406 
L 322.759075 191.295127 
L 322.823231 195.33867 
L 322.887387 192.874637 
L 322.951544 189.020628 
L 323.0157 193.759159 
L 323.208169 194.20142 
L 323.272325 191.295127 
L 323.336482 196.823413 
L 323.400638 195.085942 
L 323.464794 194.580487 
L 323.72142 203.93121 
L 323.785576 199.887643 
L 323.849732 200.772189 
L 323.913889 202.004205 
L 324.106358 200.961723 
L 324.170514 204.310277 
L 324.23467 199.350615 
L 324.298827 199.571746 
L 324.362983 206.079321 
L 324.555452 207.785195 
L 324.619608 203.552119 
L 324.683765 208.701314 
L 324.747921 203.141455 
L 324.812077 203.99438 
L 325.004546 205.889787 
L 325.068702 205.700254 
L 325.261171 221.116266 
L 325.45364 219.694716 
L 325.517797 222.75897 
L 325.581953 220.547641 
L 325.710266 214.671861 
L 325.902735 214.766628 
L 325.966891 214.987782 
L 326.031047 216.030241 
L 326.15936 227.876568 
L 326.415985 224.275287 
L 326.480142 226.928877 
L 326.544298 222.980101 
L 326.608454 223.264401 
L 326.929236 219.663119 
L 326.993392 223.95939 
L 327.057548 218.589064 
L 327.250017 218.083609 
L 327.314174 219.536756 
L 327.442486 224.022559 
L 327.506643 221.937618 
L 327.763268 224.559611 
L 327.827424 223.327595 
L 327.891581 230.719692 
L 327.955737 227.05524 
L 328.148206 229.645636 
L 328.404831 224.717548 
L 328.5973 227.023643 
L 328.789769 235.868887 
L 329.046394 239.84926 
L 329.110551 237.353631 
L 329.174707 240.923339 
L 329.30302 234.099843 
L 329.495489 232.457163 
L 329.559645 228.287257 
L 329.623801 231.004016 
L 329.687958 228.350426 
L 329.752114 228.729518 
L 330.072896 235.047559 
L 330.137052 239.628129 
L 330.201208 238.017022 
L 330.393677 237.859085 
L 330.457834 240.133584 
L 330.650302 236.437512 
L 330.842771 238.617244 
L 330.971084 231.888538 
L 331.099397 232.109669 
L 331.291866 229.677209 
L 331.420178 225.380939 
L 331.484335 227.750205 
L 331.548491 226.928877 
L 331.74096 227.434307 
L 331.805116 229.329715 
L 331.869273 228.824284 
L 331.997585 229.614039 
L 332.254211 228.160893 
L 332.318367 230.846056 
L 332.382523 230.309028 
L 332.44668 230.403795 
L 332.703305 233.310088 
L 332.895774 225.412536 
L 333.088243 226.486616 
L 333.216555 221.40059 
L 333.280712 222.727373 
L 333.344868 221.46376 
L 333.537337 222.632607 
L 333.601493 222.190346 
L 333.793962 228.097699 
L 333.986431 227.781802 
L 334.050588 231.793771 
L 334.114744 231.635811 
L 334.1789 228.824284 
L 334.243057 236.879773 
L 334.435526 238.111813 
L 334.692151 232.709866 
L 334.88462 230.719692 
L 335.012932 238.869971 
L 335.077089 238.332943 
L 335.141245 235.300262 
L 335.333714 234.352571 
L 335.39787 233.120554 
L 335.462027 233.689179 
L 335.590339 233.594412 
L 335.782808 237.1325 
L 335.846965 235.932081 
L 335.975277 239.975624 
L 336.039434 238.42771 
L 336.231903 237.669528 
L 336.296059 235.331859 
L 336.424372 239.091102 
L 336.488528 237.511591 
L 336.680997 238.71201 
L 336.745153 237.258864 
L 336.873466 239.217465 
L 336.937622 234.226207 
L 337.130091 236.090017 
L 337.32256 241.018106 
L 337.386716 241.934225 
L 337.579185 239.722896 
L 337.643342 241.776264 
L 338.092436 238.617244 
L 338.156592 239.501766 
L 338.477374 232.078072 
L 338.605686 233.941907 
L 338.733999 230.340601 
L 338.990624 230.087897 
L 339.054781 230.909225 
L 339.183093 224.022559 
L 339.375562 226.391825 
L 339.439719 225.570497 
L 339.632188 221.495357 
L 339.824657 218.209973 
L 340.017126 226.486616 
L 340.273751 225.2546 
L 340.402064 228.950648 
L 340.530376 226.865683 
L 340.787001 226.107525 
L 340.915314 228.350426 
L 340.97947 226.581382 
L 341.171939 227.434307 
L 341.428565 220.579238 
L 341.621034 219.126092 
L 341.813503 226.928877 
L 341.877659 229.045415 
L 342.070128 228.571557 
L 342.198441 225.349366 
L 342.326753 220.737199 
L 342.519222 223.295998 
L 342.583378 222.063982 
L 342.711691 225.317769 
L 342.775847 221.653294 
L 342.968316 219.220858 
L 343.032473 220.516068 
L 343.160785 216.093435 
L 343.224942 218.052012 
L 343.417411 218.904961 
L 343.545723 224.685975 
L 343.930661 218.052012 
L 343.994818 219.757886 
L 344.12313 213.755742 
L 344.315599 214.671861 
L 344.443912 212.049892 
L 344.508068 215.903877 
L 344.764693 216.188201 
L 345.021319 211.860334 
L 345.277944 214.040066 
L 345.470413 207.500894 
L 345.662882 209.64903 
L 345.727038 208.227456 
L 345.919507 212.144659 
L 346.111976 213.566208 
L 346.304445 203.868016 
L 346.368602 204.878901 
L 346.56107 207.532491 
L 346.625227 206.742736 
L 346.753539 209.427899 
L 346.817696 207.532491 
L 347.074321 205.447526 
L 347.138477 201.024892 
L 347.202634 202.951897 
L 347.26679 203.109858 
L 347.459259 206.711139 
L 347.587572 211.196943 
L 347.715884 211.039006 
L 347.908353 211.544437 
L 347.97251 212.839647 
L 348.036666 212.207829 
L 348.100822 209.080405 
L 348.164979 209.269938 
L 348.357448 208.385416 
L 348.421604 211.196943 
L 348.48576 208.480183 
L 348.549916 213.029181 
L 348.614073 210.375591 
L 348.806542 211.481267 
L 348.999011 205.289566 
L 349.063167 205.826617 
L 349.255636 204.942095 
L 349.448105 213.913703 
L 349.70473 211.354904 
L 349.833043 207.121803 
L 349.897199 207.027037 
L 349.961356 204.752538 
L 350.217981 207.027037 
L 350.346294 200.614228 
L 350.41045 201.783075 
L 350.667075 199.224252 
L 350.731231 199.698109 
L 350.795388 202.414869 
L 350.859544 198.150196 
L 351.052013 198.655627 
L 351.116169 197.328844 
L 351.244482 203.488925 
L 351.308638 201.656711 
L 351.501107 202.604403 
L 351.693576 197.834299 
L 351.757733 198.624054 
L 351.950202 198.655627 
L 352.014358 201.024892 
L 352.206827 191.705791 
L 352.527608 197.13931 
L 352.655921 193.032574 
L 352.84839 191.642597 
L 352.912546 192.84304 
L 353.105015 187.472691 
L 353.361641 194.801618 
L 353.425797 192.748274 
L 353.55411 197.960638 
L 353.746579 197.802702 
L 353.810735 198.087002 
L 354.003204 205.384356 
L 354.195673 204.847305 
L 354.323986 207.21657 
L 354.388142 206.079321 
L 354.452298 201.530347 
L 354.644767 201.088086 
L 354.708923 198.845184 
L 354.77308 200.866956 
L 354.837236 196.570686 
L 354.901392 197.107713 
L 355.093861 194.169823 
L 355.158018 196.254788 
L 355.222174 190.063087 
L 355.28633 193.316898 
L 355.350487 191.737388 
L 355.542956 191.516257 
L 355.671268 186.398635 
L 355.735425 188.041315 
L 355.799581 184.31367 
L 355.99205 182.007598 
L 356.120363 176.479312 
L 356.248675 181.091479 
L 356.441144 179.701503 
L 356.633613 185.735244 
L 356.890238 184.661164 
L 356.954395 187.03043 
L 357.018551 186.177505 
L 357.082707 185.861607 
L 357.146864 186.840896 
L 357.339333 187.757015 
L 357.403489 186.588169 
L 357.467645 187.125196 
L 357.531802 189.557656 
L 357.595958 185.261386 
L 357.788427 188.736304 
L 357.852583 188.483576 
L 357.91674 188.799498 
L 358.045052 186.082738 
L 358.237521 187.03043 
L 358.301678 185.987971 
L 358.365834 188.388809 
L 358.494146 184.155733 
L 358.686615 183.839836 
L 358.943241 176.605676 
L 359.13571 179.733099 
L 359.199866 183.460745 
L 359.264022 181.976001 
L 359.328179 178.785384 
L 359.392335 181.02831 
L 359.777273 169.908543 
L 359.841429 164.56979 
L 360.033898 165.391143 
L 360.098055 160.463078 
L 360.226367 171.203753 
L 360.290524 165.92817 
L 360.482992 165.391143 
L 360.547149 173.288694 
L 360.611305 171.993508 
L 361.060399 165.770234 
L 361.381181 155.029534 
L 361.445337 147.669058 
L 361.509494 148.490387 
L 361.57365 153.9871 
L 361.637806 149.501248 
L 361.894432 147.131983 
L 362.022744 137.37062 
L 362.086901 142.80414 
L 362.343526 137.212659 
L 362.471838 143.657089 
L 362.535995 137.812881 
L 362.728464 139.108091 
L 362.79262 138.444676 
L 362.985089 126.724736 
L 363.177558 129.251962 
L 363.370027 142.393451 
L 363.434183 149.848742 
L 363.626652 150.512158 
L 363.690809 153.797518 
L 363.754965 153.039384 
L 363.819121 154.39774 
L 363.883278 158.599243 
L 364.139903 164.696154 
L 364.204059 162.326889 
L 364.268216 164.980479 
L 364.332372 163.811632 
L 364.524841 159.231062 
L 364.653153 152.154862 
L 364.71731 157.777915 
L 364.781466 154.366167 
L 365.038091 164.222296 
L 365.102248 164.095957 
L 365.166404 164.601387 
L 365.23056 173.415058 
L 365.423029 169.813776 
L 365.551342 161.726691 
L 365.615498 162.010991 
L 365.679655 163.243007 
L 365.93628 156.040444 
L 366.000436 148.174465 
L 366.064593 150.291003 
L 366.128749 148.111319 
L 366.321218 148.616726 
L 366.385374 144.604805 
L 366.513687 154.618894 
L 366.577843 149.532869 
L 366.770312 151.586213 
L 366.834468 150.701691 
L 366.898625 146.152694 
L 366.962781 150.575352 
L 367.219406 152.881423 
L 367.347719 149.311715 
L 367.411875 154.682088 
L 367.476032 154.081867 
L 367.668501 153.513218 
L 367.732657 150.606925 
L 367.796813 150.954419 
L 367.86097 153.007763 
L 367.925126 148.300853 
L 368.181751 153.829139 
L 368.245908 160.083987 
L 368.310064 158.346516 
L 368.37422 155.81929 
L 368.566689 155.81929 
L 368.823314 171.835548 
L 369.07994 176.068624 
L 369.144096 182.702587 
L 369.272409 176.542482 
L 369.59319 188.009742 
L 369.657347 186.998857 
L 369.721503 179.448799 
L 369.978128 189.241759 
L 370.042285 188.60994 
L 370.170597 183.208017 
L 370.491379 175.815921 
L 370.555535 176.763612 
L 370.619691 175.910687 
L 370.81216 180.901946 
L 370.940473 192.306013 
L 371.004629 187.472691 
L 371.068786 192.053285 
L 371.261255 192.463949 
L 371.389567 198.624054 
L 371.51788 190.947633 
L 371.710349 190.347411 
L 371.774505 187.409521 
L 371.902818 192.148052 
L 371.966974 187.377924 
L 372.2236 197.265674 
L 372.287756 194.106653 
L 372.351912 195.401839 
L 372.416068 199.540149 
L 372.608537 189.90515 
L 372.73685 198.308133 
L 372.801006 197.107713 
L 373.121788 186.809299 
L 373.185944 183.555512 
L 373.314257 196.949753 
L 373.506726 198.087002 
L 373.570882 196.886583 
L 373.763351 188.515173 
L 373.95582 190.094684 
L 374.404914 178.027225 
L 374.533227 182.260326 
L 374.66154 176.479312 
L 374.854009 173.257097 
L 374.982321 179.259242 
L 375.110634 170.761492 
L 375.303103 175.626363 
L 375.367259 169.466282 
L 375.431416 171.614417 
L 375.495572 172.87803 
L 375.559728 171.961911 
L 375.752197 170.192868 
L 375.816354 173.288694 
L 376.008823 164.253893 
L 376.201292 164.380257 
L 376.329604 178.37472 
L 376.39376 178.153589 
L 376.457917 177.01634 
L 376.650386 179.985827 
L 376.714542 178.058822 
L 376.778698 181.37578 
L 376.842855 179.511969 
L 376.907011 176.005454 
L 377.163636 181.723274 
L 377.227793 179.89106 
L 377.291949 182.481456 
L 377.356105 180.080594 
L 377.548574 179.480372 
L 377.676887 188.262446 
L 377.8052 177.837692 
L 377.997669 184.124136 
L 378.190138 176.258182 
L 378.254294 179.606736 
L 378.510919 171.930314 
L 378.575075 173.288694 
L 378.639232 172.435769 
L 378.703388 170.066504 
L 378.895857 175.405232 
L 378.960013 173.730955 
L 379.088326 178.279953 
L 379.152482 177.269067 
L 379.409108 173.667785 
L 379.473264 170.256037 
L 379.53742 172.183042 
L 379.601577 172.056678 
L 379.794046 173.130758 
L 379.858202 175.531596 
L 379.986515 171.014196 
L 380.050671 174.362774 
L 380.307296 170.793065 
L 380.371452 172.372575 
L 380.435609 178.59585 
L 380.499765 175.689557 
L 380.692234 178.31155 
L 380.75639 181.470571 
L 380.820547 181.02831 
L 380.884703 182.039195 
L 380.948859 187.630651 
L 381.141328 189.747189 
L 381.397954 185.482516 
L 381.590423 185.83001 
L 381.718735 184.408461 
L 381.782892 181.881235 
L 381.847048 183.050081 
L 382.16783 181.02831 
L 382.296142 181.407377 
L 382.488611 179.89106 
L 382.616924 175.405232 
L 382.68108 185.956374 
L 382.745236 182.639393 
L 383.001862 178.753811 
L 383.066018 179.164475 
L 383.130174 178.659044 
L 383.194331 172.593706 
L 383.515112 180.743985 
L 383.643425 174.267983 
L 383.835894 174.362774 
L 383.964207 180.080594 
L 384.028363 178.690617 
L 384.284988 177.553367 
L 384.413301 184.345267 
L 384.477457 182.639393 
L 384.734082 179.89106 
L 384.798239 181.438974 
L 384.990708 173.857319 
L 385.183177 178.121992 
L 385.311489 168.708124 
L 385.375646 172.404172 
L 385.439802 166.307261 
L 385.696427 167.539278 
L 385.760584 163.369371 
L 385.82474 166.086131 
L 385.888896 167.602471 
L 386.145522 165.264779 
L 386.209678 165.359546 
L 386.273834 164.790921 
L 386.33799 161.41077 
L 386.530459 163.400968 
L 386.594616 155.97725 
L 386.658772 159.357426 
L 387.172023 141.129862 
L 387.236179 148.142892 
L 387.556961 155.061155 
L 387.685273 149.69083 
L 387.877742 149.911936 
L 388.070211 147.574292 
L 388.134368 151.586213 
L 388.326836 149.785597 
L 388.390993 157.841109 
L 388.455149 156.166784 
L 388.519305 154.682088 
L 388.583462 157.304033 
L 388.775931 157.430421 
L 388.840087 152.944617 
L 388.904243 155.440222 
L 389.032556 161.221236 
L 389.353338 158.378137 
L 389.48165 155.850911 
L 389.738276 159.073125 
L 389.866588 154.334594 
L 390.123214 153.797518 
L 390.18737 149.501248 
L 390.251526 153.860712 
L 390.315682 150.954419 
L 390.379839 150.733312 
L 390.572308 150.480585 
L 390.764777 143.878195 
L 390.828933 146.531809 
L 391.021402 147.068837 
L 391.085558 149.943557 
L 391.149715 148.490387 
L 391.213871 150.480585 
L 391.278027 146.942449 
L 391.534653 150.038324 
L 391.727122 158.062215 
L 391.919591 159.736493 
L 391.983747 161.56873 
L 392.176216 154.840001 
L 392.368685 159.76809 
L 392.561154 149.69083 
L 392.62531 151.459874 
L 392.881935 150.133091 
L 392.946092 147.795398 
L 393.010248 149.69083 
L 393.074404 145.67886 
L 393.266873 149.280142 
L 393.33103 148.585153 
L 393.395186 154.492507 
L 393.459342 152.723463 
L 393.715968 151.491447 
L 393.84428 154.871622 
L 393.908437 152.755084 
L 393.972593 153.355257 
L 394.229218 152.375969 
L 394.293374 151.55464 
L 394.421687 142.6778 
L 394.614156 145.8052 
L 394.742469 142.551412 
L 394.870781 137.781308 
L 395.191563 134.559094 
L 395.255719 132.474128 
L 395.576501 141.698511 
L 395.640657 141.003523 
L 395.704814 145.836821 
L 395.76897 134.622288 
L 396.025595 122.997066 
L 396.089752 126.377242 
L 396.153908 124.766158 
L 396.218064 119.490551 
L 396.667158 109.918722 
L 396.859627 113.899119 
L 396.923784 121.291216 
L 396.98794 116.078851 
L 397.116253 126.377242 
L 397.308722 126.78793 
L 397.372878 124.323897 
L 397.437034 126.724736 
L 397.501191 125.840214 
L 397.565347 125.082031 
L 397.757816 125.397953 
L 397.821972 124.702964 
L 398.014441 116.363152 
L 398.271066 126.566775 
L 398.335223 126.314048 
L 398.399379 123.028687 
L 398.463535 127.609258 
L 398.656004 126.78793 
L 398.784317 120.785761 
L 398.848473 124.734537 
L 398.91263 121.038489 
L 399.169255 126.377242 
L 399.297568 123.06026 
L 399.361724 125.366332 
L 399.618349 121.196449 
L 399.746662 123.913209 
L 399.810818 126.472008 
L 400.003287 120.627801 
L 400.067444 122.333699 
L 400.1316 121.701904 
L 400.195756 122.017778 
L 400.259912 125.619059 
L 400.516538 122.428466 
L 400.580694 122.744387 
L 400.709007 135.443616 
L 400.901476 135.222509 
L 400.965632 140.08738 
L 401.029788 139.455585 
L 401.093945 141.287823 
L 401.158101 137.876075 
L 401.35057 139.266052 
L 401.478883 134.337987 
L 401.543039 130.926239 
L 401.607195 131.336879 
L 401.799664 128.588546 
L 401.863821 125.397953 
L 401.927977 126.345669 
L 401.992133 125.239992 
L 402.05629 129.157195 
L 402.248758 131.3685 
L 402.441227 140.782368 
L 402.505384 140.498068 
L 402.762009 143.941389 
L 402.826165 143.530701 
L 402.890322 141.951191 
L 402.954478 147.858592 
L 403.403572 142.425073 
L 403.596041 144.25731 
L 403.660198 143.151634 
L 403.852667 151.459874 
L 404.045136 148.932647 
L 404.109292 149.69083 
L 404.173448 147.890165 
L 404.237604 151.080758 
L 404.301761 147.38471 
L 404.558386 152.597123 
L 404.750855 178.027225 
L 404.943324 180.333321 
L 405.071637 174.962971 
L 405.199949 181.786468 
L 405.392418 180.838752 
L 405.456575 180.965116 
L 405.520731 182.449859 
L 405.649044 181.881235 
L 405.905669 177.458601 
L 406.033982 188.483576 
L 406.098138 185.735244 
L 406.354763 186.430232 
L 406.418919 183.208017 
L 406.547232 192.369182 
L 406.739701 191.674194 
L 406.803857 190.347411 
L 406.868014 194.517317 
L 406.93217 192.653483 
L 406.996326 193.506432 
L 407.188795 189.526059 
L 407.252952 191.389894 
L 407.317108 189.747189 
L 407.381264 191.389894 
L 407.445421 190.631711 
L 407.702046 191.832155 
L 407.894515 187.219987 
L 408.15114 185.60888 
L 408.215296 184.155733 
L 408.279453 178.216759 
L 408.343609 181.754871 
L 408.664391 177.648134 
L 408.792703 180.333321 
L 409.049329 176.321351 
L 409.241798 184.661164 
L 409.434267 180.870349 
L 409.562579 188.262446 
L 409.626736 186.998857 
L 409.690892 185.640477 
L 409.883361 186.777726 
L 409.947517 184.155733 
L 410.07583 187.472691 
L 410.139986 187.630651 
L 410.332455 185.356152 
L 410.460768 177.395431 
L 410.58908 182.070768 
L 410.781549 183.271211 
L 410.909862 187.757015 
L 411.038175 183.460745 
L 411.2948 184.124136 
L 411.423113 182.355092 
L 411.487269 178.121992 
L 411.679738 180.396491 
L 411.743894 178.974941 
L 411.872207 187.504288 
L 411.936363 186.524999 
L 412.192988 189.462889 
L 412.321301 194.454148 
L 412.385457 193.158938 
L 412.577926 195.496606 
L 412.834552 188.767901 
L 413.027021 187.156793 
L 413.155333 182.513029 
L 413.21949 183.050081 
L 413.476115 179.95423 
L 413.540271 182.513029 
L 413.604428 180.238554 
L 413.668584 183.334381 
L 413.73274 182.228729 
L 413.925209 179.196072 
L 413.989366 181.281013 
L 414.053522 180.112191 
L 414.181834 182.228729 
L 414.374303 180.459685 
L 414.566772 173.509825 
L 414.823398 174.710268 
L 414.887554 169.624243 
L 414.95171 171.772378 
L 415.080023 173.288694 
L 415.272492 175.215699 
L 415.336648 179.89106 
L 415.400805 177.774498 
L 415.464961 177.900862 
L 415.529117 177.047937 
L 415.721586 181.059882 
L 415.849899 178.848578 
L 415.914055 180.743985 
L 415.978212 180.396491 
L 416.298993 182.95529 
L 416.363149 182.95529 
L 416.427306 180.080594 
L 416.619775 181.123076 
L 416.683931 179.701503 
L 416.812244 173.667785 
L 416.8764 172.751667 
L 417.068869 173.825722 
L 417.133025 176.447715 
L 417.325494 173.478228 
L 417.646276 170.571935 
L 417.710432 171.36169 
L 417.774589 166.717925 
L 417.967058 169.181982 
L 418.031214 167.033847 
L 418.223683 170.571935 
L 418.480308 170.635128 
L 418.544464 164.56979 
L 418.608621 165.201609 
L 418.672777 164.411854 
L 418.865246 164.980479 
L 419.057715 159.70492 
L 419.121871 159.894453 
L 419.31434 158.378137 
L 419.570966 168.297436 
L 419.763435 170.382401 
L 419.891747 170.287634 
L 420.02006 175.87909 
L 420.212529 175.310466 
L 420.276685 174.647074 
L 420.340841 171.961911 
L 420.404998 174.425944 
L 420.469154 173.952086 
L 420.661623 172.87803 
L 420.854092 168.171072 
L 420.918248 166.496795 
L 421.110717 168.044732 
L 421.174874 173.193928 
L 421.23903 172.562133 
L 421.303186 174.489114 
L 421.367343 172.183042 
L 421.559812 171.709184 
L 421.752281 165.517506 
L 421.816437 168.897657 
L 422.008906 168.455396 
L 422.073062 169.876946 
L 422.265531 164.159126 
L 422.522156 167.886772 
L 422.586313 166.433625 
L 422.650469 163.464138 
L 422.714625 163.558905 
L 422.907094 162.579616 
L 422.971251 164.127529 
L 423.035407 161.41077 
L 423.099563 162.895513 
L 423.16372 161.3476 
L 423.356189 161.600327 
L 423.548658 159.231062 
L 423.612814 163.148241 
L 423.869439 156.798626 
L 423.933596 159.294232 
L 423.997752 155.155922 
L 424.061908 156.040444 
L 424.38269 164.601387 
L 424.511002 162.800747 
L 424.767628 166.086131 
L 424.831784 165.801807 
L 424.89594 166.022961 
L 425.152566 162.390082 
L 425.216722 163.116644 
L 425.345035 170.319207 
L 425.409191 169.434685 
L 425.60166 170.951026 
L 425.729973 170.540338 
L 425.858285 173.130758 
L 426.179067 170.508765 
L 426.307379 165.991364 
L 426.499848 166.275664 
L 426.564005 165.770234 
L 426.756474 171.898717 
L 426.948943 171.203753 
L 427.141412 176.795209 
L 427.398037 170.508765 
L 427.462193 170.382401 
L 427.911288 163.495735 
L 427.975444 164.380257 
L 428.0396 165.517506 
L 428.103756 171.51965 
L 428.296225 170.698298 
L 428.424538 163.748462 
L 428.552851 164.28549 
L 428.74532 164.443451 
L 428.873632 161.884628 
L 429.001945 162.99028 
L 429.194414 163.558905 
L 429.25857 163.021877 
L 429.386883 168.297436 
L 429.451039 163.780035 
L 429.643508 163.590502 
L 429.771821 160.21035 
L 429.835977 163.369371 
L 429.900134 163.337774 
L 430.156759 164.317087 
L 430.349228 158.093788 
L 430.541697 161.789861 
L 430.670009 171.393287 
L 430.734166 169.94014 
L 430.798322 169.403112 
L 431.054947 168.234266 
L 431.119104 163.085071 
L 431.18326 163.432541 
L 431.247416 162.800747 
L 431.504042 167.128614 
L 431.568198 165.233206 
L 431.632354 165.296376 
L 431.696511 166.433625 
L 431.88898 166.686353 
L 432.017292 172.467342 
L 432.145605 170.192868 
L 432.40223 168.550163 
L 432.466386 169.087191 
L 432.594699 174.805035 
L 432.787168 174.425944 
L 432.851324 172.751667 
L 432.915481 174.868205 
L 432.979637 171.677587 
L 433.043793 173.130758 
L 433.300419 178.121992 
L 433.364575 175.847493 
L 433.492888 185.798413 
L 433.685357 182.228729 
L 433.941982 190.979206 
L 434.134451 189.336525 
L 434.198607 187.662248 
L 434.262763 191.832155 
L 434.32692 190.568541 
L 434.391076 188.54677 
L 434.647701 190.18945 
L 434.711858 194.770045 
L 434.776014 193.664392 
L 434.84017 190.379008 
L 435.032639 190.252644 
L 435.096796 190.789672 
L 435.225108 186.619766 
L 435.289265 189.68402 
L 435.481734 190.694905 
L 435.54589 190.347411 
L 435.610046 190.758075 
L 435.674203 188.60994 
L 435.738359 191.073972 
L 435.994984 187.03043 
L 436.123297 183.713472 
L 436.187453 185.071852 
L 436.379922 186.272271 
L 436.444078 187.788612 
L 436.508235 187.377924 
L 436.572391 183.650278 
L 436.636547 183.934603 
L 436.829016 185.387749 
L 437.021485 178.469486 
L 437.278111 178.53268 
L 437.47058 185.135022 
L 437.534736 180.996713 
L 437.727205 180.364894 
L 437.791361 181.059882 
L 437.855518 179.701503 
L 437.919674 182.513029 
L 437.98383 181.628507 
L 438.176299 181.502143 
L 438.240455 180.459685 
L 438.432924 189.336525 
L 438.625393 189.241759 
L 438.753706 193.443238 
L 438.882019 187.978145 
L 439.074488 187.314754 
L 439.2028 189.90515 
L 439.331113 187.662248 
L 439.587738 188.60994 
L 439.651895 190.852842 
L 439.780207 186.904066 
L 439.972676 188.894264 
L 440.165145 196.444322 
L 440.229301 193.285301 
L 440.42177 193.095768 
L 440.485927 193.664392 
L 440.935021 177.395431 
L 441.12749 183.523915 
L 441.319959 186.272271 
L 441.384115 185.387749 
L 441.448272 188.452003 
L 441.512428 184.819125 
L 441.576584 185.956374 
L 441.897366 186.746129 
L 442.025678 183.271211 
L 442.218147 183.618706 
L 442.282304 181.407377 
L 442.34646 184.755931 
L 442.410616 182.765756 
L 442.474773 182.797353 
L 442.731398 181.407377 
L 442.859711 177.711328 
L 442.923867 179.038111 
L 443.116336 180.206957 
L 443.308805 177.047937 
L 443.372961 175.784324 
L 443.629587 178.31155 
L 443.822056 175.87909 
L 444.078681 178.216759 
L 444.142837 179.764696 
L 444.206993 177.332237 
L 444.27115 182.070768 
L 444.463619 186.777726 
L 444.527775 185.482516 
L 444.591931 186.082738 
L 444.656088 186.809299 
L 444.720244 186.177505 
L 444.912713 187.472691 
L 444.976869 185.419346 
L 445.041026 189.336525 
L 445.105182 188.799498 
L 445.169338 186.935663 
L 445.361807 186.714532 
L 445.425964 188.673134 
L 445.49012 188.294043 
L 445.618433 182.386665 
L 445.810902 183.17642 
L 445.875058 184.02937 
L 445.939214 181.818065 
L 446.00337 181.849638 
L 446.067527 181.37578 
L 446.259996 178.816981 
L 446.324152 180.112191 
L 446.516621 177.23747 
L 446.70909 179.448799 
L 446.773246 181.754871 
L 446.837403 181.24944 
L 446.901559 180.428088 
L 447.286497 185.387749 
L 447.350653 183.997773 
L 447.41481 187.219987 
L 447.607279 185.83001 
L 447.671435 188.704707 
L 447.735591 187.820185 
L 447.799747 187.25156 
L 447.863904 189.052201 
L 448.056373 189.052201 
L 448.184685 195.180709 
L 448.248842 193.474835 
L 448.312998 193.632795 
L 448.569623 194.959578 
L 448.697936 192.116455 
L 448.954561 196.633855 
L 449.018718 194.390954 
L 449.211187 206.458412 
L 449.403656 207.658831 
L 449.596125 200.677398 
L 449.660281 201.941011 
L 449.85275 202.098972 
L 449.916906 201.27762 
L 450.109375 204.341874 
L 450.301844 204.815732 
L 450.558469 200.298331 
L 450.750938 201.119659 
L 451.007564 209.743796 
L 451.328345 208.101116 
L 451.392502 208.132689 
L 451.456658 205.479123 
L 451.649127 203.141455 
L 451.713283 203.362585 
L 451.777439 203.141455 
L 451.841596 203.299391 
L 451.905752 201.21445 
L 452.162377 200.077201 
L 452.226534 200.203564 
L 452.354846 199.824473 
L 452.547315 200.645825 
L 452.611472 200.235137 
L 452.675628 202.004205 
L 452.803941 199.224252 
L 452.99641 197.486805 
L 453.060566 191.358297 
L 453.445504 187.946549 
L 453.50966 188.009742 
L 453.637973 190.568541 
L 454.022911 180.743985 
L 454.151223 182.197132 
L 454.343692 180.301724 
L 454.472005 184.408461 
L 454.536161 184.345267 
L 454.600318 181.154649 
L 454.792787 179.701503 
L 454.921099 177.679731 
L 454.985256 173.288694 
L 455.049412 177.806095 
L 455.306037 179.95423 
L 455.370194 180.554452 
L 455.43435 183.018484 
L 455.498506 181.53374 
L 455.690975 182.95529 
L 455.755131 184.345267 
L 455.819288 183.966176 
L 455.883444 183.871409 
L 455.9476 185.861607 
L 456.332538 180.965116 
L 456.396695 182.797353 
L 456.589164 183.17642 
L 456.781633 178.248356 
L 456.845789 181.438974 
L 457.038258 183.144848 
L 457.294883 177.047937 
L 457.551509 179.543566 
L 457.615665 180.996713 
L 457.743977 178.216759 
L 458.000603 177.23747 
L 458.064759 178.343123 
L 458.128915 181.786468 
L 458.193072 179.511969 
L 458.385541 180.649218 
L 458.449697 178.753811 
L 458.642166 188.704707 
L 458.962948 183.587109 
L 459.09126 179.511969 
L 459.283729 180.649218 
L 459.347886 177.964056 
L 459.412042 178.690617 
L 459.476198 181.470571 
L 459.540355 178.943344 
L 459.732823 179.164475 
L 459.79698 180.0174 
L 459.989449 169.118788 
L 460.181918 168.486993 
L 460.246074 168.771294 
L 460.374387 163.748462 
L 460.438543 164.127529 
L 460.759325 173.351888 
L 460.887637 171.740781 
L 461.080106 173.130758 
L 461.208419 170.951026 
L 461.336732 176.037051 
L 461.529201 175.057738 
L 461.593357 177.490198 
L 461.657513 177.332237 
L 461.721669 175.310466 
L 461.978295 177.1743 
L 462.042451 176.352948 
L 462.106607 173.193928 
L 462.170764 173.762552 
L 462.23492 172.435769 
L 462.427389 174.931399 
L 462.555702 172.151445 
L 462.619858 174.01528 
L 462.684014 172.909603 
L 462.876483 171.835548 
L 462.94064 168.834488 
L 463.004796 170.540338 
L 463.068952 168.929254 
L 463.133109 169.466282 
L 463.325578 166.370431 
L 463.389734 167.539278 
L 463.45389 165.106842 
L 463.518047 166.433625 
L 463.582203 165.549103 
L 463.838828 167.00225 
L 464.031297 159.894453 
L 464.352079 155.756144 
L 464.480391 147.10041 
L 464.67286 145.173405 
L 464.801173 152.281202 
L 464.929486 147.38471 
L 465.121955 151.301913 
L 465.186111 151.049186 
L 465.250267 150.733312 
L 465.37858 148.269232 
L 465.571049 147.542671 
L 465.763518 143.751855 
L 465.827674 148.364047 
L 466.084299 143.972962 
L 466.148456 146.658149 
L 466.212612 143.720283 
L 466.276768 144.004583 
L 466.469237 145.8052 
L 466.59755 139.581925 
L 466.725863 145.205026 
L 466.918332 144.636377 
L 466.982488 144.794338 
L 467.110801 152.660269 
L 467.174957 152.186435 
L 467.367426 149.817169 
L 467.431582 151.049186 
L 467.559895 146.563382 
L 467.624051 147.542671 
L 467.81652 146.752915 
L 467.880676 149.027414 
L 467.944833 147.226798 
L 468.008989 149.216948 
L 468.073145 148.237659 
L 468.265614 148.111319 
L 468.329771 147.10041 
L 468.907178 120.248734 
L 468.971334 121.133256 
L 469.356272 98.198783 
L 469.420428 101.926404 
L 469.612897 108.528794 
L 469.677053 103.821836 
L 469.74121 106.886089 
L 469.805366 109.918722 
L 469.869522 102.463432 
L 470.061991 104.32729 
L 470.190304 96.650845 
L 470.25446 98.419889 
L 470.318617 98.293549 
L 470.575242 98.514656 
L 470.639398 97.819715 
L 470.703555 106.254295 
L 470.767711 103.000507 
L 470.96018 111.18236 
L 471.216805 132.221449 
L 471.601743 121.164877 
L 471.665899 115.320669 
L 471.858368 115.415436 
L 471.922525 110.013489 
L 471.986681 116.647452 
L 472.050837 113.772732 
L 472.114994 112.667103 
L 472.371619 110.992826 
L 472.435775 109.88715 
L 472.564088 102.368665 
L 472.756557 106.191101 
L 472.820713 104.959085 
L 472.949026 114.34138 
L 473.013182 119.901239 
L 473.205651 116.679025 
L 473.269808 122.080971 
L 473.333964 121.543944 
L 473.654745 125.934981 
L 473.783058 122.933921 
L 473.911371 125.966553 
L 474.10384 129.94695 
L 474.167996 129.662602 
L 474.296309 117.374013 
L 474.360465 119.522172 
L 474.61709 130.294445 
L 474.681247 127.672452 
L 474.809559 137.37062 
L 475.002028 137.08632 
L 475.194497 127.893558 
L 475.258654 128.36744 
L 475.451123 127.577685 
L 475.579435 119.395785 
L 475.643591 122.175738 
L 475.900217 120.311928 
L 475.964373 117.721507 
L 476.028529 119.016717 
L 476.156842 119.964433 
L 476.349311 126.629969 
L 476.413467 117.46878 
L 476.477624 121.923011 
L 476.605936 126.503581 
L 476.862562 125.524292 
L 476.926718 122.080971 
L 476.990874 129.346729 
L 477.055031 124.323897 
L 477.439969 132.442556 
L 477.504125 131.873955 
L 477.696594 132.505749 
L 477.889063 130.231251 
L 477.953219 129.757369 
L 478.145688 131.336879 
L 478.209844 135.570003 
L 478.338157 130.736706 
L 478.402313 124.07117 
L 478.658939 128.714934 
L 478.723095 131.589606 
L 478.787251 130.07329 
L 478.851408 126.219281 
L 479.043877 127.546064 
L 479.172189 122.396893 
L 479.236346 123.786821 
L 479.300502 127.546064 
L 479.621283 121.417556 
L 479.942065 107.739039 
L 480.006221 111.308699 
L 480.19869 102.653013 
L 480.391159 103.790263 
L 480.519472 114.941602 
L 480.583628 112.919831 
L 480.647785 107.296778 
L 480.840254 106.03314 
L 480.968566 110.645332 
L 481.096879 106.917662 
L 481.353504 103.790263 
L 481.417661 103.821836 
L 481.802598 86.384028 
L 481.866755 88.911254 
L 481.995067 72.926617 
L 482.187536 77.25446 
L 482.636631 22.445479 
L 482.764943 69.072608 
L 482.8291 66.008354 
L 482.893256 77.25446 
L 483.085725 45.759019 
L 483.214038 107.549457 
L 483.278194 95.134529 
L 483.34235 59.911467 
L 483.534819 39.156678 
L 483.663132 50.086911 
L 483.727288 47.559684 
L 483.791444 33.786352 
L 483.983913 38.145768 
L 484.04807 42.410465 
L 484.240539 31.259126 
L 484.433008 32.649103 
L 484.56132 42.031398 
L 484.625477 41.083682 
L 484.946258 45.980174 
L 485.074571 26.236294 
L 485.138727 33.438858 
L 485.331196 29.174161 
L 485.395353 22.445479 
L 485.459509 27.973765 
L 485.523665 25.130618 
L 485.587821 23.867029 
L 485.78029 33.912692 
L 485.844447 27.815805 
L 485.908603 30.59571 
L 485.972759 36.818985 
L 486.036916 32.996597 
L 486.229385 35.492202 
L 486.357697 47.33853 
L 486.421854 38.714417 
L 486.48601 45.537913 
L 486.678479 49.581456 
L 486.870948 35.555396 
L 486.935104 36.913752 
L 487.127573 48.475779 
L 487.19173 46.548775 
L 487.384199 40.578227 
L 487.769136 50.434405 
L 487.833293 46.769929 
L 488.089918 52.772049 
L 488.282387 70.399391 
L 488.474856 68.503959 
L 488.667325 45.853786 
L 488.731481 50.845045 
L 488.92395 50.560744 
L 488.988107 58.426723 
L 489.052263 56.341758 
L 489.180576 50.560744 
L 489.373045 50.49755 
L 489.437201 54.004065 
L 489.62967 41.525943 
L 489.822139 43.168647 
L 489.950451 47.306957 
L 490.014608 46.769929 
L 490.271233 48.886467 
L 490.463702 35.460629 
L 490.527858 38.114195 
L 490.784484 35.61859 
L 490.84864 38.082622 
L 490.912796 35.586969 
L 490.976953 36.692645 
L 491.233578 35.081562 
L 491.297734 33.502052 
L 491.361891 27.31035 
L 491.426047 27.341923 
L 491.618516 29.332121 
L 491.810985 23.01408 
L 491.875141 23.361574 
L 492.06761 26.678555 
L 492.131766 21.560909 
L 492.195923 26.29944 
L 492.260079 23.29838 
L 492.324235 26.899662 
L 492.516704 29.300548 
L 492.77333 48.065139 
L 492.965799 46.769929 
L 493.029955 43.073881 
L 493.094111 46.327668 
L 493.222424 38.524883 
L 493.414893 39.377832 
L 493.671518 54.572714 
L 493.863987 51.192539 
L 494.056456 39.504172 
L 494.120612 49.455068 
L 494.377238 46.296047 
L 494.441394 47.686024 
L 494.569707 43.958403 
L 494.762176 43.989975 
L 494.890488 46.801502 
L 494.954645 45.221992 
L 495.018801 46.833075 
L 495.467895 41.936631 
L 495.660364 43.421375 
L 495.72452 42.821153 
L 495.916989 49.423495 
L 496.109458 59.469158 
L 496.173615 56.752446 
L 496.237771 60.448495 
L 496.301927 57.731735 
L 496.366084 57.826502 
L 496.558553 56.21537 
L 496.686865 51.413693 
L 497.007647 55.64677 
L 497.200116 67.429903 
L 497.520897 56.373331 
L 497.585054 55.899497 
L 497.713366 65.787199 
L 497.905835 62.596606 
L 497.969992 65.502899 
L 498.098304 53.814532 
L 498.35493 70.557351 
L 498.419086 73.400451 
L 498.483242 71.631407 
L 498.547399 63.260021 
L 498.611555 63.923388 
L 498.804024 65.123832 
L 499.060649 53.340698 
L 499.253118 55.678342 
L 499.381431 62.280732 
L 499.509743 57.415813 
L 499.702212 58.047608 
L 499.830525 69.95713 
L 499.894681 65.976781 
L 499.958838 73.274111 
L 500.407932 61.996384 
L 500.600401 63.386361 
L 500.857026 69.704402 
L 501.049495 67.745825 
L 501.113652 65.187026 
L 501.177808 68.630347 
L 501.241964 66.671769 
L 501.498589 66.450615 
L 501.562746 67.082409 
L 501.691058 65.281792 
L 501.947684 65.882014 
L 502.01184 69.578063 
L 502.204309 85.531079 
L 502.460934 86.699949 
L 502.525091 81.329623 
L 502.589247 85.847 
L 502.653403 83.951568 
L 502.974185 81.929797 
L 503.038341 85.309972 
L 503.102498 83.762035 
L 503.294967 78.107409 
L 503.359123 79.023504 
L 503.423279 77.791487 
L 503.551592 83.382968 
L 503.744061 83.382968 
L 504.000686 95.924284 
L 504.257311 93.523445 
L 504.321468 90.395997 
L 504.706406 105.906801 
L 504.770562 103.000507 
L 504.834718 104.864318 
L 504.898875 110.961205 
L 505.219656 118.63765 
L 505.283813 125.903408 
L 505.347969 111.435087 
L 505.732907 125.587486 
L 505.797063 124.734537 
L 505.989532 128.146285 
L 506.117845 121.228022 
L 506.182001 124.418664 
L 506.246157 133.737766 
L 506.438626 131.210539 
L 506.566939 136.170225 
L 506.631095 140.498068 
L 506.695252 137.876075 
L 506.951877 129.220341 
L 507.016033 126.882696 
L 507.144346 131.842334 
L 507.336815 135.506809 
L 507.400971 133.263884 
L 507.465127 135.66477 
L 507.529284 129.157195 
L 507.785909 131.052579 
L 507.850065 128.114713 
L 507.914222 131.147345 
L 507.978378 127.577685 
L 508.042534 129.157195 
L 508.235003 129.346729 
L 508.427472 120.18554 
L 508.491629 123.628909 
L 508.684098 124.892498 
L 508.876567 120.0592 
L 508.940723 121.101683 
L 509.133192 121.733477 
L 509.197348 125.587486 
L 509.261505 125.303186 
L 509.325661 126.598348 
L 509.389817 125.587486 
L 509.582286 125.966553 
L 509.646442 122.997066 
L 509.646442 122.997066 
" style="fill:none;stroke:#4c72b0;stroke-linecap:round;stroke-width:1.5;"/>
   </g>
   <g id="patch_3">
    <path d="M 48 323.14 
L 48 7.2 
" style="fill:none;stroke:#ffffff;stroke-linecap:square;stroke-linejoin:miter;stroke-width:1.25;"/>
   </g>
   <g id="patch_4">
    <path d="M 48 323.14 
L 531.629606 323.14 
" style="fill:none;stroke:#ffffff;stroke-linecap:square;stroke-linejoin:miter;stroke-width:1.25;"/>
   </g>
  </g>
 </g>
 <defs>
  <clipPath id="p3dfd189373">
   <rect height="315.94" width="483.629606" x="48" y="7.2"/>
  </clipPath>
 </defs>
</svg>
