<?xml version="1.0" encoding="utf-8" standalone="no"?>
<!DOCTYPE svg PUBLIC "-//W3C//DTD SVG 1.1//EN"
  "http://www.w3.org/Graphics/SVG/1.1/DTD/svg11.dtd">
<svg height="349.12125pt" version="1.1" viewBox="0 0 543.366776 349.12125" width="543.366776pt" xmlns="http://www.w3.org/2000/svg" xmlns:xlink="http://www.w3.org/1999/xlink">
 <metadata>
  <rdf:RDF xmlns:cc="http://creativecommons.org/ns#" xmlns:dc="http://purl.org/dc/elements/1.1/" xmlns:rdf="http://www.w3.org/1999/02/22-rdf-syntax-ns#">
   <cc:Work>
    <dc:type rdf:resource="http://purl.org/dc/dcmitype/StillImage"/>
    <dc:date>2021-05-05T07:08:30.193398</dc:date>
    <dc:format>image/svg+xml</dc:format>
    <dc:creator>
     <cc:Agent>
      <dc:title>Matplotlib v3.4.1, https://matplotlib.org/</dc:title>
     </cc:Agent>
    </dc:creator>
   </cc:Work>
  </rdf:RDF>
 </metadata>
 <defs>
  <style type="text/css">*{stroke-linecap:butt;stroke-linejoin:round;}</style>
 </defs>
 <g id="figure_1">
  <g id="patch_1">
   <path d="M 0 349.12125 
L 543.366776 349.12125 
L 543.366776 0 
L 0 0 
z
" style="fill:#ffffff;"/>
  </g>
  <g id="axes_1">
   <g id="patch_2">
    <path d="M 53.5 323.14 
L 531.549606 323.14 
L 531.549606 7.2 
L 53.5 7.2 
z
" style="fill:#eaeaf2;"/>
   </g>
   <g id="matplotlib.axis_1">
    <g id="xtick_1">
     <g id="line2d_1">
      <path clip-path="url(#p51267bee30)" d="M 61.912146 323.14 
L 61.912146 7.2 
" style="fill:none;stroke:#ffffff;stroke-linecap:round;"/>
     </g>
     <g id="text_1">
      <!-- 2002 -->
      <g style="fill:#262626;" transform="translate(50.912146 340.900312)scale(0.11 -0.11)">
       <defs>
        <path d="M 2900 325 
L 250 325 
Q 441 1553 1528 2453 
Q 1963 2806 2116 3034 
Q 2316 3319 2316 3706 
Q 2316 4022 2175 4219 
Q 1994 4494 1631 4494 
Q 894 4494 825 3406 
L 322 3406 
Q 359 4056 628 4428 
Q 981 4928 1644 4928 
Q 2106 4928 2425 4659 
Q 2828 4313 2828 3713 
Q 2828 2875 1881 2156 
Q 1072 1541 909 800 
L 2900 800 
L 2900 325 
z
" id="IPAGothic-32" transform="scale(0.015625)"/>
        <path d="M 1600 4934 
Q 2844 4934 2844 2566 
Q 2844 197 1600 197 
Q 359 197 359 2566 
Q 359 4934 1600 4934 
z
M 975 1453 
L 2119 4063 
Q 1938 4494 1594 4494 
Q 884 4494 884 2566 
Q 884 1909 975 1453 
z
M 1081 1075 
Q 1256 638 1600 638 
Q 2319 638 2319 2572 
Q 2319 3213 2228 3675 
L 1081 1075 
z
" id="IPAGothic-30" transform="scale(0.015625)"/>
       </defs>
       <use xlink:href="#IPAGothic-32"/>
       <use x="50" xlink:href="#IPAGothic-30"/>
       <use x="100" xlink:href="#IPAGothic-30"/>
       <use x="150" xlink:href="#IPAGothic-32"/>
      </g>
     </g>
    </g>
    <g id="xtick_2">
     <g id="line2d_2">
      <path clip-path="url(#p51267bee30)" d="M 108.205901 323.14 
L 108.205901 7.2 
" style="fill:none;stroke:#ffffff;stroke-linecap:round;"/>
     </g>
     <g id="text_2">
      <!-- 2004 -->
      <g style="fill:#262626;" transform="translate(97.205901 340.900312)scale(0.11 -0.11)">
       <defs>
        <path d="M 1966 4806 
L 2509 4806 
L 2509 1869 
L 3041 1869 
L 3041 1434 
L 2509 1434 
L 2509 325 
L 2034 325 
L 2034 1434 
L 159 1434 
L 159 1881 
L 1966 4806 
z
M 2034 4109 
L 641 1869 
L 2034 1869 
L 2034 4109 
z
" id="IPAGothic-34" transform="scale(0.015625)"/>
       </defs>
       <use xlink:href="#IPAGothic-32"/>
       <use x="50" xlink:href="#IPAGothic-30"/>
       <use x="100" xlink:href="#IPAGothic-30"/>
       <use x="150" xlink:href="#IPAGothic-34"/>
      </g>
     </g>
    </g>
    <g id="xtick_3">
     <g id="line2d_3">
      <path clip-path="url(#p51267bee30)" d="M 154.563072 323.14 
L 154.563072 7.2 
" style="fill:none;stroke:#ffffff;stroke-linecap:round;"/>
     </g>
     <g id="text_3">
      <!-- 2006 -->
      <g style="fill:#262626;" transform="translate(143.563072 340.900312)scale(0.11 -0.11)">
       <defs>
        <path d="M 2322 3809 
Q 2225 4488 1713 4488 
Q 1269 4488 1028 3950 
Q 803 3447 794 2588 
Q 1159 3119 1725 3119 
Q 2194 3119 2519 2772 
Q 2903 2369 2903 1709 
Q 2903 1159 2641 750 
Q 2284 200 1638 200 
Q 1050 200 697 738 
Q 319 1328 319 2375 
Q 319 3488 650 4172 
Q 1028 4934 1706 4934 
Q 2634 4934 2847 3809 
L 2322 3809 
z
M 1644 2703 
Q 1272 2703 1047 2363 
Q 875 2094 875 1691 
Q 875 1328 997 1075 
Q 1209 641 1650 641 
Q 2003 641 2219 959 
Q 2409 1241 2409 1697 
Q 2409 2113 2244 2375 
Q 2041 2703 1644 2703 
z
" id="IPAGothic-36" transform="scale(0.015625)"/>
       </defs>
       <use xlink:href="#IPAGothic-32"/>
       <use x="50" xlink:href="#IPAGothic-30"/>
       <use x="100" xlink:href="#IPAGothic-30"/>
       <use x="150" xlink:href="#IPAGothic-36"/>
      </g>
     </g>
    </g>
    <g id="xtick_4">
     <g id="line2d_4">
      <path clip-path="url(#p51267bee30)" d="M 200.856827 323.14 
L 200.856827 7.2 
" style="fill:none;stroke:#ffffff;stroke-linecap:round;"/>
     </g>
     <g id="text_4">
      <!-- 2008 -->
      <g style="fill:#262626;" transform="translate(189.856827 340.900312)scale(0.11 -0.11)">
       <defs>
        <path d="M 1050 2741 
Q 403 3056 403 3750 
Q 403 4084 563 4359 
Q 900 4934 1600 4934 
Q 1950 4934 2253 4750 
Q 2797 4416 2797 3750 
Q 2797 3056 2150 2741 
Q 2978 2422 2978 1541 
Q 2978 1038 2697 678 
Q 2322 197 1600 197 
Q 988 197 616 550 
Q 225 922 225 1541 
Q 225 2422 1050 2741 
z
M 1600 4525 
Q 1278 4525 1075 4294 
Q 891 4078 891 3756 
Q 891 3544 969 3372 
Q 1159 2956 1606 2956 
Q 1863 2956 2041 3116 
Q 2309 3347 2309 3756 
Q 2309 4156 2041 4378 
Q 1856 4525 1600 4525 
z
M 1594 2497 
Q 1178 2497 931 2191 
Q 725 1925 725 1541 
Q 725 1172 925 925 
Q 1172 619 1600 619 
Q 2031 619 2281 925 
Q 2478 1172 2478 1541 
Q 2478 2022 2184 2278 
Q 1947 2497 1594 2497 
z
" id="IPAGothic-38" transform="scale(0.015625)"/>
       </defs>
       <use xlink:href="#IPAGothic-32"/>
       <use x="50" xlink:href="#IPAGothic-30"/>
       <use x="100" xlink:href="#IPAGothic-30"/>
       <use x="150" xlink:href="#IPAGothic-38"/>
      </g>
     </g>
    </g>
    <g id="xtick_5">
     <g id="line2d_5">
      <path clip-path="url(#p51267bee30)" d="M 247.213998 323.14 
L 247.213998 7.2 
" style="fill:none;stroke:#ffffff;stroke-linecap:round;"/>
     </g>
     <g id="text_5">
      <!-- 2010 -->
      <g style="fill:#262626;" transform="translate(236.213998 340.900312)scale(0.11 -0.11)">
       <defs>
        <path d="M 1428 325 
L 1428 4153 
Q 1188 3991 756 3809 
L 756 4325 
Q 1256 4509 1563 4806 
L 1953 4806 
L 1953 325 
L 1428 325 
z
" id="IPAGothic-31" transform="scale(0.015625)"/>
       </defs>
       <use xlink:href="#IPAGothic-32"/>
       <use x="50" xlink:href="#IPAGothic-30"/>
       <use x="100" xlink:href="#IPAGothic-31"/>
       <use x="150" xlink:href="#IPAGothic-30"/>
      </g>
     </g>
    </g>
    <g id="xtick_6">
     <g id="line2d_6">
      <path clip-path="url(#p51267bee30)" d="M 293.507753 323.14 
L 293.507753 7.2 
" style="fill:none;stroke:#ffffff;stroke-linecap:round;"/>
     </g>
     <g id="text_6">
      <!-- 2012 -->
      <g style="fill:#262626;" transform="translate(282.507753 340.900312)scale(0.11 -0.11)">
       <use xlink:href="#IPAGothic-32"/>
       <use x="50" xlink:href="#IPAGothic-30"/>
       <use x="100" xlink:href="#IPAGothic-31"/>
       <use x="150" xlink:href="#IPAGothic-32"/>
      </g>
     </g>
    </g>
    <g id="xtick_7">
     <g id="line2d_7">
      <path clip-path="url(#p51267bee30)" d="M 339.864924 323.14 
L 339.864924 7.2 
" style="fill:none;stroke:#ffffff;stroke-linecap:round;"/>
     </g>
     <g id="text_7">
      <!-- 2014 -->
      <g style="fill:#262626;" transform="translate(328.864924 340.900312)scale(0.11 -0.11)">
       <use xlink:href="#IPAGothic-32"/>
       <use x="50" xlink:href="#IPAGothic-30"/>
       <use x="100" xlink:href="#IPAGothic-31"/>
       <use x="150" xlink:href="#IPAGothic-34"/>
      </g>
     </g>
    </g>
    <g id="xtick_8">
     <g id="line2d_8">
      <path clip-path="url(#p51267bee30)" d="M 386.158679 323.14 
L 386.158679 7.2 
" style="fill:none;stroke:#ffffff;stroke-linecap:round;"/>
     </g>
     <g id="text_8">
      <!-- 2016 -->
      <g style="fill:#262626;" transform="translate(375.158679 340.900312)scale(0.11 -0.11)">
       <use xlink:href="#IPAGothic-32"/>
       <use x="50" xlink:href="#IPAGothic-30"/>
       <use x="100" xlink:href="#IPAGothic-31"/>
       <use x="150" xlink:href="#IPAGothic-36"/>
      </g>
     </g>
    </g>
    <g id="xtick_9">
     <g id="line2d_9">
      <path clip-path="url(#p51267bee30)" d="M 432.51585 323.14 
L 432.51585 7.2 
" style="fill:none;stroke:#ffffff;stroke-linecap:round;"/>
     </g>
     <g id="text_9">
      <!-- 2018 -->
      <g style="fill:#262626;" transform="translate(421.51585 340.900312)scale(0.11 -0.11)">
       <use xlink:href="#IPAGothic-32"/>
       <use x="50" xlink:href="#IPAGothic-30"/>
       <use x="100" xlink:href="#IPAGothic-31"/>
       <use x="150" xlink:href="#IPAGothic-38"/>
      </g>
     </g>
    </g>
    <g id="xtick_10">
     <g id="line2d_10">
      <path clip-path="url(#p51267bee30)" d="M 478.809605 323.14 
L 478.809605 7.2 
" style="fill:none;stroke:#ffffff;stroke-linecap:round;"/>
     </g>
     <g id="text_10">
      <!-- 2020 -->
      <g style="fill:#262626;" transform="translate(467.809605 340.900312)scale(0.11 -0.11)">
       <use xlink:href="#IPAGothic-32"/>
       <use x="50" xlink:href="#IPAGothic-30"/>
       <use x="100" xlink:href="#IPAGothic-32"/>
       <use x="150" xlink:href="#IPAGothic-30"/>
      </g>
     </g>
    </g>
    <g id="xtick_11">
     <g id="line2d_11">
      <path clip-path="url(#p51267bee30)" d="M 525.166776 323.14 
L 525.166776 7.2 
" style="fill:none;stroke:#ffffff;stroke-linecap:round;"/>
     </g>
     <g id="text_11">
      <!-- 2022 -->
      <g style="fill:#262626;" transform="translate(514.166776 340.900312)scale(0.11 -0.11)">
       <use xlink:href="#IPAGothic-32"/>
       <use x="50" xlink:href="#IPAGothic-30"/>
       <use x="100" xlink:href="#IPAGothic-32"/>
       <use x="150" xlink:href="#IPAGothic-32"/>
      </g>
     </g>
    </g>
   </g>
   <g id="matplotlib.axis_2">
    <g id="ytick_1">
     <g id="line2d_12">
      <path clip-path="url(#p51267bee30)" d="M 53.5 306.479798 
L 531.549606 306.479798 
" style="fill:none;stroke:#ffffff;stroke-linecap:round;"/>
     </g>
     <g id="text_12">
      <!-- 0.98 -->
      <g style="fill:#262626;" transform="translate(22 310.609954)scale(0.11 -0.11)">
       <defs>
        <path d="M 588 831 
L 1444 831 
L 1444 -25 
L 588 -25 
L 588 831 
z
" id="IPAGothic-2e" transform="scale(0.015625)"/>
        <path d="M 909 1363 
Q 988 666 1569 666 
Q 2431 666 2422 2500 
Q 2063 1972 1519 1972 
Q 859 1972 531 2588 
Q 347 2947 347 3419 
Q 347 4019 672 4459 
Q 1022 4934 1569 4934 
Q 2888 4934 2888 2706 
Q 2888 197 1575 197 
Q 975 197 628 716 
Q 450 984 384 1363 
L 909 1363 
z
M 1591 4494 
Q 834 4494 834 3431 
Q 834 3038 969 2778 
Q 1169 2394 1591 2394 
Q 1859 2394 2069 2631 
Q 2338 2938 2338 3431 
Q 2338 3925 2125 4213 
Q 1922 4494 1591 4494 
z
" id="IPAGothic-39" transform="scale(0.015625)"/>
       </defs>
       <use xlink:href="#IPAGothic-30"/>
       <use x="50" xlink:href="#IPAGothic-2e"/>
       <use x="100" xlink:href="#IPAGothic-39"/>
       <use x="150" xlink:href="#IPAGothic-38"/>
      </g>
     </g>
    </g>
    <g id="ytick_2">
     <g id="line2d_13">
      <path clip-path="url(#p51267bee30)" d="M 53.5 244.183836 
L 531.549606 244.183836 
" style="fill:none;stroke:#ffffff;stroke-linecap:round;"/>
     </g>
     <g id="text_13">
      <!-- 1.00 -->
      <g style="fill:#262626;" transform="translate(22 248.313992)scale(0.11 -0.11)">
       <use xlink:href="#IPAGothic-31"/>
       <use x="50" xlink:href="#IPAGothic-2e"/>
       <use x="100" xlink:href="#IPAGothic-30"/>
       <use x="150" xlink:href="#IPAGothic-30"/>
      </g>
     </g>
    </g>
    <g id="ytick_3">
     <g id="line2d_14">
      <path clip-path="url(#p51267bee30)" d="M 53.5 181.887874 
L 531.549606 181.887874 
" style="fill:none;stroke:#ffffff;stroke-linecap:round;"/>
     </g>
     <g id="text_14">
      <!-- 1.02 -->
      <g style="fill:#262626;" transform="translate(22 186.01803)scale(0.11 -0.11)">
       <use xlink:href="#IPAGothic-31"/>
       <use x="50" xlink:href="#IPAGothic-2e"/>
       <use x="100" xlink:href="#IPAGothic-30"/>
       <use x="150" xlink:href="#IPAGothic-32"/>
      </g>
     </g>
    </g>
    <g id="ytick_4">
     <g id="line2d_15">
      <path clip-path="url(#p51267bee30)" d="M 53.5 119.591912 
L 531.549606 119.591912 
" style="fill:none;stroke:#ffffff;stroke-linecap:round;"/>
     </g>
     <g id="text_15">
      <!-- 1.04 -->
      <g style="fill:#262626;" transform="translate(22 123.722069)scale(0.11 -0.11)">
       <use xlink:href="#IPAGothic-31"/>
       <use x="50" xlink:href="#IPAGothic-2e"/>
       <use x="100" xlink:href="#IPAGothic-30"/>
       <use x="150" xlink:href="#IPAGothic-34"/>
      </g>
     </g>
    </g>
    <g id="ytick_5">
     <g id="line2d_16">
      <path clip-path="url(#p51267bee30)" d="M 53.5 57.295951 
L 531.549606 57.295951 
" style="fill:none;stroke:#ffffff;stroke-linecap:round;"/>
     </g>
     <g id="text_16">
      <!-- 1.06 -->
      <g style="fill:#262626;" transform="translate(22 61.426107)scale(0.11 -0.11)">
       <use xlink:href="#IPAGothic-31"/>
       <use x="50" xlink:href="#IPAGothic-2e"/>
       <use x="100" xlink:href="#IPAGothic-30"/>
       <use x="150" xlink:href="#IPAGothic-36"/>
      </g>
     </g>
    </g>
    <g id="text_17">
     <!-- 倍率 -->
     <g style="fill:#262626;" transform="translate(16.88625 177.17)rotate(-90)scale(0.12 -0.12)">
      <defs>
       <path d="M 1572 3784 
L 1572 -447 
L 1119 -447 
L 1119 2825 
Q 863 2369 550 1947 
L 300 2338 
Q 1184 3566 1572 5263 
L 2013 5134 
Q 1816 4394 1572 3784 
z
M 4128 4409 
L 5766 4409 
L 5766 4025 
L 5178 4025 
L 5166 3988 
Q 4991 3394 4756 2881 
L 6053 2881 
L 6053 2497 
L 1869 2497 
L 1869 2881 
L 3072 2881 
Q 2903 3528 2669 4025 
L 2144 4025 
L 2144 4409 
L 3681 4409 
L 3681 5313 
L 4128 5313 
L 4128 4409 
z
M 3156 4025 
Q 3363 3553 3559 2881 
L 4281 2881 
Q 4506 3381 4684 4025 
L 3156 4025 
z
M 5425 1863 
L 5425 -422 
L 4978 -422 
L 4978 -103 
L 2903 -103 
L 2903 -447 
L 2450 -447 
L 2450 1863 
L 5425 1863 
z
M 2903 1478 
L 2903 281 
L 4978 281 
L 4978 1478 
L 2903 1478 
z
" id="IPAGothic-500d" transform="scale(0.015625)"/>
       <path d="M 3022 2847 
Q 3334 3231 3681 3744 
L 4053 3525 
Q 3503 2766 2919 2181 
L 3266 2200 
Q 3575 2209 3822 2234 
Q 3728 2406 3572 2616 
L 3909 2772 
Q 4241 2350 4538 1766 
L 4153 1547 
Q 4078 1756 3994 1913 
L 3853 1894 
Q 3706 1875 3413 1850 
L 3413 1228 
L 6078 1228 
L 6078 819 
L 3413 819 
L 3413 -447 
L 2938 -447 
L 2938 819 
L 319 819 
L 319 1228 
L 2938 1228 
L 2938 1803 
L 2881 1797 
Q 2303 1759 2028 1747 
L 1900 2163 
Q 2316 2163 2413 2169 
Q 2519 2269 2772 2553 
Q 2344 3028 1913 3347 
L 2181 3653 
L 2444 3425 
Q 2681 3744 2869 4128 
L 544 4128 
L 544 4525 
L 2938 4525 
L 2938 5313 
L 3413 5313 
L 3413 4525 
L 5847 4525 
L 5847 4128 
L 2969 4128 
L 3278 3981 
Q 2988 3509 2694 3188 
Q 2850 3041 3022 2847 
z
M 1497 2822 
Q 1125 3263 691 3566 
L 997 3847 
Q 1406 3588 1828 3156 
L 1497 2822 
z
M 4216 3078 
Q 4791 3478 5144 3897 
L 5534 3616 
Q 5075 3178 4491 2803 
L 4216 3078 
z
M 5553 1631 
Q 4994 2109 4369 2444 
L 4659 2741 
Q 5353 2381 5894 1984 
L 5553 1631 
z
M 538 1925 
Q 1306 2297 1881 2803 
L 2072 2456 
Q 1619 2034 813 1528 
L 538 1925 
z
" id="IPAGothic-7387" transform="scale(0.015625)"/>
      </defs>
      <use xlink:href="#IPAGothic-500d"/>
      <use x="100" xlink:href="#IPAGothic-7387"/>
     </g>
    </g>
   </g>
   <g id="line2d_17">
    <path clip-path="url(#p51267bee30)" d="M 75.229528 244.183836 
L 75.419776 222.267604 
L 75.610024 217.269269 
L 75.67344 224.959061 
L 75.736856 220.345303 
L 75.800272 224.959061 
L 75.863689 224.190199 
L 76.053937 224.574777 
L 76.117353 219.19157 
L 76.307601 230.726552 
L 76.49785 230.341975 
L 76.561266 223.03676 
L 76.624682 225.728216 
L 76.688098 229.188535 
L 76.751514 225.343639 
L 76.941762 225.728216 
L 77.005178 228.035096 
L 77.195427 221.114165 
L 77.449091 218.807286 
L 77.512507 219.960725 
L 77.575923 216.500113 
L 77.639339 222.652182 
L 77.829588 226.881656 
L 77.893004 224.959061 
L 77.95642 226.881656 
L 78.083252 222.267604 
L 78.2735 223.421044 
L 78.527165 214.577812 
L 78.717413 213.808657 
L 78.780829 212.270933 
L 78.844245 215.346674 
L 78.907662 214.193234 
L 78.971078 207.656881 
L 79.161326 203.04283 
L 79.224742 211.501778 
L 79.288158 208.810321 
L 79.351574 208.425743 
L 79.41499 211.1172 
L 79.605239 207.272304 
L 79.668655 210.348338 
L 79.732071 203.811985 
L 79.795487 206.887726 
L 79.858903 211.886355 
L 80.049151 211.1172 
L 80.112567 223.03676 
L 80.175984 221.88332 
L 80.2394 224.574777 
L 80.302816 221.88332 
L 80.55648 229.188535 
L 80.683312 221.498743 
L 80.746728 216.115829 
L 80.936977 211.886355 
L 81.127225 199.966795 
L 81.190641 208.425743 
L 81.444306 211.886355 
L 81.571138 209.194898 
L 81.634554 210.348338 
L 81.951634 206.118864 
L 82.015051 213.808657 
L 82.078467 212.270933 
L 82.268715 212.270933 
L 82.332131 213.039795 
L 82.522379 221.114165 
L 82.712628 219.19157 
L 82.776044 213.424372 
L 82.83946 218.807286 
L 82.966292 217.269269 
L 83.15654 220.729587 
L 83.283373 217.653846 
L 83.410205 211.886355 
L 83.600453 211.1172 
L 83.663869 211.501778 
L 83.790701 207.656881 
L 83.854118 209.96376 
L 84.044366 211.501778 
L 84.234614 199.966795 
L 84.29803 201.504813 
L 84.488279 201.120528 
L 84.741943 191.508141 
L 84.932191 191.123563 
L 84.995607 194.199598 
L 85.12244 206.118864 
L 85.185856 205.734286 
L 85.376104 207.656881 
L 85.502936 202.658545 
L 85.566352 208.425743 
L 85.629768 204.196269 
L 85.820017 204.965425 
L 86.390762 195.353037 
L 86.517594 197.659916 
L 86.707842 197.659916 
L 86.771258 196.891054 
L 86.834674 199.582511 
L 86.89809 195.737615 
L 86.961507 196.506477 
L 87.151755 203.04283 
L 87.215171 199.582511 
L 87.278587 200.735951 
L 87.405419 196.506477 
L 87.595668 198.813356 
L 87.7225 194.96846 
L 87.785916 192.277003 
L 87.849332 194.96846 
L 88.102996 196.121899 
L 88.229829 192.66158 
L 88.293245 195.353037 
L 88.483493 193.81502 
L 88.737157 188.816684 
L 88.990822 192.277003 
L 89.18107 185.356072 
L 89.371318 182.280038 
L 89.498151 187.278667 
L 89.561567 196.891054 
L 89.624983 193.81502 
L 89.942063 201.120528 
L 90.005479 197.275339 
L 90.068896 205.350002 
L 90.512808 189.585546 
L 90.703057 187.278667 
L 90.829889 195.737615 
L 90.893305 193.81502 
L 91.146969 196.506477 
L 91.273802 191.508141 
L 91.400634 197.275339 
L 91.590882 199.966795 
L 91.717714 197.275339 
L 91.78113 199.966795 
L 92.034795 198.044494 
L 92.098211 198.429072 
L 92.288459 189.970124 
L 92.478707 190.738986 
L 92.542124 193.046158 
L 92.60554 186.509512 
L 92.732372 194.96846 
L 92.92262 192.66158 
L 93.049452 187.278667 
L 93.176285 189.585546 
L 93.366533 187.278667 
L 93.429949 188.047529 
L 93.620197 183.818055 
L 93.810446 183.049193 
L 93.873862 178.819719 
L 93.937278 183.049193 
L 94.000694 181.895754 
L 94.06411 180.742021 
L 94.317774 181.895754 
L 94.444607 178.819719 
L 94.508023 179.973159 
L 94.698271 185.74065 
L 94.825103 176.897124 
L 94.951935 179.588581 
L 95.395848 169.591909 
L 95.586097 173.436806 
L 95.649513 178.050564 
L 95.712929 177.66628 
L 95.776345 174.590245 
L 95.839761 175.359107 
L 96.093425 169.976194 
L 96.220258 182.280038 
L 96.283674 181.511176 
L 96.473922 178.819719 
L 96.66417 184.58721 
L 96.917835 185.356072 
L 96.981251 186.509512 
L 97.044667 185.74065 
L 97.171499 181.895754 
L 97.361747 184.58721 
L 97.551996 189.970124 
L 97.615412 190.354408 
L 97.80566 195.737615 
L 97.932492 191.123563 
L 97.995908 191.508141 
L 98.059325 189.970124 
L 98.439821 198.813356 
L 98.503237 206.118864 
L 98.693486 201.120528 
L 98.756902 206.887726 
L 98.820318 203.811985 
L 98.94715 199.582511 
L 99.137398 203.811985 
L 99.200814 198.429072 
L 99.327647 205.350002 
L 99.391063 203.04283 
L 99.581311 203.427407 
L 99.644727 199.582511 
L 99.708143 201.88939 
L 99.834975 207.272304 
L 100.025224 208.810321 
L 100.08864 205.350002 
L 100.152056 208.425743 
L 100.215472 203.811985 
L 100.278888 204.196269 
L 100.532553 212.270933 
L 100.659385 205.734286 
L 100.722801 194.96846 
L 100.913049 198.813356 
L 101.039881 191.508141 
L 101.103297 193.81502 
L 101.166714 191.123563 
L 101.420378 187.662951 
L 101.483794 188.047529 
L 101.610626 191.123563 
L 101.864291 189.200968 
L 102.054539 183.049193 
L 102.244787 184.58721 
L 102.308203 178.050564 
L 102.371619 181.126598 
L 102.435036 181.126598 
L 102.498452 189.200968 
L 102.6887 186.894089 
L 102.815532 189.970124 
L 102.878948 190.354408 
L 102.942364 188.432107 
L 103.132613 188.047529 
L 103.322861 202.273968 
L 103.386277 198.429072 
L 103.576525 198.044494 
L 103.639942 197.275339 
L 103.83019 190.738986 
L 104.020438 194.199598 
L 104.083854 188.816684 
L 104.14727 192.277003 
L 104.210686 194.96846 
L 104.274103 194.583882 
L 104.464351 200.735951 
L 104.527767 198.429072 
L 104.718015 207.656881 
L 104.97168 206.887726 
L 105.035096 204.965425 
L 105.161928 194.199598 
L 105.415592 191.892425 
L 105.479009 197.659916 
L 105.542425 191.508141 
L 105.605841 192.66158 
L 105.796089 196.891054 
L 105.859505 193.430442 
L 106.240002 209.194898 
L 106.303418 205.734286 
L 106.366834 208.425743 
L 106.43025 205.350002 
L 106.493666 195.353037 
L 106.747331 200.735951 
L 106.874163 190.354408 
L 106.937579 191.123563 
L 107.127827 191.892425 
L 107.318075 188.816684 
L 107.381492 188.047529 
L 107.57174 189.970124 
L 107.635156 194.96846 
L 107.825404 184.971495 
L 108.015653 189.200968 
L 108.079069 187.662951 
L 108.142485 188.047529 
L 108.269317 195.737615 
L 108.459565 195.353037 
L 108.71323 181.126598 
L 108.903478 179.204297 
L 108.966894 175.359107 
L 109.157142 181.126598 
L 109.410807 179.588581 
L 109.537639 175.359107 
L 109.601055 179.973159 
L 109.791303 182.280038 
L 109.85472 178.435142 
L 109.918136 186.509512 
L 109.981552 185.74065 
L 110.044968 184.202633 
L 110.235216 187.662951 
L 110.298632 184.58721 
L 110.362048 186.509512 
L 110.425465 188.816684 
L 110.488881 183.818055 
L 110.679129 182.664615 
L 110.742545 186.894089 
L 110.932793 176.128262 
L 111.186458 178.819719 
L 111.249874 178.435142 
L 111.31329 176.897124 
L 111.376706 180.357736 
L 111.820619 173.436806 
L 112.137699 184.202633 
L 112.201115 181.511176 
L 112.264531 174.590245 
L 112.518196 167.669315 
L 112.581612 169.591909 
L 112.645028 166.900453 
L 112.708444 169.207332 
L 112.898693 170.745349 
L 113.025525 168.438177 
L 113.088941 169.591909 
L 113.406021 165.74672 
L 113.469437 164.977858 
L 113.532854 165.362435 
L 113.59627 168.438177 
L 113.849934 171.129633 
L 113.91335 168.822754 
L 114.040182 188.432107 
L 114.230431 191.508141 
L 114.357263 186.894089 
L 114.420679 186.894089 
L 114.674343 189.970124 
L 114.801176 199.582511 
L 114.864592 197.659916 
L 114.928008 193.430442 
L 115.118256 197.275339 
L 115.181672 204.580847 
L 115.245088 204.196269 
L 115.308504 199.582511 
L 115.371921 206.118864 
L 115.562169 205.734286 
L 115.625585 201.88939 
L 115.752417 208.810321 
L 115.815833 207.272304 
L 116.19633 213.039795 
L 116.259746 226.112501 
L 116.576826 223.421044 
L 116.640243 224.959061 
L 116.703659 219.960725 
L 116.893907 215.731251 
L 117.020739 220.345303 
L 117.147571 218.807286 
L 117.401236 218.038131 
L 117.528068 210.732916 
L 117.591484 211.886355 
L 118.035397 227.266234 
L 118.289061 225.728216 
L 118.415893 231.11113 
L 118.669558 239.1855 
L 118.732974 228.803958 
L 118.79639 231.11113 
L 118.859806 227.266234 
L 118.923222 229.188535 
L 119.240303 224.959061 
L 119.367135 221.498743 
L 119.557383 228.803958 
L 119.811048 213.808657 
L 120.064712 214.577812 
L 120.128128 214.193234 
L 120.25496 213.039795 
L 120.445209 211.886355 
L 120.635457 215.346674 
L 120.698873 209.194898 
L 120.889121 210.732916 
L 121.015954 217.269269 
L 121.142786 216.500113 
L 121.333034 218.807286 
L 121.39645 221.498743 
L 121.459866 219.576148 
L 121.523282 218.807286 
L 121.586699 214.193234 
L 121.776947 217.269269 
L 121.840363 216.500113 
L 121.903779 216.884691 
L 121.967195 214.96239 
L 122.030611 203.811985 
L 122.22086 204.196269 
L 122.284276 211.886355 
L 122.347692 206.887726 
L 122.411108 206.118864 
L 122.474524 203.04283 
L 122.664772 203.811985 
L 122.855021 199.582511 
L 123.108685 204.196269 
L 123.298933 200.735951 
L 123.362349 201.88939 
L 123.552598 201.120528 
L 123.616014 196.506477 
L 123.806262 209.96376 
L 124.059927 209.96376 
L 124.250175 204.196269 
L 124.440423 203.811985 
L 124.503839 203.04283 
L 124.567255 204.965425 
L 124.630672 199.582511 
L 124.694088 203.427407 
L 124.884336 198.429072 
L 124.947752 203.04283 
L 125.011168 199.966795 
L 125.138 205.734286 
L 125.328249 203.811985 
L 125.391665 201.88939 
L 125.581913 211.886355 
L 125.772161 211.501778 
L 125.835577 211.1172 
L 125.96241 214.96239 
L 126.025826 206.887726 
L 126.27949 203.811985 
L 126.406322 200.735951 
L 126.469738 201.88939 
L 126.659987 201.504813 
L 126.723403 202.658545 
L 126.786819 199.966795 
L 126.850235 203.811985 
L 126.913651 200.735951 
L 127.1039 199.582511 
L 127.167316 199.966795 
L 127.230732 204.196269 
L 127.294148 203.04283 
L 127.357564 200.351373 
L 127.547812 207.656881 
L 127.611228 206.118864 
L 127.674644 206.503442 
L 127.738061 209.194898 
L 127.801477 217.269269 
L 127.991725 218.807286 
L 128.055141 216.500113 
L 128.118557 220.345303 
L 128.181973 218.038131 
L 128.245389 218.807286 
L 128.435638 218.807286 
L 128.499054 221.114165 
L 128.56247 216.500113 
L 128.625886 216.884691 
L 128.689302 221.88332 
L 128.87955 221.114165 
L 129.006383 221.88332 
L 129.133215 224.959061 
L 129.323463 224.574777 
L 129.386879 223.805622 
L 129.513711 228.419673 
L 129.577128 221.498743 
L 129.830792 221.114165 
L 129.894208 219.960725 
L 129.957624 220.345303 
L 130.02104 219.960725 
L 130.211289 222.267604 
L 130.274705 221.498743 
L 130.338121 218.422708 
L 130.464953 223.03676 
L 130.655201 223.03676 
L 130.782033 222.652182 
L 131.099114 225.343639 
L 131.289362 223.421044 
L 131.352778 228.035096 
L 131.543027 227.650518 
L 131.606443 234.571449 
L 131.669859 233.802587 
L 131.796691 231.879992 
L 131.986939 233.802587 
L 132.113772 232.649147 
L 132.177188 228.803958 
L 132.240604 230.341975 
L 132.494268 231.495708 
L 132.557684 231.11113 
L 132.684517 225.343639 
L 133.001597 229.573113 
L 133.065013 230.341975 
L 133.128429 228.803958 
L 133.318678 229.188535 
L 133.508926 238.032061 
L 133.572342 234.956026 
L 133.76259 235.724888 
L 133.826006 236.878621 
L 133.889422 231.11113 
L 133.952839 233.418009 
L 134.016255 234.956026 
L 134.333335 237.647483 
L 134.396751 236.109466 
L 134.460167 240.33894 
L 134.713832 239.1855 
L 134.840664 240.33894 
L 135.157745 250.720482 
L 135.221161 248.797888 
L 135.347993 247.644448 
L 135.665073 249.951327 
L 135.791906 253.027361 
L 135.982154 254.180801 
L 136.04557 255.334241 
L 136.172402 250.335905 
L 136.235818 251.873922 
L 136.426067 249.951327 
L 136.552899 255.718818 
L 136.616315 254.949663 
L 136.869979 256.48768 
L 137.060228 249.566749 
L 137.123644 254.949663 
L 137.313892 254.949663 
L 137.377308 254.180801 
L 137.440724 251.873922 
L 137.50414 253.027361 
L 137.567556 253.411939 
L 137.757805 253.411939 
L 137.884637 246.875293 
L 138.011469 239.1855 
L 138.201717 240.723517 
L 138.265134 236.878621 
L 138.32855 238.032061 
L 138.391966 243.414974 
L 138.455382 242.645819 
L 138.64563 241.876957 
L 138.709046 242.645819 
L 138.835878 237.647483 
L 139.089543 247.644448 
L 139.279791 241.492379 
L 139.343207 248.41331 
L 139.533456 249.951327 
L 139.78712 240.723517 
L 140.040784 241.492379 
L 140.104201 238.416345 
L 140.231033 243.030396 
L 140.421281 241.108095 
L 140.548113 238.032061 
L 140.611529 239.1855 
L 140.674945 238.032061 
L 140.92861 235.724888 
L 141.055442 238.032061 
L 141.118858 241.876957 
L 141.372523 239.570078 
L 141.499355 242.261535 
L 141.562771 244.952991 
L 141.753019 244.952991 
L 141.816435 244.183836 
L 141.879851 244.952991 
L 141.943268 242.261535 
L 142.006684 242.645819 
L 142.196932 243.414974 
L 142.260348 243.030396 
L 142.323764 236.109466 
L 142.38718 237.262905 
L 142.450596 235.724888 
L 142.640845 234.571449 
L 142.704261 238.032061 
L 142.767677 237.262905 
L 142.831093 235.340604 
L 142.894509 251.104767 
L 143.148173 250.335905 
L 143.275006 245.721853 
L 143.338422 249.182465 
L 143.592086 251.489344 
L 143.782334 250.720482 
L 143.972583 251.489344 
L 144.035999 250.335905 
L 144.099415 250.720482 
L 144.162831 253.796223 
L 144.226247 250.720482 
L 144.543328 252.642784 
L 144.606744 252.258206 
L 144.860408 263.024326 
L 144.98724 261.486309 
L 145.050657 261.486309 
L 145.114073 264.177766 
L 145.304321 267.253507 
L 145.557985 257.64112 
L 145.748234 259.179137 
L 145.938482 254.180801 
L 146.001898 255.334241 
L 146.192146 254.949663 
L 146.318979 251.489344 
L 146.382395 251.873922 
L 146.445811 254.180801 
L 146.636059 253.411939 
L 146.762891 240.723517 
L 146.889724 241.876957 
L 147.27022 250.720482 
L 147.333636 249.951327 
L 147.523885 251.104767 
L 147.587301 249.182465 
L 147.650717 249.566749 
L 147.714133 250.335905 
L 147.777549 252.642784 
L 147.967797 251.873922 
L 148.031213 254.180801 
L 148.158046 249.951327 
L 148.221462 252.642784 
L 148.475126 256.103396 
L 148.538542 254.949663 
L 148.665374 258.794853 
L 148.919039 269.560679 
L 149.109287 265.715783 
L 149.299535 266.100067 
L 149.362952 266.869223 
L 149.489784 269.176102 
L 149.5532 268.40724 
L 149.743448 269.945257 
L 149.997113 263.793188 
L 150.187361 264.946628 
L 150.314193 271.482981 
L 150.441025 269.176102 
L 150.631274 270.329541 
L 150.758106 278.788489 
L 150.884938 280.326506 
L 151.075186 280.711084 
L 151.138602 276.865894 
L 151.202019 280.711084 
L 151.328851 275.328171 
L 151.519099 279.941929 
L 151.772763 271.098697 
L 151.963012 269.176102 
L 152.026428 264.946628 
L 152.089844 268.791524 
L 152.216676 266.100067 
L 152.406924 265.331206 
L 152.470341 267.638085 
L 152.533757 267.253507 
L 152.597173 279.173067 
L 152.660589 276.48161 
L 152.850837 279.941929 
L 153.041085 271.482981 
L 153.104502 274.559015 
L 153.29475 274.943593 
L 153.548414 268.022662 
L 153.865495 270.329541 
L 153.992327 266.100067 
L 154.245991 265.715783 
L 154.43624 274.943593 
L 154.689904 270.714119 
L 154.75332 267.638085 
L 154.816736 270.329541 
L 154.880152 269.560679 
L 155.070401 269.176102 
L 155.197233 272.252136 
L 155.260649 270.714119 
L 155.324065 264.56205 
L 155.641146 266.100067 
L 155.704562 265.715783 
L 155.767978 264.56205 
L 155.958226 264.177766 
L 156.021642 264.946628 
L 156.211891 271.098697 
L 156.465555 269.560679 
L 156.592387 281.864524 
L 156.655803 280.326506 
L 157.0363 283.402541 
L 157.099716 285.70942 
L 157.35338 283.402541 
L 157.416797 283.786825 
L 157.543629 279.173067 
L 157.797293 281.479946 
L 157.860709 279.173067 
L 157.924125 281.864524 
L 157.987541 280.711084 
L 158.17779 282.249101 
L 158.241206 278.019627 
L 158.304622 290.323471 
L 158.368038 289.170032 
L 158.431454 292.245773 
L 158.685119 291.092333 
L 158.811951 288.016299 
L 158.875367 291.092333 
L 159.065615 291.092333 
L 159.255864 278.788489 
L 159.31928 279.941929 
L 159.509528 278.403912 
L 159.572944 283.786825 
L 159.63636 283.017963 
L 159.699776 283.786825 
L 159.763192 279.557644 
L 159.953441 280.326506 
L 160.143689 284.55598 
L 160.207105 283.402541 
L 160.397353 295.321807 
L 160.460769 293.014928 
L 160.524186 292.630351 
L 160.587602 293.014928 
L 160.651018 294.93723 
L 160.841266 294.168368 
L 160.904682 291.476911 
L 160.968098 293.399212 
L 161.031514 293.78379 
L 161.285179 291.861489 
L 161.348595 287.632015 
L 161.412011 288.400877 
L 161.538843 289.554316 
L 161.729092 288.016299 
L 161.855924 292.630351 
L 161.982756 286.862859 
L 162.173004 298.782419 
L 162.23642 298.397842 
L 162.299836 298.397842 
L 162.426669 297.244402 
L 162.616917 297.628686 
L 162.807165 296.090669 
L 162.870581 297.244402 
L 163.06083 295.706385 
L 163.251078 291.476911 
L 163.314494 292.245773 
L 163.504742 292.245773 
L 163.758407 287.247437 
L 164.012071 289.554316 
L 164.075487 291.861489 
L 164.138903 298.397842 
L 164.20232 293.78379 
L 164.5194 298.397842 
L 164.646232 294.93723 
L 164.836481 294.552945 
L 164.899897 295.321807 
L 165.090145 300.704721 
L 165.343809 302.242738 
L 165.407225 301.473876 
L 165.534058 303.780755 
L 165.724306 303.396177 
L 165.787722 301.473876 
L 165.851138 303.0116 
L 165.97797 294.93723 
L 166.295051 308.779091 
L 166.421883 304.165333 
L 166.675548 304.165333 
L 166.738964 303.0116 
L 166.865796 298.782419 
L 167.056044 299.166704 
L 167.11946 301.473876 
L 167.246292 293.399212 
L 167.309709 294.168368 
L 167.499957 294.168368 
L 167.563373 294.93723 
L 167.753621 285.70942 
L 167.94387 285.324842 
L 168.070702 294.552945 
L 168.134118 294.93723 
L 168.197534 292.245773 
L 168.387782 291.092333 
L 168.514615 288.400877 
L 168.578031 289.170032 
L 168.641447 291.861489 
L 168.831695 293.399212 
L 169.085359 283.402541 
L 169.275608 281.479946 
L 169.339024 281.864524 
L 169.40244 282.633386 
L 169.529272 279.941929 
L 169.71952 279.173067 
L 169.846353 276.097032 
L 169.909769 273.405576 
L 169.973185 281.095368 
L 170.290265 284.55598 
L 170.353681 284.55598 
L 170.417098 282.633386 
L 170.607346 283.017963 
L 170.734178 281.095368 
L 170.797594 283.786825 
L 170.86101 282.633386 
L 171.051259 283.017963 
L 171.304923 270.714119 
L 171.495171 268.022662 
L 171.558587 271.482981 
L 171.622004 269.176102 
L 171.68542 268.022662 
L 171.939084 278.788489 
L 172.0025 278.403912 
L 172.065916 273.020998 
L 172.129332 276.097032 
L 172.192748 279.941929 
L 172.382997 279.557644 
L 172.509829 284.171403 
L 172.573245 282.633386 
L 172.636661 283.786825 
L 172.953742 281.479946 
L 173.017158 281.864524 
L 173.080574 280.711084 
L 173.334238 282.249101 
L 173.524487 271.867559 
L 173.714735 273.790153 
L 173.778151 269.560679 
L 173.968399 285.324842 
L 174.158648 285.70942 
L 174.28548 280.326506 
L 174.348896 280.711084 
L 174.412312 278.403912 
L 174.60256 278.403912 
L 174.665976 278.019627 
L 174.792809 281.095368 
L 174.856225 277.250472 
L 175.046473 276.48161 
L 175.109889 275.712455 
L 175.173305 273.405576 
L 175.300137 273.020998 
L 175.617218 269.560679 
L 175.680634 266.100067 
L 175.74405 271.098697 
L 176.061131 271.867559 
L 176.124547 272.636714 
L 176.187963 276.48161 
L 176.378211 276.097032 
L 176.441627 271.867559 
L 176.56846 277.63505 
L 176.631876 276.48161 
L 176.822124 276.48161 
L 176.88554 276.097032 
L 177.012372 271.867559 
L 177.075788 272.252136 
L 177.329453 272.252136 
L 177.456285 285.324842 
L 177.836782 281.479946 
L 177.900198 278.403912 
L 177.963614 280.326506 
L 178.153862 282.249101 
L 178.217278 281.095368 
L 178.280694 281.864524 
L 178.407527 286.093998 
L 178.661191 283.017963 
L 178.724607 284.171403 
L 178.788023 283.017963 
L 178.851439 283.402541 
L 179.041688 282.249101 
L 179.105104 283.786825 
L 179.16852 282.249101 
L 179.231936 284.55598 
L 179.295352 284.171403 
L 179.4856 283.786825 
L 179.549016 283.017963 
L 179.612432 279.557644 
L 179.675849 291.476911 
L 179.739265 290.323471 
L 179.929513 291.092333 
L 180.119761 284.940558 
L 180.183177 288.016299 
L 180.373426 288.016299 
L 180.436842 288.400877 
L 180.62709 279.173067 
L 180.880755 279.557644 
L 180.944171 277.63505 
L 181.007587 279.557644 
L 181.071003 276.097032 
L 181.261251 273.790153 
L 181.324667 266.484645 
L 181.388083 268.791524 
L 181.451499 274.943593 
L 181.514916 271.482981 
L 181.705164 270.329541 
L 181.76858 273.020998 
L 181.895412 269.945257 
L 181.958828 275.328171 
L 182.149077 272.636714 
L 182.275909 267.638085 
L 182.592989 271.482981 
L 182.719822 263.793188 
L 182.783238 266.869223 
L 182.846654 268.791524 
L 183.163734 263.793188 
L 183.290566 265.331206 
L 183.544231 276.097032 
L 183.607647 274.174438 
L 183.671063 275.328171 
L 183.924727 282.249101 
L 184.05156 278.403912 
L 184.114976 278.788489 
L 184.178392 280.326506 
L 184.36864 280.711084 
L 184.558888 271.482981 
L 184.622305 272.252136 
L 184.812553 269.945257 
L 184.875969 267.253507 
L 184.939385 268.40724 
L 185.002801 270.714119 
L 185.066217 269.560679 
L 185.256466 267.253507 
L 185.319882 279.557644 
L 185.383298 278.019627 
L 185.446714 280.326506 
L 185.51013 278.788489 
L 185.700378 278.788489 
L 185.763794 277.250472 
L 185.827211 279.557644 
L 185.890627 276.865894 
L 185.954043 278.019627 
L 186.144291 280.326506 
L 186.207707 279.557644 
L 186.271123 276.48161 
L 186.334539 278.403912 
L 186.397955 281.479946 
L 186.588204 280.711084 
L 186.65162 279.941929 
L 186.715036 280.711084 
L 186.841868 277.63505 
L 187.095533 280.711084 
L 187.158949 278.403912 
L 187.222365 280.326506 
L 187.285781 293.014928 
L 187.476029 291.861489 
L 187.539445 294.552945 
L 187.602861 290.707756 
L 187.666278 294.168368 
L 187.729694 293.014928 
L 187.919942 292.630351 
L 187.983358 295.321807 
L 188.046774 294.552945 
L 188.11019 294.552945 
L 188.173606 290.323471 
L 188.363855 290.323471 
L 188.427271 284.940558 
L 188.490687 288.016299 
L 188.554103 286.862859 
L 188.617519 282.633386 
L 188.807767 279.941929 
L 188.998016 283.017963 
L 189.061432 276.865894 
L 189.441928 291.861489 
L 189.505344 292.245773 
L 189.695593 289.938894 
L 189.759009 284.171403 
L 189.822425 285.70942 
L 189.885841 287.632015 
L 190.139506 283.017963 
L 190.202922 284.940558 
L 190.39317 275.712455 
L 190.583418 278.019627 
L 190.837083 261.870594 
L 191.027331 265.715783 
L 191.090747 260.717154 
L 191.154163 275.328171 
L 191.217579 273.790153 
L 191.280995 266.100067 
L 191.53466 272.636714 
L 191.598076 274.943593 
L 191.661492 266.100067 
L 191.724908 267.253507 
L 191.915156 264.56205 
L 192.168821 247.25987 
L 192.359069 243.414974 
L 192.422485 239.1855 
L 192.612734 251.104767 
L 192.802982 246.875293 
L 192.866398 238.800923 
L 192.929814 242.645819 
L 193.056646 239.954362 
L 193.310311 251.873922 
L 193.500559 236.878621 
L 193.690807 235.724888 
L 193.881056 242.261535 
L 193.944472 242.645819 
L 194.13472 243.030396 
L 194.261552 238.800923 
L 194.324968 245.337276 
L 194.388384 241.108095 
L 194.642049 234.956026 
L 194.705465 236.878621 
L 194.768881 231.11113 
L 194.832297 234.571449 
L 195.022545 245.337276 
L 195.085962 243.414974 
L 195.149378 243.799552 
L 195.212794 242.261535 
L 195.27621 245.721853 
L 195.466458 242.645819 
L 195.529874 249.566749 
L 195.59329 248.797888 
L 195.656706 248.028732 
L 195.720123 251.489344 
L 195.910371 251.489344 
L 196.100619 236.109466 
L 196.164035 228.035096 
L 196.354284 230.726552 
L 196.4177 230.341975 
L 196.481116 224.190199 
L 196.544532 226.112501 
L 196.607948 225.728216 
L 196.798196 225.728216 
L 196.861612 226.112501 
L 196.988445 232.649147 
L 197.051861 228.803958 
L 197.242109 229.188535 
L 197.305525 231.11113 
L 197.495773 216.115829 
L 197.686022 208.810321 
L 197.749438 218.422708 
L 197.812854 216.884691 
L 197.939686 206.503442 
L 198.256767 187.278667 
L 198.383599 190.738986 
L 198.573847 181.895754 
L 198.700679 194.199598 
L 198.827512 186.894089 
L 199.081176 190.738986 
L 199.144592 189.585546 
L 199.271424 199.582511 
L 199.461673 201.88939 
L 199.525089 190.354408 
L 199.588505 198.429072 
L 199.715337 210.732916 
L 200.095834 193.046158 
L 200.15925 198.044494 
L 200.47633 203.811985 
L 200.539746 207.656881 
L 200.793411 198.813356 
L 201.047075 183.433771 
L 201.237323 185.356072 
L 201.30074 180.742021 
L 201.364156 182.280038 
L 201.427572 182.280038 
L 201.490988 173.436806 
L 201.681236 172.283366 
L 201.934901 158.825789 
L 202.188565 145.368505 
L 202.251981 146.906523 
L 202.315397 156.903488 
L 202.378813 148.44454 
L 202.569062 149.982557 
L 202.632478 151.904858 
L 202.75931 146.521945 
L 202.822726 151.520574 
L 203.012974 151.135997 
L 203.139807 142.677049 
L 203.203223 146.906523 
L 203.266639 141.139032 
L 203.456887 139.985592 
L 203.583719 137.678713 
L 203.710551 143.446204 
L 203.964216 145.753083 
L 204.027632 149.597979 
L 204.091048 140.754747 
L 204.154464 144.215066 
L 204.344712 149.213402 
L 204.534961 133.064661 
L 204.598377 121.914257 
L 204.915457 130.757782 
L 204.978874 121.145395 
L 205.04229 122.683412 
L 205.232538 119.2228 
L 205.295954 135.371834 
L 205.35937 124.990291 
L 205.422786 126.528308 
L 205.486202 116.915921 
L 205.676451 109.610413 
L 205.739867 121.145395 
L 205.803283 117.684783 
L 206.120363 134.987256 
L 206.183779 132.680084 
L 206.374028 120.760817 
L 206.564276 119.991955 
L 206.754524 143.446204 
L 206.81794 137.678713 
L 207.008189 143.830488 
L 207.071605 141.908187 
L 207.261853 131.526644 
L 207.452102 133.449239 
L 207.705766 152.289436 
L 207.896014 155.36547 
L 208.022846 154.212031 
L 208.086263 163.055263 
L 208.149679 162.670979 
L 208.339927 159.210367 
L 208.403343 159.979522 
L 208.466759 153.827453 
L 208.593591 169.976194 
L 208.847256 164.59328 
L 209.037504 156.903488 
L 209.354585 170.745349 
L 209.418001 168.053892 
L 209.671665 163.824418 
L 209.735081 159.210367 
L 209.798497 162.670979 
L 209.861913 171.514211 
L 209.92533 165.362435 
L 210.178994 168.822754 
L 210.305826 175.743685 
L 210.369242 171.129633 
L 210.559491 173.436806 
L 210.622907 168.822754 
L 210.686323 169.976194 
L 210.749739 174.205668 
L 210.813155 169.976194 
L 211.193652 203.427407 
L 211.257068 199.966795 
L 211.447316 198.044494 
L 211.574148 188.816684 
L 211.637564 194.96846 
L 211.70098 189.200968 
L 211.891229 192.66158 
L 212.144893 173.821383 
L 212.335141 171.898789 
L 212.398558 181.126598 
L 212.461974 180.742021 
L 212.52539 175.359107 
L 212.84247 173.052228 
L 212.905886 167.669315 
L 212.969302 171.514211 
L 213.032719 178.050564 
L 213.286383 166.131297 
L 213.349799 169.207332 
L 213.476631 179.588581 
L 213.66688 178.050564 
L 213.793712 182.280038 
L 213.857128 173.436806 
L 213.920544 177.66628 
L 214.110792 171.129633 
L 214.174208 173.821383 
L 214.237625 173.052228 
L 214.301041 166.515875 
L 214.364457 176.128262 
L 214.554705 176.51284 
L 214.618121 178.050564 
L 214.681537 177.66628 
L 214.744953 170.745349 
L 214.808369 173.436806 
L 214.998618 177.66628 
L 215.062034 171.898789 
L 215.12545 172.283366 
L 215.505947 163.824418 
L 215.569363 159.594944 
L 215.632779 162.286401 
L 215.696195 168.053892 
L 216.013275 161.901823 
L 216.076691 163.439841 
L 216.140108 161.901823 
L 216.393772 166.900453 
L 216.520604 163.824418 
L 216.58402 164.977858 
L 216.774269 166.515875 
L 216.901101 160.748384 
L 216.964517 161.901823 
L 217.027933 161.517246 
L 217.218181 138.832152 
L 217.281597 144.599644 
L 217.345014 129.219765 
L 217.40843 139.601014 
L 217.471846 157.67235 
L 217.662094 155.36547 
L 217.72551 153.058591 
L 217.788926 146.137661 
L 217.915758 151.904858 
L 218.106007 133.449239 
L 218.232839 146.906523 
L 218.359671 131.14236 
L 218.613336 123.836852 
L 218.676752 137.678713 
L 218.740168 135.756118 
L 218.803584 130.757782 
L 218.993832 144.984221 
L 219.057248 144.215066 
L 219.120664 133.449239 
L 219.184081 135.371834 
L 219.247497 133.064661 
L 219.437745 135.371834 
L 219.564577 124.221429 
L 219.627993 126.143731 
L 219.691409 123.452274 
L 219.881658 131.526644 
L 220.135322 121.529973 
L 220.388986 129.219765 
L 220.515819 122.298834 
L 220.579235 128.066326 
L 220.896315 110.763852 
L 221.023147 119.607378 
L 221.276812 110.379568 
L 221.403644 99.613741 
L 221.657309 113.071025 
L 221.720725 110.379568 
L 221.784141 100.382603 
L 221.910973 98.460008 
L 222.164637 104.227499 
L 222.29147 100.767181 
L 222.354886 104.612077 
L 222.545134 109.226128 
L 222.735382 95.768551 
L 223.052463 90.385638 
L 223.115879 97.306569 
L 223.179295 95.768551 
L 223.432959 104.996654 
L 223.559792 103.458637 
L 223.686624 99.613741 
L 223.876872 105.380939 
L 223.940288 102.305198 
L 224.003704 103.842922 
L 224.130537 121.145395 
L 224.384201 113.071025 
L 224.447617 115.377904 
L 224.511033 114.609042 
L 224.574449 112.301869 
L 224.828114 111.14843 
L 224.89153 107.303534 
L 224.954946 110.763852 
L 225.018362 109.226128 
L 225.272026 107.688111 
L 225.335442 112.686447 
L 225.398859 111.14843 
L 225.462275 111.917585 
L 225.652523 116.147059 
L 225.715939 112.686447 
L 225.779355 113.839887 
L 225.842771 119.991955 
L 225.906187 118.069361 
L 226.096436 120.37624 
L 226.3501 130.373205 
L 226.540348 131.526644 
L 226.730597 121.145395 
L 226.794013 127.29717 
L 227.047677 118.838516 
L 227.174509 125.374869 
L 227.237926 122.683412 
L 227.428174 123.067696 
L 227.555006 131.526644 
L 227.618422 129.988627 
L 227.681838 128.066326 
L 227.872087 125.759446 
L 227.998919 131.911222 
L 228.062335 128.066326 
L 228.125751 130.373205 
L 228.379415 135.371834 
L 228.442831 133.833817 
L 228.569664 129.988627 
L 228.823328 134.987256 
L 228.886744 122.683412 
L 228.95016 126.528308 
L 229.013576 122.683412 
L 229.203825 125.374869 
L 229.330657 130.373205 
L 229.457489 124.605714 
L 229.647737 121.529973 
L 229.711154 116.915921 
L 229.901402 135.756118 
L 230.218482 132.295799 
L 230.281898 136.140696 
L 230.662395 125.759446 
L 230.789227 133.833817 
L 231.106308 130.373205 
L 231.23314 132.680084 
L 231.423388 128.835187 
L 231.486804 131.911222 
L 231.550221 130.373205 
L 231.613637 127.681748 
L 231.677053 136.525273 
L 231.867301 137.294135 
L 231.930717 138.063291 
L 231.994133 136.140696 
L 232.057549 140.754747 
L 232.120965 138.447575 
L 232.501462 130.757782 
L 232.564878 131.14236 
L 232.755126 134.218101 
L 232.881959 128.066326 
L 232.945375 132.295799 
L 233.008791 131.526644 
L 233.389287 136.909558 
L 233.452704 132.295799 
L 233.706368 141.139032 
L 233.769784 135.371834 
L 233.8332 138.447575 
L 233.896616 159.594944 
L 234.086865 168.053892 
L 234.150281 160.748384 
L 234.213697 161.132962 
L 234.277113 160.748384 
L 234.340529 157.288065 
L 234.530777 154.980893 
L 234.65761 148.059962 
L 234.721026 153.442876 
L 234.784442 151.520574 
L 235.038106 147.2911 
L 235.101522 147.675678 
L 235.228354 139.985592 
L 235.418603 139.985592 
L 235.482019 140.37017 
L 235.545435 141.523609 
L 235.608851 138.063291 
L 235.862515 136.909558 
L 235.925932 137.294135 
L 236.11618 130.757782 
L 236.306428 132.680084 
L 236.369844 134.987256 
L 236.43326 142.677049 
L 236.496677 137.678713 
L 236.560093 138.832152 
L 236.750341 139.21673 
L 236.813757 135.371834 
L 236.877173 136.909558 
L 236.940589 142.677049 
L 237.004005 140.754747 
L 237.25767 144.984221 
L 237.321086 146.906523 
L 237.384502 146.521945 
L 237.447918 141.139032 
L 237.891831 159.210367 
L 238.208911 149.597979 
L 238.335744 141.908187 
L 238.652824 137.678713 
L 238.71624 138.447575 
L 238.779656 143.446204 
L 239.096737 137.678713 
L 239.160153 138.063291 
L 239.223569 134.602679 
L 239.413817 132.295799 
L 239.477233 133.833817 
L 239.540649 130.373205 
L 239.667482 134.987256 
L 239.921146 134.602679 
L 239.984562 134.218101 
L 240.047978 132.295799 
L 240.111394 133.449239 
L 240.301643 135.371834 
L 240.365059 133.833817 
L 240.428475 138.063291 
L 240.491891 133.449239 
L 240.555307 136.525273 
L 240.745555 135.371834 
L 240.808972 136.140696 
L 240.935804 130.373205 
L 240.99922 131.526644 
L 241.189468 131.911222 
L 241.252884 132.295799 
L 241.3163 128.835187 
L 241.379716 129.604343 
L 241.443133 128.450903 
L 241.633381 128.450903 
L 241.696797 130.373205 
L 241.760213 126.143731 
L 241.823629 129.219765 
L 241.887045 133.833817 
L 242.14071 128.066326 
L 242.267542 134.218101 
L 242.330958 132.295799 
L 242.521206 132.295799 
L 242.584622 130.757782 
L 242.965119 140.754747 
L 243.091951 129.604343 
L 243.155367 132.295799 
L 243.218783 128.450903 
L 243.535864 136.140696 
L 243.662696 130.757782 
L 243.852944 130.757782 
L 243.916361 131.526644 
L 243.979777 128.066326 
L 244.043193 128.450903 
L 244.550522 123.067696 
L 244.74077 123.452274 
L 244.994434 116.915921 
L 245.184683 116.531343 
L 245.311515 140.754747 
L 245.374931 142.677049 
L 245.438347 150.751419 
L 245.692011 140.754747 
L 245.755428 143.061626 
L 245.818844 144.215066 
L 245.88226 147.675678 
L 246.135924 151.904858 
L 246.262756 143.446204 
L 246.326172 145.753083 
L 247.150582 169.207332 
L 247.404246 164.977858 
L 247.531078 160.748384 
L 247.594494 161.517246 
L 247.657911 158.441505 
L 247.848159 156.903488 
L 247.911575 154.212031 
L 247.974991 156.903488 
L 248.101823 151.135997 
L 248.418904 150.367135 
L 248.545736 144.984221 
L 248.862817 148.44454 
L 248.989649 143.830488 
L 249.306729 150.367135 
L 249.433561 140.754747 
L 249.62381 143.061626 
L 249.750642 149.597979 
L 249.814058 148.44454 
L 249.877474 145.753083 
L 250.131139 145.368505 
L 250.321387 151.135997 
L 250.511635 149.982557 
L 250.7653 141.908187 
L 251.209212 149.597979 
L 251.399461 151.135997 
L 251.462877 148.829117 
L 251.526293 149.597979 
L 251.589709 153.442876 
L 251.653125 153.058591 
L 251.906789 151.135997 
L 251.970206 150.367135 
L 252.097038 154.596609 
L 252.287286 153.442876 
L 252.350702 154.596609 
L 252.414118 159.594944 
L 252.477534 158.441505 
L 252.54095 156.51891 
L 252.731199 154.980893 
L 252.794615 155.750048 
L 252.858031 153.442876 
L 252.921447 157.67235 
L 253.175112 166.515875 
L 253.428776 159.210367 
L 253.619024 157.67235 
L 253.745856 158.441505 
L 253.872689 151.135997 
L 254.062937 154.212031 
L 254.126353 153.827453 
L 254.189769 153.442876 
L 254.316601 156.903488 
L 254.50685 156.903488 
L 254.570266 150.751419 
L 254.633682 151.520574 
L 254.697098 150.751419 
L 254.760514 146.906523 
L 254.950762 153.058591 
L 255.077595 146.906523 
L 255.141011 139.985592 
L 255.204427 141.139032 
L 255.394675 145.368505 
L 255.64834 138.063291 
L 255.838588 139.21673 
L 256.028836 133.449239 
L 256.092252 135.756118 
L 256.282501 136.140696 
L 256.345917 136.525273 
L 256.472749 141.523609 
L 256.536165 135.371834 
L 256.789829 138.063291 
L 256.916662 141.139032 
L 256.980078 133.833817 
L 257.233742 135.371834 
L 257.297158 134.987256 
L 257.360574 139.21673 
L 257.42399 135.756118 
L 257.614239 134.987256 
L 257.677655 136.525273 
L 257.741071 135.756118 
L 257.867903 133.449239 
L 258.058151 133.064661 
L 258.311816 127.29717 
L 258.56548 123.836852 
L 258.628896 124.605714 
L 258.755729 128.450903 
L 259.009393 128.450903 
L 259.072809 128.835187 
L 259.136225 128.450903 
L 259.199641 129.604343 
L 259.38989 129.219765 
L 259.453306 131.526644 
L 259.643554 124.221429 
L 259.833802 125.374869 
L 259.960634 122.683412 
L 260.024051 123.836852 
L 260.087467 125.374869 
L 260.277715 126.528308 
L 260.341131 128.450903 
L 260.531379 121.145395 
L 260.721628 124.605714 
L 260.785044 122.298834 
L 260.84846 124.990291 
L 260.975292 120.37624 
L 261.16554 122.298834 
L 261.292373 119.991955 
L 261.419205 121.145395 
L 261.609453 118.069361 
L 261.672869 118.838516 
L 261.799701 117.300499 
L 261.863118 118.453938 
L 262.053366 118.069361 
L 262.116782 115.762481 
L 262.30703 121.145395 
L 262.560695 116.147059 
L 262.750943 123.067696 
L 263.004607 119.607378 
L 263.194856 125.759446 
L 263.892433 115.762481 
L 263.955849 116.147059 
L 264.019265 115.762481 
L 264.082681 116.147059 
L 264.272929 115.377904 
L 264.336346 114.609042 
L 264.526594 116.915921 
L 264.716842 116.531343 
L 264.970507 111.917585 
L 265.160755 111.533007 
L 265.351003 114.993326 
L 265.414419 113.839887 
L 265.604668 113.071025 
L 265.794916 110.763852 
L 265.858332 111.533007 
L 266.04858 110.763852 
L 266.175413 115.377904 
L 266.302245 110.379568 
L 266.492493 111.533007 
L 266.555909 113.455309 
L 266.619325 112.301869 
L 266.682741 111.533007 
L 266.746157 114.224464 
L 266.936406 115.762481 
L 267.126654 123.067696 
L 267.19007 123.067696 
L 267.380318 124.990291 
L 267.570567 121.145395 
L 267.633983 123.067696 
L 267.887647 118.069361 
L 267.951063 123.836852 
L 268.077896 121.529973 
L 268.268144 121.914257 
L 268.33156 119.607378 
L 268.458392 126.912886 
L 268.521808 122.683412 
L 268.712057 120.760817 
L 268.902305 131.911222 
L 268.965721 133.064661 
L 269.155969 131.14236 
L 269.282802 133.833817 
L 269.346218 133.064661 
L 269.409634 130.373205 
L 269.599882 129.604343 
L 269.726714 131.14236 
L 269.79013 135.371834 
L 270.043795 133.449239 
L 270.107211 140.37017 
L 270.297459 129.988627 
L 270.487708 130.757782 
L 270.551124 131.526644 
L 270.61454 137.294135 
L 270.677956 133.833817 
L 270.741372 129.219765 
L 270.93162 127.681748 
L 271.058452 129.604343 
L 271.185285 128.450903 
L 271.438949 129.219765 
L 271.502365 127.681748 
L 271.565781 131.14236 
L 271.629197 130.373205 
L 271.819446 130.757782 
L 272.07311 125.374869 
L 272.263358 125.759446 
L 272.517023 139.601014 
L 272.707271 141.139032 
L 272.770687 145.368505 
L 272.834103 143.061626 
L 272.960936 144.599644 
L 273.151184 144.599644 
L 273.658513 134.987256 
L 273.721929 135.756118 
L 273.848761 133.449239 
L 274.039009 132.295799 
L 274.102425 132.680084 
L 274.165841 134.218101 
L 274.229258 140.754747 
L 274.292674 133.449239 
L 274.546338 136.909558 
L 274.736586 130.757782 
L 274.926835 128.835187 
L 274.990251 130.373205 
L 275.053667 124.605714 
L 275.117083 126.143731 
L 275.434164 131.911222 
L 275.49758 131.526644 
L 275.624412 136.140696 
L 275.878076 138.832152 
L 275.941492 136.909558 
L 276.068325 138.832152 
L 276.258573 138.063291 
L 276.385405 141.523609 
L 276.448821 139.21673 
L 276.512237 140.37017 
L 276.702486 140.754747 
L 276.829318 133.833817 
L 276.892734 136.909558 
L 276.95615 130.757782 
L 277.146398 129.988627 
L 277.209814 129.219765 
L 277.273231 129.604343 
L 277.336647 130.373205 
L 277.590311 129.988627 
L 277.780559 125.759446 
L 277.843975 124.221429 
L 278.034224 127.29717 
L 278.287888 123.452274 
L 278.478136 121.914257 
L 278.541553 124.990291 
L 278.604969 121.914257 
L 278.668385 123.452274 
L 278.731801 121.914257 
L 278.985465 119.991955 
L 279.048881 121.529973 
L 279.112297 121.145395 
L 279.175714 119.991955 
L 279.429378 119.607378 
L 279.619626 114.993326 
L 279.873291 114.993326 
L 279.936707 115.377904 
L 280.000123 117.300499 
L 280.063539 116.147059 
L 280.253787 115.762481 
L 280.38062 113.071025 
L 280.444036 116.531343 
L 280.507452 113.839887 
L 280.6977 114.993326 
L 280.761116 117.684783 
L 280.951364 111.917585 
L 281.141613 111.917585 
L 281.205029 111.533007 
L 281.268445 112.301869 
L 281.395277 108.456973 
L 281.585525 111.533007 
L 281.712358 117.300499 
L 281.775774 117.684783 
L 281.83919 121.145395 
L 282.15627 116.147059 
L 282.219687 119.2228 
L 282.283103 114.609042 
L 282.600183 111.917585 
L 282.663599 113.071025 
L 282.727015 112.301869 
L 282.98068 112.301869 
L 283.107512 114.993326 
L 283.170928 114.609042 
L 283.361176 116.147059 
L 283.424592 114.224464 
L 283.488009 116.147059 
L 283.614841 110.763852 
L 283.805089 114.224464 
L 283.995337 107.303534 
L 284.058753 108.072396 
L 284.249002 106.918956 
L 284.375834 101.151465 
L 284.43925 101.92062 
L 284.502666 101.536042 
L 284.756331 102.689482 
L 284.819747 101.92062 
L 284.883163 102.305198 
L 284.946579 102.305198 
L 285.136827 102.689482 
L 285.263659 104.227499 
L 285.390492 101.92062 
L 285.58074 102.689482 
L 285.707572 101.92062 
L 285.834404 104.612077 
L 286.088069 104.227499 
L 286.151485 104.996654 
L 286.278317 102.689482 
L 286.468565 104.996654 
L 286.531981 104.612077 
L 286.595398 104.612077 
L 286.72223 103.458637 
L 286.912478 101.92062 
L 287.03931 106.918956 
L 287.166143 106.150094 
L 287.356391 107.303534 
L 287.483223 109.610413 
L 287.546639 108.841551 
L 287.610055 107.303534 
L 287.800304 108.456973 
L 287.990552 111.14843 
L 288.244216 114.993326 
L 288.497881 111.14843 
L 288.751545 110.763852 
L 288.878377 109.226128 
L 288.941793 110.379568 
L 289.132042 110.379568 
L 289.195458 108.456973 
L 289.32229 112.686447 
L 289.385706 111.14843 
L 289.575954 108.072396 
L 289.639371 109.610413 
L 289.702787 108.841551 
L 289.829619 108.456973 
L 290.083283 109.610413 
L 290.210115 108.456973 
L 290.273532 109.99499 
L 290.46378 108.456973 
L 290.527196 108.841551 
L 290.717444 110.379568 
L 290.907693 109.99499 
L 291.034525 109.226128 
L 291.161357 109.226128 
L 291.351605 108.841551 
L 291.478437 108.456973 
L 291.60527 110.763852 
L 291.858934 110.379568 
L 292.049182 108.841551 
L 292.302847 108.841551 
L 292.429679 109.99499 
L 292.493095 108.456973 
L 292.683343 108.841551 
L 292.873592 111.14843 
L 292.937008 110.379568 
L 293.190672 113.071025 
L 293.380921 109.99499 
L 293.634585 111.917585 
L 293.761417 111.14843 
L 293.824833 111.533007 
L 294.078498 110.379568 
L 294.268746 108.841551 
L 294.52241 108.456973 
L 294.712659 109.610413 
L 294.966323 109.226128 
L 295.156571 106.150094 
L 295.410236 107.303534 
L 295.473652 109.610413 
L 295.537068 109.226128 
L 295.600484 109.226128 
L 295.790732 109.99499 
L 295.980981 112.301869 
L 296.044397 111.533007 
L 296.234645 113.455309 
L 296.361477 112.301869 
L 296.48831 114.224464 
L 296.741974 114.993326 
L 296.80539 113.455309 
L 296.868806 113.839887 
L 296.932222 114.609042 
L 297.122471 113.839887 
L 297.249303 113.071025 
L 297.312719 114.993326 
L 297.376135 114.224464 
L 297.629799 114.224464 
L 297.820048 116.147059 
L 298.010296 115.762481 
L 298.137128 122.298834 
L 298.200544 120.37624 
L 298.26396 118.453938 
L 298.517625 121.529973 
L 298.707873 118.838516 
L 298.898122 118.069361 
L 299.08837 116.531343 
L 299.151786 116.915921 
L 299.342034 117.300499 
L 299.40545 119.607378 
L 299.468866 118.838516 
L 299.532283 117.684783 
L 300.039611 113.455309 
L 300.293276 113.455309 
L 300.483524 112.301869 
L 300.673772 111.533007 
L 300.737188 112.686447 
L 300.800605 111.917585 
L 300.864021 111.533007 
L 300.927437 112.301869 
L 301.117685 111.533007 
L 301.181101 112.686447 
L 301.244517 112.301869 
L 301.307933 112.686447 
L 301.37135 111.533007 
L 301.561598 111.533007 
L 301.625014 111.14843 
L 301.751846 111.917585 
L 301.815262 111.533007 
L 302.005511 111.917585 
L 302.132343 112.686447 
L 302.195759 114.224464 
L 302.259175 113.839887 
L 302.449423 113.455309 
L 302.512839 114.609042 
L 302.703088 112.686447 
L 302.956752 113.455309 
L 303.083584 110.763852 
L 303.147 111.533007 
L 303.337249 111.917585 
L 303.400665 111.14843 
L 303.590913 112.686447 
L 303.781161 112.686447 
L 303.907994 114.609042 
L 303.97141 114.224464 
L 304.034826 113.071025 
L 304.28849 114.224464 
L 304.351906 115.377904 
L 304.415322 114.993326 
L 304.478739 114.609042 
L 304.668987 114.609042 
L 304.795819 115.377904 
L 304.922651 114.993326 
L 305.1129 114.993326 
L 305.176316 115.762481 
L 305.366564 113.455309 
L 305.620228 113.455309 
L 305.747061 112.301869 
L 306.000725 110.379568 
L 306.064141 110.763852 
L 306.254389 108.841551 
L 306.444638 108.456973 
L 306.508054 109.226128 
L 306.57147 108.841551 
L 306.634886 108.841551 
L 306.698302 111.14843 
L 306.951967 108.841551 
L 307.142215 111.14843 
L 307.332463 110.763852 
L 307.522711 113.455309 
L 307.586128 112.686447 
L 307.776376 112.301869 
L 307.966624 114.609042 
L 308.03004 114.224464 
L 308.283705 114.224464 
L 308.410537 111.917585 
L 308.473953 111.917585 
L 308.664201 112.301869 
L 308.85445 111.533007 
L 308.917866 109.610413 
L 309.234946 110.763852 
L 309.298362 112.301869 
L 309.361778 111.533007 
L 309.552027 112.301869 
L 309.742275 110.763852 
L 309.805691 112.301869 
L 309.995939 112.301869 
L 310.122772 111.917585 
L 310.186188 112.686447 
L 310.249604 112.301869 
L 310.439852 111.917585 
L 310.503268 112.686447 
L 310.693517 109.99499 
L 310.883765 110.763852 
L 311.010597 111.533007 
L 311.074013 111.533007 
L 311.137429 113.071025 
L 311.391094 112.686447 
L 311.517926 113.455309 
L 311.581342 112.301869 
L 311.835006 113.071025 
L 311.898423 114.993326 
L 311.961839 114.609042 
L 312.025255 114.609042 
L 312.215503 115.762481 
L 312.278919 114.224464 
L 312.342335 114.609042 
L 312.405751 115.762481 
L 312.469167 114.993326 
L 312.786248 113.071025 
L 312.91308 114.224464 
L 313.103328 114.224464 
L 313.166745 115.377904 
L 313.293577 112.686447 
L 313.547241 112.686447 
L 313.800906 111.533007 
L 313.991154 111.917585 
L 314.117986 113.071025 
L 314.244818 113.071025 
L 314.435067 113.455309 
L 314.688731 112.301869 
L 314.942395 112.686447 
L 315.069228 111.917585 
L 315.386308 111.917585 
L 315.51314 112.301869 
L 315.576556 111.533007 
L 315.766805 112.301869 
L 315.830221 114.224464 
L 315.893637 113.455309 
L 315.957053 113.839887 
L 316.020469 113.455309 
L 316.210718 113.455309 
L 316.33755 114.224464 
L 316.464382 113.071025 
L 316.65463 113.071025 
L 316.844879 113.839887 
L 316.908295 113.455309 
L 317.098543 113.455309 
L 317.161959 113.071025 
L 317.225375 111.917585 
L 317.288791 112.301869 
L 317.352207 112.686447 
L 317.542456 112.686447 
L 317.669288 112.301869 
L 317.79612 112.686447 
L 318.113201 111.917585 
L 318.176617 111.917585 
L 318.240033 113.455309 
L 318.430281 114.609042 
L 318.493697 114.224464 
L 318.620529 112.686447 
L 318.683946 113.839887 
L 319.127858 111.917585 
L 319.444939 114.224464 
L 319.508355 113.839887 
L 319.571771 113.455309 
L 319.888851 113.839887 
L 320.015684 112.686447 
L 320.205932 111.917585 
L 320.332764 111.14843 
L 320.459596 111.533007 
L 320.649845 111.917585 
L 320.840093 113.455309 
L 320.903509 113.071025 
L 321.093757 113.455309 
L 321.157174 112.686447 
L 321.284006 113.455309 
L 321.347422 112.301869 
L 321.53767 111.533007 
L 321.664502 112.301869 
L 321.727918 111.917585 
L 321.791335 112.686447 
L 321.981583 112.686447 
L 322.171831 111.14843 
L 322.552328 111.917585 
L 322.67916 110.763852 
L 322.932824 111.533007 
L 323.059657 111.533007 
L 323.123073 111.14843 
L 323.376737 110.763852 
L 323.566985 110.763852 
L 323.757234 110.379568 
L 323.82065 110.763852 
L 323.884066 110.379568 
L 323.947482 110.763852 
L 324.010898 109.99499 
L 324.201146 109.226128 
L 324.454811 111.14843 
L 324.708475 111.14843 
L 324.771891 110.763852 
L 325.088972 112.301869 
L 325.152388 112.301869 
L 325.27922 111.14843 
L 325.342636 111.917585 
L 325.596301 111.533007 
L 325.659717 112.686447 
L 325.723133 111.917585 
L 326.040213 114.993326 
L 326.10363 114.993326 
L 326.167046 114.224464 
L 326.230462 114.609042 
L 326.547542 113.839887 
L 326.991455 116.531343 
L 327.118287 112.686447 
L 327.371952 112.686447 
L 327.5622 119.607378 
L 327.815864 121.529973 
L 327.942697 118.069361 
L 328.006113 118.453938 
L 328.259777 117.300499 
L 328.323193 117.684783 
L 328.450025 121.145395 
L 328.640274 118.838516 
L 328.70369 119.2228 
L 328.767106 119.2228 
L 328.830522 116.531343 
L 328.893938 118.453938 
L 329.528099 114.224464 
L 329.591515 114.609042 
L 329.654931 116.147059 
L 329.781763 113.839887 
L 329.972012 114.224464 
L 330.098844 113.839887 
L 330.16226 115.762481 
L 330.225676 113.455309 
L 330.415925 113.839887 
L 330.479341 114.224464 
L 330.606173 113.455309 
L 330.669589 114.224464 
L 330.859837 114.224464 
L 331.050086 116.915921 
L 331.113502 116.531343 
L 331.30375 117.300499 
L 331.367166 116.531343 
L 331.557414 119.607378 
L 331.747663 118.453938 
L 331.811079 116.915921 
L 331.874495 118.838516 
L 331.937911 118.069361 
L 332.001327 117.684783 
L 332.254991 119.607378 
L 332.381824 125.759446 
L 332.44524 122.683412 
L 332.635488 121.914257 
L 332.698904 123.067696 
L 332.825736 121.529973 
L 332.889153 121.529973 
L 333.142817 118.069361 
L 333.206233 113.839887 
L 333.269649 114.993326 
L 333.650146 112.301869 
L 333.713562 113.839887 
L 333.776978 111.917585 
L 333.967226 111.14843 
L 334.030642 112.686447 
L 334.094058 112.301869 
L 334.157475 112.301869 
L 334.220891 113.455309 
L 334.411139 113.455309 
L 334.474555 116.147059 
L 334.537971 114.993326 
L 334.664803 114.993326 
L 334.855052 116.147059 
L 335.108716 112.686447 
L 335.298964 112.686447 
L 335.362381 109.99499 
L 335.425797 111.14843 
L 335.489213 111.533007 
L 335.552629 110.763852 
L 335.806293 109.99499 
L 335.869709 109.99499 
L 335.933125 109.610413 
L 335.996542 111.533007 
L 336.313622 109.99499 
L 336.377038 109.226128 
L 336.440454 111.533007 
L 336.630703 110.763852 
L 336.757535 111.533007 
L 336.884367 109.610413 
L 337.074615 108.072396 
L 337.138031 109.226128 
L 337.201447 108.841551 
L 337.264864 107.303534 
L 337.32828 108.072396 
L 337.518528 108.072396 
L 337.64536 107.688111 
L 337.772192 107.303534 
L 337.962441 109.99499 
L 338.025857 109.226128 
L 338.216105 110.763852 
L 338.406353 110.763852 
L 338.46977 109.610413 
L 338.596602 111.917585 
L 338.660018 111.14843 
L 338.850266 111.14843 
L 338.977098 110.379568 
L 339.103931 113.455309 
L 339.294179 113.839887 
L 339.484427 116.147059 
L 339.547843 114.609042 
L 339.738092 113.839887 
L 339.801508 114.609042 
L 339.92834 113.071025 
L 339.991756 114.224464 
L 340.24542 113.839887 
L 340.308837 116.915921 
L 340.372253 116.147059 
L 340.435669 113.071025 
L 340.625917 112.301869 
L 340.752749 114.224464 
L 340.816165 113.455309 
L 340.879581 113.455309 
L 341.133246 113.839887 
L 341.196662 115.377904 
L 341.323494 111.14843 
L 341.577159 111.533007 
L 341.767407 108.072396 
L 341.957655 108.072396 
L 342.021071 107.688111 
L 342.084487 109.226128 
L 342.147903 108.841551 
L 342.21132 108.072396 
L 342.401568 108.841551 
L 342.5284 111.14843 
L 342.655232 109.226128 
L 342.908897 108.072396 
L 342.972313 109.226128 
L 343.035729 108.841551 
L 343.099145 108.456973 
L 343.289393 108.456973 
L 343.352809 108.841551 
L 343.416226 107.303534 
L 343.479642 107.688111 
L 343.543058 107.688111 
L 343.733306 106.534672 
L 343.923554 109.99499 
L 343.98697 112.301869 
L 344.240635 111.917585 
L 344.367467 108.841551 
L 344.430883 109.610413 
L 344.621131 110.763852 
L 344.684548 109.99499 
L 344.747964 115.377904 
L 344.81138 114.993326 
L 344.874796 114.609042 
L 345.065044 116.147059 
L 345.12846 115.762481 
L 345.191876 113.455309 
L 345.255293 113.839887 
L 345.318709 113.839887 
L 345.508957 111.917585 
L 345.635789 115.762481 
L 345.699205 114.993326 
L 345.762621 112.301869 
L 345.95287 111.917585 
L 346.016286 111.533007 
L 346.143118 108.072396 
L 346.206534 108.456973 
L 346.460198 108.841551 
L 346.587031 110.763852 
L 346.840695 110.763852 
L 346.904111 112.301869 
L 346.967527 110.763852 
L 347.030943 111.533007 
L 347.094359 111.14843 
L 347.284608 111.14843 
L 347.348024 111.533007 
L 347.41144 109.226128 
L 347.474856 109.99499 
L 347.538272 110.379568 
L 347.728521 109.99499 
L 347.791937 111.14843 
L 347.982185 108.072396 
L 348.172433 108.841551 
L 348.426098 105.765516 
L 348.743178 104.612077 
L 348.87001 106.150094 
L 349.123675 105.380939 
L 349.313923 104.227499 
L 349.567587 108.072396 
L 349.69442 106.534672 
L 350.0115 110.379568 
L 350.138332 108.072396 
L 350.201749 109.99499 
L 350.391997 110.763852 
L 350.455413 113.455309 
L 350.518829 110.763852 
L 350.582245 111.14843 
L 350.83591 111.14843 
L 351.089574 108.072396 
L 351.279822 107.688111 
L 351.470071 111.533007 
L 351.723735 112.301869 
L 351.977399 108.841551 
L 352.167648 109.226128 
L 352.29448 111.14843 
L 352.357896 108.456973 
L 352.421312 111.14843 
L 352.674977 110.763852 
L 352.738393 109.610413 
L 352.801809 110.763852 
L 352.865225 110.379568 
L 353.055473 111.917585 
L 353.118889 111.14843 
L 353.182305 112.686447 
L 353.309138 108.072396 
L 353.562802 108.072396 
L 353.689634 105.765516 
L 353.75305 107.688111 
L 354.006715 107.688111 
L 354.196963 105.380939 
L 354.450627 105.380939 
L 354.640876 109.226128 
L 354.831124 110.379568 
L 355.084788 106.150094 
L 355.338453 109.99499 
L 355.528701 108.456973 
L 355.718949 110.379568 
L 355.782366 112.301869 
L 355.845782 111.917585 
L 355.909198 111.533007 
L 355.972614 112.301869 
L 356.162862 110.763852 
L 356.226278 108.841551 
L 356.289694 112.301869 
L 356.35311 111.917585 
L 356.416527 112.301869 
L 356.670191 109.226128 
L 356.733607 110.379568 
L 356.797023 108.072396 
L 356.860439 109.610413 
L 357.050688 108.841551 
L 357.114104 109.610413 
L 357.17752 107.303534 
L 357.240936 107.688111 
L 357.304352 110.763852 
L 357.558016 105.765516 
L 357.748265 100.767181 
L 357.938513 99.613741 
L 358.065345 93.461672 
L 358.128761 95.384267 
L 358.192177 97.306569 
L 358.382426 95.384267 
L 358.572674 98.460008 
L 358.63609 97.691146 
L 358.826338 97.691146 
L 358.889755 98.460008 
L 358.953171 102.689482 
L 359.016587 101.536042 
L 359.4605 105.765516 
L 359.523916 103.458637 
L 359.77758 106.150094 
L 359.967828 102.689482 
L 360.158077 103.07406 
L 360.284909 103.842922 
L 360.411741 102.305198 
L 360.601989 101.92062 
L 360.855654 99.998025 
L 361.045902 101.151465 
L 361.172734 104.612077 
L 361.23615 102.689482 
L 361.299566 108.841551 
L 361.489815 109.226128 
L 361.743479 103.842922 
L 361.933728 106.150094 
L 361.997144 104.227499 
L 362.187392 111.533007 
L 362.37764 110.763852 
L 362.441056 114.224464 
L 362.504472 113.839887 
L 362.631305 114.993326 
L 362.884969 110.763852 
L 362.948385 111.917585 
L 363.075217 108.456973 
L 363.265466 108.456973 
L 363.51913 103.07406 
L 363.709378 101.151465 
L 363.899627 92.308233 
L 363.963043 95.384267 
L 364.343539 98.075724 
L 364.406956 96.537707 
L 364.597204 98.460008 
L 364.850868 91.539077 
L 365.041117 93.84625 
L 365.294781 104.996654 
L 365.485029 105.380939 
L 365.548445 106.150094 
L 365.611861 105.765516 
L 365.738694 104.612077 
L 365.992358 106.150094 
L 366.055774 102.305198 
L 366.11919 104.227499 
L 366.182606 104.612077 
L 366.372855 103.07406 
L 366.499687 100.382603 
L 366.563103 103.458637 
L 366.626519 102.305198 
L 366.880184 106.918956 
L 367.007016 104.996654 
L 367.070432 108.456973 
L 367.514345 104.996654 
L 367.704593 104.612077 
L 367.768009 105.380939 
L 367.831425 97.691146 
L 367.894841 101.92062 
L 367.958257 99.613741 
L 368.148506 98.460008 
L 368.211922 97.306569 
L 368.275338 98.075724 
L 368.338754 99.613741 
L 368.40217 97.691146 
L 368.592418 98.075724 
L 368.71925 95.384267 
L 368.782667 95.768551 
L 369.036331 93.077095 
L 369.226579 96.537707 
L 369.289995 97.306569 
L 369.607076 93.84625 
L 369.670492 92.308233 
L 369.733908 93.84625 
L 369.924156 94.230534 
L 369.987573 93.84625 
L 370.050989 96.537707 
L 370.114405 94.999689 
L 370.177821 93.84625 
L 370.368069 94.230534 
L 370.431485 95.768551 
L 370.494901 95.384267 
L 370.558317 95.768551 
L 370.621734 98.460008 
L 370.811982 98.460008 
L 371.00223 101.536042 
L 371.065646 96.922284 
L 371.255895 99.998025 
L 371.319311 99.613741 
L 371.509559 94.999689 
L 371.699807 96.922284 
L 371.763223 98.844586 
L 371.82664 97.691146 
L 371.890056 96.537707 
L 371.953472 98.844586 
L 372.207136 98.460008 
L 372.270552 98.075724 
L 372.397384 95.768551 
L 372.714465 100.767181 
L 372.777881 100.382603 
L 372.841297 103.458637 
L 373.031545 101.536042 
L 373.158378 103.842922 
L 373.221794 103.07406 
L 373.28521 103.842922 
L 373.538874 101.151465 
L 373.729123 97.306569 
L 373.982787 100.382603 
L 374.046203 98.844586 
L 374.109619 99.613741 
L 374.173035 101.536042 
L 374.4267 96.153129 
L 374.490116 100.382603 
L 374.553532 95.384267 
L 374.807196 94.615112 
L 374.870612 94.999689 
L 374.934029 91.539077 
L 374.997445 93.84625 
L 375.060861 96.922284 
L 375.251109 98.460008 
L 375.377941 95.768551 
L 375.504773 98.075724 
L 375.695022 99.998025 
L 375.758438 99.613741 
L 375.821854 99.998025 
L 375.948686 98.844586 
L 376.138934 96.537707 
L 376.329183 99.613741 
L 376.392599 96.153129 
L 376.582847 96.537707 
L 376.646263 101.536042 
L 376.709679 101.151465 
L 376.773096 100.382603 
L 376.836512 101.92062 
L 377.02676 101.92062 
L 377.153592 97.691146 
L 377.280424 101.92062 
L 377.470673 99.998025 
L 377.534089 100.382603 
L 377.724337 94.999689 
L 377.914585 93.461672 
L 378.16825 98.075724 
L 378.421914 99.613741 
L 378.612162 98.460008 
L 378.929243 100.382603 
L 379.056075 98.075724 
L 379.246324 98.844586 
L 379.373156 103.842922 
L 379.499988 94.999689 
L 379.690236 96.922284 
L 379.880485 94.230534 
L 379.943901 95.768551 
L 380.260981 91.154793 
L 380.324397 92.69281 
L 380.387813 88.078759 
L 380.831726 92.308233 
L 381.021974 93.077095 
L 381.08539 91.923655 
L 381.148807 87.309897 
L 381.212223 89.232198 
L 381.275639 90.770216 
L 381.465887 89.616776 
L 381.529303 91.539077 
L 381.592719 90.385638 
L 381.656135 89.232198 
L 381.719552 91.923655 
L 381.9098 91.923655 
L 381.973216 90.770216 
L 382.163464 97.306569 
L 382.543961 104.612077 
L 382.607377 107.688111 
L 382.797625 108.456973 
L 383.05129 103.842922 
L 383.241538 103.842922 
L 383.495202 106.918956 
L 383.748867 107.303534 
L 383.939115 106.150094 
L 384.129363 107.303534 
L 384.19278 106.918956 
L 384.319612 109.610413 
L 384.383028 108.841551 
L 384.573276 109.226128 
L 384.636692 109.610413 
L 384.700108 108.456973 
L 384.763524 110.379568 
L 384.826941 106.534672 
L 385.207437 113.455309 
L 385.270853 109.226128 
L 385.461102 109.610413 
L 385.96843 114.609042 
L 386.031847 113.839887 
L 386.095263 115.377904 
L 386.348927 111.14843 
L 386.412343 113.071025 
L 386.602591 107.688111 
L 386.856256 106.150094 
L 387.046504 100.767181 
L 387.300169 101.151465 
L 387.363585 98.844586 
L 387.427001 99.229163 
L 387.490417 100.382603 
L 387.680665 100.382603 
L 387.93433 94.230534 
L 388.124578 97.691146 
L 388.314826 91.923655 
L 388.378242 92.69281 
L 388.568491 88.847621 
L 388.695323 90.001354 
L 388.758739 86.925319 
L 388.822155 90.770216 
L 389.075819 92.69281 
L 389.139236 91.923655 
L 389.202652 89.232198 
L 389.266068 92.308233 
L 389.456316 91.923655 
L 389.583148 90.770216 
L 389.646564 90.001354 
L 389.70998 94.230534 
L 389.900229 92.308233 
L 390.027061 98.844586 
L 390.090477 97.691146 
L 390.153893 99.998025 
L 390.344141 102.305198 
L 390.407558 99.998025 
L 390.470974 101.151465 
L 390.53439 101.536042 
L 390.597806 104.612077 
L 390.788054 104.612077 
L 390.85147 103.458637 
L 390.914886 96.922284 
L 390.978303 97.306569 
L 391.041719 96.537707 
L 391.231967 96.922284 
L 391.295383 98.844586 
L 391.358799 96.922284 
L 391.422215 98.460008 
L 391.67588 97.691146 
L 391.866128 89.616776 
L 391.929544 93.461672 
L 392.183208 90.001354 
L 392.246625 91.154793 
L 392.373457 89.232198 
L 392.563705 89.616776 
L 392.753953 91.923655 
L 392.817369 89.616776 
L 393.007618 90.001354 
L 393.261282 94.230534 
L 393.451531 94.999689 
L 393.514947 95.768551 
L 393.705195 90.385638 
L 393.895443 93.461672 
L 393.958859 90.001354 
L 394.022275 90.385638 
L 394.085692 89.232198 
L 394.149108 90.001354 
L 394.402772 87.694181 
L 394.529604 90.770216 
L 394.59302 90.385638 
L 394.846685 93.077095 
L 394.910101 98.844586 
L 394.973517 98.075724 
L 395.036933 96.922284 
L 395.227181 97.306569 
L 395.290597 99.613741 
L 395.41743 95.768551 
L 395.480846 97.691146 
L 395.73451 96.153129 
L 395.797926 100.382603 
L 395.861342 97.691146 
L 395.924759 92.308233 
L 396.115007 93.077095 
L 396.622336 87.694181 
L 396.685752 83.849285 
L 396.749168 85.77188 
L 396.812584 85.387302 
L 397.002832 87.309897 
L 397.066248 89.616776 
L 397.129664 88.463336 
L 397.193081 89.616776 
L 397.256497 81.92669 
L 397.510161 78.850949 
L 397.573577 80.004389 
L 397.636993 78.466371 
L 397.700409 79.235233 
L 397.954074 77.69751 
L 398.33457 84.233863 
L 398.588235 88.078759 
L 398.841899 85.77188 
L 398.905315 87.309897 
L 398.968731 85.002724 
L 399.032148 86.156164 
L 399.222396 88.463336 
L 399.285812 88.078759 
L 399.47606 81.92669 
L 399.729725 86.156164 
L 399.793141 85.77188 
L 399.856557 83.464707 
L 399.919973 88.078759 
L 400.110221 89.232198 
L 400.237053 85.77188 
L 400.30047 88.847621 
L 400.363886 86.540742 
L 400.554134 87.309897 
L 400.680966 88.463336 
L 400.744382 86.156164 
L 400.807798 89.232198 
L 400.998047 88.847621 
L 401.061463 88.463336 
L 401.188295 90.385638 
L 401.251711 93.461672 
L 401.505376 91.154793 
L 401.695624 91.923655 
L 402.012704 89.616776 
L 402.139537 93.077095 
L 402.329785 91.923655 
L 402.393201 93.077095 
L 402.520033 88.463336 
L 402.583449 90.001354 
L 402.773698 90.770216 
L 402.837114 91.539077 
L 402.90053 90.770216 
L 402.963946 91.539077 
L 403.027362 89.616776 
L 403.281026 87.309897 
L 403.344443 87.694181 
L 403.407859 86.540742 
L 403.471275 89.232198 
L 403.661523 91.539077 
L 403.851771 96.153129 
L 403.915187 94.999689 
L 404.232268 96.922284 
L 404.295684 95.768551 
L 404.3591 96.537707 
L 404.676181 92.69281 
L 404.739597 94.230534 
L 404.803013 93.461672 
L 405.120093 95.768551 
L 405.437174 92.69281 
L 405.50059 94.615112 
L 405.690838 91.154793 
L 405.881087 92.308233 
L 406.134751 101.151465 
L 406.324999 106.150094 
L 406.388415 104.996654 
L 406.515248 105.765516 
L 406.578664 107.688111 
L 406.768912 108.072396 
L 407.022576 111.14843 
L 407.276241 108.841551 
L 407.339657 109.99499 
L 407.403073 113.455309 
L 407.466489 109.99499 
L 407.656737 109.99499 
L 407.720154 110.763852 
L 407.78357 109.610413 
L 407.846986 109.99499 
L 408.164066 111.917585 
L 408.290899 119.607378 
L 408.354315 118.069361 
L 408.671395 114.609042 
L 408.798227 116.147059 
L 409.051892 117.684783 
L 409.115308 116.531343 
L 409.24214 111.917585 
L 409.495804 114.609042 
L 409.559221 113.839887 
L 409.622637 111.533007 
L 409.686053 114.224464 
L 409.876301 111.533007 
L 409.939717 112.686447 
L 410.066549 109.99499 
L 410.129965 111.533007 
L 410.38363 109.226128 
L 410.510462 113.455309 
L 410.764127 108.456973 
L 410.890959 111.14843 
L 410.954375 110.763852 
L 411.017791 109.226128 
L 411.208039 109.226128 
L 411.271455 108.456973 
L 411.334871 111.533007 
L 411.398288 110.379568 
L 411.461704 111.533007 
L 411.778784 105.765516 
L 411.905616 108.841551 
L 412.095865 109.610413 
L 412.222697 113.071025 
L 412.349529 109.226128 
L 412.603193 108.841551 
L 412.730026 106.534672 
L 412.793442 104.996654 
L 413.047106 109.226128 
L 413.173938 117.300499 
L 413.237355 116.531343 
L 413.427603 115.762481 
L 413.617851 119.991955 
L 413.681267 118.069361 
L 413.934932 119.991955 
L 413.998348 113.839887 
L 414.061764 116.147059 
L 414.378844 111.14843 
L 414.505677 110.379568 
L 414.569093 110.379568 
L 414.759341 109.226128 
L 414.822757 110.763852 
L 414.886173 108.841551 
L 414.949589 109.610413 
L 415.203254 108.456973 
L 415.330086 109.610413 
L 415.393502 108.841551 
L 415.456918 113.071025 
L 415.647166 111.533007 
L 415.837415 104.612077 
L 416.091079 104.996654 
L 416.154495 102.305198 
L 416.217911 103.842922 
L 416.281327 104.227499 
L 416.344744 102.689482 
L 416.598408 109.226128 
L 416.661824 108.072396 
L 416.788656 105.380939 
L 417.105737 111.14843 
L 417.169153 111.533007 
L 417.232569 110.379568 
L 417.422817 111.917585 
L 417.486233 113.455309 
L 417.54965 112.686447 
L 417.613066 112.301869 
L 417.676482 108.456973 
L 417.930146 108.841551 
L 417.993562 105.380939 
L 418.056978 106.918956 
L 418.120394 106.150094 
L 418.310643 107.303534 
L 418.374059 108.456973 
L 418.500891 106.534672 
L 418.564307 106.918956 
L 418.881388 105.380939 
L 418.944804 108.456973 
L 419.00822 106.150094 
L 419.198468 108.841551 
L 419.261884 107.688111 
L 419.452133 110.763852 
L 419.705797 111.14843 
L 419.896045 109.226128 
L 420.086294 111.14843 
L 420.14971 110.763852 
L 420.276542 109.99499 
L 420.339958 108.072396 
L 420.530206 108.072396 
L 420.593622 109.99499 
L 420.657039 108.456973 
L 420.974119 115.377904 
L 421.544864 109.610413 
L 421.60828 111.14843 
L 421.671696 109.610413 
L 421.861944 109.226128 
L 421.988777 108.456973 
L 422.052193 108.456973 
L 422.115609 106.918956 
L 422.305857 108.072396 
L 422.369273 109.99499 
L 422.559522 106.534672 
L 422.74977 106.918956 
L 422.876602 109.99499 
L 422.940018 108.841551 
L 423.003434 109.99499 
L 423.257099 108.841551 
L 423.320515 109.226128 
L 423.383931 108.072396 
L 423.447347 103.842922 
L 423.701011 108.072396 
L 423.827844 105.380939 
L 423.89126 105.765516 
L 424.081508 104.996654 
L 424.144924 105.380939 
L 424.20834 102.305198 
L 424.271756 105.380939 
L 424.335172 104.227499 
L 424.525421 105.380939 
L 424.715669 103.07406 
L 424.779085 106.534672 
L 425.159582 101.92062 
L 425.413246 105.765516 
L 425.540078 108.072396 
L 425.603495 107.688111 
L 425.666911 108.072396 
L 425.983991 112.301869 
L 426.047407 113.071025 
L 426.301072 110.379568 
L 426.427904 111.533007 
L 426.49132 111.14843 
L 426.554736 111.917585 
L 426.744984 112.301869 
L 426.8084 114.224464 
L 426.871817 108.072396 
L 426.998649 116.147059 
L 427.188897 116.147059 
L 427.252313 115.377904 
L 427.315729 115.762481 
L 427.379145 116.147059 
L 427.442562 114.224464 
L 427.759642 118.069361 
L 427.823058 116.147059 
L 427.886474 118.069361 
L 428.076723 118.069361 
L 428.266971 119.607378 
L 428.330387 117.300499 
L 428.520635 115.762481 
L 428.7743 122.298834 
L 428.964548 120.37624 
L 429.218212 123.836852 
L 429.408461 124.221429 
L 429.471877 123.452274 
L 429.662125 126.143731 
L 429.91579 128.066326 
L 429.979206 125.374869 
L 430.296286 125.374869 
L 430.359702 124.990291 
L 430.486534 127.681748 
L 430.549951 129.988627 
L 430.803615 132.295799 
L 430.993863 130.373205 
L 431.247528 131.911222 
L 431.310944 128.450903 
L 431.37436 129.604343 
L 431.437776 131.14236 
L 431.628024 131.14236 
L 431.881689 137.294135 
L 432.135353 137.678713 
L 432.325601 134.987256 
L 432.642682 136.140696 
L 432.769514 137.678713 
L 432.959762 137.678713 
L 433.023179 138.832152 
L 433.086595 137.678713 
L 433.213427 139.21673 
L 433.467091 139.601014 
L 433.593923 141.523609 
L 433.65734 140.37017 
L 433.847588 141.908187 
L 433.911004 139.985592 
L 433.97442 140.754747 
L 434.291501 144.599644 
L 434.354917 144.215066 
L 434.418333 144.215066 
L 434.481749 148.829117 
L 434.545165 148.44454 
L 434.735413 142.677049 
L 434.862246 147.2911 
L 434.925662 146.906523 
L 434.989078 144.215066 
L 435.242742 145.753083 
L 435.369574 151.520574 
L 435.43299 150.751419 
L 435.686655 151.135997 
L 436.067151 149.213402 
L 436.130568 151.520574 
L 436.193984 150.751419 
L 436.2574 149.597979 
L 436.320816 151.135997 
L 436.511064 151.135997 
L 436.637896 151.904858 
L 436.701312 151.135997 
L 436.764729 152.674014 
L 437.145225 150.367135 
L 437.208641 151.904858 
L 437.39889 151.904858 
L 437.462306 153.058591 
L 437.652554 148.44454 
L 437.842802 149.982557 
L 438.033051 146.137661 
L 438.350131 150.367135 
L 438.413547 152.289436 
L 438.476963 151.520574 
L 438.540379 148.829117 
L 438.730628 149.213402 
L 438.984292 153.442876 
L 439.237957 153.827453 
L 439.428205 157.67235 
L 439.618453 158.056927 
L 439.872118 156.134332 
L 440.062366 157.288065 
L 440.125782 162.670979 
L 440.189198 161.517246 
L 440.252614 159.210367 
L 440.31603 160.363806 
L 440.506279 160.363806 
L 440.569695 159.979522 
L 440.696527 161.517246 
L 440.950191 161.517246 
L 441.077024 163.439841 
L 441.203856 161.132962 
L 441.45752 161.132962 
L 441.901433 144.599644 
L 442.091681 157.288065 
L 442.28193 159.979522 
L 442.472178 156.134332 
L 442.852674 161.132962 
L 442.979507 158.441505 
L 443.169755 157.67235 
L 443.233171 156.51891 
L 443.296587 158.056927 
L 443.423419 155.750048 
L 443.677084 154.596609 
L 443.803916 152.674014 
L 443.867332 153.442876 
L 444.05758 158.825789 
L 444.120997 157.67235 
L 444.247829 158.056927 
L 444.311245 157.288065 
L 444.564909 159.594944 
L 444.755158 158.056927 
L 445.072238 159.594944 
L 445.19907 158.056927 
L 445.516151 160.748384 
L 445.579567 160.748384 
L 445.642983 160.363806 
L 445.896647 160.363806 
L 445.960063 165.362435 
L 446.02348 163.439841 
L 446.277144 162.286401 
L 446.34056 163.439841 
L 446.403976 163.055263 
L 446.530808 158.056927 
L 446.784473 158.825789 
L 446.974721 156.903488 
L 447.164969 154.980893 
L 447.228386 155.750048 
L 447.291802 154.980893 
L 447.355218 155.36547 
L 447.418634 154.980893 
L 447.608882 156.134332 
L 447.735714 157.67235 
L 447.862547 154.596609 
L 448.179627 160.363806 
L 448.243043 159.210367 
L 448.306459 162.670979 
L 448.496708 162.286401 
L 448.62354 164.208996 
L 448.686956 163.824418 
L 448.750372 164.977858 
L 449.004036 166.131297 
L 449.067453 166.900453 
L 449.130869 165.74672 
L 449.194285 166.515875 
L 449.384533 166.515875 
L 449.574781 165.74672 
L 449.638197 164.208996 
L 449.828446 170.360771 
L 449.891862 169.207332 
L 450.08211 171.898789 
L 450.272358 172.66765 
L 450.526023 169.591909 
L 450.716271 168.438177 
L 450.843103 169.591909 
L 450.906519 167.669315 
L 450.969936 169.591909 
L 451.160184 170.360771 
L 451.413848 162.670979 
L 451.604097 161.517246 
L 451.794345 168.438177 
L 451.857761 172.283366 
L 452.048009 171.129633 
L 452.238258 173.436806 
L 452.491922 169.591909 
L 452.555338 169.207332 
L 452.745586 163.055263 
L 452.935835 160.363806 
L 453.062667 161.132962 
L 453.189499 161.901823 
L 453.379747 161.517246 
L 453.443164 161.132962 
L 453.633412 158.056927 
L 453.82366 166.131297 
L 454.077325 157.288065 
L 454.267573 157.288065 
L 454.394405 160.748384 
L 454.521237 155.750048 
L 454.711486 152.674014 
L 454.774902 155.36547 
L 454.838318 154.596609 
L 454.901734 154.980893 
L 454.96515 152.674014 
L 455.155398 149.982557 
L 455.282231 153.058591 
L 455.409063 144.984221 
L 455.726143 143.446204 
L 455.789559 136.909558 
L 455.852975 143.830488 
L 456.10664 148.059962 
L 456.170056 146.521945 
L 456.233472 146.137661 
L 456.296888 144.215066 
L 456.487137 144.215066 
L 456.550553 143.061626 
L 456.613969 143.830488 
L 456.677385 144.215066 
L 456.740801 146.906523 
L 456.994465 144.215066 
L 457.057881 144.984221 
L 457.121298 142.292471 
L 457.184714 144.599644 
L 457.374962 144.215066 
L 457.501794 138.447575 
L 457.56521 135.756118 
L 457.628626 145.368505 
L 457.882291 145.368505 
L 458.072539 140.37017 
L 458.326203 141.908187 
L 458.38962 144.215066 
L 458.453036 139.985592 
L 458.516452 141.523609 
L 458.770116 139.21673 
L 458.833532 139.601014 
L 458.896948 140.754747 
L 458.960365 138.447575 
L 459.150613 138.832152 
L 459.214029 137.294135 
L 459.277445 138.063291 
L 459.340861 138.832152 
L 459.404277 146.906523 
L 459.657942 145.753083 
L 459.84819 139.601014 
L 460.038438 140.37017 
L 460.292103 136.909558 
L 460.545767 138.063291 
L 460.736015 128.066326 
L 461.053096 122.298834 
L 461.116512 122.683412 
L 461.179928 124.605714 
L 461.370176 134.218101 
L 461.433593 132.680084 
L 461.497009 134.218101 
L 461.560425 133.449239 
L 461.814089 134.602679 
L 461.877505 134.218101 
L 461.940921 131.526644 
L 462.004337 133.449239 
L 462.067754 135.371834 
L 462.258002 134.987256 
L 462.321418 135.371834 
L 462.44825 133.449239 
L 462.701915 133.064661 
L 462.955579 126.143731 
L 463.145827 127.29717 
L 463.209243 124.990291 
L 463.336076 135.371834 
L 463.653156 130.757782 
L 463.716572 131.14236 
L 464.033653 124.605714 
L 464.097069 124.605714 
L 464.160485 122.298834 
L 464.223901 124.221429 
L 464.287317 123.452274 
L 464.477565 124.990291 
L 464.540982 126.528308 
L 464.604398 124.990291 
L 464.667814 119.2228 
L 464.73123 120.37624 
L 465.04831 117.300499 
L 465.175143 107.688111 
L 465.365391 108.072396 
L 465.428807 110.379568 
L 465.492223 108.841551 
L 465.555639 110.763852 
L 465.619055 107.303534 
L 465.87272 111.533007 
L 465.999552 105.380939 
L 466.062968 106.534672 
L 466.253216 108.072396 
L 466.316632 107.688111 
L 466.443465 99.229163 
L 466.506881 100.767181 
L 466.760545 98.075724 
L 466.823961 101.92062 
L 466.887377 99.229163 
L 466.950793 99.229163 
L 467.141042 107.303534 
L 467.204458 105.380939 
L 467.267874 104.612077 
L 467.394706 111.14843 
L 467.648371 113.839887 
L 467.711787 108.072396 
L 467.775203 109.610413 
L 468.028867 108.456973 
L 468.092283 109.610413 
L 468.219115 102.689482 
L 468.282532 106.150094 
L 468.47278 105.765516 
L 468.536196 106.534672 
L 468.599612 105.765516 
L 468.663028 107.688111 
L 468.726444 107.303534 
L 468.916693 107.303534 
L 468.980109 106.918956 
L 469.043525 107.303534 
L 469.170357 103.07406 
L 469.487438 94.615112 
L 469.61427 97.691146 
L 469.804518 94.230534 
L 469.867934 98.075724 
L 469.994766 86.925319 
L 470.058182 87.309897 
L 470.248431 90.770216 
L 470.311847 88.463336 
L 470.438679 93.077095 
L 470.502095 87.694181 
L 470.692343 89.232198 
L 470.819176 87.309897 
L 470.882592 88.847621 
L 470.946008 87.694181 
L 471.199672 90.770216 
L 471.263088 88.078759 
L 471.326505 95.384267 
L 471.389921 94.999689 
L 471.580169 98.460008 
L 471.707001 103.842922 
L 471.770417 104.612077 
L 471.833833 109.99499 
L 472.087498 105.765516 
L 472.150914 107.688111 
L 472.21433 107.303534 
L 472.277746 103.842922 
L 472.467994 101.92062 
L 472.53141 98.460008 
L 472.594827 102.689482 
L 472.658243 101.151465 
L 472.721659 99.229163 
L 472.911907 97.691146 
L 472.975323 99.229163 
L 473.102155 88.847621 
L 473.165572 89.232198 
L 473.35582 92.69281 
L 473.419236 90.770216 
L 473.609484 99.613741 
L 473.799733 99.229163 
L 473.863149 99.998025 
L 474.053397 97.306569 
L 474.243645 98.844586 
L 474.307061 97.691146 
L 474.370477 98.075724 
L 474.433894 98.075724 
L 474.49731 99.998025 
L 474.687558 101.151465 
L 474.81439 98.460008 
L 474.877806 92.69281 
L 474.941222 99.998025 
L 475.131471 102.305198 
L 475.194887 104.612077 
L 475.258303 102.689482 
L 475.321719 106.534672 
L 475.385135 106.150094 
L 475.6388 104.996654 
L 475.765632 100.382603 
L 475.829048 101.536042 
L 476.146128 98.844586 
L 476.272961 100.767181 
L 476.463209 100.382603 
L 476.526625 98.844586 
L 476.590041 100.767181 
L 476.716873 99.613741 
L 476.907122 105.765516 
L 476.970538 101.151465 
L 477.033954 102.689482 
L 477.160786 105.380939 
L 477.351034 105.380939 
L 477.41445 106.918956 
L 477.477866 104.227499 
L 477.541283 107.303534 
L 477.604699 103.458637 
L 477.794947 105.380939 
L 477.921779 104.227499 
L 478.048611 108.841551 
L 478.23886 109.610413 
L 478.429108 108.072396 
L 478.492524 105.765516 
L 478.682772 104.612077 
L 478.746189 104.996654 
L 478.873021 103.458637 
L 478.936437 100.767181 
L 479.190101 101.92062 
L 479.253517 103.458637 
L 479.316933 103.07406 
L 479.38035 102.305198 
L 479.570598 102.689482 
L 479.634014 102.305198 
L 479.824262 99.613741 
L 480.077927 98.844586 
L 480.268175 95.768551 
L 480.458423 92.308233 
L 480.521839 93.84625 
L 480.712088 86.156164 
L 481.029168 98.075724 
L 481.092584 97.306569 
L 481.156 95.384267 
L 481.346249 93.84625 
L 481.473081 96.922284 
L 481.536497 96.153129 
L 481.599913 94.615112 
L 481.916994 93.077095 
L 481.98041 92.308233 
L 482.424322 74.621475 
L 482.487739 62.701915 
L 482.677987 68.853984 
L 482.868235 48.47577 
L 483.1219 26.559538 
L 483.312148 45.784313 
L 483.565812 36.171926 
L 483.692645 48.091192 
L 483.819477 33.480469 
L 484.009725 29.635573 
L 484.073141 34.249331 
L 484.199973 26.559538 
L 484.263389 27.3284 
L 484.453638 25.790383 
L 484.960967 31.557874 
L 485.087799 28.48184 
L 485.404879 28.097555 
L 485.531712 26.174961 
L 485.595128 27.3284 
L 485.785376 27.3284 
L 485.848792 26.559538 
L 486.03904 28.097555 
L 486.229289 28.097555 
L 486.292705 26.943823 
L 486.356121 27.3284 
L 486.419537 21.560909 
L 486.482953 29.250995 
L 486.673201 29.250995 
L 486.736617 29.635573 
L 486.86345 26.174961 
L 486.926866 26.943823 
L 487.117114 28.097555 
L 487.243946 27.3284 
L 487.307362 28.097555 
L 487.370778 26.174961 
L 487.561027 28.866417 
L 487.687859 26.943823 
L 487.814691 27.712978 
L 488.068356 27.712978 
L 488.131772 28.48184 
L 488.258604 26.943823 
L 488.702517 33.095891 
L 488.892765 33.864753 
L 489.019597 30.789012 
L 489.146429 31.173296 
L 489.400094 32.327029 
L 489.590342 30.789012 
L 489.78059 31.557874 
L 490.034255 29.250995 
L 490.224503 28.48184 
L 490.287919 28.866417 
L 490.351335 32.327029 
L 490.414751 30.789012 
L 490.668416 31.942452 
L 490.858664 30.404435 
L 490.92208 31.557874 
L 491.112329 31.557874 
L 491.365993 30.019857 
L 491.556241 30.789012 
L 491.619657 30.019857 
L 491.683073 30.404435 
L 491.74649 30.404435 
L 491.809906 30.019857 
L 492.000154 31.173296 
L 492.253818 28.097555 
L 492.570899 30.404435 
L 492.634315 30.404435 
L 493.078228 33.480469 
L 493.141644 33.095891 
L 493.331892 32.711314 
L 493.458724 32.327029 
L 493.52214 32.327029 
L 493.585557 32.711314 
L 493.775805 33.095891 
L 493.902637 32.711314 
L 493.966053 33.095891 
L 494.029469 31.942452 
L 494.219718 30.789012 
L 494.283134 33.480469 
L 494.34655 33.095891 
L 494.409966 33.480469 
L 494.473382 34.633908 
L 494.727046 34.249331 
L 494.790462 33.864753 
L 494.853879 34.249331 
L 494.917295 33.480469 
L 495.107543 33.864753 
L 495.234375 33.095891 
L 495.297791 33.864753 
L 495.361207 33.480469 
L 495.551456 33.864753 
L 495.678288 33.095891 
L 495.741704 33.480469 
L 495.80512 33.095891 
L 495.995368 32.711314 
L 496.058785 33.095891 
L 496.122201 32.711314 
L 496.185617 35.018486 
L 496.249033 34.633908 
L 496.566113 36.171926 
L 496.692946 36.171926 
L 496.883194 35.40277 
L 497.010026 35.787348 
L 497.073442 35.018486 
L 497.136858 35.40277 
L 497.327107 35.40277 
L 497.517355 36.940788 
L 497.580771 36.55621 
L 497.834435 36.171926 
L 497.897852 36.171926 
L 497.961268 35.40277 
L 498.024684 35.787348 
L 498.278348 38.094227 
L 498.341764 37.325365 
L 498.40518 38.094227 
L 498.468596 37.709943 
L 498.785677 40.016822 
L 498.849093 39.632244 
L 498.912509 39.632244 
L 499.102757 38.863382 
L 499.22959 39.24796 
L 499.356422 38.094227 
L 499.54667 38.094227 
L 499.673502 37.325365 
L 499.800335 37.325365 
L 499.990583 36.55621 
L 500.053999 39.632244 
L 500.117415 38.863382 
L 500.180831 38.094227 
L 500.244247 38.478805 
L 500.434496 37.709943 
L 500.561328 38.863382 
L 500.68816 36.171926 
L 500.941824 36.55621 
L 501.005241 36.55621 
L 501.132073 38.094227 
L 501.385737 38.094227 
L 501.449153 37.325365 
L 501.512569 38.094227 
L 501.893066 37.325365 
L 501.956482 37.709943 
L 502.273563 37.325365 
L 502.336979 39.24796 
L 502.400395 38.478805 
L 502.463811 38.863382 
L 502.780891 39.632244 
L 503.161388 37.709943 
L 503.224804 38.094227 
L 503.351636 37.709943 
L 503.541885 37.325365 
L 503.732133 38.094227 
L 503.795549 36.940788 
L 503.985797 37.709943 
L 504.049213 38.863382 
L 504.11263 38.478805 
L 504.176046 38.478805 
L 504.239462 37.709943 
L 504.42971 38.094227 
L 504.493126 38.863382 
L 504.556542 38.478805 
L 504.619958 38.478805 
L 504.683375 38.094227 
L 504.937039 39.24796 
L 505.127287 38.094227 
L 505.317536 38.863382 
L 505.380952 38.478805 
L 505.444368 39.24796 
L 505.507784 44.246296 
L 505.5712 40.016822 
L 505.761448 41.170261 
L 505.824864 40.4014 
L 505.951697 42.323701 
L 506.015113 42.323701 
L 506.268777 43.477141 
L 506.395609 42.323701 
L 506.459025 42.708279 
L 506.71269 42.323701 
L 506.776106 41.554839 
L 506.839522 41.939417 
L 506.902938 41.939417 
L 507.093186 42.323701 
L 507.346851 40.785684 
L 507.600515 41.554839 
L 507.727347 43.477141 
L 507.981012 44.246296 
L 508.17126 41.939417 
L 508.234676 43.092856 
L 508.424925 43.861718 
L 508.615173 41.939417 
L 508.678589 42.323701 
L 508.868837 42.708279 
L 508.995669 41.170261 
L 509.059086 41.554839 
L 509.122502 42.323701 
L 509.376166 43.477141 
L 509.566414 41.554839 
L 509.820079 42.323701 
L 509.820079 42.323701 
" style="fill:none;stroke:#4c72b0;stroke-linecap:round;stroke-width:1.5;"/>
   </g>
   <g id="patch_3">
    <path d="M 53.5 323.14 
L 53.5 7.2 
" style="fill:none;stroke:#ffffff;stroke-linecap:square;stroke-linejoin:miter;stroke-width:1.25;"/>
   </g>
   <g id="patch_4">
    <path d="M 53.5 323.14 
L 531.549606 323.14 
" style="fill:none;stroke:#ffffff;stroke-linecap:square;stroke-linejoin:miter;stroke-width:1.25;"/>
   </g>
  </g>
 </g>
 <defs>
  <clipPath id="p51267bee30">
   <rect height="315.94" width="478.049606" x="53.5" y="7.2"/>
  </clipPath>
 </defs>
</svg>
