<?xml version="1.0" encoding="utf-8" standalone="no"?>
<!DOCTYPE svg PUBLIC "-//W3C//DTD SVG 1.1//EN"
  "http://www.w3.org/Graphics/SVG/1.1/DTD/svg11.dtd">
<svg height="349.12125pt" version="1.1" viewBox="0 0 543.316847 349.12125" width="543.316847pt" xmlns="http://www.w3.org/2000/svg" xmlns:xlink="http://www.w3.org/1999/xlink">
 <metadata>
  <rdf:RDF xmlns:cc="http://creativecommons.org/ns#" xmlns:dc="http://purl.org/dc/elements/1.1/" xmlns:rdf="http://www.w3.org/1999/02/22-rdf-syntax-ns#">
   <cc:Work>
    <dc:type rdf:resource="http://purl.org/dc/dcmitype/StillImage"/>
    <dc:date>2021-05-05T07:08:16.869354</dc:date>
    <dc:format>image/svg+xml</dc:format>
    <dc:creator>
     <cc:Agent>
      <dc:title>Matplotlib v3.4.1, https://matplotlib.org/</dc:title>
     </cc:Agent>
    </dc:creator>
   </cc:Work>
  </rdf:RDF>
 </metadata>
 <defs>
  <style type="text/css">*{stroke-linecap:butt;stroke-linejoin:round;}</style>
 </defs>
 <g id="figure_1">
  <g id="patch_1">
   <path d="M 0 349.12125 
L 543.316847 349.12125 
L 543.316847 0 
L 0 0 
z
" style="fill:#ffffff;"/>
  </g>
  <g id="axes_1">
   <g id="patch_2">
    <path d="M 48 323.14 
L 529.499905 323.14 
L 529.499905 7.2 
L 48 7.2 
z
" style="fill:#eaeaf2;"/>
   </g>
   <g id="line2d_1">
    <path clip-path="url(#p4ddbeb3906)" d="M 48 19.001933 
L 529.499905 19.001933 
" style="fill:none;stroke:#000000;stroke-dasharray:3,1.5;stroke-dashoffset:0;stroke-width:1.5;"/>
   </g>
   <g id="matplotlib.axis_1">
    <g id="xtick_1">
     <g id="line2d_2">
      <path clip-path="url(#p4ddbeb3906)" d="M 49.562278 323.14 
L 49.562278 7.2 
" style="fill:none;stroke:#ffffff;stroke-linecap:round;"/>
     </g>
     <g id="text_1">
      <!-- 2004 -->
      <g style="fill:#262626;" transform="translate(38.562278 340.900312)scale(0.11 -0.11)">
       <defs>
        <path d="M 2900 325 
L 250 325 
Q 441 1553 1528 2453 
Q 1963 2806 2116 3034 
Q 2316 3319 2316 3706 
Q 2316 4022 2175 4219 
Q 1994 4494 1631 4494 
Q 894 4494 825 3406 
L 322 3406 
Q 359 4056 628 4428 
Q 981 4928 1644 4928 
Q 2106 4928 2425 4659 
Q 2828 4313 2828 3713 
Q 2828 2875 1881 2156 
Q 1072 1541 909 800 
L 2900 800 
L 2900 325 
z
" id="IPAGothic-32" transform="scale(0.015625)"/>
        <path d="M 1600 4934 
Q 2844 4934 2844 2566 
Q 2844 197 1600 197 
Q 359 197 359 2566 
Q 359 4934 1600 4934 
z
M 975 1453 
L 2119 4063 
Q 1938 4494 1594 4494 
Q 884 4494 884 2566 
Q 884 1909 975 1453 
z
M 1081 1075 
Q 1256 638 1600 638 
Q 2319 638 2319 2572 
Q 2319 3213 2228 3675 
L 1081 1075 
z
" id="IPAGothic-30" transform="scale(0.015625)"/>
        <path d="M 1966 4806 
L 2509 4806 
L 2509 1869 
L 3041 1869 
L 3041 1434 
L 2509 1434 
L 2509 325 
L 2034 325 
L 2034 1434 
L 159 1434 
L 159 1881 
L 1966 4806 
z
M 2034 4109 
L 641 1869 
L 2034 1869 
L 2034 4109 
z
" id="IPAGothic-34" transform="scale(0.015625)"/>
       </defs>
       <use xlink:href="#IPAGothic-32"/>
       <use x="50" xlink:href="#IPAGothic-30"/>
       <use x="100" xlink:href="#IPAGothic-30"/>
       <use x="150" xlink:href="#IPAGothic-34"/>
      </g>
     </g>
    </g>
    <g id="xtick_2">
     <g id="line2d_3">
      <path clip-path="url(#p4ddbeb3906)" d="M 102.43382 323.14 
L 102.43382 7.2 
" style="fill:none;stroke:#ffffff;stroke-linecap:round;"/>
     </g>
     <g id="text_2">
      <!-- 2006 -->
      <g style="fill:#262626;" transform="translate(91.43382 340.900312)scale(0.11 -0.11)">
       <defs>
        <path d="M 2322 3809 
Q 2225 4488 1713 4488 
Q 1269 4488 1028 3950 
Q 803 3447 794 2588 
Q 1159 3119 1725 3119 
Q 2194 3119 2519 2772 
Q 2903 2369 2903 1709 
Q 2903 1159 2641 750 
Q 2284 200 1638 200 
Q 1050 200 697 738 
Q 319 1328 319 2375 
Q 319 3488 650 4172 
Q 1028 4934 1706 4934 
Q 2634 4934 2847 3809 
L 2322 3809 
z
M 1644 2703 
Q 1272 2703 1047 2363 
Q 875 2094 875 1691 
Q 875 1328 997 1075 
Q 1209 641 1650 641 
Q 2003 641 2219 959 
Q 2409 1241 2409 1697 
Q 2409 2113 2244 2375 
Q 2041 2703 1644 2703 
z
" id="IPAGothic-36" transform="scale(0.015625)"/>
       </defs>
       <use xlink:href="#IPAGothic-32"/>
       <use x="50" xlink:href="#IPAGothic-30"/>
       <use x="100" xlink:href="#IPAGothic-30"/>
       <use x="150" xlink:href="#IPAGothic-36"/>
      </g>
     </g>
    </g>
    <g id="xtick_3">
     <g id="line2d_4">
      <path clip-path="url(#p4ddbeb3906)" d="M 155.233035 323.14 
L 155.233035 7.2 
" style="fill:none;stroke:#ffffff;stroke-linecap:round;"/>
     </g>
     <g id="text_3">
      <!-- 2008 -->
      <g style="fill:#262626;" transform="translate(144.233035 340.900312)scale(0.11 -0.11)">
       <defs>
        <path d="M 1050 2741 
Q 403 3056 403 3750 
Q 403 4084 563 4359 
Q 900 4934 1600 4934 
Q 1950 4934 2253 4750 
Q 2797 4416 2797 3750 
Q 2797 3056 2150 2741 
Q 2978 2422 2978 1541 
Q 2978 1038 2697 678 
Q 2322 197 1600 197 
Q 988 197 616 550 
Q 225 922 225 1541 
Q 225 2422 1050 2741 
z
M 1600 4525 
Q 1278 4525 1075 4294 
Q 891 4078 891 3756 
Q 891 3544 969 3372 
Q 1159 2956 1606 2956 
Q 1863 2956 2041 3116 
Q 2309 3347 2309 3756 
Q 2309 4156 2041 4378 
Q 1856 4525 1600 4525 
z
M 1594 2497 
Q 1178 2497 931 2191 
Q 725 1925 725 1541 
Q 725 1172 925 925 
Q 1172 619 1600 619 
Q 2031 619 2281 925 
Q 2478 1172 2478 1541 
Q 2478 2022 2184 2278 
Q 1947 2497 1594 2497 
z
" id="IPAGothic-38" transform="scale(0.015625)"/>
       </defs>
       <use xlink:href="#IPAGothic-32"/>
       <use x="50" xlink:href="#IPAGothic-30"/>
       <use x="100" xlink:href="#IPAGothic-30"/>
       <use x="150" xlink:href="#IPAGothic-38"/>
      </g>
     </g>
    </g>
    <g id="xtick_4">
     <g id="line2d_5">
      <path clip-path="url(#p4ddbeb3906)" d="M 208.104577 323.14 
L 208.104577 7.2 
" style="fill:none;stroke:#ffffff;stroke-linecap:round;"/>
     </g>
     <g id="text_4">
      <!-- 2010 -->
      <g style="fill:#262626;" transform="translate(197.104577 340.900312)scale(0.11 -0.11)">
       <defs>
        <path d="M 1428 325 
L 1428 4153 
Q 1188 3991 756 3809 
L 756 4325 
Q 1256 4509 1563 4806 
L 1953 4806 
L 1953 325 
L 1428 325 
z
" id="IPAGothic-31" transform="scale(0.015625)"/>
       </defs>
       <use xlink:href="#IPAGothic-32"/>
       <use x="50" xlink:href="#IPAGothic-30"/>
       <use x="100" xlink:href="#IPAGothic-31"/>
       <use x="150" xlink:href="#IPAGothic-30"/>
      </g>
     </g>
    </g>
    <g id="xtick_5">
     <g id="line2d_6">
      <path clip-path="url(#p4ddbeb3906)" d="M 260.903792 323.14 
L 260.903792 7.2 
" style="fill:none;stroke:#ffffff;stroke-linecap:round;"/>
     </g>
     <g id="text_5">
      <!-- 2012 -->
      <g style="fill:#262626;" transform="translate(249.903792 340.900312)scale(0.11 -0.11)">
       <use xlink:href="#IPAGothic-32"/>
       <use x="50" xlink:href="#IPAGothic-30"/>
       <use x="100" xlink:href="#IPAGothic-31"/>
       <use x="150" xlink:href="#IPAGothic-32"/>
      </g>
     </g>
    </g>
    <g id="xtick_6">
     <g id="line2d_7">
      <path clip-path="url(#p4ddbeb3906)" d="M 313.775334 323.14 
L 313.775334 7.2 
" style="fill:none;stroke:#ffffff;stroke-linecap:round;"/>
     </g>
     <g id="text_6">
      <!-- 2014 -->
      <g style="fill:#262626;" transform="translate(302.775334 340.900312)scale(0.11 -0.11)">
       <use xlink:href="#IPAGothic-32"/>
       <use x="50" xlink:href="#IPAGothic-30"/>
       <use x="100" xlink:href="#IPAGothic-31"/>
       <use x="150" xlink:href="#IPAGothic-34"/>
      </g>
     </g>
    </g>
    <g id="xtick_7">
     <g id="line2d_8">
      <path clip-path="url(#p4ddbeb3906)" d="M 366.574548 323.14 
L 366.574548 7.2 
" style="fill:none;stroke:#ffffff;stroke-linecap:round;"/>
     </g>
     <g id="text_7">
      <!-- 2016 -->
      <g style="fill:#262626;" transform="translate(355.574548 340.900312)scale(0.11 -0.11)">
       <use xlink:href="#IPAGothic-32"/>
       <use x="50" xlink:href="#IPAGothic-30"/>
       <use x="100" xlink:href="#IPAGothic-31"/>
       <use x="150" xlink:href="#IPAGothic-36"/>
      </g>
     </g>
    </g>
    <g id="xtick_8">
     <g id="line2d_9">
      <path clip-path="url(#p4ddbeb3906)" d="M 419.44609 323.14 
L 419.44609 7.2 
" style="fill:none;stroke:#ffffff;stroke-linecap:round;"/>
     </g>
     <g id="text_8">
      <!-- 2018 -->
      <g style="fill:#262626;" transform="translate(408.44609 340.900312)scale(0.11 -0.11)">
       <use xlink:href="#IPAGothic-32"/>
       <use x="50" xlink:href="#IPAGothic-30"/>
       <use x="100" xlink:href="#IPAGothic-31"/>
       <use x="150" xlink:href="#IPAGothic-38"/>
      </g>
     </g>
    </g>
    <g id="xtick_9">
     <g id="line2d_10">
      <path clip-path="url(#p4ddbeb3906)" d="M 472.245305 323.14 
L 472.245305 7.2 
" style="fill:none;stroke:#ffffff;stroke-linecap:round;"/>
     </g>
     <g id="text_9">
      <!-- 2020 -->
      <g style="fill:#262626;" transform="translate(461.245305 340.900312)scale(0.11 -0.11)">
       <use xlink:href="#IPAGothic-32"/>
       <use x="50" xlink:href="#IPAGothic-30"/>
       <use x="100" xlink:href="#IPAGothic-32"/>
       <use x="150" xlink:href="#IPAGothic-30"/>
      </g>
     </g>
    </g>
    <g id="xtick_10">
     <g id="line2d_11">
      <path clip-path="url(#p4ddbeb3906)" d="M 525.116847 323.14 
L 525.116847 7.2 
" style="fill:none;stroke:#ffffff;stroke-linecap:round;"/>
     </g>
     <g id="text_10">
      <!-- 2022 -->
      <g style="fill:#262626;" transform="translate(514.116847 340.900312)scale(0.11 -0.11)">
       <use xlink:href="#IPAGothic-32"/>
       <use x="50" xlink:href="#IPAGothic-30"/>
       <use x="100" xlink:href="#IPAGothic-32"/>
       <use x="150" xlink:href="#IPAGothic-32"/>
      </g>
     </g>
    </g>
   </g>
   <g id="matplotlib.axis_2">
    <g id="ytick_1">
     <g id="line2d_12">
      <path clip-path="url(#p4ddbeb3906)" d="M 48 303.544811 
L 529.499905 303.544811 
" style="fill:none;stroke:#ffffff;stroke-linecap:round;"/>
     </g>
     <g id="text_11">
      <!-- 1.0 -->
      <g style="fill:#262626;" transform="translate(22 307.674967)scale(0.11 -0.11)">
       <defs>
        <path d="M 588 831 
L 1444 831 
L 1444 -25 
L 588 -25 
L 588 831 
z
" id="IPAGothic-2e" transform="scale(0.015625)"/>
       </defs>
       <use xlink:href="#IPAGothic-31"/>
       <use x="50" xlink:href="#IPAGothic-2e"/>
       <use x="100" xlink:href="#IPAGothic-30"/>
      </g>
     </g>
    </g>
    <g id="ytick_2">
     <g id="line2d_13">
      <path clip-path="url(#p4ddbeb3906)" d="M 48 257.650798 
L 529.499905 257.650798 
" style="fill:none;stroke:#ffffff;stroke-linecap:round;"/>
     </g>
     <g id="text_12">
      <!-- 1.5 -->
      <g style="fill:#262626;" transform="translate(22 261.780954)scale(0.11 -0.11)">
       <defs>
        <path d="M 566 4806 
L 2691 4806 
L 2691 4359 
L 1013 4359 
L 944 2888 
Q 1259 3250 1738 3250 
Q 2250 3250 2588 2816 
Q 2909 2397 2909 1772 
Q 2909 1238 2697 844 
Q 2341 197 1591 197 
Q 538 197 328 1375 
L 841 1375 
Q 947 644 1588 644 
Q 2000 644 2228 997 
Q 2422 1294 2422 1766 
Q 2422 2184 2259 2456 
Q 2059 2822 1653 2822 
Q 1156 2822 859 2225 
L 456 2309 
L 566 4806 
z
" id="IPAGothic-35" transform="scale(0.015625)"/>
       </defs>
       <use xlink:href="#IPAGothic-31"/>
       <use x="50" xlink:href="#IPAGothic-2e"/>
       <use x="100" xlink:href="#IPAGothic-35"/>
      </g>
     </g>
    </g>
    <g id="ytick_3">
     <g id="line2d_14">
      <path clip-path="url(#p4ddbeb3906)" d="M 48 211.756786 
L 529.499905 211.756786 
" style="fill:none;stroke:#ffffff;stroke-linecap:round;"/>
     </g>
     <g id="text_13">
      <!-- 2.0 -->
      <g style="fill:#262626;" transform="translate(22 215.886942)scale(0.11 -0.11)">
       <use xlink:href="#IPAGothic-32"/>
       <use x="50" xlink:href="#IPAGothic-2e"/>
       <use x="100" xlink:href="#IPAGothic-30"/>
      </g>
     </g>
    </g>
    <g id="ytick_4">
     <g id="line2d_15">
      <path clip-path="url(#p4ddbeb3906)" d="M 48 165.862773 
L 529.499905 165.862773 
" style="fill:none;stroke:#ffffff;stroke-linecap:round;"/>
     </g>
     <g id="text_14">
      <!-- 2.5 -->
      <g style="fill:#262626;" transform="translate(22 169.992929)scale(0.11 -0.11)">
       <use xlink:href="#IPAGothic-32"/>
       <use x="50" xlink:href="#IPAGothic-2e"/>
       <use x="100" xlink:href="#IPAGothic-35"/>
      </g>
     </g>
    </g>
    <g id="ytick_5">
     <g id="line2d_16">
      <path clip-path="url(#p4ddbeb3906)" d="M 48 119.968761 
L 529.499905 119.968761 
" style="fill:none;stroke:#ffffff;stroke-linecap:round;"/>
     </g>
     <g id="text_15">
      <!-- 3.0 -->
      <g style="fill:#262626;" transform="translate(22 124.098917)scale(0.11 -0.11)">
       <defs>
        <path d="M 1113 2931 
L 1431 2931 
Q 1841 2931 1994 3047 
Q 2281 3269 2281 3713 
Q 2281 4500 1566 4500 
Q 972 4500 838 3828 
L 331 3828 
Q 400 4250 625 4525 
Q 969 4934 1566 4934 
Q 2066 4934 2391 4647 
Q 2775 4309 2775 3731 
Q 2775 2953 2078 2713 
Q 2919 2388 2919 1528 
Q 2919 978 2606 625 
Q 2231 197 1575 197 
Q 959 197 594 619 
Q 325 928 269 1472 
L 794 1472 
Q 859 638 1575 638 
Q 1906 638 2131 825 
Q 2413 1066 2413 1528 
Q 2413 2522 1431 2522 
L 1113 2522 
L 1113 2931 
z
" id="IPAGothic-33" transform="scale(0.015625)"/>
       </defs>
       <use xlink:href="#IPAGothic-33"/>
       <use x="50" xlink:href="#IPAGothic-2e"/>
       <use x="100" xlink:href="#IPAGothic-30"/>
      </g>
     </g>
    </g>
    <g id="ytick_6">
     <g id="line2d_17">
      <path clip-path="url(#p4ddbeb3906)" d="M 48 74.074748 
L 529.499905 74.074748 
" style="fill:none;stroke:#ffffff;stroke-linecap:round;"/>
     </g>
     <g id="text_16">
      <!-- 3.5 -->
      <g style="fill:#262626;" transform="translate(22 78.204904)scale(0.11 -0.11)">
       <use xlink:href="#IPAGothic-33"/>
       <use x="50" xlink:href="#IPAGothic-2e"/>
       <use x="100" xlink:href="#IPAGothic-35"/>
      </g>
     </g>
    </g>
    <g id="ytick_7">
     <g id="line2d_18">
      <path clip-path="url(#p4ddbeb3906)" d="M 48 28.180736 
L 529.499905 28.180736 
" style="fill:none;stroke:#ffffff;stroke-linecap:round;"/>
     </g>
     <g id="text_17">
      <!-- 4.0 -->
      <g style="fill:#262626;" transform="translate(22 32.310892)scale(0.11 -0.11)">
       <use xlink:href="#IPAGothic-34"/>
       <use x="50" xlink:href="#IPAGothic-2e"/>
       <use x="100" xlink:href="#IPAGothic-30"/>
      </g>
     </g>
    </g>
    <g id="text_18">
     <!-- 倍率 -->
     <g style="fill:#262626;" transform="translate(16.88625 177.17)rotate(-90)scale(0.12 -0.12)">
      <defs>
       <path d="M 1572 3784 
L 1572 -447 
L 1119 -447 
L 1119 2825 
Q 863 2369 550 1947 
L 300 2338 
Q 1184 3566 1572 5263 
L 2013 5134 
Q 1816 4394 1572 3784 
z
M 4128 4409 
L 5766 4409 
L 5766 4025 
L 5178 4025 
L 5166 3988 
Q 4991 3394 4756 2881 
L 6053 2881 
L 6053 2497 
L 1869 2497 
L 1869 2881 
L 3072 2881 
Q 2903 3528 2669 4025 
L 2144 4025 
L 2144 4409 
L 3681 4409 
L 3681 5313 
L 4128 5313 
L 4128 4409 
z
M 3156 4025 
Q 3363 3553 3559 2881 
L 4281 2881 
Q 4506 3381 4684 4025 
L 3156 4025 
z
M 5425 1863 
L 5425 -422 
L 4978 -422 
L 4978 -103 
L 2903 -103 
L 2903 -447 
L 2450 -447 
L 2450 1863 
L 5425 1863 
z
M 2903 1478 
L 2903 281 
L 4978 281 
L 4978 1478 
L 2903 1478 
z
" id="IPAGothic-500d" transform="scale(0.015625)"/>
       <path d="M 3022 2847 
Q 3334 3231 3681 3744 
L 4053 3525 
Q 3503 2766 2919 2181 
L 3266 2200 
Q 3575 2209 3822 2234 
Q 3728 2406 3572 2616 
L 3909 2772 
Q 4241 2350 4538 1766 
L 4153 1547 
Q 4078 1756 3994 1913 
L 3853 1894 
Q 3706 1875 3413 1850 
L 3413 1228 
L 6078 1228 
L 6078 819 
L 3413 819 
L 3413 -447 
L 2938 -447 
L 2938 819 
L 319 819 
L 319 1228 
L 2938 1228 
L 2938 1803 
L 2881 1797 
Q 2303 1759 2028 1747 
L 1900 2163 
Q 2316 2163 2413 2169 
Q 2519 2269 2772 2553 
Q 2344 3028 1913 3347 
L 2181 3653 
L 2444 3425 
Q 2681 3744 2869 4128 
L 544 4128 
L 544 4525 
L 2938 4525 
L 2938 5313 
L 3413 5313 
L 3413 4525 
L 5847 4525 
L 5847 4128 
L 2969 4128 
L 3278 3981 
Q 2988 3509 2694 3188 
Q 2850 3041 3022 2847 
z
M 1497 2822 
Q 1125 3263 691 3566 
L 997 3847 
Q 1406 3588 1828 3156 
L 1497 2822 
z
M 4216 3078 
Q 4791 3478 5144 3897 
L 5534 3616 
Q 5075 3178 4491 2803 
L 4216 3078 
z
M 5553 1631 
Q 4994 2109 4369 2444 
L 4659 2741 
Q 5353 2381 5894 1984 
L 5553 1631 
z
M 538 1925 
Q 1306 2297 1881 2803 
L 2072 2456 
Q 1619 2034 813 1528 
L 538 1925 
z
" id="IPAGothic-7387" transform="scale(0.015625)"/>
      </defs>
      <use xlink:href="#IPAGothic-500d"/>
      <use x="100" xlink:href="#IPAGothic-7387"/>
     </g>
    </g>
   </g>
   <g id="line2d_19">
    <path clip-path="url(#p4ddbeb3906)" d="M 69.886359 303.544811 
L 70.103342 302.398743 
L 70.320325 307.034331 
L 70.392653 305.700102 
L 70.609636 306.811961 
L 70.681964 306.281695 
L 70.754292 307.410654 
L 70.826619 306.914596 
L 70.898947 307.92382 
L 71.11593 308.522513 
L 71.188258 307.410654 
L 71.260585 307.49618 
L 71.332913 308.779091 
L 71.405241 307.256701 
L 71.622224 307.410654 
L 71.839207 304.451409 
L 71.911535 304.143503 
L 72.128518 304.673779 
L 72.200845 304.057977 
L 72.417829 301.115832 
L 72.634812 300.106608 
L 72.707139 302.02243 
L 72.779467 300.705301 
L 72.851795 301.030306 
L 72.924122 302.2619 
L 73.141105 301.475046 
L 73.285761 299.268447 
L 73.430416 299.747395 
L 73.719727 299.884238 
L 73.864382 298.686853 
L 73.93671 298.857915 
L 74.153693 298.875015 
L 74.443004 302.91191 
L 74.659987 302.894801 
L 74.732315 302.313217 
L 74.804642 300.688201 
L 74.87697 301.355311 
L 74.949298 301.577681 
L 75.238608 299.884238 
L 75.310936 300.482931 
L 75.383264 299.952665 
L 75.672575 300.448722 
L 75.744902 300.123717 
L 75.81723 300.311879 
L 75.889558 301.286894 
L 75.961885 300.448722 
L 76.178868 300.996097 
L 76.323524 305.683003 
L 76.395852 305.580367 
L 76.468179 306.384321 
L 76.685162 305.665894 
L 76.75749 306.384321 
L 76.829818 305.272471 
L 76.902145 305.785628 
L 76.974473 306.042216 
L 77.263784 304.177712 
L 77.69775 306.161951 
L 77.914733 303.767181 
L 77.987061 304.160612 
L 78.204044 302.655331 
L 78.276371 303.493493 
L 78.348699 303.425076 
L 78.421027 303.750081 
L 78.493355 302.364535 
L 78.782665 300.140827 
L 78.854993 300.876363 
L 78.999648 299.371072 
L 79.216631 299.165811 
L 79.433615 300.739519 
L 79.505942 299.507916 
L 79.795253 299.593452 
L 79.867581 299.353973 
L 79.939908 298.686853 
L 80.012236 296.634197 
L 80.229219 296.463145 
L 80.301547 296.890785 
L 80.373875 298.772379 
L 80.446202 298.122379 
L 80.51853 298.806598 
L 80.735513 298.413166 
L 80.807841 297.831582 
L 80.952496 298.789489 
L 81.024824 298.413166 
L 81.241807 298.413166 
L 81.386462 300.055291 
L 81.45879 298.344749 
L 81.531118 298.721072 
L 81.748101 298.703962 
L 81.892756 301.782951 
L 81.965084 301.406629 
L 82.254395 301.509264 
L 82.326722 302.963227 
L 82.543705 301.577681 
L 82.760688 301.15005 
L 82.833016 301.389519 
L 83.049999 300.157926 
L 83.33931 300.311879 
L 83.411638 300.482931 
L 83.483965 301.457946 
L 83.556293 304.21193 
L 83.773276 304.417191 
L 83.845604 303.322441 
L 83.917931 305.118519 
L 83.990259 302.125056 
L 84.062587 302.450061 
L 84.351898 301.184259 
L 84.496553 302.655331 
L 84.568881 300.705301 
L 84.785864 300.568457 
L 84.858191 301.59479 
L 85.002847 300.140827 
L 85.075174 299.884238 
L 85.292158 299.542134 
L 85.509141 302.279009 
L 85.581468 302.176373 
L 85.798451 301.663207 
L 85.870779 303.082962 
L 85.943107 302.638222 
L 86.087762 302.073738 
L 86.304745 302.279009 
L 86.449401 303.373759 
L 86.521728 303.168498 
L 86.594056 302.2448 
L 86.883367 301.868477 
L 86.955694 302.073738 
L 87.10035 303.014545 
L 87.606644 300.482931 
L 88.04061 300.653983 
L 88.112937 299.884238 
L 88.402248 299.901348 
L 88.474576 298.584228 
L 88.546904 299.319764 
L 88.619231 298.75528 
L 88.836214 298.036853 
L 88.908542 296.959202 
L 88.98087 297.45526 
L 89.053197 297.643421 
L 89.125525 297.318416 
L 89.414836 296.531562 
L 89.487164 296.976312 
L 89.559491 298.139478 
L 89.631819 298.053952 
L 90.065785 296.480244 
L 90.355096 296.753942 
L 90.499751 295.111807 
L 90.572079 291.468344 
L 90.644407 291.656505 
L 90.933717 291.810448 
L 91.078373 290.01438 
L 91.367684 288.457782 
L 91.440011 286.199855 
L 91.584667 288.71436 
L 91.656994 288.49199 
L 91.873977 286.935392 
L 91.946305 287.055126 
L 92.018633 284.232725 
L 92.09096 284.266934 
L 92.163288 284.232725 
L 92.380271 282.778762 
L 92.597254 288.166985 
L 92.669582 288.26962 
L 92.886565 287.209079 
L 93.03122 290.920969 
L 93.175876 289.449896 
L 93.392859 289.244626 
L 93.465187 289.894636 
L 93.537514 289.638058 
L 93.609842 288.166985 
L 93.68217 288.560407 
L 93.97148 288.355147 
L 94.043808 288.526199 
L 94.116136 289.330162 
L 94.188464 288.543308 
L 94.405447 288.474881 
L 94.550102 289.80911 
L 94.62243 289.278844 
L 94.694757 289.484105 
L 94.91174 289.672266 
L 95.056396 288.166985 
L 95.201051 289.552532 
L 95.418034 288.50909 
L 95.490362 289.227527 
L 95.56269 288.680152 
L 95.635017 284.916944 
L 95.707345 285.44721 
L 95.924328 284.831418 
L 96.068984 289.535422 
L 96.141311 292.597302 
L 96.213639 290.151224 
L 96.430622 290.134115 
L 96.50295 289.432787 
L 96.647605 292.956516 
L 96.719933 293.384156 
L 96.936916 292.238089 
L 97.153899 296.822359 
L 97.226227 295.128916 
L 97.44321 294.496015 
L 97.660193 298.430275 
L 97.73252 297.609213 
L 97.949503 296.78815 
L 98.166487 293.213104 
L 98.238814 293.982849 
L 98.455797 294.923646 
L 98.528125 294.701276 
L 98.745108 292.443359 
L 99.034419 294.051275 
L 99.251402 291.434135 
L 99.540713 290.835443 
L 99.61304 289.963063 
L 99.757696 289.963063 
L 99.974679 290.373594 
L 100.119334 291.057813 
L 100.191662 288.851204 
L 100.26399 288.868313 
L 100.480973 288.919631 
L 100.5533 289.638058 
L 100.625628 289.022256 
L 100.697956 289.193318 
L 100.770283 289.278844 
L 101.059594 288.26962 
L 101.20425 288.474881 
L 101.276577 288.902521 
L 101.49356 288.252511 
L 101.638216 286.30249 
L 101.710543 286.730121 
L 101.782871 288.457782 
L 102.072182 289.330162 
L 102.14451 289.210417 
L 102.216837 288.799886 
L 102.289165 289.928845 
L 102.578476 287.585402 
L 102.795459 282.368221 
L 103.012442 281.08531 
L 103.08477 282.197169 
L 103.301753 279.289242 
L 103.591063 280.760314 
L 103.663391 280.623471 
L 103.735719 276.843154 
L 103.808046 279.11818 
L 104.02503 278.536596 
L 104.097357 277.219477 
L 104.169685 277.972112 
L 104.242013 276.962889 
L 104.31434 272.378628 
L 104.531323 272.173358 
L 104.675979 272.806259 
L 104.820634 277.561581 
L 105.037617 273.832592 
L 105.2546 276.022092 
L 105.326928 275.594451 
L 105.543911 275.868139 
L 105.616239 272.34441 
L 105.688566 272.77205 
L 105.760894 272.618098 
L 105.833222 272.77205 
L 106.122533 270.59965 
L 106.19486 267.948301 
L 106.267188 268.752265 
L 106.339516 269.008843 
L 106.556499 269.368056 
L 106.628826 271.147025 
L 106.701154 270.240436 
L 106.845809 269.5049 
L 107.062793 270.633868 
L 107.279776 276.107618 
L 107.713742 271.540457 
L 107.786069 272.224675 
L 108.147708 271.095717 
L 108.220036 270.907556 
L 108.364691 269.453583 
L 108.581674 268.444359 
L 108.654002 269.915431 
L 109.304951 262.166646 
L 109.377279 263.996933 
L 109.594262 262.491651 
L 109.738917 265.160109 
L 109.811245 264.167995 
L 110.100556 262.508761 
L 110.245211 256.333683 
L 110.317539 256.299465 
L 110.389866 255.683673 
L 110.606849 259.070558 
L 110.823832 264.390364 
L 110.89616 260.883735 
L 111.113143 260.370578 
L 111.185471 257.257381 
L 111.257799 258.181069 
L 111.402454 254.965246 
L 111.619437 252.108627 
L 111.691765 252.587575 
L 111.908748 257.633694 
L 112.125731 259.857412 
L 112.198059 258.865288 
L 112.342714 264.321938 
L 112.415042 261.65349 
L 112.632025 270.514124 
L 112.704352 268.581202 
L 112.77668 270.291754 
L 112.849008 266.614073 
L 112.921336 267.3154 
L 113.210646 272.173358 
L 113.427629 267.298291 
L 113.644612 271.318087 
L 113.71694 268.581202 
L 113.789268 269.778588 
L 113.933923 275.457607 
L 114.150906 278.160274 
L 114.223234 282.436648 
L 114.440217 273.781274 
L 114.6572 276.193144 
L 114.729528 276.107618 
L 114.801856 272.583889 
L 114.874183 272.943103 
L 114.946511 271.779936 
L 115.163494 271.506248 
L 115.235822 271.985196 
L 115.380477 263.278505 
L 115.452805 263.962724 
L 115.669788 261.910068 
L 115.814443 265.433797 
L 115.886771 261.961386 
L 115.959099 264.47589 
L 116.248409 262.132438 
L 116.320737 263.791672 
L 116.393065 268.033828 
L 116.465392 267.896984 
L 116.682375 269.710171 
L 116.754703 268.581202 
L 116.827031 263.39825 
L 116.899359 265.296953 
L 116.971686 265.844328 
L 117.188669 261.721907 
L 117.260997 262.389026 
L 117.333325 263.278505 
L 117.47798 259.600824 
L 117.694963 260.798209 
L 117.767291 263.449558 
L 117.911946 261.311375 
L 117.984274 262.423234 
L 118.273585 261.311375 
L 118.41824 258.506074 
L 118.490568 258.523183 
L 118.707551 258.061334 
L 118.852206 254.982345 
L 118.996862 257.804756 
L 119.213845 259.600824 
L 119.286172 258.660027 
L 119.430828 260.917953 
L 119.503155 261.260058 
L 119.720138 261.311375 
L 119.864794 259.378454 
L 119.937122 259.806094 
L 120.009449 258.471866 
L 120.29876 257.394225 
L 120.443415 260.541631 
L 120.515743 259.857412 
L 120.732726 262.217964 
L 120.877382 258.266605 
L 120.949709 259.771886 
L 121.022037 259.292928 
L 121.23902 257.616595 
L 121.311348 259.344246 
L 121.383675 256.094204 
L 121.456003 256.778423 
L 121.528331 257.29159 
L 121.745314 255.495512 
L 121.817642 257.206063 
L 121.889969 256.350783 
L 121.962297 255.803408 
L 122.034625 256.179731 
L 122.251608 256.111314 
L 122.323935 255.923152 
L 122.468591 253.528382 
L 122.540918 254.862611 
L 122.757902 255.991569 
L 122.974885 251.304664 
L 123.047212 251.475726 
L 123.264195 250.688872 
L 123.336523 251.852049 
L 123.481178 250.09018 
L 123.553506 250.004653 
L 123.770489 249.936227 
L 123.987472 247.883571 
L 124.0598 250.877033 
L 124.276783 251.219138 
L 124.493766 247.370404 
L 124.783077 243.658514 
L 124.855405 244.599321 
L 124.927732 244.804582 
L 125.072388 241.896655 
L 125.578681 235.430781 
L 125.795665 235.396573 
L 125.867992 234.79788 
L 125.94032 231.274151 
L 126.084975 230.880729 
L 126.374286 237.996604 
L 126.518941 232.40311 
L 126.591269 234.284714 
L 126.808252 232.060996 
L 126.88058 227.356991 
L 126.952908 228.041219 
L 127.025235 229.888595 
L 127.097563 229.666235 
L 127.314546 226.416184 
L 127.459201 227.801731 
L 127.603857 222.567451 
L 127.82084 220.429278 
L 127.893168 220.993762 
L 127.965495 217.692403 
L 128.037823 219.95032 
L 128.544117 203.067204 
L 128.616445 204.692219 
L 128.978083 196.225017 
L 129.122738 214.100248 
L 129.339721 208.797551 
L 129.484377 220.60033 
L 129.556704 219.146367 
L 129.629032 215.041035 
L 129.918343 211.637061 
L 130.062998 216.067368 
L 130.135326 213.41602 
L 130.352309 212.304161 
L 130.496964 206.317255 
L 130.569292 216.323947 
L 130.64162 214.869983 
L 130.858603 218.120034 
L 130.930931 212.731811 
L 131.003258 217.743711 
L 131.075586 216.854232 
L 131.147914 217.521332 
L 131.364897 218.20556 
L 131.58188 212.064691 
L 131.654208 215.092363 
L 132.088174 213.672598 
L 132.160501 212.475213 
L 132.449812 211.944947 
L 132.594468 210.593619 
L 132.666795 215.041035 
L 132.883778 215.041035 
L 132.956106 232.83075 
L 133.028434 225.817501 
L 133.173089 232.659688 
L 133.390072 238.561088 
L 133.4624 230.264918 
L 133.534727 232.129422 
L 133.607055 226.672782 
L 133.679383 227.271465 
L 133.896366 224.603007 
L 133.968694 231.804417 
L 134.041021 228.126746 
L 134.113349 227.733314 
L 134.185677 229.392548 
L 134.547315 218.445029 
L 134.691971 219.231893 
L 134.908954 219.146367 
L 135.053609 222.002966 
L 135.125937 217.025284 
L 135.198264 220.121372 
L 135.487575 213.758124 
L 135.632231 212.304161 
L 135.921541 211.106776 
L 135.993869 210.097552 
L 136.066197 211.329155 
L 136.138524 206.761994 
L 136.210852 207.035682 
L 136.427835 203.734323 
L 136.500163 203.80274 
L 136.644818 208.027796 
L 136.717146 205.718552 
L 136.934129 209.225182 
L 137.006457 209.054129 
L 137.078784 207.258042 
L 137.440423 215.229197 
L 137.512751 213.19366 
L 137.729734 206.830411 
L 137.946717 205.136979 
L 138.019044 206.796193 
L 138.091372 204.042209 
L 138.1637 208.883077 
L 138.236027 198.619787 
L 138.525338 200.176386 
L 138.597666 196.088164 
L 138.669994 197.644762 
L 138.742321 198.893475 
L 138.959304 199.132944 
L 139.10396 201.869819 
L 139.176287 207.172516 
L 139.248615 203.682996 
L 139.537926 206.009349 
L 139.610254 205.239594 
L 139.754909 199.44085 
L 139.971892 199.817172 
L 140.04422 197.850033 
L 140.188875 202.314558 
L 140.261203 197.422402 
L 140.478186 195.28421 
L 140.550514 199.098726 
L 141.056807 179.051104 
L 141.129135 179.649806 
L 141.201463 173.064198 
L 141.27379 175.407641 
L 141.490774 176.930021 
L 141.563101 179.769531 
L 141.707757 173.782625 
L 141.780084 174.928683 
L 141.997067 170.874679 
L 142.069395 166.170684 
L 142.21405 166.974637 
L 142.286378 161.244309 
L 142.503361 158.011368 
L 142.575689 160.79955 
L 142.648017 159.533748 
L 142.792672 154.162634 
L 143.081983 157.600827 
L 143.15431 162.11668 
L 143.298966 158.866629 
L 143.515949 151.442849 
L 143.588277 157.566628 
L 143.660604 153.136301 
L 143.80526 166.718059 
L 144.09457 156.010029 
L 144.311553 172.687875 
L 144.528537 170.926006 
L 144.600864 172.499714 
L 144.673192 162.869325 
L 144.817847 172.191808 
L 145.03483 173.526047 
L 145.107158 176.639244 
L 145.251813 190.511779 
L 145.324141 182.540624 
L 145.613452 174.672105 
L 145.830435 149.629672 
L 146.047418 133.499201 
L 146.119746 154.658682 
L 146.192073 142.017731 
L 146.264401 144.754605 
L 146.336729 138.220324 
L 146.62604 133.943941 
L 146.843023 144.258558 
L 147.132333 136.732143 
L 147.349317 128.418883 
L 147.5663 130.659691 
L 147.710955 114.375277 
L 147.783283 115.504245 
L 147.85561 107.139658 
L 148.217249 94.173692 
L 148.289576 83.859095 
L 148.361904 87.434141 
L 148.651215 71.201035 
L 148.723543 88.357839 
L 148.79587 85.381475 
L 148.868198 67.59179 
L 149.085181 75.135295 
L 149.229836 66.325968 
L 149.302164 66.0523 
L 149.374492 48.279704 
L 149.591475 48.194159 
L 149.663803 54.865313 
L 149.73613 21.612237 
L 149.808458 31.841308 
L 149.880786 54.420553 
L 150.097769 50.657366 
L 150.170096 36.049255 
L 150.242424 42.121707 
L 150.38708 37.280878 
L 150.604063 27.068877 
L 150.67639 33.688703 
L 150.748718 21.560909 
L 150.893373 39.384832 
L 151.110356 70.65366 
L 151.182684 56.216621 
L 151.399667 84.013038 
L 151.61665 105.394898 
L 151.761306 74.297123 
L 151.905961 90.222343 
L 152.122944 105.309372 
L 152.195272 91.881557 
L 152.267599 115.641079 
L 152.412255 100.622467 
L 152.629238 108.302825 
L 152.773893 75.460309 
L 152.846221 78.881393 
L 152.918549 74.673446 
L 153.135532 83.157777 
L 153.207859 79.223517 
L 153.352515 57.516642 
L 153.424843 71.354978 
L 153.641826 74.605029 
L 153.714153 89.914437 
L 153.786481 81.430126 
L 153.931136 101.973795 
L 154.148119 119.506922 
L 154.292775 103.701446 
L 154.654413 88.289422 
L 154.799069 89.86311 
L 154.943724 102.315919 
L 155.160707 103.769883 
L 155.450018 115.470027 
L 155.667001 107.362038 
L 155.739329 111.416022 
L 155.883984 91.282875 
L 155.956312 104.539618 
L 156.173295 103.256706 
L 156.390278 140.426933 
L 156.462606 126.879394 
L 156.751916 149.424421 
L 156.824244 136.441346 
L 156.896572 138.921642 
L 156.968899 140.751929 
L 157.185882 137.690059 
L 157.25821 139.947975 
L 157.330538 151.836281 
L 157.402866 148.894136 
L 157.475193 137.553205 
L 157.692176 130.967597 
L 157.836832 158.165311 
L 157.909159 148.859937 
L 157.981487 153.033666 
L 158.19847 154.915279 
L 158.343126 143.899344 
L 158.415453 149.66389 
L 158.487781 138.955861 
L 158.777092 137.330825 
L 158.849419 139.879558 
L 158.921747 149.766525 
L 158.994075 142.548016 
L 159.211058 142.017731 
L 159.283386 139.657179 
L 159.355713 131.241284 
L 159.500369 146.909906 
L 159.717352 144.823042 
L 159.934335 161.842992 
L 160.006662 162.578529 
L 160.223646 167.060163 
L 160.295973 144.823042 
L 160.368301 155.633707 
L 160.729939 178.743218 
L 160.802267 167.829918 
L 160.874595 183.755118 
L 160.946922 177.956354 
L 161.236233 175.783964 
L 161.308561 164.93908 
L 161.380889 170.652319 
L 161.453216 168.685179 
L 161.525544 161.175873 
L 161.742527 164.169345 
L 161.814855 146.944125 
L 161.887182 152.178385 
L 161.95951 142.069058 
L 162.031838 144.566463 
L 162.248821 138.75059 
L 162.393476 154.299468 
L 162.465804 146.17437 
L 162.538132 150.895474 
L 162.755115 155.103441 
L 162.89977 142.90723 
L 163.044425 143.283552 
L 163.261409 139.759814 
L 163.333736 140.974308 
L 163.478392 121.029302 
L 163.550719 124.706984 
L 163.767702 126.160947 
L 163.84003 125.972786 
L 163.912358 123.714869 
L 164.057013 115.418719 
L 164.273996 117.967432 
L 164.346324 116.102928 
L 164.418652 132.507086 
L 164.490979 128.572826 
L 164.563307 135.312397 
L 164.78029 134.046576 
L 165.069601 123.800395 
L 165.286584 123.441181 
L 165.431239 135.124236 
L 165.503567 132.695248 
L 165.575895 139.451908 
L 165.865205 138.459794 
L 165.937533 138.836116 
L 166.082188 134.987383 
L 166.299172 133.636054 
L 166.443827 146.259896 
L 166.516155 138.10058 
L 166.588482 153.170519 
L 166.805465 151.819172 
L 166.950121 163.895658 
L 167.022448 158.199529 
L 167.094776 158.695577 
L 167.311759 156.745566 
L 167.384087 157.942951 
L 167.528742 154.6929 
L 167.60107 167.12858 
L 167.818053 166.085158 
L 167.890381 167.248325 
L 167.962708 162.167988 
L 168.035036 173.987876 
L 168.107364 172.858927 
L 168.324347 171.524689 
L 168.396675 172.670766 
L 168.469002 180.710338 
L 168.54133 180.419541 
L 168.830641 175.664219 
L 168.902968 171.439163 
L 168.975296 176.006324 
L 169.047624 167.57332 
L 169.119952 167.744392 
L 169.336935 169.951001 
L 169.409262 176.895823 
L 169.553918 163.553534 
L 169.843228 160.13245 
L 169.987884 153.136301 
L 170.060212 163.536444 
L 170.132539 161.791684 
L 170.349522 168.411491 
L 170.494178 156.095555 
L 170.566505 166.25621 
L 170.638833 162.458784 
L 170.855816 168.668089 
L 171.000471 163.177211 
L 171.072799 176.314229 
L 171.145127 170.823371 
L 171.36211 175.185261 
L 171.506765 184.935394 
L 171.579093 185.191973 
L 171.651421 184.935394 
L 171.940731 192.992075 
L 172.013059 181.805088 
L 172.085387 185.448551 
L 172.157715 182.985364 
L 172.374698 185.140665 
L 172.519353 172.465496 
L 172.591681 176.314229 
L 172.664008 179.239265 
L 172.953319 183.241942 
L 173.097975 199.303996 
L 173.170302 194.326314 
L 173.387285 191.914435 
L 173.459613 202.588246 
L 173.531941 199.817172 
L 173.893579 216.546326 
L 173.965907 213.672598 
L 174.038235 236.867645 
L 174.18289 194.890778 
L 174.472201 211.87653 
L 174.544528 209.567286 
L 174.616856 204.538276 
L 174.689184 209.823864 
L 174.906167 236.867645 
L 174.978495 218.445029 
L 175.050822 219.573997 
L 175.195478 229.478074 
L 175.557116 251.184929 
L 175.629444 261.910068 
L 175.918754 226.039861 
L 175.991082 234.250505 
L 176.06341 258.16397 
L 176.135738 246.15592 
L 176.208065 254.87971 
L 176.425048 243.076931 
L 176.714359 284.232725 
L 176.931342 295.676291 
L 177.148325 263.706146 
L 177.220653 266.220651 
L 177.437636 264.732469 
L 177.509964 255.700782 
L 177.654619 278.89581 
L 177.726947 263.962724 
L 177.94393 258.779761 
L 178.088585 271.762827 
L 178.160913 253.391538 
L 178.233241 266.271968 
L 178.450224 266.528546 
L 178.594879 280.999784 
L 178.667207 286.74723 
L 178.739534 269.812806 
L 178.956518 267.400927 
L 179.028845 270.069384 
L 179.101173 255.598147 
L 179.245828 258.882397 
L 179.462811 269.094369 
L 179.607467 255.495512 
L 179.679794 262.679813 
L 179.752122 252.519158 
L 179.969105 239.843999 
L 180.041433 246.104602 
L 180.113761 235.02025 
L 180.186088 240.767687 
L 180.258416 241.434806 
L 180.475399 246.258555 
L 180.547727 235.379463 
L 180.620054 237.483437 
L 180.692382 238.920301 
L 180.76471 238.561088 
L 181.054021 253.648117 
L 181.126348 251.800731 
L 181.487987 250.415185 
L 181.632642 246.053284 
L 181.777297 235.687359 
L 182.066608 233.378125 
L 182.283591 253.13496 
L 182.64523 266.118015 
L 182.789885 262.166646 
L 183.079196 273.507587 
L 183.151524 266.528546 
L 183.223851 272.943103 
L 183.296179 269.607535 
L 183.513162 268.991734 
L 183.58549 267.144348 
L 183.657817 262.269282 
L 183.730145 269.402265 
L 183.802473 266.477229 
L 184.019456 267.093031 
L 184.236439 255.854725 
L 184.308767 249.234909 
L 184.52575 250.363867 
L 184.598077 257.49685 
L 184.670405 256.881058 
L 184.742733 259.549516 
L 184.81506 257.753438 
L 185.104371 267.554879 
L 185.249027 264.116677 
L 185.321354 266.323286 
L 185.538337 268.068046 
L 185.610665 261.140323 
L 185.682993 264.424573 
L 186.044631 278.331336 
L 186.116959 275.765513 
L 186.189287 264.681161 
L 186.261614 272.224675 
L 186.333942 272.173358 
L 186.550925 273.815483 
L 186.623253 263.911406 
L 186.69558 266.528546 
L 186.840236 259.652142 
L 187.201874 253.186268 
L 187.34653 259.754777 
L 187.563513 246.053284 
L 187.63584 249.029638 
L 187.708168 248.362529 
L 187.780496 240.562426 
L 187.852824 242.922978 
L 188.069807 252.724419 
L 188.359117 236.508422 
L 188.5761 236.76501 
L 188.648428 239.895307 
L 188.720756 238.766348 
L 188.793084 231.889943 
L 189.082394 230.247828 
L 189.154722 230.760985 
L 189.22705 225.526705 
L 189.299377 226.296459 
L 189.588688 234.353131 
L 189.661016 229.939923 
L 189.733343 235.533416 
L 189.805671 232.60838 
L 189.877999 229.478074 
L 190.16731 238.561088 
L 190.311965 231.222834 
L 190.384293 229.734652 
L 190.601276 214.904201 
L 190.673603 219.317419 
L 190.745931 213.518655 
L 190.818259 219.060841 
L 190.890587 211.055468 
L 191.252225 223.01219 
L 191.324553 222.037185 
L 191.39688 222.499034 
L 191.686191 211.619952 
L 191.903174 217.316081 
L 192.264813 213.877869 
L 192.626451 192.478919 
L 192.771107 200.227694 
L 192.915762 194.993414 
L 193.132745 197.507928 
L 193.205073 199.971115 
L 193.349728 189.451247 
L 193.711366 204.281698 
L 193.783694 203.665906 
L 193.856022 204.640912 
L 193.92835 204.076428 
L 194.21766 211.568624 
L 194.434643 198.431626 
L 194.651626 196.327652 
L 194.723954 198.431626 
L 194.796282 196.635538 
L 194.86861 203.204057 
L 195.15792 199.457959 
L 195.302576 207.976489 
L 195.374903 204.692219 
L 195.447231 206.129093 
L 195.664214 206.950156 
L 196.170508 185.345935 
L 196.315163 187.911758 
L 196.459819 178.46953 
L 196.74913 175.339224 
L 196.821457 183.601175 
L 196.893785 179.803749 
L 196.966113 180.522177 
L 197.183096 171.798376 
L 197.327751 180.88139 
L 197.400079 179.855057 
L 197.472406 180.778755 
L 197.68939 180.419541 
L 197.761717 183.036691 
L 197.834045 182.164301 
L 197.906373 180.932718 
L 198.195683 194.531565 
L 198.412666 186.98806 
L 198.484994 186.064362 
L 198.701977 188.014373 
L 198.774305 187.347274 
L 199.280599 198.226355 
L 199.352926 196.635538 
L 199.497582 184.268275 
L 199.786893 177.956354 
L 199.85922 178.931379 
L 199.931548 176.827386 
L 200.003876 177.802411 
L 200.220859 177.699776 
L 200.293186 178.315568 
L 200.365514 170.566792 
L 200.437842 171.798376 
L 200.727153 175.801073 
L 200.79948 173.953677 
L 200.944136 183.909061 
L 201.016463 183.755118 
L 201.233446 183.036691 
L 201.305774 183.087999 
L 201.378102 185.345935 
L 201.522757 192.581554 
L 201.73974 187.65516 
L 201.956723 176.057651 
L 202.029051 175.236589 
L 202.246034 177.494505 
L 202.318362 175.85238 
L 202.390689 168.052278 
L 202.463017 168.719397 
L 202.535345 173.799734 
L 202.752328 167.025945 
L 202.896983 170.002308 
L 203.041639 167.693064 
L 203.330949 170.258887 
L 203.403277 178.828744 
L 203.475605 173.491829 
L 203.547932 181.343239 
L 203.764916 176.006324 
L 203.837243 176.981349 
L 204.271209 160.714024 
L 204.488192 166.307518 
L 204.56052 162.458784 
L 204.777503 157.481102 
L 204.849831 158.148202 
L 205.066814 166.46148 
L 205.283797 161.381143 
L 205.573108 174.10762 
L 205.790091 171.079949 
L 205.934746 164.408815 
L 206.007074 166.050939 
L 206.079402 162.715362 
L 206.296385 166.25621 
L 206.44104 171.695741 
L 206.513368 171.952339 
L 206.802679 170.772063 
L 207.091989 182.369572 
L 207.3813 183.29327 
L 207.525955 177.853719 
L 207.815266 178.880052 
L 207.959922 179.752442 
L 208.32156 173.953677 
L 208.466215 166.666731 
L 208.538543 170.207579 
L 208.610871 169.54046 
L 208.827854 169.181246 
L 209.044837 179.13663 
L 209.117165 182.62615 
L 209.406475 175.85238 
L 209.623459 194.839471 
L 209.840442 191.657856 
L 209.985097 198.636877 
L 210.057425 197.713199 
L 210.129752 198.482934 
L 210.491391 190.888102 
L 210.636046 202.536938 
L 210.853029 204.589604 
L 211.070012 191.709164 
L 211.14234 195.660533 
L 211.576306 191.555221 
L 211.648634 195.044741 
L 211.865617 194.377622 
L 211.937945 196.994752 
L 212.010272 193.556559 
L 212.0826 195.249992 
L 212.371911 187.039368 
L 212.444238 185.448551 
L 212.516566 186.064362 
L 212.588894 189.245977 
L 212.661222 184.011697 
L 212.950532 182.831421 
L 213.02286 182.318264 
L 213.384498 186.218306 
L 213.456826 185.140665 
L 213.529154 181.75378 
L 213.601482 182.780113 
L 213.673809 184.524853 
L 213.890792 184.37091 
L 213.96312 183.703791 
L 214.107775 189.964404 
L 214.180103 185.807765 
L 214.469414 178.46953 
L 214.541742 179.290593 
L 214.614069 173.286558 
L 214.975708 170.361522 
L 215.048035 171.798376 
L 215.120363 170.720736 
L 215.192691 166.512788 
L 215.482002 170.361522 
L 215.554329 168.103605 
L 215.626657 170.053616 
L 215.698985 178.212932 
L 215.915968 180.265598 
L 215.988295 176.776078 
L 216.060623 179.855057 
L 216.132951 178.880052 
L 216.205278 179.547171 
L 216.422262 179.444536 
L 216.494589 187.706487 
L 216.566917 185.448551 
L 216.639245 185.03803 
L 216.711572 185.756457 
L 216.928555 183.857754 
L 217.145538 201.61324 
L 217.434849 188.270971 
L 217.507177 192.01707 
L 217.579505 190.990737 
L 217.651832 192.068378 
L 217.72416 195.814476 
L 217.941143 196.840809 
L 218.085798 198.431626 
L 218.158126 205.359339 
L 218.230454 199.252688 
L 218.447437 198.12372 
L 218.592092 200.74087 
L 218.66442 191.452586 
L 218.736748 193.248654 
L 219.026058 197.867142 
L 219.098386 192.478919 
L 219.170714 193.607867 
L 219.243041 198.431626 
L 219.460025 200.330329 
L 219.749335 188.681493 
L 219.966318 189.502555 
L 220.110974 184.422238 
L 220.183301 186.885425 
L 220.255629 186.680154 
L 220.472612 181.856415 
L 220.54494 185.191973 
L 220.617268 183.601175 
L 220.689595 186.11567 
L 220.761923 184.011697 
L 220.978906 185.140665 
L 221.123561 194.531565 
L 221.195889 193.248654 
L 221.268217 195.096049 
L 221.629855 189.861769 
L 221.702183 190.323618 
L 221.774511 186.577519 
L 221.991494 187.65516 
L 222.063821 185.653821 
L 222.208477 190.785466 
L 222.280804 196.532903 
L 222.497788 194.839471 
L 222.714771 184.319602 
L 222.787098 182.574842 
L 223.004081 183.036691 
L 223.076409 184.063024 
L 223.148737 184.011697 
L 223.221064 184.473546 
L 223.293392 183.703791 
L 223.510375 177.802411 
L 223.582703 179.906385 
L 223.655031 179.085322 
L 223.799686 180.060328 
L 224.016669 178.674781 
L 224.233652 190.015731 
L 224.30598 189.810461 
L 224.595291 185.756457 
L 224.667618 186.423576 
L 224.739946 187.809123 
L 224.812274 187.295946 
L 225.24624 194.069716 
L 225.318568 190.220982 
L 225.607878 193.710502 
L 225.824861 185.191973 
L 226.114172 187.295946 
L 226.258827 185.397243 
L 226.331155 186.013035 
L 226.620466 179.290593 
L 226.765121 181.907723 
L 226.837449 180.00902 
L 227.054432 177.340562 
L 227.12676 177.494505 
L 227.271415 180.368233 
L 227.343743 175.441859 
L 227.633054 177.289235 
L 227.850037 174.158948 
L 228.06702 172.876037 
L 228.139347 168.154913 
L 228.211675 168.308856 
L 228.284003 170.258887 
L 228.356331 167.487794 
L 228.573314 165.332512 
L 228.645641 166.050939 
L 228.790297 159.892962 
L 228.862624 158.250837 
L 229.079607 157.583718 
L 229.151935 163.177211 
L 229.224263 158.353472 
L 229.296591 158.558743 
L 229.368918 160.970622 
L 229.585901 158.148202 
L 229.658229 158.4048 
L 229.730557 163.998274 
L 229.802884 163.844331 
L 229.875212 164.562758 
L 230.092195 162.202206 
L 230.309178 149.629672 
L 230.381506 149.88625 
L 230.598489 149.373094 
L 230.670817 154.607374 
L 230.743144 152.913921 
L 230.815472 151.836281 
L 230.8878 159.174535 
L 231.104783 162.253533 
L 231.17711 168.975976 
L 231.249438 168.719397 
L 231.321766 163.895658 
L 231.394094 166.153575 
L 231.611077 167.077272 
L 231.683404 172.260225 
L 231.755732 168.514127 
L 231.900387 173.645772 
L 232.11737 170.361522 
L 232.189698 172.927344 
L 232.334354 164.100909 
L 232.406681 167.385178 
L 232.623664 170.361522 
L 232.695992 169.591767 
L 232.76832 173.132615 
L 232.840647 172.824709 
L 232.912975 172.465496 
L 233.129958 170.207579 
L 233.202286 170.669428 
L 233.346941 176.72477 
L 233.419269 176.776078 
L 233.636252 177.853719 
L 233.70858 173.286558 
L 233.780907 173.90235 
L 233.853235 176.72477 
L 234.142546 176.981349 
L 234.214874 178.828744 
L 234.431857 174.210256 
L 234.64884 170.926006 
L 234.793495 167.898335 
L 234.93815 171.336527 
L 235.155133 173.081288 
L 235.299789 165.999632 
L 235.444444 166.718059 
L 235.733755 168.411491 
L 235.806083 167.7957 
L 235.950738 173.491829 
L 236.167721 174.312891 
L 236.240049 175.544475 
L 236.384704 173.953677 
L 236.457032 179.649806 
L 236.746343 175.493167 
L 236.81867 175.749745 
L 236.890998 176.314229 
L 236.963326 175.339224 
L 237.180309 177.39187 
L 237.252637 176.827386 
L 237.397292 183.036691 
L 237.46962 181.445874 
L 237.686603 180.21429 
L 237.75893 180.830082 
L 237.975913 176.057651 
L 238.265224 183.909061 
L 238.337552 183.703791 
L 238.40988 184.114332 
L 238.482207 180.624812 
L 238.69919 177.494505 
L 238.771518 178.931379 
L 238.988501 172.414188 
L 239.205484 174.158948 
L 239.35014 167.333851 
L 239.494795 171.952339 
L 239.711778 171.747068 
L 240.001089 181.445874 
L 240.507383 171.233912 
L 240.724366 172.978652 
L 240.941349 164.870664 
L 241.23066 157.481102 
L 241.302987 159.27717 
L 241.375315 158.917956 
L 241.736953 161.483779 
L 241.809281 164.203544 
L 242.026264 160.354811 
L 242.315575 165.229877 
L 242.46023 157.378467 
L 242.749541 159.944289 
L 242.821869 159.225862 
L 243.038852 163.331174 
L 243.255835 164.049601 
L 243.472818 172.876037 
L 243.545146 170.669428 
L 243.762129 170.258887 
L 243.834456 168.052278 
L 244.05144 173.645772 
L 244.268423 174.158948 
L 244.34075 173.90235 
L 244.413078 168.822032 
L 244.485406 168.924668 
L 244.557733 169.437824 
L 244.774716 174.98001 
L 245.353338 162.510112 
L 245.570321 171.028641 
L 245.787304 173.23525 
L 245.859632 171.849704 
L 245.931959 173.02998 
L 246.004287 172.670766 
L 246.076615 178.161625 
L 246.293598 176.622135 
L 246.365926 174.004985 
L 246.510581 179.393208 
L 246.582909 179.393208 
L 246.872219 180.316906 
L 246.944547 184.37091 
L 247.016875 183.549848 
L 247.378513 176.72477 
L 247.450841 177.494505 
L 247.595496 173.132615 
L 247.884807 174.826048 
L 247.957135 177.648468 
L 248.029463 175.698437 
L 248.391101 185.499878 
L 248.463429 182.369572 
L 248.535756 183.909061 
L 248.608084 183.241942 
L 248.825067 183.857754 
L 249.04205 178.880052 
L 249.114378 177.545833 
L 249.331361 178.880052 
L 249.403689 176.416865 
L 249.476016 179.495844 
L 249.548344 177.956354 
L 249.620672 177.956354 
L 249.837655 178.674781 
L 250.343949 210.644927 
L 250.416276 203.101422 
L 250.488604 215.109472 
L 250.560932 205.359339 
L 250.633259 206.950156 
L 250.850242 199.919788 
L 250.994898 202.023781 
L 251.139553 211.209411 
L 251.356536 212.287071 
L 251.428864 203.871157 
L 251.501192 206.077766 
L 251.573519 207.360677 
L 252.007486 197.097387 
L 252.152141 204.846182 
L 252.441452 204.589604 
L 252.513779 201.100084 
L 252.658435 210.850197 
L 252.875418 211.67126 
L 253.020073 210.747562 
L 253.164729 207.412005 
L 253.454039 214.596296 
L 253.598695 233.532068 
L 253.671022 229.734652 
L 253.888005 230.453079 
L 253.960333 222.088512 
L 254.177316 237.124223 
L 254.394299 242.6664 
L 254.466627 242.461129 
L 254.611282 233.993917 
L 254.68361 236.046573 
L 254.972921 223.935888 
L 255.045249 217.162118 
L 255.117576 219.266092 
L 255.189904 217.418716 
L 255.406887 223.063518 
L 255.479215 220.138482 
L 255.62387 228.195163 
L 255.913181 214.288409 
L 255.985509 217.11081 
L 256.130164 199.252688 
L 256.202492 201.40797 
L 256.491802 213.108134 
L 256.636458 199.971115 
L 256.708785 201.767183 
L 256.925769 199.252688 
L 256.998096 195.455262 
L 257.070424 206.283036 
L 257.142752 205.513282 
L 257.215079 201.356662 
L 257.432062 203.871157 
L 257.50439 201.40797 
L 257.649045 214.288409 
L 257.721373 214.083139 
L 258.227667 224.295101 
L 258.44465 217.726602 
L 258.516978 219.368727 
L 258.661633 207.412005 
L 258.733961 208.540953 
L 258.950944 206.129093 
L 259.023272 207.719891 
L 259.095599 206.385672 
L 259.167927 212.133108 
L 259.240255 209.054129 
L 259.674221 220.39506 
L 259.746548 218.137143 
L 259.963532 222.858247 
L 260.035859 215.519993 
L 260.108187 216.956867 
L 260.252842 214.134447 
L 260.542153 214.801566 
L 260.614481 218.137143 
L 260.686808 216.495018 
L 260.759136 216.392383 
L 261.048447 210.696254 
L 261.26543 214.852894 
L 261.482413 211.00416 
L 261.627068 206.796193 
L 261.699396 206.283036 
L 261.771724 206.796193 
L 262.061035 202.28036 
L 262.278018 196.892136 
L 262.495001 196.071054 
L 262.567328 195.352627 
L 262.639656 193.094711 
L 262.711984 194.274987 
L 262.784312 192.119705 
L 263.001295 197.91845 
L 263.218278 190.426253 
L 263.290605 187.552525 
L 263.579916 191.503894 
L 263.652244 188.014373 
L 263.724571 189.60519 
L 263.796899 195.557898 
L 264.158538 191.042045 
L 264.230865 188.476222 
L 264.303193 188.73282 
L 264.592504 190.426253 
L 264.664831 188.424914 
L 264.737159 189.348612 
L 264.809487 189.245977 
L 265.02647 191.555221 
L 265.171125 188.578858 
L 265.243453 188.424914 
L 265.315781 188.681493 
L 265.532764 194.326314 
L 265.605091 201.61324 
L 265.677419 200.74087 
L 265.822075 195.044741 
L 266.039058 196.071054 
L 266.111385 190.27231 
L 266.183713 196.892136 
L 266.256041 195.917111 
L 266.328368 196.430288 
L 266.545351 200.484272 
L 266.762335 206.026458 
L 266.834662 205.872515 
L 267.051645 203.871157 
L 267.123973 204.179063 
L 267.268628 209.054129 
L 267.340956 207.155426 
L 267.630267 204.435641 
L 267.702594 207.360677 
L 267.774922 205.461974 
L 268.064233 208.797551 
L 268.136561 211.87653 
L 268.208888 209.721249 
L 268.281216 203.15273 
L 268.353544 203.306693 
L 268.570527 205.051433 
L 268.78751 201.510605 
L 268.859838 200.330329 
L 269.076821 205.461974 
L 269.366131 200.997448 
L 269.583114 200.689543 
L 269.655442 198.534261 
L 269.72777 198.739512 
L 269.872425 203.563271 
L 270.089408 204.538276 
L 270.378719 214.031812 
L 270.66803 217.162118 
L 270.885013 225.988554 
L 271.101996 221.575336 
L 271.246651 224.705642 
L 271.391307 228.143835 
L 271.680618 221.472701 
L 271.897601 227.579371 
L 272.114584 228.092527 
L 272.186911 227.938584 
L 272.331567 222.037185 
L 272.403894 226.963559 
L 272.620877 227.066194 
L 272.765533 222.550361 
L 272.837861 222.191128 
L 272.910188 218.496357 
L 273.127171 217.931873 
L 273.199499 216.23842 
L 273.344154 228.451741 
L 273.416482 228.400433 
L 273.633465 231.992579 
L 273.922776 222.550361 
L 274.139759 222.652977 
L 274.212087 219.830576 
L 274.356742 220.39506 
L 274.42907 223.67931 
L 274.646053 225.731975 
L 274.863036 230.65835 
L 274.935364 228.143835 
L 275.152347 228.759647 
L 275.36933 222.34509 
L 275.658641 228.041219 
L 275.730968 228.657011 
L 275.803296 227.630678 
L 275.947951 220.241117 
L 276.164934 220.549003 
L 276.30959 219.317419 
L 276.381917 221.062179 
L 276.454245 216.751597 
L 276.671228 215.776572 
L 276.888211 214.237082 
L 276.960539 214.544988 
L 277.177522 216.135805 
L 277.24985 214.698931 
L 277.466833 218.291086 
L 277.683816 218.496357 
L 278.19011 223.371423 
L 278.262437 222.858247 
L 278.334765 223.422731 
L 278.407093 226.245132 
L 278.47942 225.62934 
L 278.841059 230.247828 
L 278.985714 222.601669 
L 279.202697 225.680648 
L 279.41968 217.880545 
L 279.492008 214.750258 
L 279.781319 218.188451 
L 279.853647 215.314723 
L 279.925974 218.188451 
L 279.998302 217.059483 
L 280.215285 217.521332 
L 280.35994 221.472701 
L 280.432268 217.059483 
L 280.504596 217.77793 
L 280.721579 216.03317 
L 280.793907 216.135805 
L 280.866234 216.187113 
L 281.01089 213.826561 
L 281.227873 215.776572 
L 281.3002 215.622629 
L 281.372528 214.391045 
L 281.517183 208.643588 
L 281.806494 206.231729 
L 281.95115 203.15273 
L 282.023477 204.794855 
L 282.24046 202.023781 
L 282.312788 205.564609 
L 282.385116 204.435641 
L 282.457443 202.742208 
L 282.529771 205.821188 
L 282.89141 206.539615 
L 282.963737 201.61324 
L 283.036065 203.101422 
L 283.253048 201.40797 
L 283.325376 199.765845 
L 283.542359 208.233067 
L 283.759342 207.771218 
L 283.976325 212.081801 
L 284.048653 211.773895 
L 284.265636 207.771218 
L 284.337963 209.618613 
L 284.554947 203.101422 
L 284.77193 203.768522 
L 284.916585 206.283036 
L 284.988913 206.231729 
L 285.06124 204.692219 
L 285.278223 206.488307 
L 285.350551 205.410666 
L 285.495207 198.944783 
L 285.929173 195.198684 
L 286.0015 196.943444 
L 286.073828 193.453924 
L 286.290811 193.351289 
L 286.507794 191.34995 
L 286.580122 193.967081 
L 286.797105 194.480257 
L 287.303399 187.757795 
L 287.448054 180.573504 
L 287.520382 181.907723 
L 287.59271 181.75378 
L 287.809693 183.447213 
L 287.88202 187.193311 
L 288.026676 182.266937 
L 288.099003 184.473546 
L 288.315986 183.344577 
L 288.388314 183.49854 
L 288.460642 183.857754 
L 288.605297 181.343239 
L 288.894608 181.137968 
L 289.111591 184.422238 
L 289.328574 185.140665 
L 289.47323 181.907723 
L 289.545557 182.523515 
L 289.617885 180.727447 
L 289.907196 186.885425 
L 289.979523 187.706487 
L 290.051851 192.530226 
L 290.124179 190.836794 
L 290.341162 191.247315 
L 290.41349 190.939409 
L 290.630473 188.424914 
L 290.992111 194.993414 
L 291.064439 197.713199 
L 291.136766 197.559236 
L 291.353749 200.125059 
L 291.426077 199.714537 
L 291.570733 195.455262 
L 291.860043 200.689543 
L 292.149354 194.788143 
L 292.366337 197.097387 
L 292.510993 203.717214 
L 292.58332 201.561932 
L 292.944959 208.848859 
L 293.017286 204.179063 
L 293.089614 206.283036 
L 293.161942 205.76988 
L 293.378925 206.385672 
L 293.52358 203.665906 
L 293.595908 205.821188 
L 293.885219 208.130432 
L 293.957546 208.079104 
L 294.029874 211.260738 
L 294.102202 210.747562 
L 294.174529 212.441014 
L 294.391513 212.492322 
L 294.536168 208.438337 
L 294.680823 210.593619 
L 294.897806 216.135805 
L 294.970134 212.851536 
L 295.042462 216.597634 
L 295.114789 216.084477 
L 295.187117 210.337041 
L 295.4041 209.464651 
L 295.476428 210.490984 
L 295.621083 205.205396 
L 295.693411 205.76988 
L 295.982722 201.664548 
L 296.055049 204.486968 
L 296.127377 203.511943 
L 296.199705 201.818511 
L 296.416688 200.894813 
L 296.561343 197.148715 
L 296.633671 199.201361 
L 296.705999 198.175048 
L 296.922982 201.715876 
L 296.995309 201.61324 
L 297.067637 201.61324 
L 297.139965 202.690881 
L 297.212292 200.792178 
L 297.429276 198.431626 
L 297.573931 202.690881 
L 297.718586 207.719891 
L 298.007897 204.640912 
L 298.22488 210.542311 
L 298.441863 207.822526 
L 298.586519 212.184436 
L 298.658846 211.00416 
L 298.731174 212.287071 
L 298.948157 213.929196 
L 299.092812 217.829237 
L 299.16514 216.03317 
L 299.237468 220.959544 
L 299.526779 217.983181 
L 299.671434 230.042558 
L 299.743762 227.322773 
L 300.033072 232.659688 
L 300.250055 228.451741 
L 300.467039 228.657011 
L 300.611694 232.505745 
L 300.756349 230.760985 
L 300.973332 230.042558 
L 301.117988 228.810954 
L 301.190315 220.087154 
L 301.262643 224.910913 
L 301.624282 221.729279 
L 301.696609 222.755612 
L 301.768937 222.242455 
L 301.98592 222.037185 
L 302.058248 217.264753 
L 302.130575 219.112149 
L 302.275231 217.162118 
L 302.492214 219.266092 
L 302.564542 218.804243 
L 302.636869 219.52269 
L 302.781525 215.879207 
L 303.070835 218.6503 
L 303.143163 221.985877 
L 303.287819 218.137143 
L 303.649457 208.489645 
L 303.721785 209.823864 
L 303.794112 209.772556 
L 304.011095 210.285713 
L 304.155751 216.495018 
L 304.228079 211.67126 
L 304.300406 212.338379 
L 304.517389 212.235744 
L 304.662045 215.776572 
L 304.8067 215.058144 
L 305.168338 206.231729 
L 305.602305 196.276325 
L 305.74696 199.971115 
L 305.819288 199.303996 
L 306.036271 197.302658 
L 306.108598 198.226355 
L 306.180926 194.377622 
L 306.253254 195.814476 
L 306.325582 198.12372 
L 306.542565 196.994752 
L 306.68722 200.792178 
L 306.759548 200.843486 
L 307.048858 205.051433 
L 307.121186 202.382995 
L 307.193514 202.536938 
L 307.265842 202.844844 
L 307.338169 200.279021 
L 307.62748 202.742208 
L 308.061446 197.764507 
L 308.133774 199.714537 
L 308.206102 199.252688 
L 308.278429 199.765845 
L 308.350757 199.560575 
L 308.640068 199.457959 
L 308.784723 208.130432 
L 308.857051 208.38701 
L 309.074034 207.771218 
L 309.363345 201.202699 
L 309.580328 200.894813 
L 309.797311 207.309369 
L 310.086621 204.281698 
L 310.231277 208.079104 
L 310.303605 206.334344 
L 310.375932 198.072412 
L 310.665243 190.682831 
L 310.737571 192.273648 
L 310.809898 191.503894 
L 310.882226 190.27231 
L 311.099209 194.326314 
L 311.171537 193.248654 
L 311.243865 189.092034 
L 311.38852 189.39992 
L 311.605503 191.14468 
L 311.677831 192.992075 
L 311.750158 191.914435 
L 311.822486 193.146018 
L 311.894814 189.297285 
L 312.184125 190.939409 
L 312.32878 199.765845 
L 312.401108 198.380299 
L 312.618091 198.431626 
L 312.690418 201.767183 
L 312.762746 197.91845 
L 312.907401 203.819849 
L 313.124385 204.076428 
L 313.196712 200.586907 
L 313.341368 202.177724 
L 313.413695 199.303996 
L 313.630678 200.484272 
L 313.703006 198.431626 
L 313.919989 207.206734 
L 314.136972 210.542311 
L 314.2093 210.490984 
L 314.281628 208.284375 
L 314.353955 211.722587 
L 314.426283 208.38701 
L 314.643266 212.081801 
L 314.715594 209.2594 
L 314.787921 209.618613 
L 314.932577 211.619952 
L 315.221888 211.619952 
L 315.294215 207.206734 
L 315.438871 219.727941 
L 315.655854 220.035846 
L 315.728181 218.034508 
L 315.800509 218.291086 
L 315.872837 217.470024 
L 315.945164 217.880545 
L 316.162148 222.13982 
L 316.234475 220.138482 
L 316.306803 222.34509 
L 316.451458 218.804243 
L 316.668441 220.343752 
L 316.740769 213.672598 
L 316.813097 213.775233 
L 316.885424 213.313384 
L 316.957752 211.722587 
L 317.247063 211.619952 
L 317.319391 210.696254 
L 317.391718 212.235744 
L 317.464046 211.927838 
L 317.681029 214.134447 
L 317.753357 217.264753 
L 317.825684 216.648961 
L 317.898012 211.722587 
L 317.97034 213.723925 
L 318.187323 215.930534 
L 318.259651 213.877869 
L 318.331978 215.673956 
L 318.404306 213.775233 
L 318.476634 215.776572 
L 318.693617 218.598992 
L 318.9106 226.091189 
L 318.982927 225.834611 
L 319.199911 225.62934 
L 319.272238 222.755612 
L 319.416894 225.988554 
L 319.489221 221.113487 
L 319.923187 215.212107 
L 319.995515 211.465989 
L 320.212498 211.722587 
L 320.284826 211.106776 
L 320.357154 211.414681 
L 320.501809 212.492322 
L 320.718792 211.568624 
L 320.863447 206.385672 
L 320.935775 207.104099 
L 321.008103 209.875192 
L 321.225086 209.567286 
L 321.297414 214.237082 
L 321.369741 211.979165 
L 321.442069 211.517317 
L 321.73138 212.697593 
L 321.803707 213.62129 
L 322.020691 217.264753 
L 322.237674 217.726602 
L 322.310001 215.36605 
L 322.382329 216.084477 
L 322.526984 215.725264 
L 322.743967 217.264753 
L 322.816295 216.956867 
L 322.888623 217.726602 
L 322.96095 217.162118 
L 323.033278 217.880545 
L 323.394917 211.517317 
L 323.467244 212.800228 
L 323.539572 210.747562 
L 323.756555 211.825222 
L 323.828883 212.902863 
L 323.973538 208.797551 
L 324.045866 208.848859 
L 324.335177 209.823864 
L 324.55216 206.231729 
L 324.769143 204.846182 
L 324.84147 203.15273 
L 324.913798 204.743547 
L 324.986126 203.204057 
L 325.058454 204.230371 
L 325.347764 201.459297 
L 325.49242 202.793516 
L 325.564747 199.86848 
L 325.854058 200.381637 
L 325.926386 198.893475 
L 326.071041 201.202699 
L 326.288024 203.614579 
L 326.360352 207.001464 
L 326.43268 206.64225 
L 326.577335 204.384333 
L 326.794318 205.256703 
L 326.938974 200.227694 
L 327.011301 198.12372 
L 327.300612 198.534261 
L 327.517595 201.664548 
L 327.951561 197.661871 
L 328.023889 200.484272 
L 328.096217 199.098726 
L 328.3132 199.252688 
L 328.530183 189.451247 
L 328.60251 189.092034 
L 328.819493 184.678816 
L 328.891821 185.191973 
L 329.036477 187.65516 
L 329.108804 186.372249 
L 329.325787 184.576181 
L 329.54277 190.785466 
L 329.615098 187.552525 
L 329.976737 182.523515 
L 330.049064 184.832759 
L 330.121392 184.576181 
L 330.410703 182.728785 
L 330.555358 186.628847 
L 330.627686 185.499878 
L 330.916997 183.344577 
L 331.13398 187.65516 
L 331.42329 186.423576 
L 331.567946 178.828744 
L 331.640273 177.135292 
L 331.857257 178.315568 
L 332.36355 188.168336 
L 332.435878 186.834097 
L 332.869844 194.582892 
L 332.942172 194.788143 
L 333.0145 190.888102 
L 333.086827 195.198684 
L 333.159155 194.223679 
L 333.520793 203.101422 
L 333.593121 203.050095 
L 333.665449 199.919788 
L 333.882432 197.097387 
L 333.95476 198.79084 
L 334.027087 195.096049 
L 334.171743 201.818511 
L 334.461053 199.765845 
L 334.605709 201.356662 
L 334.678036 199.098726 
L 334.89502 198.99611 
L 334.967347 198.226355 
L 335.039675 198.99611 
L 335.18433 197.046079 
L 335.401313 199.817172 
L 335.545969 193.094711 
L 335.618296 192.88944 
L 335.690624 190.426253 
L 335.907607 192.376283 
L 335.979935 191.247315 
L 336.196918 193.76183 
L 336.413901 193.659195 
L 336.630884 191.709164 
L 336.703212 187.757795 
L 337.137178 197.815814 
L 337.209506 190.528888 
L 337.426489 189.964404 
L 337.498816 191.657856 
L 337.571144 185.294608 
L 337.715799 186.98806 
L 337.932783 192.427591 
L 338.222093 179.906385 
L 338.439076 181.445874 
L 338.583732 190.580196 
L 338.656059 189.759134 
L 338.728387 192.324956 
L 339.017698 193.351289 
L 339.162353 187.347274 
L 339.234681 188.73282 
L 339.451664 183.652483 
L 339.596319 188.373587 
L 339.740975 181.445874 
L 339.957958 181.907723 
L 340.030286 185.191973 
L 340.102613 181.75378 
L 340.247269 181.445874 
L 340.464252 182.215629 
L 340.536579 184.832759 
L 340.681235 177.545833 
L 340.970546 180.316906 
L 341.042873 177.237927 
L 341.115201 179.547171 
L 341.187529 177.39187 
L 341.259856 178.674781 
L 341.549167 181.035353 
L 341.693822 170.258887 
L 341.76615 170.823371 
L 341.983133 170.926006 
L 342.272444 183.703791 
L 342.489427 180.111655 
L 342.634082 173.90235 
L 342.70641 174.620797 
L 342.778738 179.598479 
L 342.995721 180.111655 
L 343.285032 174.77474 
L 343.574342 173.953677 
L 343.718998 174.364199 
L 343.791326 172.978652 
L 344.008309 174.826048 
L 344.225292 170.720736 
L 344.297619 170.772063 
L 344.514602 170.310214 
L 344.731586 181.343239 
L 344.803913 183.601175 
L 345.020896 181.137968 
L 345.093224 186.11567 
L 345.165552 185.602514 
L 345.310207 182.42088 
L 345.599518 177.648468 
L 345.671846 173.851042 
L 345.744173 173.90235 
L 345.816501 172.927344 
L 346.033484 173.645772 
L 346.250467 177.39187 
L 346.539778 165.743034 
L 346.612105 167.487794 
L 346.756761 161.02193 
L 347.118399 157.378467 
L 347.263055 133.003153 
L 347.335382 134.696586 
L 347.552365 131.874185 
L 347.624693 133.670253 
L 347.697021 131.874185 
L 347.769349 127.307024 
L 347.841676 138.596647 
L 348.058659 136.646616 
L 348.203315 126.485962 
L 348.275642 129.257055 
L 348.34797 128.897841 
L 348.637281 124.843837 
L 348.781936 131.925493 
L 348.854264 129.513633 
L 349.071247 127.40966 
L 349.28823 142.394053 
L 349.360558 136.13346 
L 349.649869 139.828231 
L 349.722196 142.804594 
L 349.866852 135.671611 
L 350.083835 139.520345 
L 350.156162 136.030825 
L 350.300818 139.571653 
L 350.373145 131.874185 
L 350.662456 130.539966 
L 350.734784 130.796544 
L 350.879439 145.113838 
L 351.241078 140.546658 
L 351.385733 144.087506 
L 351.602716 141.778261 
L 351.747372 147.628333 
L 351.892027 143.369078 
L 352.181338 154.196833 
L 352.253665 153.478406 
L 352.325993 153.016557 
L 352.398321 155.223166 
L 352.615304 152.092859 
L 352.687632 146.448057 
L 352.759959 147.166485 
L 353.121598 164.408815 
L 353.193925 158.764013 
L 353.266253 160.662716 
L 353.338581 160.252175 
L 353.627892 170.361522 
L 353.772547 195.455262 
L 353.844875 185.448551 
L 353.917202 175.903708 
L 354.134185 175.133953 
L 354.206513 176.108959 
L 354.278841 181.189296 
L 354.423496 175.493167 
L 354.640479 176.878713 
L 354.712807 175.955016 
L 355.146773 189.39992 
L 355.291428 183.549848 
L 355.436084 187.603852 
L 355.653067 190.631523 
L 355.797722 187.757795 
L 355.87005 189.502555 
L 356.159361 182.677478 
L 356.304016 190.015731 
L 356.376344 188.476222 
L 356.448671 187.86043 
L 356.665655 189.194669 
L 357.171948 219.676633 
L 357.388931 203.050095 
L 357.461259 208.746224 
L 357.678242 211.055468 
L 357.75057 219.420054 
L 357.822898 217.418716 
L 357.895225 216.392383 
L 357.967553 223.01219 
L 358.329191 210.644927 
L 358.401519 210.285713 
L 358.473847 208.848859 
L 358.69083 210.696254 
L 358.835485 202.690881 
L 358.907813 204.89749 
L 358.980141 209.105437 
L 359.197124 206.436979 
L 359.414107 213.775233 
L 359.486435 214.391045 
L 359.775745 217.829237 
L 359.992728 205.410666 
L 360.209711 202.023781 
L 360.282039 204.89749 
L 360.426694 196.019747 
L 360.499022 196.943444 
L 360.716005 196.789501 
L 360.788333 199.355324 
L 360.860661 198.534261 
L 361.005316 191.298643 
L 361.222299 193.248654 
L 361.294627 192.992075 
L 361.366954 195.968439 
L 361.51161 188.168336 
L 362.017904 198.944783 
L 362.307214 197.097387 
L 362.45187 193.607867 
L 362.813508 200.792178 
L 362.885836 200.74087 
L 362.958164 200.894813 
L 363.030491 204.794855 
L 363.247474 201.921146 
L 363.319802 202.793516 
L 363.536785 197.91845 
L 363.898424 200.484272 
L 364.043079 205.821188 
L 364.33239 202.229032 
L 364.477045 205.256703 
L 364.549373 203.614579 
L 364.766356 206.488307 
L 365.055667 218.137143 
L 365.27265 215.519993 
L 365.417305 209.208072 
L 365.489633 211.465989 
L 365.561961 209.721249 
L 365.778944 211.773895 
L 365.851271 211.465989 
L 365.923599 207.771218 
L 365.995927 208.233067 
L 366.285237 211.260738 
L 366.357565 210.644927 
L 366.502221 214.237082 
L 366.936187 224.859585 
L 367.080842 233.070219 
L 367.370153 234.199187 
L 367.442481 237.175541 
L 367.514808 234.917615 
L 367.587136 242.409821 
L 367.876447 238.612395 
L 367.948774 244.154581 
L 368.021102 243.128248 
L 368.09343 237.63739 
L 368.310413 241.434806 
L 368.382741 240.357155 
L 368.455068 242.512447 
L 368.599724 235.225511 
L 368.816707 238.663713 
L 368.889034 242.6664 
L 368.961362 240.203212 
L 369.395328 247.182243 
L 369.467656 246.15592 
L 369.539984 249.388852 
L 369.612311 246.15592 
L 369.97395 237.483437 
L 370.046277 238.971619 
L 370.118605 239.022936 
L 370.335588 234.609719 
L 370.480244 239.074244 
L 370.552571 239.587411 
L 370.624899 239.228197 
L 370.841882 239.946624 
L 371.131193 226.039861 
L 371.348176 227.989892 
L 371.420504 231.838626 
L 371.492831 231.222834 
L 371.565159 232.505745 
L 371.637487 226.706981 
L 371.85447 226.50171 
L 371.926797 227.528043 
L 372.14378 222.499034 
L 372.360764 222.34509 
L 372.577747 227.322773 
L 372.867057 225.937246 
L 373.011713 221.677971 
L 373.08404 222.037185 
L 373.373351 225.116183 
L 373.445679 228.964917 
L 373.518007 225.834611 
L 373.590334 229.067533 
L 373.662662 226.912251 
L 373.879645 224.910913 
L 373.951973 222.550361 
L 374.0243 215.776572 
L 374.096628 216.135805 
L 374.168956 218.393722 
L 374.385939 217.264753 
L 374.458267 215.109472 
L 374.67525 219.060841 
L 374.892233 221.164814 
L 375.036888 218.85557 
L 375.181543 223.268788 
L 375.398527 223.576674 
L 375.543182 229.837287 
L 375.61551 229.580709 
L 375.90482 233.070219 
L 375.977148 229.324131 
L 376.194131 235.02025 
L 376.411114 231.889943 
L 376.628097 235.02025 
L 376.700425 232.967594 
L 376.917408 233.326807 
L 377.062063 227.16883 
L 377.134391 227.784622 
L 377.49603 222.652977 
L 377.568357 223.730637 
L 377.713013 222.037185 
L 377.929996 219.830576 
L 378.074651 217.059483 
L 378.146979 218.085816 
L 378.219307 222.858247 
L 378.43629 226.50171 
L 378.508617 226.039861 
L 378.580945 225.783283 
L 378.7256 226.963559 
L 379.087239 222.088512 
L 379.159566 217.880545 
L 379.231894 228.605684 
L 379.448877 229.170168 
L 379.738188 218.393722 
L 380.172154 223.628002 
L 380.244482 219.933211 
L 380.461465 218.598992 
L 380.678448 212.851536 
L 380.750776 213.364712 
L 380.967759 211.87653 
L 381.040086 215.314723 
L 381.112414 213.159441 
L 381.184742 213.313384 
L 381.25707 212.338379 
L 381.474053 213.826561 
L 381.54638 211.67126 
L 381.618708 212.389687 
L 381.763363 213.518655 
L 381.980346 214.134447 
L 382.052674 214.698931 
L 382.19733 213.672598 
L 382.269657 210.901525 
L 382.48664 209.875192 
L 382.558968 208.130432 
L 382.631296 209.208072 
L 382.775951 204.846182 
L 382.992934 200.5356 
L 383.137589 202.742208 
L 383.209917 201.048756 
L 383.499228 203.871157 
L 383.571556 203.922484 
L 383.788539 205.821188 
L 384.005522 204.384333 
L 384.077849 203.15273 
L 384.150177 205.205396 
L 384.222505 203.768522 
L 384.294833 199.919788 
L 384.728799 195.096049 
L 384.801126 199.150053 
L 385.018109 198.893475 
L 385.162765 204.127755 
L 385.235093 200.586907 
L 385.30742 201.715876 
L 385.524403 201.305335 
L 385.596731 200.894813 
L 385.741386 195.403955 
L 385.813714 198.739512 
L 386.030697 202.793516 
L 386.175353 198.688204 
L 386.24768 200.74087 
L 386.320008 200.279021 
L 386.536991 200.073751 
L 386.609319 201.664548 
L 386.753974 196.225017 
L 386.826302 197.815814 
L 387.043285 194.993414 
L 387.260268 204.281698 
L 387.332596 202.434303 
L 387.549579 204.179063 
L 387.694234 200.843486 
L 387.838889 201.202699 
L 388.055872 199.765845 
L 388.1282 200.484272 
L 388.345183 206.231729 
L 388.562166 206.180401 
L 388.634494 204.948817 
L 388.851477 209.362016 
L 389.140788 202.229032 
L 389.357771 210.696254 
L 389.574754 211.825222 
L 389.647082 209.2594 
L 389.719409 211.465989 
L 389.791737 210.747562 
L 389.864065 210.901525 
L 390.081048 209.362016 
L 390.153376 206.077766 
L 390.225703 206.796193 
L 390.370359 205.000125 
L 390.587342 204.281698 
L 390.804325 202.434303 
L 390.876652 203.871157 
L 391.165963 204.127755 
L 391.310619 201.921146 
L 391.599929 207.463312 
L 391.672257 205.410666 
L 391.88924 213.159441 
L 392.106223 213.877869 
L 392.250879 215.16078 
L 392.395534 221.010852 
L 392.684845 220.60033 
L 392.8295 216.700269 
L 392.901828 217.213446 
L 393.191139 214.955509 
L 393.335794 210.490984 
L 393.408122 211.87653 
L 393.625105 211.619952 
L 393.76976 207.873853 
L 393.842088 208.079104 
L 393.914415 207.668583 
L 394.203726 208.540953 
L 394.276054 207.617255 
L 394.420709 209.105437 
L 394.71002 207.412005 
L 394.854675 206.231729 
L 395.433297 207.360677 
L 395.65028 206.539615 
L 395.722608 206.64225 
L 395.939591 200.279021 
L 396.156574 199.047418 
L 396.228902 199.098726 
L 396.301229 196.122382 
L 396.373557 196.532903 
L 396.445885 197.969777 
L 396.807523 195.044741 
L 396.879851 195.403955 
L 396.952178 197.559236 
L 397.241489 199.303996 
L 397.313817 197.25135 
L 397.386145 201.510605 
L 397.458472 200.997448 
L 397.675455 201.151391 
L 397.747783 200.5356 
L 397.820111 200.792178 
L 397.892438 203.050095 
L 397.964766 202.126397 
L 398.181749 198.99611 
L 398.254077 199.611902 
L 398.398732 193.453924 
L 398.47106 194.480257 
L 398.688043 192.119705 
L 398.760371 194.326314 
L 398.832698 193.710502 
L 399.194337 194.890778 
L 399.266665 194.018408 
L 399.41132 196.225017 
L 399.483648 197.815814 
L 399.845286 195.711841 
L 399.917614 196.635538 
L 399.989942 196.532903 
L 400.423908 198.99611 
L 400.713218 197.969777 
L 400.857874 202.485611 
L 400.930202 199.919788 
L 401.002529 200.5356 
L 401.219512 199.457959 
L 401.364168 196.738174 
L 401.508823 197.610564 
L 401.725806 197.25135 
L 401.870461 198.842147 
L 401.942789 201.61324 
L 402.015117 201.510605 
L 402.2321 202.126397 
L 402.376755 196.840809 
L 402.449083 196.994752 
L 402.521411 194.890778 
L 402.738394 192.273648 
L 402.810721 192.735497 
L 402.883049 195.609225 
L 402.955377 194.993414 
L 403.027705 192.940767 
L 403.244688 191.965742 
L 403.317015 192.222321 
L 403.389343 192.171013 
L 403.461671 188.835436 
L 403.533998 188.886763 
L 403.823309 188.270971 
L 403.895637 189.348612 
L 404.040292 187.398582 
L 404.257275 188.578858 
L 404.329603 187.244638 
L 404.401931 187.911758 
L 404.474258 186.98806 
L 404.546586 188.835436 
L 404.763569 190.682831 
L 404.835897 189.502555 
L 404.908225 190.426253 
L 404.980552 192.786805 
L 405.05288 192.222321 
L 405.269863 189.348612 
L 405.414518 192.735497 
L 405.559174 191.247315 
L 405.776157 188.886763 
L 405.99314 192.01707 
L 406.065468 191.555221 
L 406.282451 189.451247 
L 406.427106 190.27231 
L 406.571761 192.735497 
L 406.788744 192.376283 
L 407.078055 180.368233 
L 407.367366 181.548509 
L 407.439694 178.931379 
L 407.512021 179.393208 
L 407.584349 179.598479 
L 407.801332 178.828744 
L 407.87366 179.290593 
L 407.945988 177.135292 
L 408.018315 177.905046 
L 408.307626 177.032656 
L 408.379954 174.518161 
L 408.452281 175.082645 
L 408.596937 175.493167 
L 408.81392 174.672105 
L 408.886248 173.081288 
L 408.958575 174.826048 
L 409.030903 181.137968 
L 409.103231 180.778755 
L 409.320214 178.880052 
L 409.392541 179.393208 
L 409.464869 176.108959 
L 409.537197 180.21429 
L 409.609524 179.752442 
L 409.826508 177.340562 
L 410.115818 168.462819 
L 410.332801 168.360184 
L 410.477457 168.154913 
L 410.549784 168.308856 
L 410.622112 168.206241 
L 410.911423 171.336527 
L 411.056078 169.694403 
L 411.128406 170.6181 
L 411.345389 166.820694 
L 411.562372 169.489152 
L 411.6347 167.7957 
L 412.068666 164.049601 
L 412.357977 172.670766 
L 412.502632 170.053616 
L 412.57496 171.952339 
L 412.647287 169.335189 
L 412.864271 168.616762 
L 413.081254 157.378467 
L 413.153581 160.200867 
L 413.370564 161.175873 
L 413.442892 159.123227 
L 413.51522 160.046924 
L 413.587547 159.944289 
L 413.659875 158.096894 
L 413.876858 157.73768 
L 413.949186 159.174535 
L 414.021514 156.86529 
L 414.093841 161.535086 
L 414.166169 158.558743 
L 414.383152 161.278508 
L 414.45548 161.175873 
L 414.527807 160.816659 
L 414.600135 160.970622 
L 414.672463 156.762655 
L 414.889446 160.457446 
L 415.106429 156.967926 
L 415.178757 157.840315 
L 415.39574 156.967926 
L 415.540395 155.223166 
L 415.612723 154.966587 
L 415.68505 153.529733 
L 415.902034 154.350795 
L 416.046689 160.046924 
L 416.119017 155.633707 
L 416.191344 156.762655 
L 416.408327 154.299468 
L 416.552983 147.371755 
L 416.914621 153.273155 
L 416.986949 151.271797 
L 417.203932 160.252175 
L 417.493243 159.892962 
L 417.637898 165.486455 
L 417.710226 161.637722 
L 417.927209 159.636383 
L 417.999537 162.099571 
L 418.071864 157.019253 
L 418.144192 159.225862 
L 418.21652 160.560081 
L 418.433503 159.379805 
L 418.650486 160.765351 
L 418.722814 159.379805 
L 419.012124 159.379805 
L 419.084452 160.867987 
L 419.735401 146.242787 
L 419.952384 145.370417 
L 420.024712 146.088844 
L 420.09704 145.832266 
L 420.241695 139.828231 
L 420.531006 139.776923 
L 420.747989 128.897841 
L 420.964972 127.40966 
L 421.109627 121.559587 
L 421.181955 125.203051 
L 421.254283 118.22401 
L 421.97756 139.366382 
L 422.049887 134.799221 
L 422.194543 159.020591 
L 422.26687 158.661378 
L 422.556181 155.736342 
L 422.773164 141.983532 
L 423.062475 147.115177 
L 423.279458 140.29008 
L 423.496441 137.00583 
L 423.641097 153.016557 
L 423.785752 152.811306 
L 424.002735 152.862614 
L 424.075063 150.96391 
L 424.14739 151.579702 
L 424.219718 150.656005 
L 424.292046 143.830927 
L 424.509029 143.266443 
L 424.581357 146.807271 
L 424.653684 145.370417 
L 424.79834 142.90723 
L 425.015323 146.088844 
L 425.08765 142.701959 
L 425.159978 143.882235 
L 425.304633 159.431113 
L 425.521616 150.348099 
L 425.666272 155.941593 
L 425.7386 152.913921 
L 426.02791 158.199529 
L 426.100238 154.504738 
L 426.172566 154.710009 
L 426.244893 154.196833 
L 426.317221 159.431113 
L 426.534204 156.557404 
L 426.67886 148.705974 
L 426.751187 147.782277 
L 426.823515 151.066546 
L 427.040498 154.094217 
L 427.112826 153.991582 
L 427.185153 154.556066 
L 427.257481 153.734984 
L 427.329809 157.121888 
L 427.546792 157.275831 
L 427.61912 154.299468 
L 427.691447 156.300806 
L 427.836103 154.812644 
L 428.053086 154.504738 
L 428.125413 154.761317 
L 428.55938 157.788988 
L 428.84869 148.192818 
L 429.065673 145.780938 
L 429.138001 149.988885 
L 429.210329 145.934901 
L 429.282656 150.091521 
L 429.354984 149.578364 
L 429.571967 147.577026 
L 430.150589 158.712686 
L 430.222916 157.635045 
L 430.72921 145.062511 
L 430.873866 147.936239 
L 431.163176 149.21915 
L 431.380159 155.12053 
L 431.597143 157.994259 
L 431.814126 171.28522 
L 431.886453 168.514127 
L 432.175764 173.645772 
L 432.248092 179.855057 
L 432.320419 177.956354 
L 432.392747 174.826048 
L 432.682058 179.393208 
L 432.826713 180.060328 
L 433.116024 173.491829 
L 433.188352 174.518161 
L 433.260679 178.982687 
L 433.333007 174.98001 
L 433.405335 175.185261 
L 433.766973 178.982687 
L 433.839301 182.882729 
L 433.911629 177.802411 
L 434.128612 178.315568 
L 434.273267 168.052278 
L 434.417922 172.465496 
L 434.634906 173.081288 
L 434.707233 171.49049 
L 434.851889 179.239265 
L 434.924216 179.085322 
L 435.141199 180.265598 
L 435.358182 173.183923 
L 435.43051 175.85238 
L 435.719821 179.495844 
L 435.792149 187.039368 
L 435.864476 185.03803 
L 435.936804 182.266937 
L 436.153787 181.497202 
L 436.298442 176.108959 
L 436.37077 179.906385 
L 436.443098 176.72477 
L 436.660081 172.876037 
L 436.732409 173.953677 
L 436.804736 171.798376 
L 436.877064 178.26426 
L 436.949392 177.802411 
L 437.238702 179.341901 
L 437.455686 185.397243 
L 437.744996 188.065701 
L 437.817324 186.218306 
L 437.889652 181.445874 
L 437.961979 183.755118 
L 438.178962 184.524853 
L 438.468273 174.056313 
L 438.685256 176.5195 
L 438.902239 174.466834 
L 438.974567 175.595802 
L 439.19155 174.569469 
L 439.408533 186.372249 
L 439.480861 185.499878 
L 439.770172 187.398582 
L 439.914827 194.788143 
L 439.987155 189.60519 
L 440.204138 192.581554 
L 440.276465 188.835436 
L 440.421121 197.046079 
L 440.493449 192.735497 
L 440.710432 187.295946 
L 440.855087 196.584231 
L 440.927415 192.01707 
L 440.999742 195.301319 
L 441.216725 198.99611 
L 441.361381 193.710502 
L 441.506036 184.524853 
L 441.795347 184.268275 
L 441.867675 179.957693 
L 442.01233 190.631523 
L 442.229313 192.427591 
L 442.446296 183.49854 
L 442.518624 182.574842 
L 442.735607 186.064362 
L 442.807935 189.297285 
L 442.880262 185.448551 
L 443.024918 188.476222 
L 443.314228 183.960389 
L 443.386556 179.239265 
L 443.458884 182.677478 
L 443.531212 179.701114 
L 443.748195 176.468172 
L 444.037505 187.090676 
L 444.254488 187.911758 
L 444.399144 183.601175 
L 444.471472 181.907723 
L 444.543799 184.268275 
L 444.760782 187.244638 
L 445.050093 195.301319 
L 445.267076 196.892136 
L 445.411732 192.838132 
L 445.556387 194.839471 
L 445.77337 194.788143 
L 445.918025 196.430288 
L 445.990353 199.86848 
L 446.062681 193.248654 
L 446.279664 192.786805 
L 446.351992 191.863107 
L 446.496647 187.142003 
L 446.785958 190.528888 
L 447.075268 183.036691 
L 447.364579 187.398582 
L 447.581562 178.828744 
L 447.870873 180.624812 
L 448.015528 173.953677 
L 448.087856 176.006324 
L 448.304839 175.749745 
L 448.377167 172.568131 
L 448.521822 177.699776 
L 448.59415 177.648468 
L 448.883461 176.622135 
L 448.955788 174.569469 
L 449.028116 175.390532 
L 449.100444 176.570808 
L 449.462082 172.106282 
L 449.53441 172.619439 
L 449.606738 168.822032 
L 449.823721 164.306179 
L 450.040704 171.439163 
L 450.113031 168.668089 
L 450.330015 167.385178 
L 450.402342 164.562758 
L 450.546998 171.952339 
L 450.619325 175.955016 
L 450.908636 168.975976 
L 450.980964 169.591767 
L 451.053291 170.310214 
L 451.125619 167.179908 
L 451.41493 163.536444 
L 451.559585 164.973299 
L 451.631913 171.644433 
L 451.848896 172.106282 
L 451.921224 171.747068 
L 451.993551 172.15759 
L 452.35519 164.51145 
L 452.427518 165.743034 
L 452.644501 160.046924 
L 452.933811 161.278508 
L 453.006139 161.740357 
L 453.078467 164.973299 
L 453.150794 162.150898 
L 453.367778 164.768028 
L 453.512433 161.02193 
L 453.584761 160.662716 
L 453.946399 162.869325 
L 454.091054 167.7957 
L 454.163382 166.46148 
L 454.380365 165.640418 
L 454.597348 168.924668 
L 454.669676 164.870664 
L 454.886659 170.874679 
L 455.103642 181.343239 
L 455.17597 179.957693 
L 455.392953 186.885425 
L 455.609936 181.548509 
L 455.682264 185.089337 
L 455.899247 187.963066 
L 455.971574 185.705149 
L 456.043902 186.885425 
L 456.188558 190.426253 
L 456.477868 189.39992 
L 456.622524 187.552525 
L 456.694851 188.168336 
L 456.911834 187.295946 
L 457.05649 189.39992 
L 457.128817 189.297285 
L 457.201145 187.398582 
L 457.418128 185.191973 
L 457.490456 182.831421 
L 457.562784 186.680154 
L 457.635111 185.551186 
L 457.707439 187.552525 
L 457.924422 187.911758 
L 458.141405 176.160286 
L 458.213733 177.237927 
L 458.430716 177.083984 
L 458.503044 180.727447 
L 458.647699 175.749745 
L 458.720027 175.85238 
L 458.93701 172.619439 
L 459.009337 173.183923 
L 459.660287 179.957693 
L 459.732614 179.13663 
L 459.949597 178.520838 
L 460.094253 179.13663 
L 460.238908 177.39187 
L 460.455891 179.393208 
L 460.600547 177.443197 
L 460.672874 178.931379 
L 460.745202 178.623473 
L 461.034513 181.548509 
L 461.468479 198.79084 
L 461.685462 194.274987 
L 461.75779 196.532903 
L 461.974773 198.99611 
L 462.0471 195.865803 
L 462.119428 202.023781 
L 462.191756 199.355324 
L 462.264084 197.25135 
L 462.481067 194.42893 
L 462.553394 195.147376 
L 462.625722 193.402616 
L 462.770377 198.585569 
L 463.059688 195.711841 
L 463.132016 195.968439 
L 463.204344 194.531565 
L 463.276671 194.582892 
L 463.565982 194.531565 
L 463.782965 186.936733 
L 464.072276 186.423576 
L 464.289259 180.316906 
L 464.650897 185.03803 
L 464.795553 187.295946 
L 465.012536 187.347274 
L 465.084864 189.861769 
L 465.157191 189.143342 
L 465.301847 192.88944 
L 465.51883 191.093372 
L 465.591157 191.965742 
L 465.663485 191.760491 
L 465.735813 188.476222 
L 465.80814 188.835436 
L 466.025124 190.27231 
L 466.097451 191.657856 
L 466.314434 183.241942 
L 466.531417 184.16564 
L 466.603745 182.164301 
L 466.676073 182.266937 
L 466.7484 181.394566 
L 466.820728 183.703791 
L 467.037711 181.240604 
L 467.182367 183.601175 
L 467.254694 183.755118 
L 467.544005 180.419541 
L 467.760988 184.16564 
L 467.833316 179.803749 
L 468.267282 174.415526 
L 468.773576 184.730124 
L 468.845903 184.268275 
L 469.062887 183.601175 
L 469.135214 181.445874 
L 469.352197 183.29327 
L 469.641508 179.239265 
L 469.713836 179.444536 
L 469.858491 185.2433 
L 470.075474 185.191973 
L 470.147802 186.423576 
L 470.364785 183.703791 
L 470.581768 184.678816 
L 470.654096 183.857754 
L 470.798751 175.801073 
L 470.871079 176.72477 
L 471.088062 178.058989 
L 471.232717 174.672105 
L 471.305045 175.133953 
L 471.377373 174.261564 
L 471.594356 174.466834 
L 471.666683 174.056313 
L 471.883666 171.028641 
L 472.10065 172.15759 
L 472.172977 171.439163 
L 472.317633 165.024607 
L 472.38996 170.002308 
L 472.606943 168.924668 
L 472.751599 169.643095 
L 472.896254 166.872002 
L 473.113237 162.97196 
L 473.257893 166.615424 
L 473.402548 163.844331 
L 473.691859 174.723412 
L 473.764186 172.260225 
L 474.125825 186.628847 
L 474.198153 185.191973 
L 474.27048 183.909061 
L 474.415136 191.401258 
L 474.632119 189.39992 
L 474.776774 183.139326 
L 474.849102 181.702453 
L 474.92143 183.601175 
L 475.138413 182.369572 
L 475.283068 175.339224 
L 475.427723 178.418203 
L 475.717034 178.880052 
L 475.789362 177.39187 
L 476.223328 189.348612 
L 476.295656 186.372249 
L 476.367983 187.963066 
L 476.657294 184.524853 
L 476.729622 185.859092 
L 476.801949 183.601175 
L 476.874277 184.524853 
L 477.163588 197.046079 
L 477.235916 189.194669 
L 477.669882 221.318758 
L 477.742209 210.542311 
L 477.814537 221.010852 
L 477.886865 220.856909 
L 477.959193 218.496357 
L 478.176176 218.598992 
L 478.393159 198.534261 
L 478.465486 210.080462 
L 478.754797 202.690881 
L 478.827125 210.542311 
L 478.899453 203.460636 
L 478.97178 206.026458 
L 479.188763 199.252688 
L 479.261091 199.86848 
L 479.333419 199.714537 
L 479.405746 200.997448 
L 479.695057 200.843486 
L 479.767385 197.764507 
L 479.839713 202.331667 
L 479.91204 201.561932 
L 479.984368 198.226355 
L 480.201351 199.86848 
L 480.273679 205.10276 
L 480.346006 200.484272 
L 480.418334 201.305335 
L 480.707645 195.403955 
L 480.779972 195.198684 
L 480.8523 191.965742 
L 480.996956 204.076428 
L 481.213939 202.28036 
L 481.503249 194.839471 
L 481.720232 195.763168 
L 481.79256 197.507928 
L 481.864888 196.892136 
L 481.937216 197.713199 
L 482.009543 200.586907 
L 482.226526 192.838132 
L 482.298854 194.942106 
L 482.371182 192.01707 
L 482.515837 202.896152 
L 482.805148 198.585569 
L 482.877476 199.66321 
L 482.949803 199.047418 
L 483.022131 194.942106 
L 483.239114 191.247315 
L 483.383769 184.063024 
L 483.456097 187.142003 
L 483.528425 182.472207 
L 483.745408 183.549848 
L 483.817736 184.576181 
L 483.890063 182.061666 
L 483.962391 190.888102 
L 484.034719 188.322279 
L 484.251702 191.863107 
L 484.468685 188.73282 
L 484.541012 188.424914 
L 484.757995 186.885425 
L 484.830323 185.499878 
L 485.047306 189.092034 
L 485.264289 189.810461 
L 485.336617 191.606529 
L 485.408945 189.245977 
L 485.770583 162.356149 
L 485.842911 168.975976 
L 485.915239 161.689049 
L 485.987566 163.279847 
L 486.059894 166.718059 
L 486.421532 172.260225 
L 486.49386 177.340562 
L 486.566188 176.930021 
L 486.855499 172.978652 
L 487.072482 179.547171 
L 487.289465 180.00902 
L 487.361792 181.907723 
L 487.43412 178.674781 
L 487.578775 183.036691 
L 487.795759 180.470869 
L 487.940414 175.595802 
L 488.012742 175.441859 
L 488.085069 179.752442 
L 488.302052 178.212932 
L 488.37438 178.418203 
L 488.446708 175.236589 
L 488.519035 175.64711 
L 488.880674 169.489152 
L 488.953002 171.849704 
L 489.025329 170.823371 
L 489.097657 168.822032 
L 489.386968 165.435148 
L 489.459295 165.845669 
L 489.531623 166.307518 
L 489.603951 164.460123 
L 489.820934 169.74573 
L 489.893262 166.820694 
L 489.965589 167.744392 
L 490.037917 172.414188 
L 490.110245 171.593125 
L 490.399555 176.211594 
L 490.471883 174.723412 
L 490.544211 179.085322 
L 490.616538 176.981349 
L 490.833522 175.493167 
L 490.905849 173.543136 
L 490.978177 174.210256 
L 491.050505 176.057651 
L 491.122832 175.595802 
L 491.412143 179.341901 
L 491.629126 186.474884 
L 491.846109 183.241942 
L 491.918437 184.063024 
L 492.063092 177.186619 
L 492.13542 179.649806 
L 492.352403 178.828744 
L 492.858697 167.487794 
L 492.931025 167.7957 
L 493.07568 172.36286 
L 493.148008 168.975976 
L 493.364991 169.078611 
L 493.509646 166.050939 
L 493.654302 163.741695 
L 493.871285 165.948304 
L 493.943612 165.486455 
L 494.01594 170.104944 
L 494.088268 166.718059 
L 494.160595 169.027303 
L 494.449906 163.998274 
L 494.594561 150.55337 
L 494.666889 150.399426 
L 494.883872 147.833604 
L 494.9562 153.529733 
L 495.028528 151.066546 
L 495.100855 153.632368 
L 495.173183 151.733645 
L 495.390166 150.656005 
L 495.607149 153.529733 
L 495.679477 151.887608 
L 495.89646 152.862614 
L 495.968788 151.528395 
L 496.041115 152.965249 
L 496.185771 145.832266 
L 496.402754 154.145525 
L 496.475081 151.682338 
L 496.619737 153.478406 
L 496.692065 153.170519 
L 496.981375 156.300806 
L 497.053703 159.27717 
L 497.126031 156.352134 
L 497.415341 162.253533 
L 497.559997 161.637722 
L 497.632325 160.14954 
L 497.704652 160.560081 
L 497.993963 163.228539 
L 498.066291 161.278508 
L 498.138618 165.178569 
L 498.427929 164.819356 
L 498.644912 157.070561 
L 498.934223 157.73768 
L 499.006551 151.271797 
L 499.078878 154.094217 
L 499.151206 152.400765 
L 499.223534 147.371755 
L 499.440517 150.707332 
L 499.6575 145.678303 
L 499.729828 145.832266 
L 500.019138 135.107127 
L 500.091466 127.101754 
L 500.163794 128.641243 
L 500.236121 129.975482 
L 500.453104 123.868812 
L 500.525432 126.691232 
L 500.742415 142.03484 
L 501.104054 130.796544 
L 501.176381 132.079456 
L 501.248709 130.078117 
L 501.465692 130.950488 
L 501.682675 120.122714 
L 501.755003 120.379292 
L 502.044314 120.225349 
L 502.116641 115.812131 
L 502.188969 121.816166 
L 502.261297 120.225349 
L 502.767591 143.523021 
L 502.984574 136.851887 
L 503.201557 147.217812 
L 503.273884 144.65199 
L 503.490867 153.478406 
L 503.707851 141.36772 
L 503.780178 148.500723 
L 503.997161 148.962572 
L 504.069489 146.755963 
L 504.141817 146.909906 
L 504.214144 149.116515 
L 504.286472 149.065188 
L 504.503455 149.424421 
L 504.648111 163.844331 
L 504.720438 162.664055 
L 504.792766 155.838977 
L 505.009749 157.121888 
L 505.154404 155.890285 
L 505.226732 151.836281 
L 505.516043 151.63101 
L 505.588371 151.169161 
L 505.660698 156.711347 
L 505.733026 153.581041 
L 505.805354 156.557404 
L 506.094664 157.019253 
L 506.311647 154.607374 
L 506.528631 154.658682 
L 506.600958 155.325801 
L 506.673286 155.017895 
L 506.745614 154.299468 
L 506.817941 151.117854 
L 507.034924 154.812644 
L 507.17958 152.708671 
L 507.251907 152.913921 
L 507.324235 157.840315 
L 507.541218 159.123227 
L 507.613546 161.483779 
L 507.613546 161.483779 
" style="fill:none;stroke:#4c72b0;stroke-linecap:round;stroke-width:1.5;"/>
   </g>
   <g id="patch_3">
    <path d="M 48 323.14 
L 48 7.2 
" style="fill:none;stroke:#ffffff;stroke-linecap:square;stroke-linejoin:miter;stroke-width:1.25;"/>
   </g>
   <g id="patch_4">
    <path d="M 48 323.14 
L 529.499905 323.14 
" style="fill:none;stroke:#ffffff;stroke-linecap:square;stroke-linejoin:miter;stroke-width:1.25;"/>
   </g>
  </g>
 </g>
 <defs>
  <clipPath id="p4ddbeb3906">
   <rect height="315.94" width="481.499905" x="48" y="7.2"/>
  </clipPath>
 </defs>
</svg>
