<?xml version="1.0" encoding="utf-8" standalone="no"?>
<!DOCTYPE svg PUBLIC "-//W3C//DTD SVG 1.1//EN"
  "http://www.w3.org/Graphics/SVG/1.1/DTD/svg11.dtd">
<svg height="349.12125pt" version="1.1" viewBox="0 0 543.372273 349.12125" width="543.372273pt" xmlns="http://www.w3.org/2000/svg" xmlns:xlink="http://www.w3.org/1999/xlink">
 <metadata>
  <rdf:RDF xmlns:cc="http://creativecommons.org/ns#" xmlns:dc="http://purl.org/dc/elements/1.1/" xmlns:rdf="http://www.w3.org/1999/02/22-rdf-syntax-ns#">
   <cc:Work>
    <dc:type rdf:resource="http://purl.org/dc/dcmitype/StillImage"/>
    <dc:date>2021-05-05T07:08:25.795999</dc:date>
    <dc:format>image/svg+xml</dc:format>
    <dc:creator>
     <cc:Agent>
      <dc:title>Matplotlib v3.4.1, https://matplotlib.org/</dc:title>
     </cc:Agent>
    </dc:creator>
   </cc:Work>
  </rdf:RDF>
 </metadata>
 <defs>
  <style type="text/css">*{stroke-linecap:butt;stroke-linejoin:round;}</style>
 </defs>
 <g id="figure_1">
  <g id="patch_1">
   <path d="M 0 349.12125 
L 543.372273 349.12125 
L 543.372273 0 
L 0 0 
z
" style="fill:#ffffff;"/>
  </g>
  <g id="axes_1">
   <g id="patch_2">
    <path d="M 48 323.14 
L 531.629606 323.14 
L 531.629606 7.2 
L 48 7.2 
z
" style="fill:#eaeaf2;"/>
   </g>
   <g id="matplotlib.axis_1">
    <g id="xtick_1">
     <g id="line2d_1">
      <path clip-path="url(#p6fa5df9a7c)" d="M 56.510336 323.14 
L 56.510336 7.2 
" style="fill:none;stroke:#ffffff;stroke-linecap:round;"/>
     </g>
     <g id="text_1">
      <!-- 2002 -->
      <g style="fill:#262626;" transform="translate(45.510336 340.900312)scale(0.11 -0.11)">
       <defs>
        <path d="M 2900 325 
L 250 325 
Q 441 1553 1528 2453 
Q 1963 2806 2116 3034 
Q 2316 3319 2316 3706 
Q 2316 4022 2175 4219 
Q 1994 4494 1631 4494 
Q 894 4494 825 3406 
L 322 3406 
Q 359 4056 628 4428 
Q 981 4928 1644 4928 
Q 2106 4928 2425 4659 
Q 2828 4313 2828 3713 
Q 2828 2875 1881 2156 
Q 1072 1541 909 800 
L 2900 800 
L 2900 325 
z
" id="IPAGothic-32" transform="scale(0.015625)"/>
        <path d="M 1600 4934 
Q 2844 4934 2844 2566 
Q 2844 197 1600 197 
Q 359 197 359 2566 
Q 359 4934 1600 4934 
z
M 975 1453 
L 2119 4063 
Q 1938 4494 1594 4494 
Q 884 4494 884 2566 
Q 884 1909 975 1453 
z
M 1081 1075 
Q 1256 638 1600 638 
Q 2319 638 2319 2572 
Q 2319 3213 2228 3675 
L 1081 1075 
z
" id="IPAGothic-30" transform="scale(0.015625)"/>
       </defs>
       <use xlink:href="#IPAGothic-32"/>
       <use x="50" xlink:href="#IPAGothic-30"/>
       <use x="100" xlink:href="#IPAGothic-30"/>
       <use x="150" xlink:href="#IPAGothic-32"/>
      </g>
     </g>
    </g>
    <g id="xtick_2">
     <g id="line2d_2">
      <path clip-path="url(#p6fa5df9a7c)" d="M 103.344452 323.14 
L 103.344452 7.2 
" style="fill:none;stroke:#ffffff;stroke-linecap:round;"/>
     </g>
     <g id="text_2">
      <!-- 2004 -->
      <g style="fill:#262626;" transform="translate(92.344452 340.900312)scale(0.11 -0.11)">
       <defs>
        <path d="M 1966 4806 
L 2509 4806 
L 2509 1869 
L 3041 1869 
L 3041 1434 
L 2509 1434 
L 2509 325 
L 2034 325 
L 2034 1434 
L 159 1434 
L 159 1881 
L 1966 4806 
z
M 2034 4109 
L 641 1869 
L 2034 1869 
L 2034 4109 
z
" id="IPAGothic-34" transform="scale(0.015625)"/>
       </defs>
       <use xlink:href="#IPAGothic-32"/>
       <use x="50" xlink:href="#IPAGothic-30"/>
       <use x="100" xlink:href="#IPAGothic-30"/>
       <use x="150" xlink:href="#IPAGothic-34"/>
      </g>
     </g>
    </g>
    <g id="xtick_3">
     <g id="line2d_3">
      <path clip-path="url(#p6fa5df9a7c)" d="M 150.242723 323.14 
L 150.242723 7.2 
" style="fill:none;stroke:#ffffff;stroke-linecap:round;"/>
     </g>
     <g id="text_3">
      <!-- 2006 -->
      <g style="fill:#262626;" transform="translate(139.242723 340.900312)scale(0.11 -0.11)">
       <defs>
        <path d="M 2322 3809 
Q 2225 4488 1713 4488 
Q 1269 4488 1028 3950 
Q 803 3447 794 2588 
Q 1159 3119 1725 3119 
Q 2194 3119 2519 2772 
Q 2903 2369 2903 1709 
Q 2903 1159 2641 750 
Q 2284 200 1638 200 
Q 1050 200 697 738 
Q 319 1328 319 2375 
Q 319 3488 650 4172 
Q 1028 4934 1706 4934 
Q 2634 4934 2847 3809 
L 2322 3809 
z
M 1644 2703 
Q 1272 2703 1047 2363 
Q 875 2094 875 1691 
Q 875 1328 997 1075 
Q 1209 641 1650 641 
Q 2003 641 2219 959 
Q 2409 1241 2409 1697 
Q 2409 2113 2244 2375 
Q 2041 2703 1644 2703 
z
" id="IPAGothic-36" transform="scale(0.015625)"/>
       </defs>
       <use xlink:href="#IPAGothic-32"/>
       <use x="50" xlink:href="#IPAGothic-30"/>
       <use x="100" xlink:href="#IPAGothic-30"/>
       <use x="150" xlink:href="#IPAGothic-36"/>
      </g>
     </g>
    </g>
    <g id="xtick_4">
     <g id="line2d_4">
      <path clip-path="url(#p6fa5df9a7c)" d="M 197.076839 323.14 
L 197.076839 7.2 
" style="fill:none;stroke:#ffffff;stroke-linecap:round;"/>
     </g>
     <g id="text_4">
      <!-- 2008 -->
      <g style="fill:#262626;" transform="translate(186.076839 340.900312)scale(0.11 -0.11)">
       <defs>
        <path d="M 1050 2741 
Q 403 3056 403 3750 
Q 403 4084 563 4359 
Q 900 4934 1600 4934 
Q 1950 4934 2253 4750 
Q 2797 4416 2797 3750 
Q 2797 3056 2150 2741 
Q 2978 2422 2978 1541 
Q 2978 1038 2697 678 
Q 2322 197 1600 197 
Q 988 197 616 550 
Q 225 922 225 1541 
Q 225 2422 1050 2741 
z
M 1600 4525 
Q 1278 4525 1075 4294 
Q 891 4078 891 3756 
Q 891 3544 969 3372 
Q 1159 2956 1606 2956 
Q 1863 2956 2041 3116 
Q 2309 3347 2309 3756 
Q 2309 4156 2041 4378 
Q 1856 4525 1600 4525 
z
M 1594 2497 
Q 1178 2497 931 2191 
Q 725 1925 725 1541 
Q 725 1172 925 925 
Q 1172 619 1600 619 
Q 2031 619 2281 925 
Q 2478 1172 2478 1541 
Q 2478 2022 2184 2278 
Q 1947 2497 1594 2497 
z
" id="IPAGothic-38" transform="scale(0.015625)"/>
       </defs>
       <use xlink:href="#IPAGothic-32"/>
       <use x="50" xlink:href="#IPAGothic-30"/>
       <use x="100" xlink:href="#IPAGothic-30"/>
       <use x="150" xlink:href="#IPAGothic-38"/>
      </g>
     </g>
    </g>
    <g id="xtick_5">
     <g id="line2d_5">
      <path clip-path="url(#p6fa5df9a7c)" d="M 243.975111 323.14 
L 243.975111 7.2 
" style="fill:none;stroke:#ffffff;stroke-linecap:round;"/>
     </g>
     <g id="text_5">
      <!-- 2010 -->
      <g style="fill:#262626;" transform="translate(232.975111 340.900312)scale(0.11 -0.11)">
       <defs>
        <path d="M 1428 325 
L 1428 4153 
Q 1188 3991 756 3809 
L 756 4325 
Q 1256 4509 1563 4806 
L 1953 4806 
L 1953 325 
L 1428 325 
z
" id="IPAGothic-31" transform="scale(0.015625)"/>
       </defs>
       <use xlink:href="#IPAGothic-32"/>
       <use x="50" xlink:href="#IPAGothic-30"/>
       <use x="100" xlink:href="#IPAGothic-31"/>
       <use x="150" xlink:href="#IPAGothic-30"/>
      </g>
     </g>
    </g>
    <g id="xtick_6">
     <g id="line2d_6">
      <path clip-path="url(#p6fa5df9a7c)" d="M 290.809226 323.14 
L 290.809226 7.2 
" style="fill:none;stroke:#ffffff;stroke-linecap:round;"/>
     </g>
     <g id="text_6">
      <!-- 2012 -->
      <g style="fill:#262626;" transform="translate(279.809226 340.900312)scale(0.11 -0.11)">
       <use xlink:href="#IPAGothic-32"/>
       <use x="50" xlink:href="#IPAGothic-30"/>
       <use x="100" xlink:href="#IPAGothic-31"/>
       <use x="150" xlink:href="#IPAGothic-32"/>
      </g>
     </g>
    </g>
    <g id="xtick_7">
     <g id="line2d_7">
      <path clip-path="url(#p6fa5df9a7c)" d="M 337.707498 323.14 
L 337.707498 7.2 
" style="fill:none;stroke:#ffffff;stroke-linecap:round;"/>
     </g>
     <g id="text_7">
      <!-- 2014 -->
      <g style="fill:#262626;" transform="translate(326.707498 340.900312)scale(0.11 -0.11)">
       <use xlink:href="#IPAGothic-32"/>
       <use x="50" xlink:href="#IPAGothic-30"/>
       <use x="100" xlink:href="#IPAGothic-31"/>
       <use x="150" xlink:href="#IPAGothic-34"/>
      </g>
     </g>
    </g>
    <g id="xtick_8">
     <g id="line2d_8">
      <path clip-path="url(#p6fa5df9a7c)" d="M 384.541613 323.14 
L 384.541613 7.2 
" style="fill:none;stroke:#ffffff;stroke-linecap:round;"/>
     </g>
     <g id="text_8">
      <!-- 2016 -->
      <g style="fill:#262626;" transform="translate(373.541613 340.900312)scale(0.11 -0.11)">
       <use xlink:href="#IPAGothic-32"/>
       <use x="50" xlink:href="#IPAGothic-30"/>
       <use x="100" xlink:href="#IPAGothic-31"/>
       <use x="150" xlink:href="#IPAGothic-36"/>
      </g>
     </g>
    </g>
    <g id="xtick_9">
     <g id="line2d_9">
      <path clip-path="url(#p6fa5df9a7c)" d="M 431.439885 323.14 
L 431.439885 7.2 
" style="fill:none;stroke:#ffffff;stroke-linecap:round;"/>
     </g>
     <g id="text_9">
      <!-- 2018 -->
      <g style="fill:#262626;" transform="translate(420.439885 340.900312)scale(0.11 -0.11)">
       <use xlink:href="#IPAGothic-32"/>
       <use x="50" xlink:href="#IPAGothic-30"/>
       <use x="100" xlink:href="#IPAGothic-31"/>
       <use x="150" xlink:href="#IPAGothic-38"/>
      </g>
     </g>
    </g>
    <g id="xtick_10">
     <g id="line2d_10">
      <path clip-path="url(#p6fa5df9a7c)" d="M 478.274001 323.14 
L 478.274001 7.2 
" style="fill:none;stroke:#ffffff;stroke-linecap:round;"/>
     </g>
     <g id="text_10">
      <!-- 2020 -->
      <g style="fill:#262626;" transform="translate(467.274001 340.900312)scale(0.11 -0.11)">
       <use xlink:href="#IPAGothic-32"/>
       <use x="50" xlink:href="#IPAGothic-30"/>
       <use x="100" xlink:href="#IPAGothic-32"/>
       <use x="150" xlink:href="#IPAGothic-30"/>
      </g>
     </g>
    </g>
    <g id="xtick_11">
     <g id="line2d_11">
      <path clip-path="url(#p6fa5df9a7c)" d="M 525.172273 323.14 
L 525.172273 7.2 
" style="fill:none;stroke:#ffffff;stroke-linecap:round;"/>
     </g>
     <g id="text_11">
      <!-- 2022 -->
      <g style="fill:#262626;" transform="translate(514.172273 340.900312)scale(0.11 -0.11)">
       <use xlink:href="#IPAGothic-32"/>
       <use x="50" xlink:href="#IPAGothic-30"/>
       <use x="100" xlink:href="#IPAGothic-32"/>
       <use x="150" xlink:href="#IPAGothic-32"/>
      </g>
     </g>
    </g>
   </g>
   <g id="matplotlib.axis_2">
    <g id="ytick_1">
     <g id="line2d_12">
      <path clip-path="url(#p6fa5df9a7c)" d="M 48 294.375233 
L 531.629606 294.375233 
" style="fill:none;stroke:#ffffff;stroke-linecap:round;"/>
     </g>
     <g id="text_12">
      <!-- 1.0 -->
      <g style="fill:#262626;" transform="translate(22 298.505389)scale(0.11 -0.11)">
       <defs>
        <path d="M 588 831 
L 1444 831 
L 1444 -25 
L 588 -25 
L 588 831 
z
" id="IPAGothic-2e" transform="scale(0.015625)"/>
       </defs>
       <use xlink:href="#IPAGothic-31"/>
       <use x="50" xlink:href="#IPAGothic-2e"/>
       <use x="100" xlink:href="#IPAGothic-30"/>
      </g>
     </g>
    </g>
    <g id="ytick_2">
     <g id="line2d_13">
      <path clip-path="url(#p6fa5df9a7c)" d="M 48 240.347561 
L 531.629606 240.347561 
" style="fill:none;stroke:#ffffff;stroke-linecap:round;"/>
     </g>
     <g id="text_13">
      <!-- 1.1 -->
      <g style="fill:#262626;" transform="translate(22 244.477717)scale(0.11 -0.11)">
       <use xlink:href="#IPAGothic-31"/>
       <use x="50" xlink:href="#IPAGothic-2e"/>
       <use x="100" xlink:href="#IPAGothic-31"/>
      </g>
     </g>
    </g>
    <g id="ytick_3">
     <g id="line2d_14">
      <path clip-path="url(#p6fa5df9a7c)" d="M 48 186.319889 
L 531.629606 186.319889 
" style="fill:none;stroke:#ffffff;stroke-linecap:round;"/>
     </g>
     <g id="text_14">
      <!-- 1.2 -->
      <g style="fill:#262626;" transform="translate(22 190.450045)scale(0.11 -0.11)">
       <use xlink:href="#IPAGothic-31"/>
       <use x="50" xlink:href="#IPAGothic-2e"/>
       <use x="100" xlink:href="#IPAGothic-32"/>
      </g>
     </g>
    </g>
    <g id="ytick_4">
     <g id="line2d_15">
      <path clip-path="url(#p6fa5df9a7c)" d="M 48 132.292216 
L 531.629606 132.292216 
" style="fill:none;stroke:#ffffff;stroke-linecap:round;"/>
     </g>
     <g id="text_15">
      <!-- 1.3 -->
      <g style="fill:#262626;" transform="translate(22 136.422373)scale(0.11 -0.11)">
       <defs>
        <path d="M 1113 2931 
L 1431 2931 
Q 1841 2931 1994 3047 
Q 2281 3269 2281 3713 
Q 2281 4500 1566 4500 
Q 972 4500 838 3828 
L 331 3828 
Q 400 4250 625 4525 
Q 969 4934 1566 4934 
Q 2066 4934 2391 4647 
Q 2775 4309 2775 3731 
Q 2775 2953 2078 2713 
Q 2919 2388 2919 1528 
Q 2919 978 2606 625 
Q 2231 197 1575 197 
Q 959 197 594 619 
Q 325 928 269 1472 
L 794 1472 
Q 859 638 1575 638 
Q 1906 638 2131 825 
Q 2413 1066 2413 1528 
Q 2413 2522 1431 2522 
L 1113 2522 
L 1113 2931 
z
" id="IPAGothic-33" transform="scale(0.015625)"/>
       </defs>
       <use xlink:href="#IPAGothic-31"/>
       <use x="50" xlink:href="#IPAGothic-2e"/>
       <use x="100" xlink:href="#IPAGothic-33"/>
      </g>
     </g>
    </g>
    <g id="ytick_5">
     <g id="line2d_16">
      <path clip-path="url(#p6fa5df9a7c)" d="M 48 78.264544 
L 531.629606 78.264544 
" style="fill:none;stroke:#ffffff;stroke-linecap:round;"/>
     </g>
     <g id="text_16">
      <!-- 1.4 -->
      <g style="fill:#262626;" transform="translate(22 82.3947)scale(0.11 -0.11)">
       <use xlink:href="#IPAGothic-31"/>
       <use x="50" xlink:href="#IPAGothic-2e"/>
       <use x="100" xlink:href="#IPAGothic-34"/>
      </g>
     </g>
    </g>
    <g id="ytick_6">
     <g id="line2d_17">
      <path clip-path="url(#p6fa5df9a7c)" d="M 48 24.236872 
L 531.629606 24.236872 
" style="fill:none;stroke:#ffffff;stroke-linecap:round;"/>
     </g>
     <g id="text_17">
      <!-- 1.5 -->
      <g style="fill:#262626;" transform="translate(22 28.367028)scale(0.11 -0.11)">
       <defs>
        <path d="M 566 4806 
L 2691 4806 
L 2691 4359 
L 1013 4359 
L 944 2888 
Q 1259 3250 1738 3250 
Q 2250 3250 2588 2816 
Q 2909 2397 2909 1772 
Q 2909 1238 2697 844 
Q 2341 197 1591 197 
Q 538 197 328 1375 
L 841 1375 
Q 947 644 1588 644 
Q 2000 644 2228 997 
Q 2422 1294 2422 1766 
Q 2422 2184 2259 2456 
Q 2059 2822 1653 2822 
Q 1156 2822 859 2225 
L 456 2309 
L 566 4806 
z
" id="IPAGothic-35" transform="scale(0.015625)"/>
       </defs>
       <use xlink:href="#IPAGothic-31"/>
       <use x="50" xlink:href="#IPAGothic-2e"/>
       <use x="100" xlink:href="#IPAGothic-35"/>
      </g>
     </g>
    </g>
    <g id="text_18">
     <!-- 倍率 -->
     <g style="fill:#262626;" transform="translate(16.88625 177.17)rotate(-90)scale(0.12 -0.12)">
      <defs>
       <path d="M 1572 3784 
L 1572 -447 
L 1119 -447 
L 1119 2825 
Q 863 2369 550 1947 
L 300 2338 
Q 1184 3566 1572 5263 
L 2013 5134 
Q 1816 4394 1572 3784 
z
M 4128 4409 
L 5766 4409 
L 5766 4025 
L 5178 4025 
L 5166 3988 
Q 4991 3394 4756 2881 
L 6053 2881 
L 6053 2497 
L 1869 2497 
L 1869 2881 
L 3072 2881 
Q 2903 3528 2669 4025 
L 2144 4025 
L 2144 4409 
L 3681 4409 
L 3681 5313 
L 4128 5313 
L 4128 4409 
z
M 3156 4025 
Q 3363 3553 3559 2881 
L 4281 2881 
Q 4506 3381 4684 4025 
L 3156 4025 
z
M 5425 1863 
L 5425 -422 
L 4978 -422 
L 4978 -103 
L 2903 -103 
L 2903 -447 
L 2450 -447 
L 2450 1863 
L 5425 1863 
z
M 2903 1478 
L 2903 281 
L 4978 281 
L 4978 1478 
L 2903 1478 
z
" id="IPAGothic-500d" transform="scale(0.015625)"/>
       <path d="M 3022 2847 
Q 3334 3231 3681 3744 
L 4053 3525 
Q 3503 2766 2919 2181 
L 3266 2200 
Q 3575 2209 3822 2234 
Q 3728 2406 3572 2616 
L 3909 2772 
Q 4241 2350 4538 1766 
L 4153 1547 
Q 4078 1756 3994 1913 
L 3853 1894 
Q 3706 1875 3413 1850 
L 3413 1228 
L 6078 1228 
L 6078 819 
L 3413 819 
L 3413 -447 
L 2938 -447 
L 2938 819 
L 319 819 
L 319 1228 
L 2938 1228 
L 2938 1803 
L 2881 1797 
Q 2303 1759 2028 1747 
L 1900 2163 
Q 2316 2163 2413 2169 
Q 2519 2269 2772 2553 
Q 2344 3028 1913 3347 
L 2181 3653 
L 2444 3425 
Q 2681 3744 2869 4128 
L 544 4128 
L 544 4525 
L 2938 4525 
L 2938 5313 
L 3413 5313 
L 3413 4525 
L 5847 4525 
L 5847 4128 
L 2969 4128 
L 3278 3981 
Q 2988 3509 2694 3188 
Q 2850 3041 3022 2847 
z
M 1497 2822 
Q 1125 3263 691 3566 
L 997 3847 
Q 1406 3588 1828 3156 
L 1497 2822 
z
M 4216 3078 
Q 4791 3478 5144 3897 
L 5534 3616 
Q 5075 3178 4491 2803 
L 4216 3078 
z
M 5553 1631 
Q 4994 2109 4369 2444 
L 4659 2741 
Q 5353 2381 5894 1984 
L 5553 1631 
z
M 538 1925 
Q 1306 2297 1881 2803 
L 2072 2456 
Q 1619 2034 813 1528 
L 538 1925 
z
" id="IPAGothic-7387" transform="scale(0.015625)"/>
      </defs>
      <use xlink:href="#IPAGothic-500d"/>
      <use x="100" xlink:href="#IPAGothic-7387"/>
     </g>
    </g>
   </g>
   <g id="line2d_18">
    <path clip-path="url(#p6fa5df9a7c)" d="M 69.983164 294.375233 
L 70.175633 282.944628 
L 70.368102 280.169585 
L 70.432258 284.662533 
L 70.496415 282.944628 
L 70.560571 284.860743 
L 70.624727 280.764215 
L 70.817196 279.640991 
L 70.881352 275.21413 
L 70.945509 276.865948 
L 71.073821 283.737519 
L 71.26629 283.208925 
L 71.330447 278.121296 
L 71.394603 279.508868 
L 71.458759 282.482121 
L 71.522916 279.971375 
L 71.715385 279.707078 
L 71.779541 281.358896 
L 71.97201 275.676637 
L 72.356948 269.465784 
L 72.421104 273.826609 
L 72.613573 274.619449 
L 72.677729 272.637297 
L 72.741886 274.685536 
L 72.870198 269.135451 
L 73.062667 268.93719 
L 73.255136 263.585315 
L 73.319293 263.783525 
L 73.575918 258.497736 
L 73.704231 263.254931 
L 73.768387 259.488787 
L 73.960856 256.119114 
L 74.025012 262.858511 
L 74.089169 260.942395 
L 74.153325 261.272779 
L 74.40995 258.43165 
L 74.474107 259.488787 
L 74.538263 256.581621 
L 74.666575 263.981735 
L 74.859044 264.444242 
L 75.051513 276.998072 
L 75.11567 275.346253 
L 75.372295 279.905288 
L 75.500608 276.073057 
L 75.564764 273.628348 
L 75.757233 272.967631 
L 75.949702 265.038923 
L 76.013858 270.390798 
L 76.270484 273.694435 
L 76.33464 271.844407 
L 76.462953 264.972836 
L 76.655421 263.519228 
L 76.84789 271.77832 
L 76.912047 271.381899 
L 77.168672 270.390798 
L 77.361141 277.394542 
L 77.55361 278.25347 
L 77.617766 273.231928 
L 77.681923 279.640991 
L 77.810235 278.8481 
L 78.066861 282.548208 
L 78.25933 276.865948 
L 78.644267 272.901594 
L 78.708424 274.949833 
L 78.900893 277.262369 
L 79.029205 272.505124 
L 79.157518 269.597958 
L 79.349987 269.928291 
L 79.606612 263.585315 
L 79.799081 262.528177 
L 79.99155 274.421239 
L 80.055707 273.496225 
L 80.248176 274.883746 
L 80.376488 271.77832 
L 80.440645 278.583803 
L 80.504801 277.989173 
L 80.69727 276.998072 
L 80.953895 272.306914 
L 81.21052 270.390798 
L 81.274677 268.078263 
L 81.338833 269.267574 
L 81.402989 268.14435 
L 81.595458 269.862204 
L 81.659615 269.796168 
L 81.723771 272.240827 
L 81.852084 269.796168 
L 82.044553 272.505124 
L 82.108709 270.655095 
L 82.172865 272.835508 
L 82.301178 270.390798 
L 82.493647 271.447986 
L 82.557803 270.919392 
L 82.686116 266.426444 
L 82.750272 268.408647 
L 83.006897 268.408647 
L 83.13521 264.312119 
L 83.199366 266.426444 
L 83.584304 261.140605 
L 83.648461 259.224541 
L 83.84093 259.620961 
L 83.969242 257.440549 
L 84.033399 258.62986 
L 84.097555 256.713744 
L 84.290024 254.797629 
L 84.35418 254.929803 
L 84.418337 256.251237 
L 84.482493 262.660301 
L 84.546649 260.810272 
L 84.803274 268.408647 
L 84.995743 275.874847 
L 85.380681 268.012176 
L 85.637307 262.990684 
L 85.893932 269.399697 
L 86.086401 270.721182 
L 86.214714 266.690741 
L 86.343026 269.663994 
L 86.535495 271.249776 
L 86.663808 268.012176 
L 86.727964 268.73898 
L 87.112902 269.928291 
L 87.241215 265.69964 
L 87.433684 266.294321 
L 87.49784 267.285372 
L 87.561996 263.849612 
L 87.626153 265.633553 
L 87.690309 268.73898 
L 87.882778 266.955038 
L 88.139403 257.969142 
L 88.396029 254.995839 
L 88.588497 249.313631 
L 88.780966 249.445754 
L 88.845123 245.547436 
L 88.909279 247.397515 
L 88.973435 244.622422 
L 89.037592 245.28319 
L 89.294217 247.463552 
L 89.358373 247.331428 
L 89.42253 244.226002 
L 89.486686 244.556386 
L 89.679155 248.454653 
L 89.807468 242.83848 
L 89.93578 245.613523 
L 90.128249 242.375973 
L 90.320718 238.015149 
L 90.384875 235.834787 
L 90.577343 238.940163 
L 90.705656 245.745697 
L 90.769812 244.886719 
L 90.833969 245.811733 
L 91.026438 243.565285 
L 91.090594 240.790242 
L 91.283063 251.626166 
L 91.475532 250.238645 
L 91.668001 256.18515 
L 91.924626 259.290577 
L 91.988783 259.092367 
L 92.181252 254.665506 
L 92.373721 258.035229 
L 92.437877 265.89785 
L 92.502033 265.69964 
L 92.630346 268.34256 
L 92.822815 275.742724 
L 92.951127 272.042617 
L 93.07944 274.949833 
L 93.271909 279.046361 
L 93.336065 284.464323 
L 93.400222 280.037411 
L 93.528534 286.248264 
L 93.721003 282.217824 
L 93.78516 285.917881 
L 93.913472 278.319557 
L 93.977629 278.385593 
L 94.234254 281.68923 
L 94.29841 287.833996 
L 94.362567 286.710772 
L 94.426723 286.908982 
L 94.619192 285.257163 
L 94.683348 280.896389 
L 94.747504 283.539258 
L 94.811661 285.587547 
L 94.875817 285.191077 
L 95.068286 287.569699 
L 95.260755 283.076751 
L 95.581537 291.864437 
L 95.645693 290.476915 
L 95.774006 280.037411 
L 95.966475 282.614244 
L 96.2231 275.940934 
L 96.415569 274.949833 
L 96.479725 275.41234 
L 96.543881 272.306914 
L 96.608038 272.373 
L 96.672194 272.373 
L 96.864663 274.817659 
L 97.057132 269.862204 
L 97.121288 265.567517 
L 97.313757 268.012176 
L 97.377914 262.528177 
L 97.44207 264.840713 
L 97.506226 266.888951 
L 97.570383 274.751623 
L 97.762852 273.099805 
L 97.827008 276.337354 
L 97.891164 275.346253 
L 97.955321 277.130245 
L 98.019477 275.478427 
L 98.211946 276.337354 
L 98.404415 283.605345 
L 98.468571 280.632092 
L 98.66104 280.235622 
L 98.725196 279.244571 
L 98.917665 273.099805 
L 99.110134 274.619449 
L 99.174291 271.97653 
L 99.302603 277.658789 
L 99.36676 275.676637 
L 99.559229 279.640991 
L 99.623385 277.658789 
L 99.815854 283.407135 
L 100.008323 283.605345 
L 100.136636 280.962426 
L 100.264948 273.099805 
L 100.457417 272.439087 
L 100.521573 270.126501 
L 100.58573 273.958732 
L 100.649886 270.456885 
L 100.714042 270.721182 
L 100.906511 273.694435 
L 100.970668 272.306914 
L 101.355606 282.283911 
L 101.483918 282.151737 
L 101.548075 280.962426 
L 101.612231 274.223029 
L 101.8047 276.337354 
L 101.868856 279.112397 
L 101.933013 277.724876 
L 102.061325 274.355152 
L 102.253794 274.619449 
L 102.510419 270.060465 
L 102.702888 271.58011 
L 102.767045 275.41234 
L 102.959514 270.126501 
L 103.601077 279.971375 
L 103.857702 267.946139 
L 104.050171 267.946139 
L 104.24264 263.453192 
L 104.306796 265.831814 
L 104.563422 266.822865 
L 104.691734 262.726387 
L 104.755891 267.021075 
L 104.94836 269.399697 
L 105.012516 267.153248 
L 105.140829 271.910493 
L 105.204985 269.333661 
L 105.397454 271.58011 
L 105.46161 269.399697 
L 105.525767 270.324711 
L 105.589923 272.439087 
L 105.654079 269.003277 
L 105.846548 267.681842 
L 105.910705 269.267574 
L 106.103174 265.171046 
L 106.359799 265.171046 
L 106.423955 265.30322 
L 106.488111 264.906749 
L 106.552268 266.822865 
L 107.001362 261.933496 
L 107.193831 262.990684 
L 107.322144 266.822865 
L 107.3863 265.038923 
L 107.450456 257.969142 
L 107.835394 252.55118 
L 107.899551 254.335122 
L 108.09202 254.004789 
L 108.156176 251.163659 
L 108.220332 251.560079 
L 108.348645 254.202999 
L 108.60527 251.163659 
L 108.669426 251.560079 
L 108.733583 252.35297 
L 108.797739 256.053027 
L 108.990208 258.497736 
L 109.054364 258.299476 
L 109.118521 256.18515 
L 109.182677 259.290577 
L 109.246833 269.928291 
L 109.439302 272.703334 
L 109.567615 270.655095 
L 109.631771 271.712283 
L 109.888397 273.496225 
L 110.080866 279.046361 
L 110.145022 276.998072 
L 110.337491 278.45168 
L 110.401647 282.482121 
L 110.465803 281.358896 
L 110.52996 279.178484 
L 110.594116 281.49102 
L 110.786585 281.557106 
L 110.850741 279.376694 
L 110.979054 284.266062 
L 111.04321 282.944628 
L 111.299836 286.512561 
L 111.428148 288.296503 
L 111.492305 295.03595 
L 111.684774 295.168073 
L 111.74893 294.110936 
L 111.877243 296.555595 
L 112.133868 290.344792 
L 112.26218 293.912726 
L 112.326337 291.20372 
L 112.390493 292.393031 
L 112.647118 291.79835 
L 112.775431 286.116141 
L 112.839587 287.635786 
L 113.160369 293.119835 
L 113.224525 292.260907 
L 113.288682 294.507356 
L 113.481151 293.714465 
L 113.545307 293.846639 
L 113.609463 295.43237 
L 113.67362 294.83774 
L 113.930245 297.480609 
L 113.994401 290.344792 
L 114.058558 291.534103 
L 114.122714 290.014408 
L 114.18687 291.137633 
L 114.379339 290.278705 
L 114.443495 291.005509 
L 114.635964 287.833996 
L 114.828433 291.864437 
L 115.085059 281.953527 
L 115.341684 283.010715 
L 115.726622 281.094599 
L 115.919091 282.812505 
L 115.983247 277.460579 
L 116.175716 277.592752 
L 116.304029 282.416034 
L 116.432341 280.433882 
L 116.62481 282.349997 
L 116.688967 286.248264 
L 116.753123 285.389337 
L 116.817279 284.860743 
L 116.881436 281.094599 
L 117.073905 282.349997 
L 117.266374 279.707078 
L 117.33053 272.108703 
L 117.522999 273.958732 
L 117.587155 276.271268 
L 117.779624 272.637297 
L 117.972093 273.231928 
L 118.03625 270.589008 
L 118.100406 272.439087 
L 118.164562 271.051516 
L 118.421187 274.090906 
L 118.5495 273.496225 
L 118.613656 271.051516 
L 118.677813 271.712283 
L 118.870282 269.730081 
L 118.934438 267.285372 
L 119.126907 273.694435 
L 119.383532 273.364102 
L 119.447689 270.126501 
L 119.511845 271.117602 
L 119.576001 269.994378 
L 119.832627 268.474683 
L 119.896783 269.069364 
L 119.960939 265.963937 
L 120.025096 267.946139 
L 120.345877 261.999583 
L 120.47419 264.047822 
L 120.666659 262.46209 
L 120.730815 263.056721 
L 120.923284 271.183689 
L 121.179909 270.985479 
L 121.308222 273.826609 
L 121.372378 269.069364 
L 121.629004 268.14435 
L 121.757316 264.113909 
L 121.821473 266.030024 
L 122.013942 265.171046 
L 122.078098 265.369256 
L 122.270567 261.999583 
L 122.463036 261.338866 
L 122.527192 262.329917 
L 122.591348 265.831814 
L 122.655505 264.972836 
L 122.719661 263.321018 
L 122.91213 267.880053 
L 122.976286 266.492531 
L 123.040443 266.690741 
L 123.104599 267.021075 
L 123.168755 271.249776 
L 123.553693 273.165841 
L 123.61785 271.051516 
L 123.810319 270.787269 
L 123.874475 271.381899 
L 124.002788 267.946139 
L 124.066944 271.051516 
L 124.259413 270.655095 
L 124.323569 271.183689 
L 124.387725 270.390798 
L 124.900976 279.508868 
L 124.965132 273.958732 
L 125.157601 272.901594 
L 125.221758 272.967631 
L 125.285914 268.805067 
L 125.35007 270.126501 
L 125.414227 269.267574 
L 125.606696 268.871154 
L 125.735008 265.831814 
L 125.863321 270.919392 
L 126.05579 270.258675 
L 126.119946 269.465784 
L 126.633197 274.355152 
L 126.697353 272.240827 
L 126.761509 273.364102 
L 126.953978 272.240827 
L 127.018135 275.742724 
L 127.082291 274.817659 
L 127.146447 274.289116 
L 127.210604 274.751623 
L 127.403073 274.817659 
L 127.595542 270.589008 
L 127.659698 270.919392 
L 127.916323 271.117602 
L 127.98048 270.787269 
L 128.108792 268.672893 
L 128.301261 268.73898 
L 128.49373 271.58011 
L 128.557886 268.672893 
L 128.750355 268.474683 
L 128.942824 271.447986 
L 129.006981 268.54077 
L 129.263606 266.888951 
L 129.327762 264.113909 
L 129.456075 268.408647 
L 129.648544 267.681842 
L 129.776857 270.589008 
L 129.905169 274.685536 
L 130.161794 274.619449 
L 130.225951 274.156942 
L 130.290107 275.081956 
L 130.354263 274.289116 
L 130.739201 279.839201 
L 130.803358 277.328456 
L 130.995827 277.196282 
L 131.252452 285.389337 
L 131.444921 284.067852 
L 131.509077 285.12504 
L 131.63739 281.755317 
L 131.701546 283.142838 
L 131.894015 283.803555 
L 131.958172 287.833996 
L 132.022328 286.578648 
L 132.086484 286.116141 
L 132.343109 287.900083 
L 132.535578 281.68923 
L 132.599735 282.416034 
L 132.792204 282.680331 
L 132.85636 282.614244 
L 132.920516 280.962426 
L 132.984673 283.076751 
L 133.048829 282.482121 
L 133.241298 280.830302 
L 133.497923 272.571211 
L 133.690392 273.760522 
L 133.754549 270.522972 
L 133.818705 270.853305 
L 133.882861 274.883746 
L 133.947018 272.505124 
L 134.139486 272.505124 
L 134.203643 272.769421 
L 134.331955 267.615756 
L 134.396112 269.663994 
L 134.588581 270.853305 
L 134.78105 268.474683 
L 134.845206 272.505124 
L 135.037675 272.571211 
L 135.2943 267.880053 
L 135.486769 267.813966 
L 135.615082 265.237133 
L 135.743395 267.021075 
L 136.00002 262.924598 
L 136.064176 264.972836 
L 136.128332 264.642503 
L 136.449114 261.074569 
L 136.51327 259.290577 
L 136.577427 259.488787 
L 136.641583 262.792424 
L 136.834052 261.272779 
L 136.898208 259.620961 
L 136.962365 260.678098 
L 137.026521 261.008482 
L 137.090677 264.642503 
L 137.411459 267.021075 
L 137.475615 265.237133 
L 137.539772 265.89785 
L 137.732241 266.756828 
L 137.988866 259.885258 
L 138.181335 259.422751 
L 138.309647 262.06562 
L 138.373804 260.083468 
L 138.43796 266.756828 
L 138.694585 269.069364 
L 138.822898 266.558568 
L 138.887054 268.606857 
L 139.079523 268.871154 
L 139.271992 271.58011 
L 139.336149 271.447986 
L 139.528618 272.373 
L 139.65693 270.522972 
L 139.721087 274.685536 
L 139.785243 272.042617 
L 139.977712 273.033718 
L 140.041868 272.637297 
L 140.106024 273.430138 
L 140.170181 270.985479 
L 140.234337 274.355152 
L 140.490962 277.790963 
L 140.555119 276.403441 
L 140.619275 276.799862 
L 140.683431 279.773114 
L 140.8759 281.226723 
L 141.132526 275.280166 
L 141.324995 276.006971 
L 141.389151 273.364102 
L 141.453307 275.544463 
L 141.517464 272.571211 
L 141.58162 272.901594 
L 141.774089 272.439087 
L 141.966558 270.787269 
L 142.030714 271.712283 
L 142.223183 271.315813 
L 142.351496 264.972836 
L 142.415652 266.228234 
L 142.479808 266.096061 
L 142.736434 267.880053 
L 142.864746 269.730081 
L 142.928903 269.267574 
L 143.121372 271.051516 
L 143.185528 269.333661 
L 143.249684 270.522972 
L 143.377997 274.421239 
L 143.570466 273.298015 
L 143.634622 273.760522 
L 143.762935 270.787269 
L 143.827091 273.892645 
L 144.01956 275.346253 
L 144.083716 275.01592 
L 144.147873 273.892645 
L 144.468654 280.698179 
L 144.532811 280.433882 
L 144.596967 279.112397 
L 144.661123 279.839201 
L 144.72528 279.112397 
L 144.917749 278.980274 
L 145.174374 283.010715 
L 145.366843 283.671432 
L 145.623468 279.442781 
L 145.815937 281.821403 
L 145.94425 286.512561 
L 146.008406 285.257163 
L 146.072562 285.851844 
L 146.265031 285.455374 
L 146.521657 291.005509 
L 146.714126 290.014408 
L 146.778282 287.305452 
L 146.842438 290.212618 
L 146.970751 286.446475 
L 147.16322 288.891184 
L 147.355689 283.208925 
L 147.419845 284.530359 
L 147.612314 283.473222 
L 147.676471 281.557106 
L 147.740627 283.010715 
L 147.86894 281.358896 
L 148.061408 280.632092 
L 148.253877 287.041155 
L 148.318034 286.578648 
L 148.510503 288.230467 
L 148.702972 283.605345 
L 148.767128 286.050054 
L 148.959597 287.305452 
L 149.216222 282.283911 
L 149.408691 281.953527 
L 149.537004 283.605345 
L 149.665317 280.103498 
L 149.921942 277.460579 
L 149.986098 281.094599 
L 150.050254 280.433882 
L 150.114411 280.235622 
L 150.371036 280.301708 
L 150.499349 279.178484 
L 150.563505 279.905288 
L 150.755974 279.640991 
L 150.884287 283.275012 
L 151.012599 278.8481 
L 151.333381 277.989173 
L 151.397537 279.376694 
L 151.461694 278.45168 
L 151.654163 278.583803 
L 151.718319 279.508868 
L 151.846632 284.133939 
L 151.910788 283.737519 
L 152.103257 284.92683 
L 152.167413 284.133939 
L 152.295726 287.569699 
L 152.359882 285.917881 
L 152.680664 287.701873 
L 152.74482 287.173279 
L 152.808976 288.75901 
L 153.001445 288.75901 
L 153.065602 289.551901 
L 153.258071 286.975069 
L 153.514696 287.635786 
L 153.578852 285.587547 
L 153.643009 286.908982 
L 153.899634 288.626887 
L 153.96379 286.446475 
L 154.156259 292.789451 
L 154.348728 294.507356 
L 154.412884 294.243059 
L 154.541197 293.450168 
L 154.605353 294.507356 
L 154.797822 294.969863 
L 154.990291 289.419778 
L 155.054448 290.543002 
L 155.246917 289.485814 
L 155.439386 292.459118 
L 155.503542 290.080495 
L 155.696011 291.269806 
L 155.88848 296.027051 
L 155.952636 295.630581 
L 156.145105 297.943116 
L 156.209261 297.87708 
L 156.273418 296.621682 
L 156.40173 300.586036 
L 156.594199 299.925318 
L 156.658356 298.934217 
L 156.786668 303.030745 
L 157.043294 300.982506 
L 157.10745 299.264601 
L 157.235763 301.246753 
L 157.299919 300.123529 
L 157.492388 299.462811 
L 157.620701 303.096832 
L 157.749013 300.718209 
L 157.941482 305.541491 
L 158.005638 304.682563 
L 158.133951 305.739701 
L 158.198107 304.484353 
L 158.390576 304.220056 
L 158.454733 304.418266 
L 158.518889 304.153969 
L 158.647202 307.061186 
L 158.839671 305.937961 
L 158.903827 303.955759 
L 158.967983 305.475454 
L 159.03214 301.70926 
L 159.096296 302.039644 
L 159.288765 301.31284 
L 159.352921 301.51105 
L 159.417078 300.718209 
L 159.481234 301.577137 
L 159.54539 301.11463 
L 159.802016 301.577137 
L 159.930328 304.286143 
L 159.994484 300.189615 
L 160.186953 301.246753 
L 160.25111 300.784246 
L 160.315266 301.51105 
L 160.443579 299.462811 
L 160.636048 299.727108 
L 160.700204 299.000304 
L 160.892673 304.087882 
L 161.213455 305.14507 
L 161.341767 307.325483 
L 161.534236 307.655816 
L 161.598393 306.268295 
L 161.662549 307.9862 
L 161.790862 303.955759 
L 162.111643 308.18441 
L 162.239956 304.880773 
L 162.432425 304.484353 
L 162.68905 301.841434 
L 162.881519 302.303941 
L 162.945675 304.352179 
L 163.073988 299.859232 
L 163.138144 300.189615 
L 163.330613 300.189615 
L 163.39477 300.718209 
L 163.587239 298.009203 
L 163.779708 297.150276 
L 163.843864 299.132427 
L 163.90802 298.66992 
L 163.972176 298.537797 
L 164.036333 295.894878 
L 164.357114 296.819892 
L 164.421271 296.687769 
L 164.485427 298.405623 
L 164.677896 299.330688 
L 164.934521 293.185922 
L 165.191147 292.326944 
L 165.255303 292.855538 
L 165.383616 291.60014 
L 165.576085 291.666227 
L 165.768554 289.816198 
L 165.83271 291.071596 
L 166.153491 293.251958 
L 166.281804 292.326944 
L 166.474273 293.318045 
L 166.602586 291.269806 
L 166.730898 292.657328 
L 166.923367 293.450168 
L 167.179993 284.530359 
L 167.372462 282.680331 
L 167.564931 284.728569 
L 167.821556 286.446475 
L 167.885712 286.512561 
L 167.949868 284.001816 
L 168.078181 288.891184 
L 168.27065 288.230467 
L 168.398963 292.194821 
L 168.463119 291.864437 
L 168.527275 292.789451 
L 168.783901 291.269806 
L 168.848057 291.40193 
L 169.168839 293.516255 
L 169.297151 290.807299 
L 169.425464 287.173279 
L 169.617933 286.908982 
L 169.682089 284.464323 
L 169.746246 284.596446 
L 169.810402 286.116141 
L 169.874558 290.278705 
L 170.067027 289.750111 
L 170.19534 286.710772 
L 170.259496 286.776858 
L 170.323652 285.587547 
L 170.516121 285.851844 
L 170.580278 284.728569 
L 170.70859 287.635786 
L 170.772747 285.653634 
L 170.965216 285.32325 
L 171.221841 283.076751 
L 171.41431 282.548208 
L 171.606779 279.310607 
L 171.670935 280.037411 
L 171.863404 280.103498 
L 172.055873 281.88744 
L 172.120029 284.398236 
L 172.376655 281.68923 
L 172.504967 285.389337 
L 172.761593 284.992866 
L 172.889905 285.257163 
L 172.954062 283.275012 
L 173.018218 285.785757 
L 173.274843 285.389337 
L 173.467312 289.948321 
L 173.788094 288.36259 
L 173.85225 286.380388 
L 173.916406 288.16438 
L 174.108875 287.76796 
L 174.173032 287.900083 
L 174.365501 291.40193 
L 174.622126 290.344792 
L 174.686282 291.40193 
L 174.750439 290.675126 
L 174.814595 291.534103 
L 175.007064 290.543002 
L 175.263689 294.243059 
L 175.456158 294.63948 
L 175.520315 294.110936 
L 175.584471 292.128734 
L 175.648627 294.573443 
L 175.712784 294.110936 
L 175.905252 293.516255 
L 176.097721 290.675126 
L 176.161878 292.326944 
L 176.418503 293.450168 
L 176.610972 288.891184 
L 176.867597 288.230467 
L 176.931754 288.296503 
L 176.99591 289.684024 
L 177.060066 287.503663 
L 177.252535 285.785757 
L 177.316692 281.160686 
L 177.380848 283.076751 
L 177.445004 284.398236 
L 177.509161 282.614244 
L 177.70163 282.283911 
L 177.765786 283.010715 
L 177.829942 282.019614 
L 177.894098 282.0857 
L 177.958255 285.191077 
L 178.150724 283.671432 
L 178.21488 281.226723 
L 178.279036 281.953527 
L 178.407349 282.614244 
L 178.599818 283.341048 
L 178.728131 281.755317 
L 178.856443 284.464323 
L 179.048912 284.001816 
L 179.113069 284.133939 
L 179.177225 284.200026 
L 179.562163 287.635786 
L 179.626319 286.776858 
L 179.690476 288.16438 
L 179.947101 290.675126 
L 180.011257 289.551901 
L 180.075413 290.212618 
L 180.13957 289.684024 
L 180.203726 290.609089 
L 180.396195 290.014408 
L 180.524508 286.446475 
L 180.588664 286.512561 
L 180.65282 287.107192 
L 180.845289 285.983968 
L 180.909446 284.92683 
L 180.973602 285.257163 
L 181.101915 286.842895 
L 181.294384 284.464323 
L 181.486853 287.76796 
L 181.551009 286.380388 
L 181.807634 285.917881 
L 181.87179 287.701873 
L 181.935947 286.314351 
L 182.000103 287.437576 
L 182.320885 288.626887 
L 182.449197 291.666227 
L 182.641666 290.939423 
L 182.769979 293.516255 
L 182.834135 292.789451 
L 182.898292 293.384132 
L 183.154917 294.507356 
L 183.219073 293.978762 
L 183.28323 294.176972 
L 183.347386 298.66992 
L 183.539855 297.810993 
L 183.732324 304.616476 
L 183.79648 303.625375 
L 183.988949 305.012897 
L 184.053105 308.779091 
L 184.117262 307.061186 
L 184.181418 306.929012 
L 184.245574 304.616476 
L 184.438043 304.880773 
L 184.5022 302.303941 
L 184.566356 304.021846 
L 184.630512 304.682563 
L 184.694669 303.096832 
L 184.951294 301.246753 
L 185.01545 301.31284 
L 185.079607 301.643224 
L 185.143763 298.868181 
L 185.336232 300.123529 
L 185.592857 305.937961 
L 185.785326 304.021846 
L 185.849482 300.387825 
L 185.913639 302.237854 
L 185.977795 303.757549 
L 186.23442 300.453912 
L 186.298577 301.577137 
L 186.491046 297.084189 
L 186.683515 297.282399 
L 186.94014 289.750111 
L 187.132609 291.137633 
L 187.196765 288.891184 
L 187.260922 292.525154 
L 187.325078 292.128734 
L 187.389234 288.626887 
L 187.64586 290.873336 
L 187.710016 294.63948 
L 187.774172 291.60014 
L 187.838328 292.393031 
L 188.030797 291.534103 
L 188.287423 286.050054 
L 188.479892 284.860743 
L 188.544048 282.482121 
L 188.608204 284.266062 
L 188.672361 284.067852 
L 188.736517 283.869642 
L 188.928986 282.349997 
L 188.993142 279.508868 
L 189.057299 281.623193 
L 189.185611 278.715977 
L 189.442237 281.953527 
L 189.634706 273.760522 
L 189.827174 272.505124 
L 189.955487 275.081956 
L 190.019643 278.385593 
L 190.0838 277.658789 
L 190.276269 277.328456 
L 190.340425 277.923086 
L 190.404581 279.905288 
L 190.468738 286.182178 
L 190.532894 283.407135 
L 190.853676 282.416034 
L 190.981988 280.433882 
L 191.174457 281.821403 
L 191.366926 280.037411 
L 191.431083 284.92683 
L 191.623552 282.944628 
L 191.687708 284.662533 
L 191.751864 284.133939 
L 191.81602 284.067852 
L 191.880177 285.917881 
L 192.072646 285.389337 
L 192.265115 278.385593 
L 192.329271 273.628348 
L 192.585896 274.817659 
L 192.650053 271.97653 
L 192.714209 272.439087 
L 192.778365 273.826609 
L 192.970834 273.364102 
L 193.034991 272.769421 
L 193.099147 276.535565 
L 193.163303 273.958732 
L 193.22746 272.439087 
L 193.419929 273.099805 
L 193.484085 274.090906 
L 193.676554 267.417545 
L 193.869023 266.426444 
L 193.933179 269.333661 
L 193.997335 268.93719 
L 194.125648 265.765727 
L 194.318117 261.669199 
L 194.382273 263.188895 
L 194.44643 258.695947 
L 194.574742 260.413801 
L 194.767211 252.55118 
L 194.895524 260.017381 
L 195.023837 255.98694 
L 195.216306 255.656607 
L 195.280462 255.128013 
L 195.6654 265.369256 
L 195.729556 257.572722 
L 195.793712 262.396004 
L 195.922025 268.276473 
L 196.17865 263.783525 
L 196.242807 259.224541 
L 196.306963 260.149555 
L 196.371119 264.312119 
L 196.563588 265.963937 
L 196.691901 268.672893 
L 197.269308 252.947601 
L 197.461777 251.890463 
L 197.525933 250.635065 
L 197.654246 253.145811 
L 197.718402 249.445754 
L 197.910871 249.181457 
L 198.10334 241.715256 
L 198.167496 242.574183 
L 198.424122 235.96691 
L 198.552434 244.159915 
L 198.616591 238.675916 
L 198.80906 240.856278 
L 198.937372 243.499198 
L 199.065685 240.393771 
L 199.258154 243.697408 
L 199.32231 239.534844 
L 199.386467 240.591981 
L 199.450623 247.265341 
L 199.514779 242.309886 
L 199.707248 240.988452 
L 199.835561 244.754596 
L 199.899717 247.992146 
L 199.963873 246.736748 
L 200.284655 251.493992 
L 200.348811 245.4814 
L 200.412968 247.133218 
L 200.605437 251.031485 
L 200.733749 248.190356 
L 200.862062 234.975809 
L 201.118687 240.591981 
L 201.182844 243.168864 
L 201.311156 236.36333 
L 201.503625 232.068643 
L 201.567782 238.609829 
L 201.76025 228.698919 
L 201.952719 225.65958 
L 202.016876 229.822144 
L 202.145188 223.280957 
L 202.401814 234.050795 
L 202.530126 231.473962 
L 202.594283 232.266853 
L 202.658439 229.888231 
L 202.850908 228.831043 
L 203.043377 238.147322 
L 203.107533 233.588288 
L 203.300002 237.552642 
L 203.364159 237.486605 
L 203.428315 233.918671 
L 203.492471 236.297294 
L 203.556628 233.720461 
L 203.749096 235.240106 
L 204.005722 243.961705 
L 204.198191 243.895618 
L 204.262347 243.433111 
L 204.326503 244.027792 
L 204.454816 249.445754 
L 204.647285 248.388566 
L 204.775598 245.4814 
L 204.90391 252.15471 
L 205.096379 251.295782 
L 205.160536 253.145811 
L 205.353005 246.406414 
L 205.545474 247.397515 
L 205.673786 252.485093 
L 205.737942 249.247544 
L 205.802099 250.238645 
L 205.994568 248.91716 
L 206.058724 247.133218 
L 206.12288 248.52074 
L 206.187037 252.35297 
L 206.251193 249.776138 
L 206.507818 252.617267 
L 206.636131 259.687048 
L 206.700287 257.770932 
L 206.892756 256.383411 
L 206.956913 253.344021 
L 207.021069 255.458346 
L 207.085225 258.497736 
L 207.149382 253.476195 
L 207.406007 261.074569 
L 207.470163 260.479888 
L 207.598476 266.822865 
L 207.790945 266.756828 
L 207.919257 261.735286 
L 207.983414 265.038923 
L 208.04757 262.396004 
L 208.240039 262.660301 
L 208.496664 253.608318 
L 208.689133 253.211898 
L 208.75329 256.713744 
L 208.817446 255.326223 
L 208.881602 255.128013 
L 209.202384 250.965449 
L 209.330697 247.992146 
L 209.394853 253.476195 
L 209.651478 248.256443 
L 209.843947 258.365563 
L 210.036416 257.044128 
L 210.164729 259.951294 
L 210.228885 254.995839 
L 210.293041 258.365563 
L 210.48551 255.061926 
L 210.549667 256.713744 
L 210.613823 255.59052 
L 210.677979 250.965449 
L 210.742136 252.683304 
L 210.934605 253.079774 
L 210.998761 256.053027 
L 211.062917 255.854817 
L 211.127074 250.436855 
L 211.19123 250.701152 
L 211.383699 253.542281 
L 211.447855 249.511841 
L 211.512012 250.767188 
L 211.640324 246.802834 
L 211.832793 245.349226 
L 211.896949 246.208204 
L 211.961106 244.490299 
L 212.025262 245.745697 
L 212.089418 247.463552 
L 212.4102 242.508097 
L 212.538513 244.093878 
L 212.795138 242.83848 
L 212.923451 238.411619 
L 212.987607 239.733054 
L 213.180076 239.666967 
L 213.244232 236.958011 
L 213.308389 238.477656 
L 213.372545 239.534844 
L 213.436701 242.508097 
L 213.757483 227.443521 
L 213.885795 245.28319 
L 214.142421 246.538537 
L 214.206577 245.018893 
L 214.33489 247.199255 
L 214.527359 239.00625 
L 214.591515 246.868921 
L 214.655671 244.754596 
L 214.783984 239.20446 
L 214.976453 234.381179 
L 215.040609 234.843686 
L 215.233078 255.326223 
L 215.489703 261.999583 
L 215.682172 253.542281 
L 215.874641 252.947601 
L 216.06711 241.517046 
L 216.131267 244.027792 
L 216.323736 244.358175 
L 216.516205 252.74939 
L 216.580361 253.938702 
L 216.77283 255.128013 
L 216.901143 245.084929 
L 217.029455 248.983247 
L 217.221924 248.388566 
L 217.350237 242.574183 
L 217.414393 246.868921 
L 217.478549 241.054539 
L 217.671018 238.543743 
L 217.799331 227.443521 
L 217.863487 215.220076 
L 217.927644 220.902335 
L 218.120113 226.650681 
L 218.248425 212.445033 
L 218.376738 211.189635 
L 218.761676 196.587567 
L 218.825832 203.326963 
L 219.018301 205.705586 
L 219.21077 197.116161 
L 219.274927 195.332169 
L 219.467395 193.944647 
L 219.659864 174.915718 
L 219.724021 177.09613 
L 220.044802 179.805086 
L 220.173115 176.30324 
L 220.365584 177.294341 
L 220.42974 176.369326 
L 220.622209 192.953546 
L 220.878835 194.473241 
L 220.942991 194.341068 
L 221.392085 181.522992 
L 221.456241 182.051585 
L 221.520398 188.064178 
L 221.777023 189.055279 
L 221.905336 199.032276 
L 221.969492 198.900102 
L 222.161961 200.485834 
L 222.226117 196.32327 
L 222.418586 208.943186 
L 222.611055 205.639549 
L 222.739368 214.228975 
L 222.803524 212.775366 
L 222.867681 216.54151 
L 223.06015 217.796908 
L 223.188462 204.714535 
L 223.252619 204.912745 
L 223.316775 209.8682 
L 223.5734 199.362609 
L 223.701713 207.489578 
L 223.765869 205.705586 
L 223.958338 205.110955 
L 224.214963 215.286163 
L 224.407432 210.727128 
L 224.471589 211.520019 
L 224.535745 214.691482 
L 224.599901 207.423491 
L 224.664058 210.396744 
L 224.856527 210.132497 
L 224.920683 214.691482 
L 225.048996 208.480679 
L 225.113152 208.943186 
L 225.369777 213.700381 
L 225.433933 192.425003 
L 225.49809 194.605365 
L 225.562246 194.605365 
L 225.818871 197.710791 
L 225.883028 201.543022 
L 225.947184 199.891203 
L 226.01134 200.287624 
L 226.267966 196.455443 
L 226.332122 196.71969 
L 226.460435 208.150295 
L 226.652904 209.603903 
L 226.781216 204.912745 
L 226.845373 208.612802 
L 227.101998 204.912745 
L 227.230311 201.080515 
L 227.358623 208.678889 
L 227.551092 204.318065 
L 227.807717 210.859251 
L 228.000186 208.282418 
L 228.256812 219.5809 
L 228.577593 218.854096 
L 228.64175 224.007761 
L 228.705906 223.280957 
L 229.090844 215.021866 
L 229.411625 221.034458 
L 229.475782 219.118343 
L 229.604094 229.425724 
L 229.86072 233.456164 
L 229.924876 240.261648 
L 229.989032 237.156221 
L 230.053189 230.416825 
L 230.245658 242.045589 
L 230.309814 240.063438 
L 230.37397 236.429417 
L 230.502283 249.247544 
L 230.694752 252.220797 
L 230.758908 249.710051 
L 230.823065 253.211898 
L 230.951377 246.142117 
L 231.143846 243.499198 
L 231.208003 240.195561 
L 231.272159 241.781292 
L 231.336315 248.983247 
L 231.400471 246.27424 
L 231.657097 241.186662 
L 231.721253 243.433111 
L 231.849566 235.240106 
L 232.042035 233.984708 
L 232.170347 237.618728 
L 232.234504 235.636526 
L 232.491129 235.240106 
L 232.555285 232.861483 
L 232.619442 225.923877 
L 232.683598 229.49181 
L 232.747754 225.725616 
L 232.940223 227.906028 
L 233.196849 240.195561 
L 233.389317 238.015149 
L 233.453474 231.341839 
L 233.51763 234.909773 
L 233.581786 240.724155 
L 233.645943 239.468757 
L 233.838412 242.2438 
L 234.030881 238.279446 
L 234.095037 232.266853 
L 234.544131 249.379667 
L 234.7366 245.613523 
L 234.929069 238.543743 
L 235.185695 232.597187 
L 235.249851 234.711512 
L 235.378163 230.879332 
L 235.44232 237.024098 
L 235.763101 230.945368 
L 235.827258 232.597187 
L 236.083883 229.425724 
L 236.148039 229.557847 
L 236.212196 226.25421 
L 236.276352 228.434622 
L 236.340508 232.068643 
L 236.597134 233.456164 
L 236.66129 232.92757 
L 236.789603 226.650681 
L 237.110384 231.936469 
L 237.174541 228.963216 
L 237.238697 232.200766 
L 237.431166 232.597187 
L 237.687791 225.593493 
L 238.008573 224.338095 
L 238.072729 221.430929 
L 238.136885 221.695226 
L 238.329354 221.761262 
L 238.393511 223.743464 
L 238.457667 219.845147 
L 238.521823 222.091646 
L 238.58598 227.972115 
L 238.842605 224.800602 
L 238.970918 230.945368 
L 239.035074 228.170325 
L 239.227543 227.245311 
L 239.291699 225.85779 
L 239.676637 235.438316 
L 239.80495 228.434622 
L 239.869106 231.341839 
L 239.933262 226.848891 
L 240.254044 236.561591 
L 240.3182 236.429417 
L 240.382357 234.645476 
L 240.574826 234.381179 
L 240.638982 233.918671 
L 240.831451 231.540049 
L 241.088076 226.981014 
L 241.152233 228.500709 
L 241.216389 227.773905 
L 241.280545 227.839992 
L 241.473014 228.698919 
L 241.729639 220.770161 
L 241.922108 219.77911 
L 242.178734 233.12578 
L 242.371203 231.473962 
L 242.435359 229.359637 
L 242.499515 230.548948 
L 242.627828 235.57049 
L 242.820297 235.57049 
L 242.94861 237.486605 
L 243.012766 232.200766 
L 243.076922 235.174019 
L 243.46186 246.340327 
L 243.718485 247.926059 
L 243.846798 246.406414 
L 243.910954 249.247544 
L 244.16758 247.793935 
L 244.231736 245.217103 
L 244.360049 247.595725 
L 244.424205 246.868921 
L 244.616674 246.472501 
L 244.68083 242.2438 
L 244.744987 245.084929 
L 244.873299 239.666967 
L 245.129925 240.724155 
L 245.322393 235.96691 
L 245.514862 237.288345 
L 245.579019 236.099084 
L 245.707331 237.684815 
L 245.771488 235.37228 
L 245.963957 239.40272 
L 246.028113 238.411619 
L 246.092269 241.252749 
L 246.220582 234.447265 
L 246.413051 234.975809 
L 246.60552 240.591981 
L 246.669676 239.20446 
L 246.926302 237.883025 
L 247.054614 243.168864 
L 247.118771 242.83848 
L 247.311239 243.300988 
L 247.503708 236.297294 
L 247.567865 235.37228 
L 247.760334 236.36333 
L 247.82449 236.032997 
L 247.888646 236.627627 
L 247.952803 235.57049 
L 248.016959 238.411619 
L 248.209428 239.997351 
L 248.273584 238.477656 
L 248.337741 239.468757 
L 248.401897 239.997351 
L 248.466053 239.072337 
L 248.658522 239.072337 
L 248.786835 236.032997 
L 248.915148 238.411619 
L 249.107617 236.429417 
L 249.171773 237.684815 
L 249.300085 245.811733 
L 249.364242 244.424212 
L 249.556711 245.28319 
L 249.685023 243.300988 
L 249.74918 246.208204 
L 250.005805 251.493992 
L 250.26243 246.142117 
L 250.519056 243.433111 
L 250.583212 245.018893 
L 250.647368 244.027792 
L 250.711525 240.459858 
L 250.903994 241.913466 
L 250.96815 241.649169 
L 251.032306 239.733054 
L 251.096463 241.120575 
L 251.160619 242.772394 
L 251.353088 242.375973 
L 251.417244 236.825837 
L 251.4814 239.865228 
L 251.545557 238.874126 
L 251.609713 235.240106 
L 251.802182 238.609829 
L 251.994651 225.65958 
L 252.058807 227.311398 
L 252.379589 232.72936 
L 252.507902 227.179224 
L 252.700371 228.500709 
L 252.956996 217.268314 
L 253.149465 217.268314 
L 253.213621 215.153989 
L 253.277777 216.409387 
L 253.341934 222.289856 
L 253.40609 219.514813 
L 253.662715 220.439828 
L 253.791028 224.800602 
L 253.855184 216.3433 
L 254.047653 213.832554 
L 254.240122 221.430929 
L 254.304279 217.532611 
L 254.496748 218.061205 
L 254.560904 219.977321 
L 254.689217 215.352199 
L 254.753373 216.607597 
L 254.945842 217.070104 
L 255.074155 211.057512 
L 255.138311 211.586055 
L 255.394936 206.168093 
L 255.523249 202.534123 
L 255.651561 205.573463 
L 255.908187 204.053768 
L 256.100656 209.207433 
L 256.293125 208.150295 
L 256.357281 211.255722 
L 256.54975 201.278725 
L 256.742219 202.930543 
L 256.806375 202.269826 
L 256.870532 198.239385 
L 256.998844 203.789471 
L 257.191313 203.987731 
L 257.255469 206.168093 
L 257.447938 198.437595 
L 257.640407 202.071616 
L 257.704564 199.098313 
L 257.76872 201.741232 
L 257.897033 194.539328 
L 258.089502 194.671451 
L 258.346127 186.676657 
L 258.538596 181.985499 
L 258.666909 185.949853 
L 258.731065 183.042636 
L 258.795221 185.156962 
L 258.98769 184.298034 
L 259.051847 179.144369 
L 259.116003 182.117622 
L 259.180159 179.144369 
L 259.244315 186.676657 
L 259.500941 178.813985 
L 259.69341 191.566025 
L 259.950035 186.478447 
L 260.014191 188.262388 
L 260.142504 195.200045 
L 260.334973 192.160706 
L 260.399129 188.923105 
L 260.463286 191.169605 
L 260.527442 193.416053 
L 260.591598 191.962496 
L 260.784067 189.980293 
L 260.976536 182.051585 
L 261.040693 185.289135 
L 261.297318 178.087181 
L 261.361474 179.672963 
L 261.489787 181.655115 
L 261.746412 179.210456 
L 261.874725 174.321037 
L 262.13135 173.396023 
L 262.387975 181.919412 
L 262.644601 176.567536 
L 262.708757 176.963957 
L 262.772913 180.597977 
L 262.83707 180.399767 
L 263.029539 180.597977 
L 263.157851 188.724895 
L 263.286164 182.051585 
L 263.478633 184.694455 
L 263.671102 175.113928 
L 263.735258 177.888971 
L 263.927727 177.690761 
L 263.991883 183.240897 
L 264.05604 180.796187 
L 264.120196 181.522992 
L 264.376821 195.266132 
L 264.440978 190.508887 
L 264.505134 192.358916 
L 264.56929 193.87856 
L 264.890072 187.799881 
L 264.954228 194.737538 
L 265.082541 191.962496 
L 265.339166 189.451699 
L 265.467479 201.080515 
L 265.531635 201.014428 
L 265.724104 197.050074 
L 265.852417 212.973627 
L 265.916573 211.652142 
L 265.980729 216.937981 
L 266.173198 214.955779 
L 266.301511 224.007761 
L 266.429824 215.087952 
L 266.622293 215.153989 
L 266.686449 213.832554 
L 266.814762 217.730821 
L 267.071387 215.352199 
L 267.135543 223.479167 
L 267.328012 214.757569 
L 267.520481 216.673684 
L 267.584637 215.220076 
L 267.648794 221.893436 
L 267.71295 218.721923 
L 267.777106 214.625445 
L 267.969575 212.511069 
L 268.097888 216.739771 
L 268.162044 212.577156 
L 268.226201 214.295061 
L 268.482826 215.814706 
L 268.546982 214.228975 
L 268.611139 219.052306 
L 268.675295 217.004017 
L 268.867764 216.937981 
L 268.93192 213.832554 
L 268.996077 217.598698 
L 269.060233 215.286163 
L 269.124389 212.445033 
L 269.316858 214.889692 
L 269.573483 228.038202 
L 269.765952 228.302499 
L 269.830109 232.465063 
L 269.894265 229.029253 
L 269.958421 231.011455 
L 270.022578 228.236412 
L 270.215047 228.038202 
L 270.407516 225.263109 
L 270.471672 225.395283 
L 270.728297 219.514813 
L 270.792454 221.034458 
L 270.920766 217.466524 
L 271.113235 217.730821 
L 271.177391 218.457626 
L 271.305704 225.85779 
L 271.36986 221.496965 
L 271.562329 223.01666 
L 271.626486 224.470268 
L 271.754798 215.682583 
L 271.818955 217.136191 
L 272.011424 215.74867 
L 272.139736 208.216382 
L 272.268049 210.528918 
L 272.717143 219.052306 
L 272.909612 218.854096 
L 272.973769 220.638038 
L 273.037925 218.523712 
L 273.166237 220.439828 
L 273.358706 219.052306 
L 273.615332 226.518507 
L 273.807801 225.725616 
L 273.936113 219.911234 
L 274.00027 221.959472 
L 274.064426 217.466524 
L 274.321051 215.153989 
L 274.385208 217.598698 
L 274.449364 217.136191 
L 274.705989 214.955779 
L 274.770146 212.312859 
L 274.834302 214.096851 
L 274.962615 210.462831 
L 275.155083 212.246823 
L 275.411709 205.573463 
L 275.604178 204.648448 
L 275.668334 207.687788 
L 275.860803 204.384151 
L 276.053272 202.864456 
L 276.117428 201.014428 
L 276.181585 204.648448 
L 276.245741 203.987731 
L 276.309897 202.468036 
L 276.630679 200.882305 
L 276.694835 197.380458 
L 276.758992 197.446494 
L 277.015617 196.455443 
L 277.079773 192.821423 
L 277.143929 196.653654 
L 277.208086 194.142857 
L 277.400555 194.539328 
L 277.528867 191.962496 
L 277.593024 194.539328 
L 277.65718 192.491039 
L 277.849649 193.87856 
L 277.913805 198.966189 
L 278.042118 190.310677 
L 278.427056 192.88751 
L 278.555369 186.80878 
L 278.747838 189.319576 
L 279.004463 204.384151 
L 279.325244 199.296523 
L 279.389401 201.741232 
L 279.453557 195.001835 
L 279.774339 188.130265 
L 279.838495 191.830322 
L 279.902651 189.187402 
L 280.09512 189.583873 
L 280.159277 187.139164 
L 280.287589 193.87856 
L 280.351746 191.433902 
L 280.544215 193.48214 
L 280.608371 190.773184 
L 280.672527 191.830322 
L 280.736684 190.574924 
L 280.80084 182.778339 
L 280.993309 181.985499 
L 281.185778 166.722713 
L 281.249934 174.453211 
L 281.570716 151.129544 
L 281.634872 161.172577 
L 281.699028 156.481419 
L 281.891497 158.992165 
L 282.148123 146.834806 
L 282.340592 148.090154 
L 282.468904 158.199325 
L 282.533061 154.03671 
L 282.597217 151.856348 
L 282.789686 156.349246 
L 283.046311 143.92759 
L 283.302936 143.002576 
L 283.367093 146.702633 
L 283.495405 139.963236 
L 283.687874 142.077561 
L 283.880343 148.883045 
L 283.9445 147.56161 
L 284.265281 138.047121 
L 284.329438 131.571971 
L 284.393594 137.386403 
L 284.586063 140.29362 
L 284.650219 144.918691 
L 284.714376 144.786517 
L 284.778532 144.786517 
L 284.842688 140.425743 
L 285.035157 135.404201 
L 285.484251 157.47252 
L 285.548408 155.226021 
L 285.612564 157.538557 
L 285.67672 154.829601 
L 285.740877 158.199325 
L 285.933346 153.772413 
L 285.997502 154.499217 
L 286.061658 153.44208 
L 286.189971 156.084999 
L 286.38244 156.415333 
L 286.446596 150.60095 
L 286.574909 163.815497 
L 286.639065 159.785056 
L 286.895691 143.92759 
L 286.959847 145.579408 
L 287.024003 148.816958 
L 287.088159 146.768719 
L 287.280628 145.975828 
L 287.344785 149.081255 
L 287.408941 143.002576 
L 287.473097 146.372299 
L 287.537254 149.543762 
L 287.922192 142.275772 
L 287.986348 144.852604 
L 288.178817 142.936489 
L 288.30713 138.443541 
L 288.435442 142.870452 
L 288.627911 142.804365 
L 288.692068 144.1258 
L 288.82038 149.675936 
L 288.884537 146.636596 
L 289.077005 147.033016 
L 289.141162 148.816958 
L 289.269474 142.209685 
L 289.333631 146.96693 
L 289.5261 144.588307 
L 289.782725 135.734585 
L 289.975194 133.355963 
L 290.103507 141.945438 
L 290.167663 141.08646 
L 290.231819 143.92759 
L 290.488445 144.786517 
L 290.680914 137.122106 
L 291.001695 143.72938 
L 291.065851 143.597256 
L 291.130008 140.88825 
L 291.322477 140.756127 
L 291.386633 142.143648 
L 291.579102 136.461389 
L 291.835727 135.800672 
L 292.220665 146.041915 
L 292.284822 145.249075 
L 292.477291 136.131005 
L 292.66976 133.752383 
L 292.733916 131.109463 
L 292.926385 139.368555 
L 293.118854 137.45249 
L 293.311323 143.200786 
L 293.375479 139.302519 
L 293.567948 139.765026 
L 293.696261 137.782824 
L 293.824573 141.681141 
L 294.081199 144.191887 
L 294.273668 139.963236 
L 294.530293 137.320316 
L 294.658606 143.465083 
L 294.722762 140.69004 
L 294.915231 142.077561 
L 294.979387 139.170345 
L 295.043543 140.49183 
L 295.171856 143.068662 
L 295.364325 143.266873 
L 295.62095 156.481419 
L 295.813419 160.643983 
L 295.877576 160.31365 
L 296.070045 153.508167 
L 296.262514 154.301007 
L 296.454983 148.883045 
L 296.519139 152.252768 
L 296.711608 151.790261 
L 296.775764 156.811803 
L 296.839921 153.375993 
L 297.224858 140.095359 
L 297.353171 144.191887 
L 297.417327 140.029323 
L 297.609796 140.227533 
L 297.673953 140.954337 
L 297.866422 138.707838 
L 298.058891 137.320316 
L 298.187203 139.963236 
L 298.315516 136.923896 
L 298.507985 136.329215 
L 298.572141 138.707838 
L 298.636298 137.386403 
L 298.700454 137.45249 
L 298.76461 134.677397 
L 298.957079 134.875607 
L 299.085392 132.695245 
L 299.149548 133.686346 
L 299.406173 128.268334 
L 299.534486 127.54158 
L 299.598642 124.898661 
L 299.662799 125.361168 
L 299.919424 128.730891 
L 299.98358 126.880812 
L 300.047737 128.400508 
L 300.111893 126.352269 
L 300.368518 126.946899 
L 300.560987 112.410918 
L 300.817613 118.952105 
L 300.881769 123.643263 
L 300.945925 121.925357 
L 301.20255 119.480699 
L 301.266707 123.312879 
L 301.459176 118.159214 
L 301.651645 118.357424 
L 301.779957 122.255741 
L 301.844114 120.736046 
L 301.90827 123.841473 
L 302.100739 119.943206 
L 302.164895 121.528937 
L 302.229052 120.537836 
L 302.293208 118.2253 
L 302.357364 121.528937 
L 302.549833 119.282488 
L 302.61399 121.06643 
L 303.191396 113.335932 
L 303.255553 113.930563 
L 303.448022 112.344831 
L 303.512178 114.19486 
L 303.576334 113.468056 
L 303.640491 114.525244 
L 303.704647 111.684114 
L 303.897116 110.494803 
L 304.025429 108.710811 
L 304.153741 116.177062 
L 304.410367 112.609128 
L 304.602836 118.357424 
L 304.795305 117.894917 
L 304.987773 123.180756 
L 305.05193 121.132517 
L 305.244399 121.595024 
L 305.436868 130.38271 
L 305.501024 129.523732 
L 305.693493 129.127312 
L 305.757649 128.532631 
L 305.885962 121.793234 
L 305.950118 122.123618 
L 306.206744 120.009242 
L 306.2709 120.4718 
L 306.335056 119.150315 
L 306.399213 114.525244 
L 306.719994 117.43241 
L 306.784151 122.321828 
L 306.848307 121.396814 
L 307.040776 121.06643 
L 307.169088 125.889762 
L 307.233245 123.841473 
L 307.297401 130.514833 
L 307.48987 129.061225 
L 307.746495 123.709349 
L 307.938964 122.123618 
L 308.067277 116.507395 
L 308.131433 118.02709 
L 308.19559 118.02709 
L 308.388059 117.63067 
L 308.452215 118.093177 
L 308.516371 117.366373 
L 308.644684 123.445052 
L 308.837153 121.132517 
L 308.901309 122.586125 
L 309.093778 120.141416 
L 309.286247 119.943206 
L 309.478716 129.061225 
L 309.542872 126.087972 
L 309.735341 128.466594 
L 309.799498 125.096871 
L 309.863654 126.616515 
L 309.92781 129.193398 
L 309.991967 124.700451 
L 310.312748 121.793234 
L 310.376905 124.171857 
L 310.441061 123.577176 
L 310.63353 121.859321 
L 310.697686 125.096871 
L 310.890155 115.912765 
L 311.082624 115.450258 
L 311.210937 114.39307 
L 311.275093 114.723454 
L 311.339249 114.260947 
L 311.531718 115.714555 
L 311.660031 119.744996 
L 311.788344 120.141416 
L 311.980813 118.952105 
L 312.173282 115.648468 
L 312.237438 115.780591 
L 312.429907 116.969902 
L 312.622376 114.723454 
L 312.686532 116.771692 
L 312.879001 116.110975 
L 313.392252 126.880812 
L 313.584721 123.511139 
L 313.77719 124.237943 
L 313.905502 123.775436 
L 314.033815 120.67001 
L 314.354597 127.673703 
L 314.418753 131.307724 
L 314.482909 130.97734 
L 314.675378 130.58092 
L 314.803691 128.466594 
L 314.867847 130.514833 
L 314.932003 128.268334 
L 315.124472 128.532631 
L 315.252785 125.889762 
L 315.316941 129.127312 
L 315.381098 127.145109 
L 315.701879 126.220095 
L 315.766036 127.409406 
L 315.830192 132.100564 
L 316.086817 134.611361 
L 316.150974 134.21489 
L 316.21513 133.62026 
L 316.279286 136.923896 
L 316.471755 132.893455 
L 316.535912 135.404201 
L 316.728381 132.430948 
L 316.920849 133.157752 
L 316.985006 133.884557 
L 317.049162 136.329215 
L 317.113318 133.355963 
L 317.177475 134.01668 
L 317.4341 135.139904 
L 317.819038 125.955798 
L 317.947351 127.607617 
L 318.075663 125.691501 
L 318.332289 128.070124 
L 318.524758 136.593512 
L 318.717227 136.263179 
L 318.781383 134.347064 
L 318.845539 134.941694 
L 318.909695 134.743484 
L 318.973852 132.298775 
L 319.166321 129.986239 
L 319.230477 127.805827 
L 319.294633 130.514833 
L 319.35879 128.664805 
L 319.679571 127.145109 
L 319.743728 124.10577 
L 319.807884 125.427255 
L 320.064509 124.50219 
L 320.128666 125.889762 
L 320.321135 117.82888 
L 320.641916 122.850372 
L 320.706073 122.057531 
L 320.770229 118.093177 
L 320.962698 116.507395 
L 321.026854 118.555684 
L 321.09101 117.234199 
L 321.155167 116.837779 
L 321.219323 117.234199 
L 321.411792 116.837779 
L 321.604261 117.762793 
L 321.668417 115.185961 
L 321.925043 115.582381 
L 322.053355 114.128773 
L 322.117512 120.273539 
L 322.309981 121.198553 
L 322.374137 122.189654 
L 322.438293 121.330727 
L 322.50245 121.46285 
L 322.566606 125.493291 
L 322.759075 126.748689 
L 322.823231 129.589819 
L 322.887387 127.73979 
L 322.951544 124.370067 
L 323.0157 128.202297 
L 323.208169 128.730891 
L 323.272325 126.880812 
L 323.336482 132.497035 
L 323.400638 131.770231 
L 323.464794 131.505934 
L 323.72142 139.765026 
L 323.849732 136.857809 
L 323.913889 138.773925 
L 324.106358 138.707838 
L 324.170514 140.49183 
L 324.298827 136.263179 
L 324.362983 141.681141 
L 324.555452 143.398996 
L 324.619608 141.681141 
L 324.683765 144.786517 
L 324.812077 138.641801 
L 325.068702 140.69004 
L 325.261171 160.51186 
L 325.517797 162.956519 
L 325.646109 156.613543 
L 325.710266 157.406434 
L 325.902735 158.067151 
L 325.966891 157.802854 
L 326.031047 159.124339 
L 326.15936 170.488857 
L 326.415985 165.467315 
L 326.480142 167.845938 
L 326.544298 161.172577 
L 326.608454 161.701171 
L 326.865079 159.256462 
L 326.929236 156.283209 
L 326.993392 159.454672 
L 327.057548 155.754615 
L 327.250017 155.820702 
L 327.314174 156.613543 
L 327.37833 161.172577 
L 327.442486 160.181476 
L 327.506643 159.586846 
L 327.763268 161.172577 
L 327.827424 160.71007 
L 327.891581 167.581641 
L 327.955737 161.899382 
L 328.148206 164.013707 
L 328.212362 163.815497 
L 328.404831 159.917179 
L 328.5973 161.238664 
L 328.789769 170.42277 
L 328.853925 172.999603 
L 329.046394 175.840732 
L 329.110551 172.272799 
L 329.238863 176.69966 
L 329.30302 172.999603 
L 329.495489 171.678168 
L 329.559645 167.911974 
L 329.623801 170.62098 
L 329.687958 169.960263 
L 330.072896 178.153268 
L 330.137052 183.17481 
L 330.201208 179.210456 
L 330.393677 177.888971 
L 330.457834 180.928311 
L 330.650302 176.69966 
L 330.906928 173.924617 
L 330.971084 165.731612 
L 331.03524 168.044148 
L 331.291866 164.872634 
L 331.420178 160.577947 
L 331.484335 162.031505 
L 331.548491 161.106491 
L 331.74096 159.983266 
L 331.805116 162.494012 
L 331.869273 161.370788 
L 331.933429 160.445773 
L 331.997585 162.295802 
L 332.190054 161.701171 
L 332.254211 162.031505 
L 332.382523 164.674424 
L 332.44668 163.683323 
L 332.639148 165.929822 
L 332.703305 165.797649 
L 332.895774 158.661832 
L 333.088243 159.124339 
L 333.216555 153.24387 
L 333.280712 154.631391 
L 333.344868 153.44208 
L 333.537337 154.102797 
L 333.601493 153.177783 
L 333.793962 160.577947 
L 333.986431 159.256462 
L 334.050588 162.295802 
L 334.114744 160.247563 
L 334.1789 158.463622 
L 334.243057 166.061946 
L 334.435526 166.392329 
L 334.499682 166.98696 
L 334.627994 160.974367 
L 334.692151 161.502961 
L 334.88462 159.124339 
L 335.012932 165.335142 
L 335.077089 164.740511 
L 335.141245 162.824396 
L 335.333714 162.295802 
L 335.39787 160.842194 
L 335.462027 162.361889 
L 335.590339 162.758309 
L 335.782808 166.722713 
L 335.846965 165.533402 
L 335.975277 170.22456 
L 336.039434 169.629879 
L 336.231903 168.837039 
L 336.296059 166.061946 
L 336.424372 170.554894 
L 336.488528 169.563792 
L 336.680997 169.894176 
L 336.745153 167.779851 
L 336.873466 173.06569 
L 336.937622 171.017401 
L 337.130091 173.131726 
L 337.32256 177.360377 
L 337.386716 177.756848 
L 337.579185 175.972856 
L 337.643342 178.946159 
L 337.771654 176.369326 
L 337.835811 176.765747 
L 338.092436 173.85853 
L 338.156592 177.09613 
L 338.220749 175.378225 
L 338.284905 169.828089 
L 338.477374 167.911974 
L 338.605686 171.017401 
L 338.733999 167.581641 
L 338.990624 168.308445 
L 339.054781 170.158473 
L 339.183093 162.956519 
L 339.375562 165.004808 
L 339.439719 164.013707 
L 339.632188 158.860042 
L 339.824657 156.349246 
L 340.017126 162.097592 
L 340.081282 160.31365 
L 340.273751 159.983266 
L 340.402064 164.542301 
L 340.46622 161.370788 
L 340.530376 161.833295 
L 340.787001 160.181476 
L 340.915314 162.229765 
L 340.97947 161.370788 
L 341.171939 162.031505 
L 341.364408 156.943926 
L 341.428565 157.604644 
L 341.621034 155.358195 
L 341.813503 162.758309 
L 341.877659 165.665525 
L 342.134284 164.278004 
L 342.326753 157.604644 
L 342.519222 160.31365 
L 342.583378 158.661832 
L 342.647535 164.938721 
L 342.711691 164.806598 
L 342.775847 163.5512 
L 342.968316 163.286903 
L 343.032473 163.683323 
L 343.160785 160.181476 
L 343.224942 162.560099 
L 343.417411 162.494012 
L 343.545723 168.044148 
L 343.60988 167.581641 
L 343.674036 163.485113 
L 343.930661 160.974367 
L 343.994818 161.172577 
L 344.12313 156.943926 
L 344.315599 158.001064 
L 344.379756 157.208223 
L 344.443912 158.265361 
L 344.508068 162.097592 
L 344.764693 162.229765 
L 344.82885 162.494012 
L 345.021319 160.049353 
L 345.213788 161.040454 
L 345.277944 160.445773 
L 345.470413 157.010013 
L 345.662882 157.406434 
L 345.855351 155.358195 
L 346.111976 157.670731 
L 346.304445 149.477726 
L 346.368602 150.931284 
L 346.56107 151.790261 
L 346.625227 149.808059 
L 346.689383 150.865247 
L 346.753539 151.592051 
L 346.817696 150.20453 
L 347.074321 150.006269 
L 347.138477 146.240125 
L 347.202634 147.099103 
L 347.26679 147.627647 
L 347.587572 155.886739 
L 347.715884 155.424231 
L 347.908353 156.415333 
L 347.97251 157.604644 
L 348.036666 156.67963 
L 348.100822 154.03671 
L 348.164979 155.358195 
L 348.357448 155.358195 
L 348.421604 158.199325 
L 348.48576 154.631391 
L 348.549916 156.349246 
L 348.614073 155.556405 
L 348.806542 156.018912 
L 348.999011 150.79916 
L 349.063167 150.79916 
L 349.255636 150.270566 
L 349.448105 157.935028 
L 349.70473 156.283209 
L 349.897199 151.592051 
L 349.961356 150.468776 
L 350.217981 152.583102 
L 350.282137 151.592051 
L 350.346294 147.627647 
L 350.41045 149.015219 
L 350.602919 148.816958 
L 350.667075 147.958031 
L 350.731231 148.024118 
L 350.795388 150.79916 
L 350.859544 148.156241 
L 351.052013 148.949132 
L 351.116169 148.024118 
L 351.244482 153.045609 
L 351.308638 150.336653 
L 351.565264 149.609849 
L 351.62942 149.015219 
L 351.693576 145.909792 
L 351.757733 146.504422 
L 351.950202 146.834806 
L 352.014358 147.825907 
L 352.206827 141.416844 
L 352.463452 144.32401 
L 352.527608 146.372299 
L 352.591765 144.918691 
L 352.655921 144.852604 
L 352.84839 144.32401 
L 352.912546 144.456184 
L 353.105015 141.548967 
L 353.489953 148.618748 
L 353.55411 148.420538 
L 353.746579 149.147342 
L 354.003204 155.886739 
L 354.195673 154.631391 
L 354.259829 154.829601 
L 354.388142 157.010013 
L 354.452298 154.433181 
L 354.644767 152.979573 
L 354.708923 151.525964 
L 354.77308 153.44208 
L 354.837236 150.138443 
L 354.901392 151.592051 
L 355.093861 149.411639 
L 355.158018 150.006269 
L 355.222174 145.513321 
L 355.28633 147.56161 
L 355.350487 147.759821 
L 355.542956 146.636596 
L 355.671268 140.161446 
L 355.735425 141.350757 
L 355.99205 135.007781 
L 356.056206 133.62026 
L 356.120363 129.655906 
L 356.184519 131.571971 
L 356.248675 133.62026 
L 356.441144 132.629158 
L 356.633613 137.6507 
L 356.697769 137.05602 
L 356.890238 136.329215 
L 357.146864 140.756127 
L 357.403489 142.275772 
L 357.467645 142.077561 
L 357.531802 144.191887 
L 357.595958 139.765026 
L 357.788427 142.606155 
L 357.852583 142.540069 
L 357.91674 142.804365 
L 358.045052 140.227533 
L 358.237521 141.020373 
L 358.301678 140.227533 
L 358.365834 142.077561 
L 358.42999 140.822163 
L 358.494146 139.434642 
L 358.686615 138.641801 
L 358.943241 133.025579 
L 359.13571 135.932795 
L 359.199866 139.038222 
L 359.264022 138.773925 
L 359.328179 136.329215 
L 359.392335 140.227533 
L 359.584804 137.914997 
L 359.841429 127.607617 
L 360.033898 130.184449 
L 360.098055 126.616515 
L 360.226367 135.470288 
L 360.290524 132.893455 
L 360.482992 132.893455 
L 360.611305 139.236432 
L 360.739618 138.311418 
L 361.060399 134.347064 
L 361.445337 121.727147 
L 361.509494 121.859321 
L 361.57365 124.766487 
L 361.637806 121.26464 
L 361.894432 118.093177 
L 362.022744 108.644774 
L 362.086901 113.99665 
L 362.343526 112.344831 
L 362.471838 117.564583 
L 362.535995 112.873425 
L 362.728464 114.525244 
L 362.79262 113.534142 
L 362.985089 104.217863 
L 363.177558 106.332188 
L 363.241714 112.476954 
L 363.305871 111.287643 
L 363.370027 113.930563 
L 363.434183 121.991444 
L 363.626652 122.321828 
L 363.754965 124.370067 
L 363.819121 124.10577 
L 363.883278 126.484392 
L 364.139903 131.505934 
L 364.204059 128.136211 
L 364.268216 129.920152 
L 364.332372 130.316623 
L 364.524841 127.079073 
L 364.653153 121.727147 
L 364.71731 125.955798 
L 364.781466 123.445052 
L 365.038091 131.37376 
L 365.102248 130.845217 
L 365.166404 130.448746 
L 365.23056 137.6507 
L 365.423029 134.4131 
L 365.615498 129.523732 
L 365.679655 130.58092 
L 365.93628 126.682602 
L 366.000436 118.555684 
L 366.064593 121.925357 
L 366.128749 119.018191 
L 366.321218 118.093177 
L 366.385374 115.912765 
L 366.513687 123.048632 
L 366.577843 120.273539 
L 366.770312 120.339626 
L 366.898625 116.243098 
L 366.962781 118.291387 
L 367.283563 116.771692 
L 367.347719 117.43241 
L 367.476032 120.537836 
L 367.668501 119.084228 
L 367.86097 116.044888 
L 367.925126 114.59128 
L 368.117595 115.912765 
L 368.181751 117.43241 
L 368.245908 121.595024 
L 368.310064 119.414612 
L 368.37422 116.903866 
L 368.566689 118.02709 
L 368.823314 129.127312 
L 369.07994 131.770231 
L 369.144096 135.205991 
L 369.272409 129.523732 
L 369.464878 136.461389 
L 369.529034 135.932795 
L 369.59319 136.857809 
L 369.721503 129.457645 
L 369.978128 137.320316 
L 370.042285 135.800672 
L 370.106441 131.638057 
L 370.170597 133.223789 
L 370.427222 128.863015 
L 370.491379 129.259435 
L 370.619691 128.202297 
L 370.81216 132.430948 
L 371.068786 144.918691 
L 371.261255 143.92759 
L 371.389567 148.816958 
L 371.453724 143.398996 
L 371.51788 143.795467 
L 371.710349 142.143648 
L 371.838662 139.104309 
L 371.902818 139.632852 
L 371.966974 135.932795 
L 372.2236 143.92759 
L 372.287756 141.879351 
L 372.416068 146.900893 
L 372.608537 138.906048 
L 372.672694 140.822163 
L 372.73685 145.513321 
L 372.801006 143.068662 
L 373.121788 136.329215 
L 373.185944 133.554173 
L 373.314257 143.266873 
L 373.506726 145.116901 
L 373.635039 140.29362 
L 373.699195 140.557866 
L 373.763351 140.49183 
L 373.95582 141.879351 
L 374.212446 135.602411 
L 374.404914 133.289876 
L 374.533227 136.263179 
L 374.597383 135.470288 
L 374.66154 131.37376 
L 374.854009 130.316623 
L 374.982321 136.659599 
L 375.110634 131.439847 
L 375.303103 134.347064 
L 375.367259 129.721942 
L 375.431416 129.986239 
L 375.559728 132.563072 
L 375.752197 131.307724 
L 375.816354 132.430948 
L 376.008823 123.378966 
L 376.201292 122.189654 
L 376.39376 130.845217 
L 376.457917 130.713043 
L 376.650386 131.902354 
L 376.714542 129.854116 
L 376.778698 131.770231 
L 376.907011 127.871914 
L 377.291949 132.298775 
L 377.356105 130.448746 
L 377.548574 129.788029 
L 377.676887 135.536375 
L 377.8052 126.418305 
L 377.997669 130.448746 
L 378.061825 126.946899 
L 378.125981 127.73979 
L 378.190138 126.682602 
L 378.254294 128.532631 
L 378.703388 119.018191 
L 378.895857 122.982545 
L 378.960013 121.528937 
L 379.088326 125.162958 
L 379.152482 124.766487 
L 379.409108 121.727147 
L 379.473264 117.82888 
L 379.53742 120.273539 
L 379.601577 120.86822 
L 379.794046 121.198553 
L 379.858202 123.643263 
L 379.986515 120.4718 
L 380.050671 124.50219 
L 380.24314 122.652162 
L 380.307296 120.86822 
L 380.435609 128.929101 
L 380.499765 127.54158 
L 380.884703 133.686346 
L 380.948859 138.443541 
L 381.141328 139.632852 
L 381.205485 138.311418 
L 381.269641 138.641801 
L 381.333797 138.245331 
L 381.397954 135.602411 
L 381.590423 134.677397 
L 381.654579 134.875607 
L 381.718735 135.205991 
L 381.782892 133.686346 
L 381.847048 134.611361 
L 382.16783 132.629158 
L 382.296142 131.902354 
L 382.488611 131.638057 
L 382.552767 128.995138 
L 382.616924 130.97734 
L 382.68108 138.377504 
L 382.745236 135.800672 
L 383.066018 132.100564 
L 383.130174 133.62026 
L 383.194331 128.004087 
L 383.515112 136.857809 
L 383.643425 131.439847 
L 383.835894 131.109463 
L 383.964207 134.677397 
L 384.028363 134.479187 
L 384.284988 134.347064 
L 384.349144 138.047121 
L 384.413301 137.782824 
L 384.734082 134.01668 
L 384.798239 134.21489 
L 384.990708 126.682602 
L 385.183177 128.929101 
L 385.439802 121.132517 
L 385.696427 122.057531 
L 385.760584 118.555684 
L 385.82474 120.339626 
L 385.888896 121.925357 
L 386.273834 117.564583 
L 386.33799 113.732353 
L 386.530459 116.441359 
L 386.594616 111.35373 
L 386.658772 112.146621 
L 387.172023 98.40348 
L 387.236179 104.019653 
L 387.492804 106.200065 
L 387.556961 107.984007 
L 387.685273 104.614333 
L 387.877742 105.341138 
L 388.070211 101.707117 
L 388.134368 105.275051 
L 388.326836 104.085739 
L 388.455149 112.080534 
L 388.519305 111.221607 
L 388.583462 113.666266 
L 388.775931 115.119874 
L 388.840087 110.95731 
L 388.904243 113.798439 
L 389.032556 118.423511 
L 389.225025 117.894917 
L 389.289181 118.02709 
L 389.48165 112.212708 
L 389.738276 115.780591 
L 389.802432 112.476954 
L 389.866588 113.203759 
L 390.123214 112.146621 
L 390.315682 105.605435 
L 390.379839 106.926869 
L 390.572308 106.067942 
L 390.764777 100.980313 
L 390.828933 102.103537 
L 391.021402 102.235711 
L 391.213871 106.332188 
L 391.278027 104.151826 
L 391.470496 104.87863 
L 391.534653 106.067942 
L 391.727122 111.75015 
L 391.919591 112.543041 
L 391.983747 114.062736 
L 392.11206 107.587586 
L 392.176216 107.851883 
L 392.368685 111.023397 
L 392.561154 103.425022 
L 392.62531 105.142877 
L 392.946092 102.764305 
L 393.010248 104.746457 
L 393.074404 101.971414 
L 393.33103 105.605435 
L 393.395186 111.485904 
L 393.459342 110.7591 
L 393.523499 110.296593 
L 393.715968 109.834085 
L 393.84428 111.35373 
L 393.908437 109.107281 
L 393.972593 110.494803 
L 394.229218 109.635825 
L 394.293374 110.95731 
L 394.357531 108.710811 
L 394.421687 101.971414 
L 394.614156 103.887529 
L 395.255719 93.976619 
L 395.319876 96.487365 
L 395.576501 101.310697 
L 395.640657 99.857089 
L 395.704814 103.358935 
L 395.76897 93.249815 
L 395.961439 86.840752 
L 396.025595 86.972875 
L 396.089752 90.012265 
L 396.153908 88.360447 
L 396.538846 83.206731 
L 396.603002 84.197832 
L 396.667158 82.744224 
L 396.859627 86.708629 
L 397.052096 92.324801 
L 397.116253 95.16593 
L 397.308722 95.364141 
L 397.372878 93.381938 
L 397.437034 94.901634 
L 397.501191 93.249815 
L 397.565347 93.844446 
L 397.757816 94.439126 
L 397.821972 93.976619 
L 398.014441 87.567556 
L 398.271066 92.985518 
L 398.335223 92.589098 
L 398.399379 90.805106 
L 398.463535 95.430227 
L 398.656004 95.826648 
L 398.784317 91.201577 
L 398.848473 94.76946 
L 398.91263 92.126591 
L 399.169255 95.562351 
L 399.297568 93.051605 
L 399.361724 95.562351 
L 399.554193 93.910532 
L 399.618349 93.976619 
L 399.682506 94.240916 
L 399.810818 98.271357 
L 400.003287 95.231967 
L 400.067444 95.298054 
L 400.259912 97.940973 
L 400.580694 94.108743 
L 400.709007 101.24461 
L 400.901476 100.583893 
L 400.965632 103.292849 
L 401.029788 101.64103 
L 401.093945 101.44282 
L 401.158101 100.649979 
L 401.35057 101.905327 
L 401.863821 93.712322 
L 401.927977 94.042706 
L 401.992133 93.580149 
L 402.441227 104.68037 
L 402.505384 103.623232 
L 402.826165 105.737558 
L 402.890322 104.217863 
L 402.954478 106.464362 
L 403.146947 104.87863 
L 403.27526 103.094638 
L 403.339416 103.755356 
L 403.403572 102.962515 
L 403.660198 104.085739 
L 403.78851 108.182267 
L 403.852667 108.050093 
L 404.045136 107.455463 
L 404.109292 108.446514 
L 404.301761 104.48216 
L 404.558386 110.098332 
L 404.750855 126.880812 
L 405.00748 130.97734 
L 405.071637 130.316623 
L 405.199949 136.527426 
L 405.392418 135.932795 
L 405.456575 135.272078 
L 405.520731 137.782824 
L 405.649044 138.377504 
L 405.905669 134.479187 
L 406.033982 142.804365 
L 406.098138 139.698939 
L 406.290607 139.963236 
L 406.354763 139.698939 
L 406.418919 137.386403 
L 406.547232 143.597256 
L 406.739701 143.465083 
L 406.803857 143.068662 
L 406.93217 150.733073 
L 407.188795 146.702633 
L 407.252952 148.156241 
L 407.317108 147.033016 
L 407.381264 148.420538 
L 407.445421 147.759821 
L 407.702046 148.750922 
L 407.894515 142.077561 
L 408.15114 142.407945 
L 408.215296 141.615054 
L 408.279453 137.122106 
L 408.343609 140.29362 
L 408.664391 137.188193 
L 408.728547 136.791723 
L 408.792703 138.311418 
L 409.049329 134.809571 
L 409.177641 142.407945 
L 409.241798 142.077561 
L 409.434267 138.443541 
L 409.562579 144.522271 
L 409.626736 143.597256 
L 409.690892 142.738279 
L 409.883361 142.936489 
L 409.947517 140.557866 
L 410.011674 142.936489 
L 410.07583 142.672192 
L 410.139986 142.143648 
L 410.460768 134.743484 
L 410.58908 139.368555 
L 410.781549 140.425743 
L 410.909862 144.257974 
L 411.038175 139.632852 
L 411.2948 139.963236 
L 411.423113 136.989983 
L 411.487269 133.752383 
L 411.743894 136.593512 
L 411.872207 144.390097 
L 411.936363 143.72938 
L 412.128832 143.861503 
L 412.257145 147.16514 
L 412.321301 149.081255 
L 412.385457 147.627647 
L 412.577926 149.345552 
L 412.642083 148.618748 
L 412.706239 142.606155 
L 412.770395 144.522271 
L 412.834552 142.672192 
L 413.027021 141.020373 
L 413.155333 137.386403 
L 413.21949 138.113207 
L 413.283646 137.716737 
L 413.476115 135.998882 
L 413.540271 138.377504 
L 413.604428 136.395302 
L 413.668584 138.377504 
L 413.73274 136.989983 
L 413.925209 134.611361 
L 413.989366 135.602411 
L 414.053522 134.280977 
L 414.117678 134.743484 
L 414.181834 136.857809 
L 414.374303 135.602411 
L 414.566772 128.070124 
L 414.823398 129.193398 
L 414.887554 125.162958 
L 414.95171 127.012986 
L 415.015867 128.598718 
L 415.080023 128.268334 
L 415.272492 129.721942 
L 415.336648 133.355963 
L 415.400805 131.505934 
L 415.529117 130.316623 
L 415.721586 132.893455 
L 415.785743 131.439847 
L 415.914055 134.479187 
L 415.978212 134.347064 
L 416.298993 137.122106 
L 416.363149 136.593512 
L 416.427306 133.025579 
L 416.619775 133.488086 
L 416.683931 132.563072 
L 416.748087 126.946899 
L 416.812244 127.145109 
L 417.068869 128.136211 
L 417.133025 129.986239 
L 417.325494 127.673703 
L 417.646276 125.559378 
L 417.710432 127.012986 
L 417.774589 123.90756 
L 417.967058 125.096871 
L 418.031214 122.850372 
L 418.09537 124.171857 
L 418.223683 125.955798 
L 418.416152 126.087972 
L 418.480308 125.823675 
L 418.544464 122.123618 
L 418.608621 123.378966 
L 418.672777 122.982545 
L 418.865246 124.964697 
L 419.057715 122.586125 
L 419.31434 121.793234 
L 419.570966 130.250536 
L 419.763435 133.884557 
L 419.891747 133.355963 
L 420.02006 135.800672 
L 420.212529 134.875607 
L 420.469154 131.638057 
L 420.661623 130.77913 
L 420.789936 128.202297 
L 420.854092 128.004087 
L 420.918248 126.748689 
L 421.110717 127.211196 
L 421.174874 131.17555 
L 421.23903 128.929101 
L 421.303186 130.052326 
L 421.367343 128.863015 
L 421.559812 128.664805 
L 421.623968 128.004087 
L 421.688124 128.664805 
L 421.752281 126.220095 
L 421.816437 128.136211 
L 422.008906 127.73979 
L 422.073062 128.334421 
L 422.137218 127.475493 
L 422.265531 124.039683 
L 422.458 125.757588 
L 422.522156 127.871914 
L 422.586313 126.550479 
L 422.714625 123.90756 
L 422.907094 123.445052 
L 422.971251 124.832574 
L 423.035407 122.387865 
L 423.099563 123.511139 
L 423.16372 122.321828 
L 423.356189 121.66106 
L 423.548658 119.480699 
L 423.612814 122.652162 
L 423.869439 117.696706 
L 423.933596 119.414612 
L 423.997752 116.309185 
L 424.061908 116.837779 
L 424.38269 124.10577 
L 424.446846 123.973646 
L 424.511002 123.114669 
L 424.89594 128.995138 
L 425.152566 125.625465 
L 425.216722 126.220095 
L 425.409191 130.845217 
L 425.60166 132.695245 
L 425.665816 131.704144 
L 425.729973 131.902354 
L 425.858285 133.488086 
L 426.11491 132.430948 
L 426.243223 130.97734 
L 426.307379 128.598718 
L 426.564005 130.052326 
L 426.756474 134.01668 
L 426.948943 133.355963 
L 427.141412 137.518527 
L 427.205568 135.272078 
L 427.398037 132.761282 
L 427.462193 133.223789 
L 427.52635 133.884557 
L 427.654662 131.836267 
L 427.911288 130.713043 
L 428.0396 131.836267 
L 428.103756 135.404201 
L 428.296225 135.734585 
L 428.424538 132.232738 
L 428.552851 133.091666 
L 428.74532 134.21489 
L 428.809476 134.082767 
L 428.873632 131.836267 
L 429.001945 132.430948 
L 429.25857 131.836267 
L 429.386883 136.263179 
L 429.451039 134.743484 
L 429.643508 135.073868 
L 429.707665 134.545274 
L 429.771821 133.091666 
L 429.900134 134.875607 
L 430.092602 135.338165 
L 430.156759 135.932795 
L 430.220915 133.091666 
L 430.285071 133.355963 
L 430.349228 133.488086 
L 430.541697 135.073868 
L 430.734166 140.88825 
L 430.798322 140.623953 
L 431.054947 140.359656 
L 431.119104 137.386403 
L 431.18326 138.245331 
L 431.247416 137.122106 
L 431.504042 139.434642 
L 431.568198 138.707838 
L 431.632354 139.038222 
L 431.696511 139.897149 
L 431.88898 140.227533 
L 432.017292 143.72938 
L 432.081448 143.266873 
L 432.145605 143.72938 
L 432.40223 143.398996 
L 432.594699 148.883045 
L 432.787168 149.147342 
L 432.851324 147.16514 
L 432.915481 148.486625 
L 432.979637 146.96693 
L 433.043793 149.015219 
L 433.236262 150.733073 
L 433.492888 159.256462 
L 433.685357 153.706377 
L 433.813669 158.661832 
L 433.877826 158.067151 
L 433.941982 159.256462 
L 434.134451 159.454672 
L 434.198607 158.331448 
L 434.262763 162.427975 
L 434.32692 162.229765 
L 434.391076 160.643983 
L 434.647701 161.370788 
L 434.711858 163.35299 
L 434.776014 162.427975 
L 434.84017 159.851143 
L 435.032639 159.058252 
L 435.096796 161.172577 
L 435.225108 157.736817 
L 435.289265 160.247563 
L 435.610046 161.172577 
L 435.674203 159.785056 
L 435.738359 161.238664 
L 435.994984 158.529658 
L 436.05914 157.208223 
L 436.123297 157.47252 
L 436.187453 158.265361 
L 436.379922 158.926129 
L 436.444078 160.247563 
L 436.508235 159.785056 
L 436.636547 156.084999 
L 436.829016 157.935028 
L 437.021485 152.847399 
L 437.278111 153.309906 
L 437.47058 157.604644 
L 437.534736 154.631391 
L 437.727205 154.499217 
L 437.919674 157.47252 
L 437.98383 156.87784 
L 438.176299 157.208223 
L 438.240455 156.811803 
L 438.432924 163.5512 
L 438.625393 164.211917 
L 438.753706 166.458416 
L 438.882019 163.419077 
L 439.074488 162.692272 
L 439.138644 165.004808 
L 439.2028 164.872634 
L 439.331113 163.088693 
L 439.523582 163.419077 
L 439.651895 166.061946 
L 439.780207 164.608337 
L 439.972676 166.061946 
L 440.165145 171.545995 
L 440.229301 168.969162 
L 440.42177 168.506655 
L 440.485927 168.770952 
L 440.678396 161.370788 
L 440.935021 154.102797 
L 441.12749 161.172577 
L 441.319959 163.5512 
L 441.384115 161.833295 
L 441.448272 164.542301 
L 441.512428 161.701171 
L 441.576584 162.626186 
L 441.83321 163.683323 
L 441.897366 164.476214 
L 442.025678 161.833295 
L 442.218147 161.502961 
L 442.282304 159.718969 
L 442.34646 161.899382 
L 442.474773 159.983266 
L 442.731398 158.727868 
L 442.795554 156.151036 
L 442.859711 156.811803 
L 443.116336 159.058252 
L 443.180492 157.340347 
L 443.308805 157.27431 
L 443.372961 156.67963 
L 443.629587 158.926129 
L 443.822056 156.67963 
L 444.142837 158.727868 
L 444.206993 156.87784 
L 444.463619 162.560099 
L 444.527775 162.097592 
L 444.656088 163.286903 
L 444.720244 162.229765 
L 444.912713 163.088693 
L 444.976869 162.163679 
L 445.041026 165.070895 
L 445.105182 164.278004 
L 445.169338 162.560099 
L 445.361807 162.229765 
L 445.425964 163.617287 
L 445.49012 163.022606 
L 445.618433 158.265361 
L 445.810902 158.463622 
L 445.875058 159.124339 
L 445.939214 157.47252 
L 446.00337 157.670731 
L 446.067527 157.406434 
L 446.259996 155.292108 
L 446.324152 156.217122 
L 446.388308 154.961724 
L 446.452465 155.027811 
L 446.516621 154.829601 
L 446.70909 156.349246 
L 446.837403 158.067151 
L 446.965715 156.67963 
L 447.286497 159.652882 
L 447.350653 158.265361 
L 447.41481 161.304701 
L 447.607279 160.90828 
L 447.671435 163.35299 
L 447.735591 162.560099 
L 447.799747 162.626186 
L 447.863904 163.881584 
L 448.056373 163.74941 
L 448.184685 167.647728 
L 448.248842 167.581641 
L 448.312998 167.317344 
L 448.569623 168.704865 
L 448.697936 166.524453 
L 448.762092 166.194119 
L 448.954561 169.233459 
L 449.018718 167.515554 
L 449.211187 175.774646 
L 449.403656 175.510349 
L 449.596125 171.215611 
L 449.660281 172.008502 
L 449.85275 171.612081 
L 449.916906 171.678168 
L 449.981062 173.594233 
L 450.045219 172.404922 
L 450.109375 173.197813 
L 450.301844 173.06569 
L 450.558469 166.392329 
L 450.750938 166.458416 
L 451.007564 174.122827 
L 451.200033 173.726407 
L 451.392502 175.378225 
L 451.456658 172.801393 
L 451.841596 168.440568 
L 451.905752 166.392329 
L 452.098221 165.401228 
L 452.162377 165.533402 
L 452.226534 165.665525 
L 452.354846 165.269105 
L 452.547315 165.797649 
L 452.99641 162.097592 
L 453.188879 157.27431 
L 453.253035 155.292108 
L 453.445504 154.895688 
L 453.573817 158.463622 
L 453.637973 158.067151 
L 453.894598 155.027811 
L 453.958754 154.763514 
L 454.022911 152.384892 
L 454.087067 153.24387 
L 454.343692 150.931284 
L 454.472005 154.168884 
L 454.985256 139.236432 
L 455.049412 144.852604 
L 455.306037 148.486625 
L 455.43435 148.420538 
L 455.498506 146.372299 
L 455.690975 146.768719 
L 455.883444 149.081255 
L 455.9476 151.261667 
L 456.332538 147.033016 
L 456.396695 148.618748 
L 456.589164 148.420538 
L 456.781633 141.681141 
L 456.845789 146.834806 
L 457.038258 148.354451 
L 457.294883 143.465083 
L 457.551509 145.447285 
L 457.615665 147.16514 
L 457.679821 143.92759 
L 457.743977 144.588307 
L 458.000603 143.398996 
L 458.064759 143.53117 
L 458.128915 145.579408 
L 458.193072 143.53117 
L 458.385541 144.588307 
L 458.449697 142.540069 
L 458.642166 150.336653 
L 458.962948 145.909792 
L 459.09126 142.606155 
L 459.283729 143.134699 
L 459.347886 141.218634 
L 459.412042 141.482881 
L 459.476198 142.473982 
L 459.540355 140.29362 
L 459.79698 141.681141 
L 459.989449 132.034528 
L 460.181918 130.250536 
L 460.246074 130.845217 
L 460.374387 128.730891 
L 460.438543 129.854116 
L 460.759325 137.122106 
L 460.887637 136.064918 
L 461.080106 137.188193 
L 461.208419 134.280977 
L 461.336732 139.104309 
L 461.529201 138.179244 
L 461.593357 140.557866 
L 461.657513 140.425743 
L 461.721669 138.773925 
L 461.978295 139.765026 
L 462.23492 134.875607 
L 462.427389 136.329215 
L 462.491545 134.941694 
L 462.619858 138.641801 
L 462.684014 137.716737 
L 462.876483 135.932795 
L 462.94064 133.554173 
L 463.004796 134.875607 
L 463.068952 133.025579 
L 463.133109 133.488086 
L 463.45389 128.400508 
L 463.518047 129.788029 
L 463.582203 129.457645 
L 463.838828 131.439847 
L 463.967141 125.030784 
L 464.031297 125.228994 
L 464.416235 119.811032 
L 464.480391 115.053787 
L 464.67286 113.005548 
L 464.801173 115.648468 
L 464.865329 115.780591 
L 464.929486 112.939462 
L 465.186111 116.507395 
L 465.37858 112.344831 
L 465.571049 112.476954 
L 465.763518 107.91797 
L 465.827674 110.891223 
L 466.084299 107.257253 
L 466.148456 110.230506 
L 466.276768 107.71976 
L 466.469237 109.900122 
L 466.59755 105.935768 
L 466.725863 110.56089 
L 466.982488 111.75015 
L 467.046644 111.35373 
L 467.110801 114.921664 
L 467.174957 114.128773 
L 467.367426 112.609128 
L 467.431582 114.19486 
L 467.559895 109.041195 
L 467.624051 110.362629 
L 467.81652 110.032296 
L 467.880676 111.221607 
L 467.944833 110.164419 
L 468.073145 111.55194 
L 468.329771 110.56089 
L 468.393927 108.710811 
L 468.52224 100.253509 
L 468.843021 92.721221 
L 468.907178 92.655134 
L 468.971334 93.778409 
L 469.163803 89.087251 
L 469.227959 91.73012 
L 469.356272 82.01742 
L 469.420428 83.999622 
L 469.612897 87.567556 
L 469.677053 84.263919 
L 469.74121 86.246122 
L 469.805366 87.89794 
L 469.869522 82.876398 
L 470.061991 83.603202 
L 470.190304 80.101355 
L 470.25446 81.554913 
L 470.318617 81.356703 
L 470.575242 80.960283 
L 470.639398 79.770971 
L 470.703555 85.849651 
L 470.767711 85.387144 
L 470.96018 90.012265 
L 471.216805 104.548247 
L 471.601743 98.865987 
L 471.665899 94.637337 
L 471.858368 93.580149 
L 471.922525 89.880092 
L 471.986681 94.76946 
L 472.050837 93.183728 
L 472.114994 92.126591 
L 472.307463 91.53191 
L 472.371619 90.606896 
L 472.564088 82.678188 
L 472.756557 85.188934 
L 472.820713 83.603202 
L 472.949026 90.210475 
L 473.013182 95.298054 
L 473.205651 93.249815 
L 473.269808 96.817749 
L 473.333964 95.364141 
L 473.39812 95.628438 
L 473.462277 94.96772 
L 473.654745 97.676676 
L 473.783058 95.694524 
L 473.847214 95.826648 
L 474.10384 100.187422 
L 474.167996 99.526705 
L 474.296309 91.267613 
L 474.360465 93.778409 
L 474.552934 97.544553 
L 474.745403 105.275051 
L 474.809559 106.266152 
L 475.066185 105.142877 
L 475.194497 99.460668 
L 475.258654 100.055299 
L 475.451123 98.799901 
L 475.579435 94.703423 
L 475.643591 96.553452 
L 475.707748 96.685575 
L 475.900217 96.355242 
L 475.964373 94.96772 
L 476.156842 97.478466 
L 476.349311 101.178523 
L 476.413467 94.637337 
L 476.477624 97.478466 
L 476.605936 101.44282 
L 476.798405 100.84819 
L 476.862562 101.707117 
L 476.926718 98.667777 
L 476.990874 104.48216 
L 477.055031 100.187422 
L 477.439969 106.001855 
L 477.504125 106.001855 
L 477.696594 106.662572 
L 477.953219 103.292849 
L 478.145688 103.755356 
L 478.209844 106.398275 
L 478.338157 103.028552 
L 478.402313 98.139183 
L 478.594782 98.932074 
L 478.723095 101.707117 
L 478.787251 101.178523 
L 478.851408 99.592792 
L 479.043877 100.451719 
L 479.172189 97.148082 
L 479.300502 99.262408 
L 479.68544 94.37304 
L 479.942065 86.708629 
L 480.006221 89.219374 
L 480.19869 81.158493 
L 480.391159 82.810311 
L 480.519472 90.408686 
L 480.583628 89.880092 
L 480.647785 86.312158 
L 480.840254 84.85855 
L 480.968566 88.558657 
L 481.032723 87.89794 
L 481.096879 86.047861 
L 481.353504 84.85855 
L 481.417661 84.990723 
L 481.930911 68.47254 
L 481.995067 59.883064 
L 482.187536 61.336673 
L 482.444162 39.13623 
L 482.636631 32.000363 
L 482.764943 54.597276 
L 482.8291 54.200805 
L 482.893256 59.288434 
L 483.085725 38.805897 
L 483.214038 69.529678 
L 483.278194 67.018932 
L 483.34235 47.461409 
L 483.534819 38.145129 
L 483.598975 43.563091 
L 483.663132 43.100584 
L 483.727288 41.184519 
L 483.791444 35.303999 
L 484.04807 32.000363 
L 484.240539 28.961023 
L 484.433008 32.595044 
L 484.56132 37.154078 
L 484.625477 35.436173 
L 484.882102 37.154078 
L 484.946258 36.09689 
L 485.074571 28.102096 
L 485.138727 30.216421 
L 485.331196 28.102096 
L 485.395353 25.855596 
L 485.459509 28.366393 
L 485.523665 27.837799 
L 485.587821 27.639589 
L 485.78029 31.934326 
L 485.844447 28.432479 
L 485.908603 28.8289 
L 485.972759 30.745015 
L 486.036916 30.480718 
L 486.229385 30.348544 
L 486.293541 30.943225 
L 486.357697 33.916478 
L 486.421854 29.02711 
L 486.48601 31.670029 
L 486.678479 33.916478 
L 486.870948 28.366393 
L 486.935104 28.894987 
L 487.127573 33.850442 
L 487.320042 30.877138 
L 487.384199 29.357494 
L 487.640824 31.471819 
L 487.70498 30.811051 
L 487.769136 31.537856 
L 487.833293 28.961023 
L 488.025762 30.084298 
L 488.089918 31.405732 
L 488.282387 43.298845 
L 488.474856 42.439867 
L 488.667325 30.811051 
L 488.731481 32.595044 
L 488.92395 33.255761 
L 488.988107 34.907579 
L 489.180576 31.603942 
L 489.437201 32.595044 
L 489.62967 28.762813 
L 489.822139 27.969972 
L 489.950451 31.405732 
L 490.014608 30.414631 
L 490.271233 31.603942 
L 490.463702 27.705675 
L 490.527858 29.291407 
L 490.720327 28.432479 
L 490.784484 28.498516 
L 490.84864 28.762813 
L 490.912796 28.168182 
L 490.976953 28.366393 
L 491.169422 27.837799 
L 491.361891 25.921683 
L 491.618516 27.573502 
L 491.810985 23.477024 
L 491.875141 23.278764 
L 492.06761 24.335952 
L 492.131766 21.560909 
L 492.324235 25.062756 
L 492.516704 25.921683 
L 492.709173 32.727167 
L 492.77333 32.330747 
L 492.965799 31.009312 
L 493.029955 29.621791 
L 493.094111 30.678928 
L 493.222424 27.771712 
L 493.414893 28.894987 
L 493.607362 33.982565 
L 493.671518 32.66113 
L 493.863987 31.802153 
L 494.056456 27.573502 
L 494.120612 32.06645 
L 494.377238 30.348544 
L 494.441394 30.745015 
L 494.569707 28.498516 
L 495.018801 30.546805 
L 495.275426 29.093197 
L 495.339583 29.093197 
L 495.467895 28.036009 
L 495.660364 28.168182 
L 495.72452 27.573502 
L 495.916989 30.612841 
L 496.109458 35.70047 
L 496.173615 33.850442 
L 496.237771 36.162977 
L 496.301927 34.709369 
L 496.366084 35.105789 
L 496.558553 34.246862 
L 496.686865 32.198623 
L 496.815178 33.520058 
L 497.007647 34.841492 
L 497.200116 40.391628 
L 497.264272 39.268404 
L 497.520897 35.370086 
L 497.585054 35.436173 
L 497.713366 41.382729 
L 497.905835 40.523751 
L 497.969992 42.307743 
L 498.034148 35.634383 
L 498.098304 35.766507 
L 498.419086 46.602481 
L 498.483242 45.347083 
L 498.547399 40.854135 
L 498.611555 41.911273 
L 498.804024 42.505954 
L 498.996493 39.863034 
L 499.060649 38.475513 
L 499.317275 41.316642 
L 499.381431 41.052345 
L 499.509743 38.673723 
L 499.702212 39.202317 
L 499.830525 45.280996 
L 499.894681 43.166671 
L 499.958838 46.272097 
L 500.215463 43.034548 
L 500.279619 44.157772 
L 500.407932 40.788048 
L 500.600401 41.250556 
L 500.857026 44.422069 
L 501.049495 43.893475 
L 501.113652 42.57204 
L 501.177808 44.223859 
L 501.241964 43.100584 
L 501.498589 43.034548 
L 501.562746 43.166671 
L 501.691058 42.109533 
L 501.947684 41.911273 
L 502.075996 48.386423 
L 502.204309 53.407965 
L 502.460934 55.059783 
L 502.525091 52.350777 
L 502.589247 54.134769 
L 502.653403 52.020443 
L 502.974185 51.227552 
L 503.038341 52.350777 
L 503.294967 47.990003 
L 503.359123 48.2543 
L 503.423279 47.329235 
L 503.551592 50.765045 
L 503.744061 50.302538 
L 504.000686 56.116921 
L 504.193155 55.786587 
L 504.257311 55.191906 
L 504.321468 53.209755 
L 504.385624 53.804385 
L 504.44978 56.381218 
L 504.706406 61.99739 
L 504.770562 61.468846 
L 504.834718 61.534883 
L 504.898875 64.640309 
L 505.091344 65.895707 
L 505.1555 65.301027 
L 505.219656 66.358215 
L 505.283813 76.599458 
L 505.347969 69.793975 
L 505.540438 71.115459 
L 505.604594 69.727938 
L 505.797063 78.647747 
L 505.989532 81.621 
L 506.117845 76.467335 
L 506.182001 76.731632 
L 506.246157 82.215681 
L 506.438626 81.290666 
L 506.502783 81.42279 
L 506.566939 82.678188 
L 506.695252 87.831853 
L 506.887721 85.387144 
L 507.016033 80.695986 
L 507.465127 88.49257 
L 507.529284 85.651441 
L 507.785909 87.765766 
L 507.978378 82.01742 
L 508.042534 83.999622 
L 508.235003 84.462129 
L 508.427472 77.458436 
L 508.491629 79.506674 
L 508.684098 80.299565 
L 508.876567 77.061965 
L 508.940723 78.053066 
L 509.133192 78.845957 
L 509.197348 81.81921 
L 509.261505 80.828159 
L 509.325661 82.149594 
L 509.389817 81.488877 
L 509.582286 80.695986 
L 509.646442 79.704885 
L 509.646442 79.704885 
" style="fill:none;stroke:#4c72b0;stroke-linecap:round;stroke-width:1.5;"/>
   </g>
   <g id="patch_3">
    <path d="M 48 323.14 
L 48 7.2 
" style="fill:none;stroke:#ffffff;stroke-linecap:square;stroke-linejoin:miter;stroke-width:1.25;"/>
   </g>
   <g id="patch_4">
    <path d="M 48 323.14 
L 531.629606 323.14 
" style="fill:none;stroke:#ffffff;stroke-linecap:square;stroke-linejoin:miter;stroke-width:1.25;"/>
   </g>
  </g>
 </g>
 <defs>
  <clipPath id="p6fa5df9a7c">
   <rect height="315.94" width="483.629606" x="48" y="7.2"/>
  </clipPath>
 </defs>
</svg>
