<?xml version="1.0" encoding="utf-8" standalone="no"?>
<!DOCTYPE svg PUBLIC "-//W3C//DTD SVG 1.1//EN"
  "http://www.w3.org/Graphics/SVG/1.1/DTD/svg11.dtd">
<svg height="349.12125pt" version="1.1" viewBox="0 0 543.31 349.12125" width="543.31pt" xmlns="http://www.w3.org/2000/svg" xmlns:xlink="http://www.w3.org/1999/xlink">
 <metadata>
  <rdf:RDF xmlns:cc="http://creativecommons.org/ns#" xmlns:dc="http://purl.org/dc/elements/1.1/" xmlns:rdf="http://www.w3.org/1999/02/22-rdf-syntax-ns#">
   <cc:Work>
    <dc:type rdf:resource="http://purl.org/dc/dcmitype/StillImage"/>
    <dc:date>2021-05-05T07:08:33.463702</dc:date>
    <dc:format>image/svg+xml</dc:format>
    <dc:creator>
     <cc:Agent>
      <dc:title>Matplotlib v3.4.1, https://matplotlib.org/</dc:title>
     </cc:Agent>
    </dc:creator>
   </cc:Work>
  </rdf:RDF>
 </metadata>
 <defs>
  <style type="text/css">*{stroke-linecap:butt;stroke-linejoin:round;}</style>
 </defs>
 <g id="figure_1">
  <g id="patch_1">
   <path d="M 0 349.12125 
L 543.31 349.12125 
L 543.31 0 
L 0 0 
z
" style="fill:#ffffff;"/>
  </g>
  <g id="axes_1">
   <g id="patch_2">
    <path d="M 48 323.14 
L 536.11 323.14 
L 536.11 7.2 
L 48 7.2 
z
" style="fill:#eaeaf2;"/>
   </g>
   <g id="matplotlib.axis_1">
    <g id="xtick_1">
     <g id="line2d_1">
      <path clip-path="url(#pc57bfd4e6a)" d="M 69.882472 323.14 
L 69.882472 7.2 
" style="fill:none;stroke:#ffffff;stroke-linecap:round;"/>
     </g>
     <g id="text_1">
      <!-- 2008-01 -->
      <g style="fill:#262626;" transform="translate(50.632472 340.900312)scale(0.11 -0.11)">
       <defs>
        <path d="M 2900 325 
L 250 325 
Q 441 1553 1528 2453 
Q 1963 2806 2116 3034 
Q 2316 3319 2316 3706 
Q 2316 4022 2175 4219 
Q 1994 4494 1631 4494 
Q 894 4494 825 3406 
L 322 3406 
Q 359 4056 628 4428 
Q 981 4928 1644 4928 
Q 2106 4928 2425 4659 
Q 2828 4313 2828 3713 
Q 2828 2875 1881 2156 
Q 1072 1541 909 800 
L 2900 800 
L 2900 325 
z
" id="IPAGothic-32" transform="scale(0.015625)"/>
        <path d="M 1600 4934 
Q 2844 4934 2844 2566 
Q 2844 197 1600 197 
Q 359 197 359 2566 
Q 359 4934 1600 4934 
z
M 975 1453 
L 2119 4063 
Q 1938 4494 1594 4494 
Q 884 4494 884 2566 
Q 884 1909 975 1453 
z
M 1081 1075 
Q 1256 638 1600 638 
Q 2319 638 2319 2572 
Q 2319 3213 2228 3675 
L 1081 1075 
z
" id="IPAGothic-30" transform="scale(0.015625)"/>
        <path d="M 1050 2741 
Q 403 3056 403 3750 
Q 403 4084 563 4359 
Q 900 4934 1600 4934 
Q 1950 4934 2253 4750 
Q 2797 4416 2797 3750 
Q 2797 3056 2150 2741 
Q 2978 2422 2978 1541 
Q 2978 1038 2697 678 
Q 2322 197 1600 197 
Q 988 197 616 550 
Q 225 922 225 1541 
Q 225 2422 1050 2741 
z
M 1600 4525 
Q 1278 4525 1075 4294 
Q 891 4078 891 3756 
Q 891 3544 969 3372 
Q 1159 2956 1606 2956 
Q 1863 2956 2041 3116 
Q 2309 3347 2309 3756 
Q 2309 4156 2041 4378 
Q 1856 4525 1600 4525 
z
M 1594 2497 
Q 1178 2497 931 2191 
Q 725 1925 725 1541 
Q 725 1172 925 925 
Q 1172 619 1600 619 
Q 2031 619 2281 925 
Q 2478 1172 2478 1541 
Q 2478 2022 2184 2278 
Q 1947 2497 1594 2497 
z
" id="IPAGothic-38" transform="scale(0.015625)"/>
        <path d="M 313 2663 
L 2884 2663 
L 2884 2203 
L 313 2203 
L 313 2663 
z
" id="IPAGothic-2d" transform="scale(0.015625)"/>
        <path d="M 1428 325 
L 1428 4153 
Q 1188 3991 756 3809 
L 756 4325 
Q 1256 4509 1563 4806 
L 1953 4806 
L 1953 325 
L 1428 325 
z
" id="IPAGothic-31" transform="scale(0.015625)"/>
       </defs>
       <use xlink:href="#IPAGothic-32"/>
       <use x="50" xlink:href="#IPAGothic-30"/>
       <use x="100" xlink:href="#IPAGothic-30"/>
       <use x="150" xlink:href="#IPAGothic-38"/>
       <use x="200" xlink:href="#IPAGothic-2d"/>
       <use x="250" xlink:href="#IPAGothic-30"/>
       <use x="300" xlink:href="#IPAGothic-31"/>
      </g>
     </g>
    </g>
    <g id="xtick_2">
     <g id="line2d_2">
      <path clip-path="url(#pc57bfd4e6a)" d="M 125.273431 323.14 
L 125.273431 7.2 
" style="fill:none;stroke:#ffffff;stroke-linecap:round;"/>
     </g>
     <g id="text_2">
      <!-- 2008-07 -->
      <g style="fill:#262626;" transform="translate(106.023431 340.900312)scale(0.11 -0.11)">
       <defs>
        <path d="M 319 4806 
L 2878 4806 
L 2878 4441 
Q 1978 2213 1528 325 
L 947 325 
Q 1434 2050 2328 4319 
L 319 4319 
L 319 4806 
z
" id="IPAGothic-37" transform="scale(0.015625)"/>
       </defs>
       <use xlink:href="#IPAGothic-32"/>
       <use x="50" xlink:href="#IPAGothic-30"/>
       <use x="100" xlink:href="#IPAGothic-30"/>
       <use x="150" xlink:href="#IPAGothic-38"/>
       <use x="200" xlink:href="#IPAGothic-2d"/>
       <use x="250" xlink:href="#IPAGothic-30"/>
       <use x="300" xlink:href="#IPAGothic-37"/>
      </g>
     </g>
    </g>
    <g id="xtick_3">
     <g id="line2d_3">
      <path clip-path="url(#pc57bfd4e6a)" d="M 181.273082 323.14 
L 181.273082 7.2 
" style="fill:none;stroke:#ffffff;stroke-linecap:round;"/>
     </g>
     <g id="text_3">
      <!-- 2009-01 -->
      <g style="fill:#262626;" transform="translate(162.023082 340.900312)scale(0.11 -0.11)">
       <defs>
        <path d="M 909 1363 
Q 988 666 1569 666 
Q 2431 666 2422 2500 
Q 2063 1972 1519 1972 
Q 859 1972 531 2588 
Q 347 2947 347 3419 
Q 347 4019 672 4459 
Q 1022 4934 1569 4934 
Q 2888 4934 2888 2706 
Q 2888 197 1575 197 
Q 975 197 628 716 
Q 450 984 384 1363 
L 909 1363 
z
M 1591 4494 
Q 834 4494 834 3431 
Q 834 3038 969 2778 
Q 1169 2394 1591 2394 
Q 1859 2394 2069 2631 
Q 2338 2938 2338 3431 
Q 2338 3925 2125 4213 
Q 1922 4494 1591 4494 
z
" id="IPAGothic-39" transform="scale(0.015625)"/>
       </defs>
       <use xlink:href="#IPAGothic-32"/>
       <use x="50" xlink:href="#IPAGothic-30"/>
       <use x="100" xlink:href="#IPAGothic-30"/>
       <use x="150" xlink:href="#IPAGothic-39"/>
       <use x="200" xlink:href="#IPAGothic-2d"/>
       <use x="250" xlink:href="#IPAGothic-30"/>
       <use x="300" xlink:href="#IPAGothic-31"/>
      </g>
     </g>
    </g>
    <g id="xtick_4">
     <g id="line2d_4">
      <path clip-path="url(#pc57bfd4e6a)" d="M 236.359695 323.14 
L 236.359695 7.2 
" style="fill:none;stroke:#ffffff;stroke-linecap:round;"/>
     </g>
     <g id="text_4">
      <!-- 2009-07 -->
      <g style="fill:#262626;" transform="translate(217.109695 340.900312)scale(0.11 -0.11)">
       <use xlink:href="#IPAGothic-32"/>
       <use x="50" xlink:href="#IPAGothic-30"/>
       <use x="100" xlink:href="#IPAGothic-30"/>
       <use x="150" xlink:href="#IPAGothic-39"/>
       <use x="200" xlink:href="#IPAGothic-2d"/>
       <use x="250" xlink:href="#IPAGothic-30"/>
       <use x="300" xlink:href="#IPAGothic-37"/>
      </g>
     </g>
    </g>
    <g id="xtick_5">
     <g id="line2d_5">
      <path clip-path="url(#pc57bfd4e6a)" d="M 292.359346 323.14 
L 292.359346 7.2 
" style="fill:none;stroke:#ffffff;stroke-linecap:round;"/>
     </g>
     <g id="text_5">
      <!-- 2010-01 -->
      <g style="fill:#262626;" transform="translate(273.109346 340.900312)scale(0.11 -0.11)">
       <use xlink:href="#IPAGothic-32"/>
       <use x="50" xlink:href="#IPAGothic-30"/>
       <use x="100" xlink:href="#IPAGothic-31"/>
       <use x="150" xlink:href="#IPAGothic-30"/>
       <use x="200" xlink:href="#IPAGothic-2d"/>
       <use x="250" xlink:href="#IPAGothic-30"/>
       <use x="300" xlink:href="#IPAGothic-31"/>
      </g>
     </g>
    </g>
    <g id="xtick_6">
     <g id="line2d_6">
      <path clip-path="url(#pc57bfd4e6a)" d="M 347.445959 323.14 
L 347.445959 7.2 
" style="fill:none;stroke:#ffffff;stroke-linecap:round;"/>
     </g>
     <g id="text_6">
      <!-- 2010-07 -->
      <g style="fill:#262626;" transform="translate(328.195959 340.900312)scale(0.11 -0.11)">
       <use xlink:href="#IPAGothic-32"/>
       <use x="50" xlink:href="#IPAGothic-30"/>
       <use x="100" xlink:href="#IPAGothic-31"/>
       <use x="150" xlink:href="#IPAGothic-30"/>
       <use x="200" xlink:href="#IPAGothic-2d"/>
       <use x="250" xlink:href="#IPAGothic-30"/>
       <use x="300" xlink:href="#IPAGothic-37"/>
      </g>
     </g>
    </g>
    <g id="xtick_7">
     <g id="line2d_7">
      <path clip-path="url(#pc57bfd4e6a)" d="M 403.44561 323.14 
L 403.44561 7.2 
" style="fill:none;stroke:#ffffff;stroke-linecap:round;"/>
     </g>
     <g id="text_7">
      <!-- 2011-01 -->
      <g style="fill:#262626;" transform="translate(384.19561 340.900312)scale(0.11 -0.11)">
       <use xlink:href="#IPAGothic-32"/>
       <use x="50" xlink:href="#IPAGothic-30"/>
       <use x="100" xlink:href="#IPAGothic-31"/>
       <use x="150" xlink:href="#IPAGothic-31"/>
       <use x="200" xlink:href="#IPAGothic-2d"/>
       <use x="250" xlink:href="#IPAGothic-30"/>
       <use x="300" xlink:href="#IPAGothic-31"/>
      </g>
     </g>
    </g>
    <g id="xtick_8">
     <g id="line2d_8">
      <path clip-path="url(#pc57bfd4e6a)" d="M 458.532223 323.14 
L 458.532223 7.2 
" style="fill:none;stroke:#ffffff;stroke-linecap:round;"/>
     </g>
     <g id="text_8">
      <!-- 2011-07 -->
      <g style="fill:#262626;" transform="translate(439.282223 340.900312)scale(0.11 -0.11)">
       <use xlink:href="#IPAGothic-32"/>
       <use x="50" xlink:href="#IPAGothic-30"/>
       <use x="100" xlink:href="#IPAGothic-31"/>
       <use x="150" xlink:href="#IPAGothic-31"/>
       <use x="200" xlink:href="#IPAGothic-2d"/>
       <use x="250" xlink:href="#IPAGothic-30"/>
       <use x="300" xlink:href="#IPAGothic-37"/>
      </g>
     </g>
    </g>
    <g id="xtick_9">
     <g id="line2d_9">
      <path clip-path="url(#pc57bfd4e6a)" d="M 514.531874 323.14 
L 514.531874 7.2 
" style="fill:none;stroke:#ffffff;stroke-linecap:round;"/>
     </g>
     <g id="text_9">
      <!-- 2012-01 -->
      <g style="fill:#262626;" transform="translate(495.281874 340.900312)scale(0.11 -0.11)">
       <use xlink:href="#IPAGothic-32"/>
       <use x="50" xlink:href="#IPAGothic-30"/>
       <use x="100" xlink:href="#IPAGothic-31"/>
       <use x="150" xlink:href="#IPAGothic-32"/>
       <use x="200" xlink:href="#IPAGothic-2d"/>
       <use x="250" xlink:href="#IPAGothic-30"/>
       <use x="300" xlink:href="#IPAGothic-31"/>
      </g>
     </g>
    </g>
   </g>
   <g id="matplotlib.axis_2">
    <g id="ytick_1">
     <g id="line2d_10">
      <path clip-path="url(#pc57bfd4e6a)" d="M 48 297.184409 
L 536.11 297.184409 
" style="fill:none;stroke:#ffffff;stroke-linecap:round;"/>
     </g>
     <g id="text_10">
      <!-- 0.5 -->
      <g style="fill:#262626;" transform="translate(22 301.314566)scale(0.11 -0.11)">
       <defs>
        <path d="M 588 831 
L 1444 831 
L 1444 -25 
L 588 -25 
L 588 831 
z
" id="IPAGothic-2e" transform="scale(0.015625)"/>
        <path d="M 566 4806 
L 2691 4806 
L 2691 4359 
L 1013 4359 
L 944 2888 
Q 1259 3250 1738 3250 
Q 2250 3250 2588 2816 
Q 2909 2397 2909 1772 
Q 2909 1238 2697 844 
Q 2341 197 1591 197 
Q 538 197 328 1375 
L 841 1375 
Q 947 644 1588 644 
Q 2000 644 2228 997 
Q 2422 1294 2422 1766 
Q 2422 2184 2259 2456 
Q 2059 2822 1653 2822 
Q 1156 2822 859 2225 
L 456 2309 
L 566 4806 
z
" id="IPAGothic-35" transform="scale(0.015625)"/>
       </defs>
       <use xlink:href="#IPAGothic-30"/>
       <use x="50" xlink:href="#IPAGothic-2e"/>
       <use x="100" xlink:href="#IPAGothic-35"/>
      </g>
     </g>
    </g>
    <g id="ytick_2">
     <g id="line2d_11">
      <path clip-path="url(#pc57bfd4e6a)" d="M 48 258.598445 
L 536.11 258.598445 
" style="fill:none;stroke:#ffffff;stroke-linecap:round;"/>
     </g>
     <g id="text_11">
      <!-- 0.6 -->
      <g style="fill:#262626;" transform="translate(22 262.728601)scale(0.11 -0.11)">
       <defs>
        <path d="M 2322 3809 
Q 2225 4488 1713 4488 
Q 1269 4488 1028 3950 
Q 803 3447 794 2588 
Q 1159 3119 1725 3119 
Q 2194 3119 2519 2772 
Q 2903 2369 2903 1709 
Q 2903 1159 2641 750 
Q 2284 200 1638 200 
Q 1050 200 697 738 
Q 319 1328 319 2375 
Q 319 3488 650 4172 
Q 1028 4934 1706 4934 
Q 2634 4934 2847 3809 
L 2322 3809 
z
M 1644 2703 
Q 1272 2703 1047 2363 
Q 875 2094 875 1691 
Q 875 1328 997 1075 
Q 1209 641 1650 641 
Q 2003 641 2219 959 
Q 2409 1241 2409 1697 
Q 2409 2113 2244 2375 
Q 2041 2703 1644 2703 
z
" id="IPAGothic-36" transform="scale(0.015625)"/>
       </defs>
       <use xlink:href="#IPAGothic-30"/>
       <use x="50" xlink:href="#IPAGothic-2e"/>
       <use x="100" xlink:href="#IPAGothic-36"/>
      </g>
     </g>
    </g>
    <g id="ytick_3">
     <g id="line2d_12">
      <path clip-path="url(#pc57bfd4e6a)" d="M 48 220.01248 
L 536.11 220.01248 
" style="fill:none;stroke:#ffffff;stroke-linecap:round;"/>
     </g>
     <g id="text_12">
      <!-- 0.7 -->
      <g style="fill:#262626;" transform="translate(22 224.142636)scale(0.11 -0.11)">
       <use xlink:href="#IPAGothic-30"/>
       <use x="50" xlink:href="#IPAGothic-2e"/>
       <use x="100" xlink:href="#IPAGothic-37"/>
      </g>
     </g>
    </g>
    <g id="ytick_4">
     <g id="line2d_13">
      <path clip-path="url(#pc57bfd4e6a)" d="M 48 181.426515 
L 536.11 181.426515 
" style="fill:none;stroke:#ffffff;stroke-linecap:round;"/>
     </g>
     <g id="text_13">
      <!-- 0.8 -->
      <g style="fill:#262626;" transform="translate(22 185.556671)scale(0.11 -0.11)">
       <use xlink:href="#IPAGothic-30"/>
       <use x="50" xlink:href="#IPAGothic-2e"/>
       <use x="100" xlink:href="#IPAGothic-38"/>
      </g>
     </g>
    </g>
    <g id="ytick_5">
     <g id="line2d_14">
      <path clip-path="url(#pc57bfd4e6a)" d="M 48 142.84055 
L 536.11 142.84055 
" style="fill:none;stroke:#ffffff;stroke-linecap:round;"/>
     </g>
     <g id="text_14">
      <!-- 0.9 -->
      <g style="fill:#262626;" transform="translate(22 146.970707)scale(0.11 -0.11)">
       <use xlink:href="#IPAGothic-30"/>
       <use x="50" xlink:href="#IPAGothic-2e"/>
       <use x="100" xlink:href="#IPAGothic-39"/>
      </g>
     </g>
    </g>
    <g id="ytick_6">
     <g id="line2d_15">
      <path clip-path="url(#pc57bfd4e6a)" d="M 48 104.254586 
L 536.11 104.254586 
" style="fill:none;stroke:#ffffff;stroke-linecap:round;"/>
     </g>
     <g id="text_15">
      <!-- 1.0 -->
      <g style="fill:#262626;" transform="translate(22 108.384742)scale(0.11 -0.11)">
       <use xlink:href="#IPAGothic-31"/>
       <use x="50" xlink:href="#IPAGothic-2e"/>
       <use x="100" xlink:href="#IPAGothic-30"/>
      </g>
     </g>
    </g>
    <g id="ytick_7">
     <g id="line2d_16">
      <path clip-path="url(#pc57bfd4e6a)" d="M 48 65.668621 
L 536.11 65.668621 
" style="fill:none;stroke:#ffffff;stroke-linecap:round;"/>
     </g>
     <g id="text_16">
      <!-- 1.1 -->
      <g style="fill:#262626;" transform="translate(22 69.798777)scale(0.11 -0.11)">
       <use xlink:href="#IPAGothic-31"/>
       <use x="50" xlink:href="#IPAGothic-2e"/>
       <use x="100" xlink:href="#IPAGothic-31"/>
      </g>
     </g>
    </g>
    <g id="ytick_8">
     <g id="line2d_17">
      <path clip-path="url(#pc57bfd4e6a)" d="M 48 27.082656 
L 536.11 27.082656 
" style="fill:none;stroke:#ffffff;stroke-linecap:round;"/>
     </g>
     <g id="text_17">
      <!-- 1.2 -->
      <g style="fill:#262626;" transform="translate(22 31.212812)scale(0.11 -0.11)">
       <use xlink:href="#IPAGothic-31"/>
       <use x="50" xlink:href="#IPAGothic-2e"/>
       <use x="100" xlink:href="#IPAGothic-32"/>
      </g>
     </g>
    </g>
    <g id="text_18">
     <!-- 倍率 -->
     <g style="fill:#262626;" transform="translate(16.88625 177.17)rotate(-90)scale(0.12 -0.12)">
      <defs>
       <path d="M 1572 3784 
L 1572 -447 
L 1119 -447 
L 1119 2825 
Q 863 2369 550 1947 
L 300 2338 
Q 1184 3566 1572 5263 
L 2013 5134 
Q 1816 4394 1572 3784 
z
M 4128 4409 
L 5766 4409 
L 5766 4025 
L 5178 4025 
L 5166 3988 
Q 4991 3394 4756 2881 
L 6053 2881 
L 6053 2497 
L 1869 2497 
L 1869 2881 
L 3072 2881 
Q 2903 3528 2669 4025 
L 2144 4025 
L 2144 4409 
L 3681 4409 
L 3681 5313 
L 4128 5313 
L 4128 4409 
z
M 3156 4025 
Q 3363 3553 3559 2881 
L 4281 2881 
Q 4506 3381 4684 4025 
L 3156 4025 
z
M 5425 1863 
L 5425 -422 
L 4978 -422 
L 4978 -103 
L 2903 -103 
L 2903 -447 
L 2450 -447 
L 2450 1863 
L 5425 1863 
z
M 2903 1478 
L 2903 281 
L 4978 281 
L 4978 1478 
L 2903 1478 
z
" id="IPAGothic-500d" transform="scale(0.015625)"/>
       <path d="M 3022 2847 
Q 3334 3231 3681 3744 
L 4053 3525 
Q 3503 2766 2919 2181 
L 3266 2200 
Q 3575 2209 3822 2234 
Q 3728 2406 3572 2616 
L 3909 2772 
Q 4241 2350 4538 1766 
L 4153 1547 
Q 4078 1756 3994 1913 
L 3853 1894 
Q 3706 1875 3413 1850 
L 3413 1228 
L 6078 1228 
L 6078 819 
L 3413 819 
L 3413 -447 
L 2938 -447 
L 2938 819 
L 319 819 
L 319 1228 
L 2938 1228 
L 2938 1803 
L 2881 1797 
Q 2303 1759 2028 1747 
L 1900 2163 
Q 2316 2163 2413 2169 
Q 2519 2269 2772 2553 
Q 2344 3028 1913 3347 
L 2181 3653 
L 2444 3425 
Q 2681 3744 2869 4128 
L 544 4128 
L 544 4525 
L 2938 4525 
L 2938 5313 
L 3413 5313 
L 3413 4525 
L 5847 4525 
L 5847 4128 
L 2969 4128 
L 3278 3981 
Q 2988 3509 2694 3188 
Q 2850 3041 3022 2847 
z
M 1497 2822 
Q 1125 3263 691 3566 
L 997 3847 
Q 1406 3588 1828 3156 
L 1497 2822 
z
M 4216 3078 
Q 4791 3478 5144 3897 
L 5534 3616 
Q 5075 3178 4491 2803 
L 4216 3078 
z
M 5553 1631 
Q 4994 2109 4369 2444 
L 4659 2741 
Q 5353 2381 5894 1984 
L 5553 1631 
z
M 538 1925 
Q 1306 2297 1881 2803 
L 2072 2456 
Q 1619 2034 813 1528 
L 538 1925 
z
" id="IPAGothic-7387" transform="scale(0.015625)"/>
      </defs>
      <use xlink:href="#IPAGothic-500d"/>
      <use x="100" xlink:href="#IPAGothic-7387"/>
     </g>
    </g>
   </g>
   <g id="line2d_18">
    <path clip-path="url(#pc57bfd4e6a)" d="M 70.186818 104.254586 
L 70.491164 104.440932 
L 70.79551 113.892412 
L 71.708548 114.211885 
L 72.012894 120.282123 
L 72.31724 116.395061 
L 72.621586 113.945671 
L 72.925932 116.98079 
L 73.838969 113.97228 
L 74.143315 122.252303 
L 74.447661 125.42055 
L 74.752007 134.87203 
L 75.056353 138.519486 
L 76.273737 142.087074 
L 76.578083 133.727182 
L 76.882429 130.718673 
L 77.186775 135.910359 
L 78.404158 128.269282 
L 78.708504 130.931669 
L 79.317196 118.498329 
L 80.230234 123.184114 
L 80.53458 133.008327 
L 80.838926 135.883709 
L 81.143272 133.540837 
L 81.447618 135.83045 
L 82.360655 134.020047 
L 82.969347 127.044607 
L 83.273693 130.239463 
L 83.578039 130.319331 
L 84.795423 129.307611 
L 85.099769 128.242673 
L 85.404115 131.251183 
L 85.708461 129.041397 
L 86.621498 124.488698 
L 86.925844 121.746443 
L 87.23019 122.119176 
L 87.534536 125.713414 
L 87.838882 133.83366 
L 88.75192 134.685643 
L 89.056266 136.043446 
L 89.360612 133.807051 
L 89.664958 141.181873 
L 89.969304 144.77607 
L 90.882341 149.328769 
L 91.186687 137.081775 
L 91.491033 140.383149 
L 91.795379 139.611074 
L 92.099725 145.042325 
L 93.012763 148.530045 
L 93.317109 134.33952 
L 93.621455 143.152013 
L 93.925801 138.466227 
L 95.143184 131.437528 
L 95.44753 131.091405 
L 95.751876 135.484367 
L 96.056222 136.602565 
L 96.360568 139.983807 
L 97.273606 138.759091 
L 97.577952 126.40562 
L 97.882298 126.166015 
L 98.186644 125.260813 
L 98.49099 125.660155 
L 99.404027 125.473768 
L 99.708373 125.846501 
L 100.012719 128.482278 
L 100.317065 127.976418 
L 100.621411 135.005117 
L 101.534449 136.203223 
L 101.838795 135.377849 
L 102.143141 125.766632 
L 102.447487 125.234163 
L 102.751833 121.42697 
L 103.66487 121.240584 
L 103.969216 122.864641 
L 104.273562 123.450369 
L 104.577908 121.852921 
L 104.882254 118.44507 
L 105.795292 118.365201 
L 106.099638 119.829522 
L 106.403984 122.012698 
L 106.70833 114.398271 
L 107.012676 113.359942 
L 107.925713 115.170346 
L 108.230059 111.922231 
L 108.534405 118.658065 
L 109.143097 120.308773 
L 110.056135 116.155416 
L 110.360481 116.102197 
L 110.664827 115.330082 
L 110.969173 110.644297 
L 112.186556 109.259845 
L 112.490902 112.348223 
L 112.795248 118.737934 
L 113.099594 118.684715 
L 113.40394 123.663365 
L 114.621324 120.947719 
L 115.534362 116.44828 
L 116.447399 120.308773 
L 116.751745 122.465299 
L 117.056091 122.651645 
L 117.360437 115.303473 
L 117.664783 127.257603 
L 118.577821 126.37901 
L 118.882167 128.189414 
L 119.186513 133.514187 
L 119.490859 132.156384 
L 119.795205 127.630335 
L 120.708242 127.41734 
L 121.012588 129.174484 
L 121.316934 132.688853 
L 121.62128 132.236253 
L 121.925626 139.79742 
L 122.838664 140.143544 
L 123.14301 140.835749 
L 123.447356 139.185083 
L 123.751702 148.716431 
L 124.056048 150.580093 
L 124.969085 149.382007 
L 125.273431 148.317049 
L 125.577777 154.174311 
L 125.882123 153.828208 
L 127.099507 157.262689 
L 127.403853 151.352188 
L 127.708199 157.875027 
L 128.012545 156.517204 
L 128.316891 160.404306 
L 129.229928 163.386166 
L 129.534274 167.992103 
L 129.83862 160.084812 
L 130.142966 156.783459 
L 130.447312 154.70678 
L 131.36035 154.520414 
L 131.664696 150.713201 
L 131.969042 148.876168 
L 132.273388 155.958105 
L 132.577734 156.037973 
L 133.490771 160.936775 
L 134.099463 147.917707 
L 134.403809 152.443756 
L 134.708155 154.22755 
L 135.621193 157.342557 
L 135.925539 148.370308 
L 136.229885 146.852769 
L 136.534231 151.964525 
L 136.838577 145.681312 
L 137.751614 142.113683 
L 138.05596 145.734531 
L 138.360306 147.811189 
L 138.968998 143.551395 
L 139.882036 148.29044 
L 140.186382 152.017785 
L 140.490728 150.446966 
L 140.795074 149.861238 
L 141.09942 144.935847 
L 142.012457 151.937916 
L 142.316803 150.952826 
L 142.925495 143.498136 
L 143.229841 147.225501 
L 144.447225 149.355398 
L 144.751571 149.648262 
L 145.055917 159.898446 
L 145.360263 158.860117 
L 146.2733 152.017785 
L 146.577646 162.054973 
L 146.881992 160.723779 
L 147.186338 155.958105 
L 147.490684 154.413936 
L 148.403722 170.388255 
L 148.708068 165.036853 
L 149.012414 179.653349 
L 149.621105 159.658821 
L 150.534143 167.14014 
L 150.838489 174.488312 
L 151.142835 173.476613 
L 151.447181 168.524572 
L 151.751527 168.364836 
L 152.664565 193.577639 
L 152.968911 181.304035 
L 153.273257 181.117669 
L 153.577603 192.326314 
L 153.881948 196.346523 
L 154.794986 211.309122 
L 155.099332 223.795721 
L 155.403678 230.504925 
L 155.708024 248.635791 
L 156.01237 254.493033 
L 156.925408 220.281371 
L 157.229754 224.274951 
L 157.5341 250.446215 
L 157.838446 240.462265 
L 158.142791 241.953195 
L 159.055829 227.043835 
L 159.360175 234.897867 
L 159.664521 248.795528 
L 159.968867 246.000014 
L 160.273213 258.380115 
L 161.186251 266.606899 
L 161.490597 240.488875 
L 161.794943 242.299298 
L 162.099289 233.726411 
L 162.403634 232.315349 
L 163.316672 231.569884 
L 163.621018 222.784001 
L 164.22971 248.209799 
L 164.534056 240.22264 
L 165.447094 243.497384 
L 165.75144 251.111811 
L 166.055786 261.628229 
L 166.360132 247.384466 
L 166.664477 259.498312 
L 167.577515 262.560061 
L 167.881861 258.273617 
L 168.490553 289.237184 
L 168.794899 278.401272 
L 169.707937 263.731517 
L 170.012283 262.054201 
L 170.316629 253.241708 
L 170.92532 250.259848 
L 171.838358 271.505681 
L 172.44705 257.63465 
L 172.751396 263.012661 
L 173.055742 256.010592 
L 173.96878 247.837067 
L 174.273126 251.830647 
L 174.577472 250.206589 
L 174.881818 255.983963 
L 175.186163 253.188469 
L 176.099201 256.489823 
L 176.403547 245.494174 
L 176.707893 247.863696 
L 177.316585 255.318366 
L 178.229623 258.326876 
L 178.533969 260.723008 
L 178.838315 259.391814 
L 179.447006 258.060621 
L 180.360044 258.726218 
L 180.66439 253.241708 
L 181.577428 242.618792 
L 182.490466 242.911656 
L 182.794812 241.260969 
L 183.099158 248.715659 
L 183.403504 247.730569 
L 183.707849 252.922235 
L 184.620887 258.61974 
L 184.925233 258.193749 
L 185.229579 265.488682 
L 185.533925 265.408813 
L 185.838271 263.651649 
L 187.055655 275.605758 
L 187.360001 266.340645 
L 187.664347 269.801755 
L 187.968692 268.843294 
L 188.88173 267.325735 
L 189.186076 265.06271 
L 189.490422 257.448284 
L 189.794768 265.009451 
L 190.099114 269.588759 
L 191.012152 270.254356 
L 191.316498 267.165998 
L 191.620844 268.257566 
L 191.92519 264.956213 
L 192.229535 258.539851 
L 193.142573 258.220378 
L 193.446919 268.843294 
L 193.751265 267.538731 
L 194.055611 267.378974 
L 195.577341 279.199976 
L 195.881687 279.705836 
L 197.403416 291.367081 
L 197.707762 283.832523 
L 198.012108 285.45658 
L 199.533838 302.149754 
L 199.838184 303.560816 
L 200.14253 299.141245 
L 200.446876 306.942038 
L 200.751221 306.622564 
L 201.664259 308.779091 
L 201.968605 297.969808 
L 202.272951 296.718484 
L 202.577297 289.104057 
L 202.881643 287.533258 
L 203.794681 288.145596 
L 204.403373 277.309684 
L 204.707719 279.945441 
L 205.012064 285.882572 
L 205.925102 271.212817 
L 206.229448 275.52589 
L 206.533794 273.262866 
L 206.83814 268.843294 
L 207.142486 272.836874 
L 208.055524 280.344803 
L 208.35987 278.401272 
L 208.664216 274.301195 
L 208.968562 267.991331 
L 209.272907 265.781546 
L 210.185945 267.538731 
L 210.490291 272.730376 
L 210.794637 270.387483 
L 211.098983 261.654859 
L 212.316367 261.6016 
L 212.620713 265.541941 
L 212.925059 263.145789 
L 213.229405 259.817806 
L 213.53375 258.273617 
L 214.446788 267.991331 
L 214.751134 263.651649 
L 215.05548 265.036081 
L 215.359826 262.826295 
L 215.664172 259.391814 
L 216.881556 262.293826 
L 217.185902 257.448284 
L 217.490248 257.368415 
L 217.794593 256.11709 
L 218.707631 248.156561 
L 219.011977 248.981894 
L 219.316323 244.801948 
L 219.620669 248.209799 
L 219.925015 242.565533 
L 220.838053 247.1981 
L 221.142399 247.916935 
L 221.446745 254.013803 
L 221.751091 251.990383 
L 222.055436 253.933934 
L 222.968474 247.224709 
L 223.27282 247.517573 
L 223.577166 249.141631 
L 223.881512 252.602741 
L 224.185858 253.108601 
L 225.403242 247.038343 
L 225.707588 251.378046 
L 226.316279 243.763619 
L 227.229317 237.799879 
L 227.533663 237.586883 
L 227.838009 240.781739 
L 228.142355 238.438846 
L 228.446701 238.385587 
L 229.359739 239.423916 
L 229.664085 238.145982 
L 229.968431 238.784949 
L 230.272777 237.666752 
L 230.577122 236.974525 
L 231.49016 242.778529 
L 231.794506 246.133141 
L 232.098852 246.372746 
L 232.403198 244.588952 
L 232.707544 245.068183 
L 233.620582 252.416375 
L 233.924928 252.230009 
L 234.229274 250.17996 
L 234.53362 244.961685 
L 234.837965 245.600672 
L 235.751003 243.311018 
L 236.055349 245.307808 
L 236.359695 244.296088 
L 236.664041 251.005313 
L 237.881425 251.031923 
L 238.185771 255.66449 
L 238.490117 255.824226 
L 238.794463 255.371625 
L 239.098808 255.930724 
L 240.316192 248.875396 
L 240.620538 241.820068 
L 240.924884 242.21943 
L 241.22923 239.503805 
L 242.446614 235.669962 
L 242.75096 235.7232 
L 243.055306 230.105563 
L 243.359651 229.040625 
L 244.272689 228.268531 
L 244.577035 229.493226 
L 244.881381 230.132193 
L 245.185727 227.416568 
L 245.490073 227.043835 
L 246.403111 222.704132 
L 246.707457 222.011927 
L 247.011803 222.784001 
L 247.316149 224.168453 
L 247.620494 220.680733 
L 248.533532 221.239832 
L 248.837878 224.594424 
L 249.44657 219.695643 
L 250.663954 228.375029 
L 251.272646 223.982087 
L 251.576992 221.239832 
L 251.881337 215.968298 
L 252.794375 215.994928 
L 253.098721 215.462438 
L 253.403067 215.435829 
L 253.707413 214.823471 
L 254.011759 214.87673 
L 254.924797 217.326121 
L 255.229143 223.34312 
L 255.533489 224.354819 
L 255.837835 222.145034 
L 256.14218 218.391079 
L 257.359564 216.048166 
L 257.968256 211.122755 
L 258.272602 211.176015 
L 259.18564 209.818192 
L 259.489986 208.646735 
L 259.794332 204.386921 
L 260.098678 204.812892 
L 260.403023 205.984349 
L 261.316061 206.703205 
L 261.620407 205.052518 
L 262.533445 212.027977 
L 263.446483 207.049307 
L 264.055175 208.992858 
L 264.359521 215.968298 
L 264.663866 217.246252 
L 265.576904 213.172804 
L 265.88125 209.205834 
L 266.185596 208.433739 
L 266.794288 204.546658 
L 267.707326 203.42846 
L 268.011672 204.014189 
L 268.316018 199.088778 
L 268.620364 198.023819 
L 268.924709 200.206975 
L 269.837747 197.810823 
L 270.142093 199.355012 
L 270.446439 201.96414 
L 270.750785 199.035519 
L 271.055131 202.363502 
L 272.272515 206.783073 
L 272.576861 212.134455 
L 272.881207 206.170715 
L 273.185552 214.3975 
L 274.707282 210.776653 
L 275.011628 205.638246 
L 275.315974 204.892781 
L 276.229012 198.396552 
L 276.533358 198.343313 
L 276.837704 196.852363 
L 277.14205 199.834243 
L 278.359433 194.030239 
L 278.663779 193.684136 
L 278.968125 193.870503 
L 279.272471 197.730955 
L 279.576817 198.769284 
L 280.489855 195.068568 
L 280.794201 194.615968 
L 281.098547 193.577639 
L 281.707238 198.396552 
L 282.620276 197.411461 
L 282.924622 193.790614 
L 283.228968 193.923741 
L 283.533314 196.240025 
L 283.83766 194.562709 
L 284.750698 195.01533 
L 285.055044 198.290054 
L 285.35939 197.198486 
L 285.968081 194.296474 
L 286.881119 192.273055 
L 287.185465 193.657507 
L 287.489811 193.204906 
L 287.794157 196.772494 
L 288.098503 196.692626 
L 289.924579 190.648997 
L 291.141962 190.01003 
L 291.446308 190.436022 
L 291.750654 190.54252 
L 292.055 193.417882 
L 293.57673 187.587269 
L 293.881076 187.374273 
L 294.489767 185.084619 
L 295.402805 184.658628 
L 295.707151 187.50738 
L 296.011497 184.951492 
L 296.315843 184.126159 
L 296.620189 187.56064 
L 297.837573 183.780056 
L 298.141919 186.895043 
L 298.75061 199.355012 
L 299.663648 197.864082 
L 299.967994 199.088778 
L 300.27234 197.704325 
L 300.881032 204.200555 
L 301.79407 199.754374 
L 302.098416 196.240025 
L 302.402762 197.704325 
L 302.707107 206.729814 
L 303.011453 206.144085 
L 303.924491 208.194134 
L 304.228837 204.653156 
L 304.533183 205.212254 
L 304.837529 202.230394 
L 305.141875 202.47 
L 306.663605 196.559498 
L 306.96795 194.828943 
L 307.272296 194.216606 
L 308.185334 194.163347 
L 308.48968 197.757584 
L 308.794026 195.068568 
L 309.098372 195.46793 
L 309.402718 195.281564 
L 310.620102 191.394482 
L 310.924448 191.128228 
L 311.228793 190.223026 
L 311.533139 185.936582 
L 312.446177 185.883343 
L 312.750523 185.377483 
L 313.359215 182.741727 
L 314.576599 182.635229 
L 315.185291 178.348785 
L 315.489636 178.508522 
L 315.793982 181.357274 
L 316.70702 179.706608 
L 317.011366 177.523431 
L 317.315712 179.041011 
L 317.620058 179.546851 
L 317.924404 179.733217 
L 318.837442 177.763057 
L 319.141788 177.550061 
L 319.446134 178.615019 
L 319.750479 176.485102 
L 321.272209 173.183749 
L 321.576555 174.994172 
L 321.880901 173.902604 
L 322.185247 171.825926 
L 323.402631 171.080461 
L 323.706977 167.459614 
L 324.011322 167.193379 
L 324.315668 172.331786 
L 325.228706 171.13372 
L 325.533052 168.284967 
L 325.837398 168.870675 
L 326.141744 167.912235 
L 326.44609 165.808947 
L 327.359128 167.033642 
L 327.663474 174.674679 
L 327.96782 172.278547 
L 328.272165 168.338206 
L 328.576511 173.796106 
L 329.489549 169.696029 
L 329.793895 177.230587 
L 330.098241 179.09425 
L 330.402587 189.424302 
L 330.706933 193.897112 
L 331.619971 180.851414 
L 331.924317 181.730007 
L 332.228663 177.416954 
L 332.533008 181.304035 
L 332.837354 186.895043 
L 333.750392 186.735306 
L 334.054738 190.861993 
L 334.359084 192.565919 
L 334.66343 203.801193 
L 334.967776 199.621247 
L 335.880814 203.348592 
L 336.18516 203.055728 
L 336.489506 204.786283 
L 336.793851 195.228305 
L 337.098197 198.929021 
L 338.315581 203.827822 
L 338.619927 196.373132 
L 338.924273 195.361433 
L 339.228619 205.718114 
L 340.141657 209.259093 
L 340.446003 206.250583 
L 340.750349 207.768143 
L 341.054694 199.514749 
L 341.35904 198.103687 
L 342.272078 198.556288 
L 342.576424 191.926952 
L 342.88077 192.03345 
L 343.185116 191.554219 
L 343.489462 192.645787 
L 344.4025 193.49775 
L 344.706846 198.396552 
L 345.011192 199.301753 
L 345.315537 204.120686 
L 345.619883 202.9226 
L 346.532921 203.827822 
L 346.837267 212.666944 
L 347.141613 215.302701 
L 347.750305 218.018347 
L 348.967689 216.234533 
L 349.272035 207.608406 
L 349.880726 202.682995 
L 350.793764 202.496629 
L 351.09811 198.156926 
L 351.706802 198.103687 
L 352.011148 206.144085 
L 352.924186 204.466789 
L 353.228532 201.298543 
L 353.532878 205.052518 
L 353.837223 198.689416 
L 354.141569 196.160136 
L 355.054607 193.098408 
L 355.358953 193.125017 
L 355.967645 196.47963 
L 356.271991 196.532889 
L 357.185029 189.903532 
L 357.489375 191.341223 
L 357.793721 189.344434 
L 358.098066 189.663927 
L 358.402412 190.888623 
L 359.31545 189.291195 
L 359.619796 190.915252 
L 359.924142 199.115387 
L 360.228488 200.899201 
L 360.532834 201.751164 
L 361.445872 201.884271 
L 361.750218 198.343313 
L 362.054564 197.810823 
L 362.358909 202.895991 
L 362.663255 203.827822 
L 363.576293 204.91939 
L 363.880639 209.152595 
L 364.184985 208.061007 
L 364.489331 209.951299 
L 364.793677 205.611616 
L 365.706715 209.738323 
L 366.011061 209.738323 
L 366.315407 201.351802 
L 366.619752 198.662786 
L 366.924098 194.882202 
L 368.141482 198.210185 
L 368.750174 194.802334 
L 369.05452 193.311384 
L 369.967558 190.01003 
L 370.271904 190.196396 
L 370.57625 189.051569 
L 370.880595 189.131438 
L 371.184941 190.622388 
L 372.097979 186.04308 
L 372.402325 186.655418 
L 372.706671 188.146368 
L 373.011017 190.595758 
L 373.315363 184.419023 
L 374.228401 185.883343 
L 374.532747 184.818385 
L 374.837093 185.350854 
L 375.141438 186.256076 
L 375.445784 184.978121 
L 376.358822 187.267775 
L 376.663168 181.170908 
L 376.967514 181.197538 
L 377.27186 181.57027 
L 377.576206 179.839715 
L 378.489244 179.546851 
L 378.79359 178.58839 
L 379.097936 176.165629 
L 379.402281 177.390324 
L 379.706627 176.751357 
L 380.619665 175.207168 
L 380.924011 179.333855 
L 381.228357 176.298736 
L 381.837049 175.020802 
L 382.750087 174.088971 
L 383.054433 174.035712 
L 383.358779 174.940933 
L 383.663124 174.887674 
L 383.96747 174.648069 
L 384.880508 174.541571 
L 385.184854 172.038922 
L 385.4892 170.760988 
L 385.793546 164.610861 
L 386.097892 163.386166 
L 387.01093 163.998524 
L 387.315276 166.341416 
L 387.619622 165.036853 
L 387.923967 166.261548 
L 388.228313 170.095391 
L 389.141351 170.547992 
L 389.445697 175.526641 
L 389.750043 175.366905 
L 390.054389 170.734358 
L 390.358735 169.855766 
L 391.271773 170.122 
L 391.576119 174.754567 
L 391.880465 170.095391 
L 392.489156 173.822716 
L 393.402194 172.864255 
L 393.70654 174.648069 
L 394.010886 167.938844 
L 394.315232 163.812157 
L 394.619578 162.933565 
L 395.532616 163.279668 
L 395.836962 163.093302 
L 396.445653 160.617281 
L 396.749999 158.70036 
L 397.663037 158.487384 
L 397.967383 158.19452 
L 398.271729 159.71208 
L 398.576075 157.795158 
L 398.880421 159.17959 
L 399.793459 158.380887 
L 400.097805 156.277599 
L 400.402151 155.23927 
L 400.706496 155.7185 
L 401.92388 155.585373 
L 402.228226 155.106142 
L 402.532572 154.866537 
L 402.836918 155.399006 
L 403.141264 155.319138 
L 404.054302 151.858028 
L 404.358648 152.044394 
L 404.662994 150.287229 
L 405.271685 151.618423 
L 406.184723 152.044394 
L 406.489069 150.846328 
L 406.793415 147.78458 
L 407.097761 148.343699 
L 407.402107 145.867658 
L 408.619491 145.28193 
L 408.923837 148.663172 
L 409.228182 149.115773 
L 409.532528 148.343699 
L 410.445566 146.400127 
L 410.749912 146.213781 
L 411.358604 144.030605 
L 411.66295 150.074234 
L 412.575988 147.518365 
L 412.880334 142.033815 
L 413.18468 142.699412 
L 414.706409 138.759091 
L 415.010755 137.161643 
L 415.315101 137.960367 
L 415.619447 137.82724 
L 415.923793 135.723972 
L 416.836831 134.87203 
L 417.141177 135.990227 
L 417.445523 133.753792 
L 418.054214 131.943388 
L 419.575944 141.28835 
L 419.88029 141.527996 
L 420.184636 137.80063 
L 421.097674 135.617495 
L 421.40202 141.527996 
L 421.706366 140.78249 
L 422.010711 134.765512 
L 422.315057 137.427898 
L 423.228095 140.196803 
L 423.532441 137.135034 
L 423.836787 137.640894 
L 424.141133 144.163732 
L 424.445479 141.767601 
L 425.358517 143.870868 
L 425.662863 147.837839 
L 425.967209 154.174311 
L 426.271554 149.728131 
L 426.5759 149.967736 
L 427.488938 144.696202 
L 427.793284 145.894308 
L 428.09763 144.909197 
L 428.401976 141.607864 
L 428.706322 140.542885 
L 429.61936 141.394868 
L 430.228052 136.629174 
L 430.532397 137.108425 
L 430.836743 135.617495 
L 431.749781 135.324631 
L 432.054127 135.377849 
L 432.358473 134.259652 
L 432.967165 136.389569 
L 433.880203 137.454507 
L 434.184549 140.090284 
L 434.488895 140.116894 
L 434.79324 139.850679 
L 435.097586 138.572745 
L 436.010624 142.513066 
L 436.31497 140.516276 
L 436.619316 135.750581 
L 436.923662 133.940178 
L 438.141046 134.312911 
L 438.749737 128.908269 
L 439.358429 126.88487 
L 440.271467 127.443949 
L 440.575813 128.748533 
L 441.184505 134.392779 
L 441.488851 132.821981 
L 442.401889 131.437528 
L 442.706235 128.3758 
L 443.01058 132.182993 
L 443.314926 130.479068 
L 443.619272 133.247972 
L 444.53231 135.510976 
L 444.836656 135.564236 
L 445.141002 132.395989 
L 445.445348 131.544047 
L 445.749694 134.392779 
L 446.662732 138.519486 
L 446.967078 138.81235 
L 447.271423 137.640894 
L 447.880115 134.659034 
L 449.097499 130.958318 
L 449.401845 139.025346 
L 449.706191 139.398079 
L 450.010537 142.885798 
L 450.923575 146.559905 
L 451.227921 146.77286 
L 451.532266 148.210571 
L 451.836612 145.601444 
L 452.140958 150.393727 
L 453.053996 150.127493 
L 453.358342 145.814399 
L 453.662688 151.937916 
L 453.967034 151.192431 
L 454.27138 151.858028 
L 455.184418 150.127493 
L 455.488764 145.468316 
L 455.793109 147.544975 
L 456.097455 148.530045 
L 456.401801 152.497015 
L 457.314839 149.488505 
L 457.923531 142.087074 
L 458.227877 138.759091 
L 458.532223 133.567446 
L 459.749607 133.86031 
L 460.053952 133.434318 
L 460.358298 129.733603 
L 460.662644 132.289512 
L 461.880028 140.276671 
L 462.184374 139.105214 
L 462.48872 141.527996 
L 462.793066 139.504556 
L 463.706104 142.379938 
L 464.01045 136.735692 
L 464.314795 136.948688 
L 464.619141 132.049866 
L 464.923487 131.810261 
L 465.836525 133.807051 
L 466.140871 135.138244 
L 466.445217 142.406548 
L 466.749563 143.418267 
L 467.053909 145.78779 
L 467.966947 147.25211 
L 468.271293 156.011364 
L 468.575638 154.200941 
L 468.879984 169.935634 
L 469.18433 170.414864 
L 470.097368 191.234725 
L 470.401714 177.337065 
L 470.70606 191.154857 
L 471.010406 177.736427 
L 472.22779 168.977173 
L 472.532136 171.719448 
L 472.836481 171.506453 
L 473.140827 185.244356 
L 473.445173 190.223026 
L 474.358211 189.983401 
L 474.662557 180.105949 
L 474.966903 175.739637 
L 475.271249 180.531941 
L 475.575595 176.032501 
L 476.488633 167.007013 
L 476.792979 166.15505 
L 477.097324 164.717359 
L 477.40167 168.12521 
L 477.706016 176.351995 
L 478.9234 178.641649 
L 479.227746 169.855766 
L 479.532092 173.183749 
L 479.836438 181.490402 
L 480.749476 179.493612 
L 481.053822 176.644859 
L 481.662513 166.820647 
L 481.966859 166.581042 
L 482.879897 169.802527 
L 483.184243 170.175259 
L 483.792935 189.637298 
L 484.097281 187.826874 
L 485.010319 180.638439 
L 485.314665 177.177328 
L 485.61901 183.56706 
L 485.923356 181.144278 
L 486.227702 188.865203 
L 487.14074 197.438091 
L 488.053778 179.972842 
L 488.358124 182.0495 
L 489.271162 171.746058 
L 489.575508 171.426584 
L 489.879853 168.63107 
L 490.184199 169.270037 
L 490.488545 163.785528 
L 491.401583 170.015502 
L 491.705929 163.758898 
L 492.010275 167.619371 
L 492.314621 166.208289 
L 492.618967 160.058183 
L 493.532005 156.011364 
L 493.836351 162.507573 
L 494.140696 159.17959 
L 494.445042 147.651452 
L 494.749388 147.73132 
L 495.662426 155.984735 
L 495.966772 165.303087 
L 496.575464 153.987945 
L 496.87981 156.037973 
L 497.792848 153.961315 
L 498.097194 149.648262 
L 498.401539 162.214709 
L 498.705885 159.126352 
L 499.010231 152.896357 
L 499.923269 156.091233 
L 500.227615 154.440546 
L 500.836307 165.010223 
L 501.140653 165.356326 
L 502.053691 171.533062 
L 502.358037 172.784387 
L 502.662382 179.786476 
L 503.271074 180.372204 
L 504.184112 171.399955 
L 504.488458 170.494733 
L 504.792804 157.342557 
L 505.09715 157.395796 
L 505.401496 157.68866 
L 506.314534 154.067813 
L 506.61888 153.961315 
L 506.923225 152.70999 
L 507.227571 160.111442 
L 507.531917 154.520414 
L 508.444955 159.419216 
L 509.053647 165.995313 
L 509.357993 164.823857 
L 509.662339 166.394675 
L 510.575377 169.855766 
L 510.879723 160.164681 
L 511.184068 159.525714 
L 511.79276 153.615212 
L 513.010144 153.348978 
L 513.31449 157.768529 
L 513.618836 154.334048 
L 513.923182 155.984735 
L 513.923182 155.984735 
" style="fill:none;stroke:#4c72b0;stroke-linecap:round;stroke-width:1.5;"/>
   </g>
   <g id="line2d_19">
    <path clip-path="url(#pc57bfd4e6a)" d="M 70.186818 104.254586 
L 70.79551 102.449224 
L 71.708548 101.744716 
L 72.012894 100.908081 
L 72.31724 101.524538 
L 72.621586 102.581317 
L 72.925932 100.115489 
L 73.838969 99.939354 
L 74.143315 97.385442 
L 74.447661 98.134025 
L 74.752007 94.963657 
L 75.056353 95.536071 
L 76.273737 91.132789 
L 76.578083 92.982159 
L 76.882429 96.59285 
L 77.186775 92.938151 
L 78.099812 94.391208 
L 78.404158 95.976393 
L 78.708504 96.152528 
L 79.01285 94.127022 
L 79.317196 94.08298 
L 80.230234 96.284621 
L 80.53458 93.510565 
L 80.838926 94.215073 
L 81.143272 98.662398 
L 81.447618 95.359936 
L 82.360655 94.479293 
L 82.665001 95.315894 
L 83.273693 99.146762 
L 83.578039 98.310127 
L 84.795423 101.128259 
L 85.099769 101.480496 
L 85.404115 97.473526 
L 85.708461 98.574347 
L 86.621498 101.172268 
L 87.23019 99.278855 
L 87.838882 90.472289 
L 88.75192 92.717973 
L 89.360612 95.932384 
L 89.664958 92.762015 
L 89.969304 91.396975 
L 90.882341 88.534868 
L 91.186687 92.894108 
L 91.491033 88.31469 
L 91.795379 90.428281 
L 92.099725 86.289184 
L 93.012763 84.263678 
L 93.317109 87.037734 
L 93.621455 83.559137 
L 93.925801 82.678494 
L 95.143184 89.855833 
L 95.44753 88.446783 
L 95.751876 88.138555 
L 96.056222 88.666961 
L 96.360568 87.081777 
L 97.273606 86.377235 
L 97.577952 91.264882 
L 97.882298 92.58588 
L 98.186644 92.58588 
L 98.49099 89.547604 
L 99.404027 92.189567 
L 99.708373 92.145558 
L 100.012719 89.767782 
L 100.317065 91.352966 
L 100.621411 89.635689 
L 101.534449 90.648425 
L 101.838795 92.453787 
L 102.143141 95.139792 
L 102.447487 96.064477 
L 102.751833 96.460757 
L 103.66487 96.416714 
L 103.969216 96.108486 
L 104.273562 96.504799 
L 104.577908 99.587083 
L 104.882254 100.115489 
L 105.795292 99.410948 
L 106.099638 98.70644 
L 106.403984 97.473526 
L 106.70833 98.750482 
L 107.012676 101.920818 
L 107.925713 101.348403 
L 108.230059 102.581317 
L 108.534405 101.040175 
L 108.838751 98.530305 
L 109.143097 98.089983 
L 110.056135 98.750482 
L 110.360481 102.008902 
L 110.664827 102.140995 
L 110.969173 99.983396 
L 111.273519 100.643895 
L 112.186556 99.763219 
L 112.490902 98.574347 
L 112.795248 99.499032 
L 113.099594 102.052944 
L 113.40394 100.335667 
L 114.621324 102.22908 
L 114.92567 105.135229 
L 115.230016 106.940591 
L 115.534362 105.663635 
L 116.447399 104.738949 
L 116.751745 102.71341 
L 117.056091 104.122459 
L 117.360437 106.147999 
L 117.664783 102.801494 
L 118.577821 105.57555 
L 118.882167 107.865276 
L 119.186513 107.468963 
L 119.490859 110.815467 
L 119.795205 111.696111 
L 120.708242 111.652102 
L 121.012588 110.375146 
L 121.316934 108.305598 
L 121.62128 110.507239 
L 121.925626 108.745919 
L 122.838664 108.922055 
L 123.14301 106.896549 
L 123.447356 106.940591 
L 124.056048 102.889545 
L 124.969085 102.625359 
L 125.273431 104.959093 
L 125.577777 104.034408 
L 125.882123 103.902315 
L 127.099507 102.096953 
L 127.403853 101.128259 
L 127.708199 99.278855 
L 128.012545 99.146762 
L 128.316891 102.801494 
L 129.229928 100.731946 
L 129.534274 99.322897 
L 129.83862 102.889545 
L 130.447312 106.059914 
L 131.36035 105.179271 
L 131.664696 106.500236 
L 131.969042 107.116693 
L 132.273388 103.814231 
L 132.577734 106.059914 
L 133.490771 103.858273 
L 133.795117 104.959093 
L 134.099463 104.210543 
L 134.403809 101.128259 
L 134.708155 102.273088 
L 135.621193 102.537308 
L 135.925539 104.518772 
L 136.229885 104.386679 
L 136.534231 100.775988 
L 136.838577 100.952124 
L 137.751614 102.845537 
L 138.05596 100.159531 
L 138.360306 100.996132 
L 138.968998 98.354169 
L 139.882036 97.385442 
L 140.186382 97.95789 
L 140.490728 96.813027 
L 141.09942 98.794491 
L 142.012457 96.19657 
L 142.316803 96.064477 
L 142.621149 95.492029 
L 143.229841 96.548841 
L 144.447225 95.712207 
L 144.751571 94.743479 
L 145.055917 92.762015 
L 145.360263 93.642658 
L 146.2733 93.598616 
L 146.577646 91.793288 
L 147.186338 93.510565 
L 147.490684 95.492029 
L 148.403722 87.918411 
L 148.708068 89.06324 
L 149.012414 85.45255 
L 149.31676 90.208103 
L 149.621105 97.341433 
L 150.534143 98.178034 
L 150.838489 98.178034 
L 151.142835 97.165298 
L 151.447181 98.354169 
L 151.751527 98.618356 
L 152.664565 93.158295 
L 152.968911 98.398212 
L 153.273257 96.989163 
L 153.881948 93.290388 
L 154.794986 90.07601 
L 155.099332 90.384239 
L 156.01237 104.034408 
L 156.925408 106.676371 
L 157.229754 108.481733 
L 157.5341 105.355406 
L 157.838446 105.267322 
L 158.142791 102.845537 
L 159.055829 102.449224 
L 159.664521 95.359936 
L 159.968867 94.831563 
L 160.273213 96.504799 
L 161.186251 96.724976 
L 161.490597 99.895312 
L 161.794943 99.322897 
L 162.099289 102.317131 
L 162.403634 103.109723 
L 163.316672 103.902315 
L 163.621018 99.278855 
L 163.925364 97.209307 
L 164.534056 99.807261 
L 165.447094 99.410948 
L 165.75144 97.95789 
L 166.055786 95.536071 
L 166.360132 98.398212 
L 166.664477 94.523335 
L 167.577515 92.850066 
L 167.881861 89.767782 
L 168.186207 85.45255 
L 168.490553 77.306484 
L 168.794899 81.093309 
L 169.707937 84.924177 
L 170.012283 77.966983 
L 170.316629 75.457113 
L 170.92532 74.620479 
L 171.838358 70.393331 
L 172.142704 68.19169 
L 172.44705 67.531191 
L 172.751396 64.889228 
L 173.055742 69.380561 
L 173.96878 70.965746 
L 174.273126 67.399098 
L 174.577472 67.795377 
L 174.881818 65.241499 
L 175.186163 64.052593 
L 176.099201 63.127908 
L 176.403547 56.346849 
L 177.012239 50.446466 
L 177.316585 51.899558 
L 178.838315 53.704886 
L 179.447006 51.371152 
L 180.360044 52.031651 
L 180.66439 51.415194 
L 180.968736 56.258798 
L 181.577428 62.467409 
L 182.794812 63.480179 
L 183.099158 63.392094 
L 183.403504 62.247265 
L 183.707849 60.265768 
L 184.620887 57.579763 
L 184.925233 57.271534 
L 185.229579 54.849749 
L 185.533925 55.20202 
L 185.838271 59.208989 
L 187.055655 59.869488 
L 187.664347 66.518455 
L 187.968692 66.43037 
L 188.88173 67.487149 
L 189.186076 64.713093 
L 189.490422 67.44314 
L 189.794768 72.947243 
L 190.099114 73.123379 
L 191.012152 70.921737 
L 191.316498 74.532428 
L 191.620844 76.645985 
L 191.92519 75.677257 
L 192.229535 78.187127 
L 193.142573 79.023761 
L 193.446919 73.519658 
L 193.751265 70.30528 
L 194.055611 70.437373 
L 194.359957 73.739835 
L 195.577341 66.738599 
L 196.186033 72.154651 
L 196.490378 70.965746 
L 197.403416 70.569467 
L 197.707762 72.154651 
L 198.012108 75.941477 
L 198.316454 76.998255 
L 198.6208 77.350526 
L 199.533838 74.31225 
L 199.838184 74.840656 
L 200.14253 76.954213 
L 200.446876 72.110609 
L 200.751221 74.092073 
L 201.664259 73.915971 
L 201.968605 76.954213 
L 202.272951 74.004022 
L 202.577297 72.81515 
L 202.881643 73.123379 
L 204.099027 76.293714 
L 204.403373 62.115172 
L 204.707719 63.56823 
L 205.012064 63.56823 
L 206.229448 65.637778 
L 206.533794 68.19169 
L 206.83814 67.090869 
L 207.142486 67.355055 
L 208.35987 64.801177 
L 208.664216 64.977279 
L 208.968562 67.751368 
L 209.272907 72.594973 
L 210.185945 73.5637 
L 210.490291 72.506922 
L 210.794637 70.437373 
L 211.098983 72.903201 
L 212.316367 70.437373 
L 212.620713 68.279741 
L 212.925059 67.883461 
L 213.229405 69.556697 
L 213.53375 72.947243 
L 214.446788 70.041061 
L 214.751134 71.670287 
L 215.05548 72.683023 
L 215.359826 72.771108 
L 215.664172 74.400301 
L 216.57721 72.683023 
L 217.185902 76.954213 
L 217.490248 77.658754 
L 217.794593 80.212666 
L 218.707631 79.816353 
L 219.011977 79.904404 
L 219.316323 79.728303 
L 219.620669 83.162858 
L 219.925015 82.678494 
L 220.838053 78.847626 
L 221.142399 79.111846 
L 221.446745 77.218433 
L 221.751091 77.174391 
L 222.055436 78.187127 
L 223.27282 81.18136 
L 223.577166 79.904404 
L 223.881512 84.395771 
L 224.185858 86.773548 
L 225.403242 89.459553 
L 225.707588 93.994929 
L 226.011934 91.925381 
L 226.316279 87.434047 
L 227.229317 95.183801 
L 227.533663 93.862836 
L 227.838009 91.441017 
L 228.446701 99.983396 
L 229.359739 101.96486 
L 229.664085 100.291625 
L 229.968431 102.625359 
L 230.577122 97.913848 
L 231.49016 96.152528 
L 231.794506 93.950887 
L 232.098852 95.007665 
L 232.403198 99.807261 
L 232.707544 98.001899 
L 233.620582 95.888342 
L 233.924928 94.611386 
L 234.229274 96.108486 
L 234.53362 91.176831 
L 234.837965 90.648425 
L 235.751003 89.81179 
L 236.359695 92.233609 
L 236.664041 90.912611 
L 237.881425 90.648425 
L 238.185771 89.06324 
L 238.490117 84.439814 
L 238.794463 86.81759 
L 239.098808 84.307687 
L 240.011846 85.760778 
L 240.316192 88.446783 
L 240.620538 93.642658 
L 240.924884 91.264882 
L 241.22923 93.950887 
L 242.142268 92.497795 
L 242.446614 88.050504 
L 242.75096 90.428281 
L 243.055306 94.303157 
L 243.359651 93.466523 
L 244.272689 95.315894 
L 244.577035 94.523335 
L 244.881381 94.259115 
L 245.185727 92.673931 
L 245.490073 88.666961 
L 247.011803 97.473526 
L 247.316149 97.473526 
L 247.620494 100.071447 
L 248.533532 97.561577 
L 248.837878 94.831563 
L 249.142224 95.932384 
L 249.44657 92.850066 
L 249.750916 91.617152 
L 250.663954 88.887105 
L 250.9683 90.296154 
L 251.576992 87.742276 
L 251.881337 91.83733 
L 253.403067 87.786284 
L 253.707413 88.887105 
L 254.011759 87.96242 
L 254.924797 86.773548 
L 255.229143 86.861599 
L 255.533489 84.659958 
L 255.837835 86.113049 
L 256.14218 88.534868 
L 257.359564 89.459553 
L 257.66391 89.107283 
L 257.968256 86.113049 
L 258.272602 84.924177 
L 259.489986 88.138555 
L 259.794332 88.446783 
L 260.098678 86.46532 
L 260.403023 88.622919 
L 261.316061 88.887105 
L 262.229099 85.848863 
L 262.533445 84.219636 
L 263.446483 83.515128 
L 263.750829 83.69123 
L 264.055175 83.383002 
L 264.359521 81.44558 
L 264.663866 81.621715 
L 265.576904 81.665724 
L 265.88125 82.986722 
L 266.185596 80.388768 
L 266.489942 81.885902 
L 266.794288 85.804821 
L 267.707326 84.615949 
L 268.011672 83.69123 
L 268.316018 86.46532 
L 268.620364 87.786284 
L 268.924709 85.936914 
L 269.837747 85.320457 
L 270.142093 84.395771 
L 270.750785 86.509328 
L 271.055131 88.490826 
L 271.968169 90.780518 
L 272.272515 87.345963 
L 272.576861 86.113049 
L 272.881207 88.050504 
L 273.185552 85.056271 
L 274.09859 89.503562 
L 274.707282 91.529101 
L 275.011628 91.441017 
L 275.315974 90.252145 
L 276.229012 90.07601 
L 276.533358 89.767782 
L 276.837704 88.622919 
L 277.14205 88.490826 
L 277.446395 88.182597 
L 278.663779 85.144321 
L 278.968125 86.157091 
L 279.272471 85.672727 
L 279.576817 85.71677 
L 280.489855 86.289184 
L 281.098547 82.854629 
L 281.707238 81.005225 
L 282.620276 80.344759 
L 282.924622 83.515128 
L 283.228968 84.351729 
L 283.533314 86.245142 
L 283.83766 89.239376 
L 284.750698 88.138555 
L 285.055044 86.729506 
L 285.35939 87.522098 
L 285.663736 88.887105 
L 285.968081 90.868602 
L 286.881119 90.868602 
L 287.185465 92.145558 
L 287.489811 92.145558 
L 287.794157 88.622919 
L 288.098503 90.604383 
L 289.315887 96.460757 
L 289.620233 96.636892 
L 289.924579 98.045941 
L 291.141962 99.102719 
L 291.446308 98.794491 
L 291.750654 98.089983 
L 292.055 99.983396 
L 293.272384 99.014669 
L 293.57673 97.297391 
L 293.881076 98.882575 
L 294.185421 98.882575 
L 294.489767 98.398212 
L 295.402805 98.134025 
L 295.707151 95.315894 
L 296.011497 97.209307 
L 296.620189 93.598616 
L 297.837573 94.303157 
L 298.446264 91.485059 
L 298.75061 91.132789 
L 299.663648 92.013432 
L 299.967994 91.220873 
L 300.27234 92.145558 
L 300.576686 92.277651 
L 300.881032 90.736509 
L 301.79407 93.422514 
L 302.098416 92.762015 
L 302.402762 94.655428 
L 302.707107 91.396975 
L 303.011453 90.120052 
L 303.924491 90.472289 
L 304.228837 92.629922 
L 304.533183 93.730743 
L 304.837529 94.215073 
L 305.141875 93.290388 
L 306.359259 92.409745 
L 306.96795 95.932384 
L 307.272296 95.712207 
L 308.185334 96.020435 
L 308.48968 93.026201 
L 308.794026 92.806024 
L 309.098372 91.352966 
L 309.402718 90.736509 
L 310.315756 91.396975 
L 310.620102 91.176831 
L 310.924448 91.57311 
L 311.228793 90.868602 
L 311.533139 92.762015 
L 312.446177 93.818794 
L 312.750523 92.806024 
L 313.054869 93.466523 
L 313.359215 93.818794 
L 313.663561 93.202337 
L 314.576599 93.202337 
L 314.880945 91.661195 
L 315.185291 91.176831 
L 315.489636 92.233609 
L 315.793982 92.762015 
L 316.70702 91.441017 
L 317.011366 92.277651 
L 317.315712 96.240613 
L 317.620058 97.69367 
L 317.924404 96.768985 
L 318.837442 97.341433 
L 319.141788 96.94512 
L 319.446134 96.020435 
L 319.750479 97.95789 
L 320.967863 101.480496 
L 321.272209 100.335667 
L 321.576555 97.913848 
L 321.880901 98.354169 
L 322.185247 97.913848 
L 323.098285 96.857069 
L 323.402631 96.108486 
L 323.706977 97.165298 
L 324.011322 96.504799 
L 324.315668 94.127022 
L 325.228706 95.09575 
L 325.533052 94.919614 
L 325.837398 93.642658 
L 326.44609 95.668164 
L 327.359128 95.403978 
L 327.663474 91.705203 
L 327.96782 93.730743 
L 328.272165 93.070244 
L 328.576511 90.648425 
L 329.489549 92.894108 
L 329.793895 90.208103 
L 330.098241 88.666961 
L 330.402587 84.263678 
L 331.619971 88.446783 
L 331.924317 87.96242 
L 332.228663 88.975189 
L 332.533008 87.874369 
L 332.837354 85.276415 
L 333.750392 86.157091 
L 334.054738 83.206866 
L 334.359084 82.854629 
L 334.66343 78.891668 
L 334.967776 78.671491 
L 335.880814 78.671491 
L 336.18516 77.262441 
L 336.489506 78.099076 
L 336.793851 82.017995 
L 337.098197 80.168624 
L 338.315581 80.785081 
L 338.619927 83.118815 
L 338.924273 83.69123 
L 339.228619 78.055034 
L 340.141657 76.381798 
L 340.446003 77.658754 
L 340.750349 77.614712 
L 341.054694 81.44558 
L 341.35904 78.847626 
L 342.272078 79.199897 
L 342.576424 80.476853 
L 342.88077 79.33199 
L 343.185116 77.394535 
L 343.489462 78.231169 
L 344.4025 78.539397 
L 344.706846 76.07357 
L 345.011192 74.532428 
L 345.315537 74.884665 
L 345.619883 74.224199 
L 346.532921 71.273974 
L 346.837267 69.468646 
L 347.141613 68.852189 
L 347.445959 70.129145 
L 347.750305 70.877695 
L 348.967689 69.864925 
L 349.57638 72.19866 
L 349.880726 73.29948 
L 350.793764 72.594973 
L 351.09811 74.664521 
L 352.011148 68.015555 
L 352.924186 69.116375 
L 353.228532 68.676054 
L 353.532878 65.990049 
L 353.837223 68.323783 
L 354.141569 69.68879 
L 355.054607 69.820917 
L 355.358953 71.273974 
L 355.663299 69.468646 
L 355.967645 68.587969 
L 356.271991 66.122142 
L 357.185029 68.543961 
L 357.489375 66.562463 
L 357.793721 68.323783 
L 358.098066 66.298277 
L 358.402412 63.524221 
L 359.31545 63.612272 
L 359.924142 59.032854 
L 360.228488 60.133675 
L 360.532834 58.284304 
L 361.445872 55.157977 
L 361.750218 57.359619 
L 362.054564 57.79994 
L 362.358909 55.862485 
L 362.663255 57.271534 
L 363.576293 56.699119 
L 363.880639 53.264564 
L 364.184985 55.246028 
L 364.489331 53.264564 
L 364.793677 58.284304 
L 365.706715 54.981842 
L 366.011061 53.044387 
L 366.315407 57.271534 
L 366.924098 61.542724 
L 368.141482 58.152211 
L 368.445828 59.341082 
L 368.750174 62.731629 
L 369.05452 63.964543 
L 369.967558 61.939037 
L 370.271904 59.781404 
L 370.880595 62.775637 
L 371.184941 61.806944 
L 372.097979 60.485945 
L 372.402325 56.478942 
L 373.011017 55.20202 
L 373.315363 57.359619 
L 374.532747 52.560023 
L 374.837093 53.616835 
L 375.141438 54.145207 
L 375.445784 54.9378 
L 376.358822 53.396658 
L 376.663168 53.308607 
L 376.967514 50.490508 
L 377.27186 50.050153 
L 378.489244 49.433696 
L 378.79359 50.710652 
L 379.097936 50.710652 
L 379.706627 55.113935 
L 380.619665 53.044387 
L 380.924011 51.547287 
L 381.228357 51.811473 
L 381.532703 54.233292 
L 381.837049 54.101199 
L 382.750087 54.233292 
L 383.358779 59.649311 
L 383.96747 55.20202 
L 384.880508 56.963306 
L 385.4892 54.101199 
L 385.793546 50.578559 
L 386.097892 52.42793 
L 387.01093 52.295837 
L 387.315276 55.994612 
L 387.619622 54.365385 
L 387.923967 54.849749 
L 388.228313 58.460439 
L 389.141351 64.008585 
L 389.445697 60.838216 
L 390.054389 63.083866 
L 390.358735 62.203223 
L 391.576119 59.032854 
L 391.880465 63.656314 
L 392.489156 61.806944 
L 393.402194 60.882225 
L 393.70654 60.133675 
L 394.010886 66.826683 
L 394.315232 67.883461 
L 394.619578 67.839419 
L 395.532616 65.197456 
L 395.836962 72.242702 
L 396.141308 75.809384 
L 396.445653 74.928707 
L 396.749999 78.451347 
L 397.663037 77.130348 
L 397.967383 81.489589 
L 398.271729 83.162858 
L 398.576075 80.741039 
L 398.880421 77.218433 
L 399.793459 77.262441 
L 400.097805 76.381798 
L 400.706496 78.979719 
L 401.92388 77.394535 
L 402.228226 82.810587 
L 402.532572 78.231169 
L 402.836918 79.067803 
L 403.141264 76.998255 
L 404.054302 78.275211 
L 404.358648 77.306484 
L 404.662994 81.753809 
L 405.271685 76.910204 
L 406.184723 75.501122 
L 406.793415 78.319253 
L 407.097761 75.545164 
L 407.402107 76.690027 
L 408.619491 77.702763 
L 408.923837 76.645985 
L 409.228182 79.860396 
L 409.532528 78.495355 
L 410.445566 78.451347 
L 410.749912 76.381798 
L 411.054258 78.891668 
L 411.66295 75.457113 
L 412.575988 77.086306 
L 412.880334 80.036531 
L 413.18468 81.005225 
L 413.793371 85.848863 
L 414.706409 86.024998 
L 415.010755 88.799054 
L 415.315101 86.509328 
L 415.619447 87.830327 
L 415.923793 85.980956 
L 416.836831 85.848863 
L 417.141177 84.924177 
L 417.445523 85.496592 
L 417.749868 83.999459 
L 418.054214 84.087543 
L 419.271598 80.168624 
L 419.575944 81.18136 
L 420.184636 78.803584 
L 421.097674 78.979719 
L 421.40202 79.464083 
L 422.010711 84.395771 
L 422.315057 81.489589 
L 423.228095 82.502359 
L 423.532441 83.471086 
L 423.836787 81.093309 
L 424.141133 77.614712 
L 424.445479 78.58344 
L 425.358517 77.658754 
L 425.662863 76.161621 
L 425.967209 72.639015 
L 426.271554 73.915971 
L 426.5759 74.180157 
L 427.488938 76.337756 
L 427.793284 76.117612 
L 428.09763 76.645985 
L 428.401976 78.759575 
L 428.706322 79.860396 
L 429.61936 79.728303 
L 429.923706 80.917174 
L 430.228052 79.508125 
L 430.532397 80.564903 
L 430.836743 80.785081 
L 431.749781 79.860396 
L 432.358473 83.69123 
L 432.662819 83.647221 
L 432.967165 84.836093 
L 433.880203 84.307687 
L 434.488895 80.43281 
L 434.79324 81.797817 
L 435.097586 78.803584 
L 436.010624 77.790847 
L 436.31497 77.262441 
L 436.619316 78.891668 
L 436.923662 78.58344 
L 438.141046 77.130348 
L 438.445392 75.369029 
L 438.749737 76.557934 
L 439.054083 74.972749 
L 439.358429 74.136115 
L 440.271467 75.32502 
L 440.880159 73.167387 
L 441.184505 71.097839 
L 442.401889 70.261238 
L 442.706235 72.286744 
L 443.01058 70.789611 
L 443.314926 71.714329 
L 443.619272 70.085103 
L 444.53231 69.072333 
L 444.836656 67.839419 
L 445.141002 70.261238 
L 445.445348 69.820917 
L 445.749694 68.808147 
L 446.662732 68.235732 
L 446.967078 67.795377 
L 447.271423 67.751368 
L 447.575769 65.417634 
L 447.880115 65.461643 
L 449.097499 64.801177 
L 449.401845 62.379358 
L 449.706191 64.93327 
L 450.010537 63.260001 
L 450.923575 63.524221 
L 451.532266 61.806944 
L 451.836612 63.524221 
L 452.140958 62.159181 
L 453.053996 63.083866 
L 453.358342 66.474412 
L 453.662688 61.894994 
L 453.967034 60.706123 
L 454.27138 61.014351 
L 455.184418 61.674817 
L 455.488764 62.247265 
L 455.793109 62.4234 
L 456.401801 58.372355 
L 457.314839 60.045624 
L 457.923531 66.562463 
L 458.227877 68.015555 
L 458.532223 70.085103 
L 460.053952 66.694556 
L 460.358298 68.323783 
L 460.662644 63.832449 
L 461.575682 60.573996 
L 462.184374 59.253032 
L 462.48872 61.718859 
L 462.793066 59.957539 
L 463.706104 60.221759 
L 464.01045 58.592532 
L 464.619141 63.083866 
L 464.923487 61.454673 
L 465.836525 62.81968 
L 466.140871 61.014351 
L 466.445217 61.718859 
L 466.749563 60.882225 
L 467.053909 55.68635 
L 467.966947 55.157977 
L 468.271293 51.150974 
L 468.575638 50.798737 
L 468.879984 44.986405 
L 469.18433 50.138238 
L 470.401714 40.53908 
L 470.70606 34.594655 
L 471.010406 41.28763 
L 471.314752 38.161304 
L 472.22779 39.834539 
L 472.532136 37.764991 
L 473.140827 32.216879 
L 473.445173 31.732515 
L 474.358211 32.569116 
L 474.662557 34.41852 
L 474.966903 39.306166 
L 475.271249 36.532077 
L 475.575595 35.079019 
L 476.488633 38.073219 
L 476.792979 34.946892 
L 477.097324 36.576119 
L 477.40167 33.978198 
L 477.706016 29.79506 
L 478.9234 29.178603 
L 479.227746 31.64443 
L 479.836438 27.153097 
L 480.749476 28.562146 
L 481.053822 29.927153 
L 481.358167 29.662967 
L 481.662513 33.097522 
L 481.966859 32.216879 
L 482.879897 28.474095 
L 483.184243 27.857605 
L 483.488589 25.876141 
L 483.792935 21.560909 
L 484.097281 25.435819 
L 485.010319 27.373274 
L 485.314665 30.455559 
L 485.923356 30.367474 
L 486.227702 27.461325 
L 487.14074 24.114821 
L 488.358124 34.022207 
L 489.271162 38.821803 
L 489.575508 37.324669 
L 489.879853 38.865811 
L 490.184199 37.060483 
L 490.488545 39.306166 
L 491.401583 36.355942 
L 491.705929 36.840305 
L 492.010275 36.135798 
L 492.618967 37.897117 
L 493.532005 38.117261 
L 493.836351 34.242385 
L 494.140696 37.588889 
L 494.445042 43.04895 
L 494.749388 40.362945 
L 495.662426 34.330436 
L 495.966772 29.79506 
L 496.271118 30.89588 
L 496.575464 33.05348 
L 496.87981 31.688473 
L 497.792848 31.160067 
L 498.097194 33.229615 
L 498.401539 29.178603 
L 499.010231 33.537843 
L 499.923269 30.675736 
L 500.227615 31.292193 
L 500.531961 29.618924 
L 500.836307 28.694239 
L 501.140653 30.411517 
L 502.053691 29.134561 
L 502.662382 26.140327 
L 503.271074 29.090552 
L 504.184112 29.04651 
L 504.488458 29.927153 
L 504.792804 32.613158 
L 505.09715 33.625928 
L 505.401496 31.600422 
L 506.314534 31.864608 
L 506.61888 33.05348 
L 507.227571 28.650197 
L 507.531917 31.820566 
L 508.444955 30.235381 
L 509.053647 26.184369 
L 509.357993 26.580682 
L 509.662339 24.334999 
L 510.575377 22.749814 
L 510.879723 26.976962 
L 511.184068 28.474095 
L 511.488414 27.901647 
L 511.79276 29.79506 
L 513.010144 30.367474 
L 513.31449 27.461325 
L 513.618836 26.888911 
L 513.923182 25.259684 
L 513.923182 25.259684 
" style="fill:none;stroke:#dd8452;stroke-linecap:round;stroke-width:1.5;"/>
   </g>
   <g id="patch_3">
    <path d="M 48 323.14 
L 48 7.2 
" style="fill:none;stroke:#ffffff;stroke-linecap:square;stroke-linejoin:miter;stroke-width:1.25;"/>
   </g>
   <g id="patch_4">
    <path d="M 48 323.14 
L 536.11 323.14 
" style="fill:none;stroke:#ffffff;stroke-linecap:square;stroke-linejoin:miter;stroke-width:1.25;"/>
   </g>
   <g id="text_19">
    <!-- IEF -->
    <g style="fill:#dd8452;" transform="translate(495.966772 65.668621)scale(0.12 -0.12)">
     <defs>
      <path d="M 1875 4331 
L 1875 800 
L 2516 800 
L 2516 325 
L 684 325 
L 684 800 
L 1325 800 
L 1325 4331 
L 684 4331 
L 684 4806 
L 2516 4806 
L 2516 4331 
L 1875 4331 
z
" id="IPAGothic-49" transform="scale(0.015625)"/>
      <path d="M 447 4806 
L 2694 4806 
L 2694 4319 
L 959 4319 
L 959 2894 
L 2463 2894 
L 2463 2419 
L 959 2419 
L 959 813 
L 2822 813 
L 2822 325 
L 447 325 
L 447 4806 
z
" id="IPAGothic-45" transform="scale(0.015625)"/>
      <path d="M 447 4806 
L 2700 4806 
L 2700 4306 
L 972 4306 
L 972 2894 
L 2469 2894 
L 2469 2406 
L 972 2406 
L 972 325 
L 447 325 
L 447 4806 
z
" id="IPAGothic-46" transform="scale(0.015625)"/>
     </defs>
     <use xlink:href="#IPAGothic-49"/>
     <use x="50" xlink:href="#IPAGothic-45"/>
     <use x="100" xlink:href="#IPAGothic-46"/>
    </g>
   </g>
   <g id="text_20">
    <!-- SPY -->
    <g style="fill:#4c72b0;" transform="translate(495.966772 220.01248)scale(0.12 -0.12)">
     <defs>
      <path d="M 831 1613 
Q 869 666 1650 666 
Q 1931 666 2119 806 
Q 2381 1009 2381 1375 
Q 2381 1769 2053 2069 
Q 1828 2269 1281 2584 
Q 416 3094 416 3800 
Q 416 4247 697 4556 
Q 1038 4934 1606 4934 
Q 2666 4934 2809 3659 
L 2284 3659 
Q 2263 3953 2163 4128 
Q 1963 4481 1606 4481 
Q 1238 4481 1056 4231 
Q 928 4053 928 3841 
Q 928 3334 1753 2853 
Q 2263 2556 2534 2284 
Q 2900 1928 2900 1381 
Q 2900 866 2572 550 
Q 2222 197 1666 197 
Q 969 197 581 709 
Q 313 1066 294 1613 
L 831 1613 
z
" id="IPAGothic-53" transform="scale(0.015625)"/>
      <path d="M 447 4806 
L 1569 4806 
Q 2122 4806 2466 4550 
Q 2919 4200 2919 3544 
Q 2919 2753 2278 2409 
Q 1975 2244 1581 2244 
L 959 2244 
L 959 325 
L 447 325 
L 447 4806 
z
M 959 4319 
L 959 2731 
L 1528 2731 
Q 2394 2731 2394 3538 
Q 2394 4009 2009 4209 
Q 1803 4319 1528 4319 
L 959 4319 
z
" id="IPAGothic-50" transform="scale(0.015625)"/>
      <path d="M 194 4806 
L 769 4806 
L 1603 2669 
L 2434 4806 
L 3009 4806 
L 1866 2081 
L 1866 325 
L 1341 325 
L 1341 2081 
L 194 4806 
z
" id="IPAGothic-59" transform="scale(0.015625)"/>
     </defs>
     <use xlink:href="#IPAGothic-53"/>
     <use x="50" xlink:href="#IPAGothic-50"/>
     <use x="100" xlink:href="#IPAGothic-59"/>
    </g>
   </g>
  </g>
 </g>
 <defs>
  <clipPath id="pc57bfd4e6a">
   <rect height="315.94" width="488.11" x="48" y="7.2"/>
  </clipPath>
 </defs>
</svg>
